<svg width="0" height="0" class="hidden">
  <symbol fill="none" xmlns="http://www.w3.org/2000/svg" viewBox="0 0 24 24" id="apps">
    <path d="M4 8h4V4H4v4zm6 12h4v-4h-4v4zm-6 0h4v-4H4v4zm0-6h4v-4H4v4zm6 0h4v-4h-4v4zm6-10v4h4V4h-4zm-6 4h4V4h-4v4zm6 6h4v-4h-4v4zm0 6h4v-4h-4v4z" fill="currentColor"></path>
  </symbol>
  <symbol fill="none" xmlns="http://www.w3.org/2000/svg" viewBox="0 0 24 24" id="bag">
    <path d="M21.205 20.746L19.83 5.271a.661.661 0 00-.658-.604h-2.827A4.745 4.745 0 0011.605 0a4.745 4.745 0 00-4.741 4.667H4.037a.658.658 0 00-.658.604L2.005 20.746c0 .02-.005.04-.005.059C2 22.567 3.615 24 5.602 24h12.005c1.988 0 3.603-1.433 3.603-3.195 0-.02 0-.04-.005-.059zm-9.6-19.42a3.42 3.42 0 013.416 3.341H8.189a3.42 3.42 0 013.416-3.342zm6.002 21.349H5.602c-1.246 0-2.257-.825-2.277-1.84L4.64 5.997h2.22V8.01a.66.66 0 00.662.662.66.66 0 00.663-.662V5.998h6.837V8.01a.66.66 0 00.662.662.66.66 0 00.663-.662V5.998h2.218l1.32 14.836c-.019 1.016-1.035 1.84-2.277 1.84z" fill="currentColor"></path>
  </symbol>
  <symbol fill="none" xmlns="http://www.w3.org/2000/svg" viewBox="0 0 24 24" id="bookmark">
    <path d="M7 2C5.355 2 4 3.355 4 5v14c0 1.645 1.355 3 3 3h13v-2H7c-.565 0-1-.435-1-1s.435-1 1-1h13V2H7zm0 2h3v8.123l1.574-1.103L13 10.018l3 2.105V4h2v12H7c-.352 0-.685.074-1 .188V5c0-.565.435-1 1-1zm5 0h2v4.277l-1-.7-1 .7V4z" fill="currentColor"></path>
  </symbol>
  <symbol fill="none" xmlns="http://www.w3.org/2000/svg" viewBox="0 0 24 24" id="bookmark2">
    <path d="M6.01 2c-1.096 0-2 .903-2 1.998L4 22l8-3 8 3V4c0-1.093-.907-2-2-2H6.01zm0 2H18v15.113l-6-2.25-5.998 2.25L6.01 4z" fill="currentColor"></path>
  </symbol>
  <symbol fill="none" xmlns="http://www.w3.org/2000/svg" viewBox="0 0 24 24" id="briefcase">
    <path d="M21.161 4.629h-4.454v-.795a1.962 1.962 0 00-1.96-1.959H9.248a1.961 1.961 0 00-1.959 1.96v.79H2.834h0c-1.09.004-1.959.887-1.959 2.13V18.67c0 .914.884 1.787 1.96 1.787h18.33c1.071 0 1.96-.868 1.96-1.787V6.756v0c-.005-1.243-.874-2.127-1.964-2.127zm.752 13.786v0a.79.79 0 01-.79.79H2.877a.79.79 0 01-.79-.79v-6.122c.241.11.507.173.79.173h7.08v1.077c0 .323.262.585.584.585h2.922a.585.585 0 00.585-.585v-1.077h7.079c.284 0 .55-.067.79-.175l-.004 6.124zM8.544 3.92a.79.79 0 01.79-.79h5.327a.79.79 0 01.79.79v.704H8.544V3.92zm2.664 8.957v-1.412h1.584v1.412h-1.584zm10.619-2.453a.79.79 0 01-.79.79h-6.994v-.42a.585.585 0 00-.584-.585h-2.922a.585.585 0 00-.584.585v.42h-6.99a.79.79 0 01-.79-.79v-3.75a.79.79 0 01.79-.79h18.074a.79.79 0 01.79.79v3.75z" fill="currentColor" stroke="currentColor" stroke-width=".25"></path>
  </symbol>
  <symbol fill="none" xmlns="http://www.w3.org/2000/svg" viewBox="0 0 21 21" id="calendar_today">
    <path d="M17.5 2.625h-.875V.875h-1.75v1.75h-8.75V.875h-1.75v1.75H3.5c-.962 0-1.75.788-1.75 1.75v14c0 .962.788 1.75 1.75 1.75h14c.962 0 1.75-.788 1.75-1.75v-14c0-.962-.788-1.75-1.75-1.75zm0 15.75h-14V7h14v11.375z" fill="currentColor"></path>
  </symbol>
  <symbol fill="none" xmlns="http://www.w3.org/2000/svg" viewBox="0 0 19 19" id="charts">
    <path d="M16.889 0H2.11C.95 0 0 .95 0 2.111V16.89C0 18.05.95 19 2.111 19H16.89c1.16 0 2.11-.95 2.11-2.111V2.11C19 .95 18.05 0 16.889 0zM6.333 14.778h-2.11v-7.39h2.11v7.39zm4.223 0H8.444V4.222h2.112v10.556zm4.222 0h-2.111v-4.222h2.11v4.222z" fill="currentColor"></path>
  </symbol>
  <symbol fill="none" xmlns="http://www.w3.org/2000/svg" viewBox="0 0 24 24" id="contact_support">
    <path d="M11.5 2C6.81 2 3 5.81 3 10.5c0 4.69 3.81 8.5 8.5 8.5h.5v3c4.86-2.34 8-7 8-11.5C20 5.81 16.19 2 11.5 2zm1 14.5h-2v-2h2v2zm0-3.5h-2c0-3.25 3-3 3-5 0-1.1-.9-2-2-2s-2 .9-2 2h-2c0-2.21 1.79-4 4-4s4 1.79 4 4c0 2.5-3 2.75-3 5z" fill="currentColor"></path>
  </symbol>
  <symbol fill="none" xmlns="http://www.w3.org/2000/svg" viewBox="0 0 24 24" id="edit">
    <path d="M18.414 2a.997.997 0 00-.707.293l-2 2-1.414 1.414L3 17v4h4L21.707 6.293a.999.999 0 000-1.414l-2.586-2.586A.997.997 0 0018.414 2zm0 2.414l1.172 1.172-1.293 1.293-1.172-1.172 1.293-1.293zm-2.707 2.707l1.172 1.172L6.172 19H5v-1.172L15.707 7.121z" fill="currentColor"></path>
  </symbol>
  <symbol fill="none" xmlns="http://www.w3.org/2000/svg" viewBox="0 0 24 24" id="exit_to_app">
    <path d="M10.09 15.59L11.5 17l5-5-5-5-1.41 1.41L12.67 11H3v2h9.67l-2.58 2.59zM19 3H5a2 2 0 00-2 2v4h2V5h14v14H5v-4H3v4a2 2 0 002 2h14c1.1 0 2-.9 2-2V5c0-1.1-.9-2-2-2z" fill="currentColor"></path>
  </symbol>
  <symbol fill="none" xmlns="http://www.w3.org/2000/svg" viewBox="0 0 24 24" id="folder">
    <path d="M20.145 4.88h-5.686a2.51 2.51 0 01-2.509-2.508.67.67 0 00-.673-.674H3.855A3.861 3.861 0 000 5.554v12.892a3.861 3.861 0 003.855 3.856h16.29A3.861 3.861 0 0024 18.446V8.731c0-2.125-1.73-3.85-3.855-3.85zm2.508 13.561a2.51 2.51 0 01-2.508 2.51H3.855a2.51 2.51 0 01-2.508-2.51V5.554a2.51 2.51 0 012.508-2.51h6.808a3.862 3.862 0 003.796 3.183h5.686a2.51 2.51 0 012.508 2.509v9.705z" fill="currentColor"></path>
  </symbol>
  <symbol fill="none" xmlns="http://www.w3.org/2000/svg" viewBox="0 0 21 21" id="gears">
    <path d="M16.747 11.319c.032-.263.053-.536.053-.819a5.17 5.17 0 00-.063-.819l1.775-1.386a.434.434 0 00.104-.536l-1.68-2.908a.427.427 0 00-.514-.189l-2.09.84a6.152 6.152 0 00-1.417-.819L12.6 2.457a.42.42 0 00-.42-.357H8.82a.409.409 0 00-.41.357l-.315 2.226c-.514.21-.987.493-1.417.819l-2.09-.84a.415.415 0 00-.514.189l-1.68 2.908a.407.407 0 00.105.536l1.774 1.386a5.278 5.278 0 00-.073.819c0 .273.021.556.063.819l-1.775 1.386a.434.434 0 00-.105.536l1.68 2.908c.105.189.326.252.515.189l2.09-.84c.44.336.902.609 1.417.819l.315 2.226c.042.21.21.357.42.357h3.36c.21 0 .389-.147.41-.357l.315-2.226c.514-.21.987-.494 1.417-.819l2.09.84c.189.073.409 0 .514-.189l1.68-2.909a.407.407 0 00-.105-.535l-1.754-1.386zM10.5 13.65a3.16 3.16 0 01-3.15-3.15 3.16 3.16 0 013.15-3.15 3.16 3.16 0 013.15 3.15 3.16 3.16 0 01-3.15 3.15z" fill="currentColor"></path>
  </symbol>
  <symbol fill="none" xmlns="http://www.w3.org/2000/svg" viewBox="0 0 30 30" id="home">
    <g clip-path="url(#clip0)">
      <path d="M26.778 14.332l-11.294-10.1a.318.318 0 00-.064-.049.668.668 0 00-.903-.014l-11.294 10.1a.668.668 0 00.889.997l2.033-1.822V25.22c0 .924.75 1.68 1.678 1.68h3.564c.869 0 1.575-.707 1.575-1.575v-5.988c0-.134.108-.242.242-.242h3.598c.134 0 .242.108.242.242v5.988c0 .868.706 1.574 1.575 1.574h3.564c.938 0 1.678-.923 1.678-2.103V13.508l2.034 1.822a.668.668 0 00.943-.054.68.68 0 00-.06-.944zm-4.255 3.293v7.162c0 .48-.237.77-.345.77h-3.564a.242.242 0 01-.242-.241v-5.978c0-.869-.706-1.575-1.575-1.575H13.2c-.87 0-1.575.706-1.575 1.575v5.988a.242.242 0 01-.242.241H7.818a.347.347 0 01-.345-.345V12.249l7.493-6.693 7.557 6.757v5.312z" fill="currentColor"></path>
    </g>
    <defs>
      <clipPath id="clip0">
        <path fill="#fff" transform="translate(3 4)" d="M0 0h24v24H0z"></path>
      </clipPath>
    </defs>
  </symbol>
  <symbol fill="none" xmlns="http://www.w3.org/2000/svg" viewBox="0 0 24 24" id="inactive">
    <path d="M2.583 6.604a2.586 2.586 0 002.583-2.583 2.59 2.59 0 00-2.583-2.588A2.586 2.586 0 000 4.016a2.594 2.594 0 002.583 2.588zm0-3.97c.764 0 1.382.623 1.382 1.382 0 .76-.623 1.382-1.382 1.382-.76 0-1.382-.622-1.382-1.382 0-.76.622-1.382 1.382-1.382zm0 11.949A2.586 2.586 0 005.166 12a2.583 2.583 0 10-2.583 2.583zm0-3.965c.764 0 1.382.622 1.382 1.382 0 .76-.623 1.382-1.382 1.382a1.383 1.383 0 010-2.764zm0 11.948a2.586 2.586 0 002.583-2.582A2.586 2.586 0 002.583 17.4 2.59 2.59 0 000 19.984a2.59 2.59 0 002.583 2.582zm0-3.97a1.384 1.384 0 010 2.764c-.76 0-1.382-.622-1.382-1.381 0-.76.622-1.382 1.382-1.382zM8.62 4.62h14.777a.602.602 0 100-1.207H8.621a.602.602 0 100 1.206zm0 7.983h14.777a.602.602 0 100-1.206H8.621a.602.602 0 100 1.206zm0 7.978h14.777a.602.602 0 100-1.205H8.621a.602.602 0 100 1.205z" fill="currentColor"></path>
  </symbol>
  <symbol fill="none" xmlns="http://www.w3.org/2000/svg" viewBox="0 0 24 24" id="more">
    <path d="M12 14a2 2 0 100-4 2 2 0 000 4zm0 6a2 2 0 100-4 2 2 0 000 4zm0-12a2 2 0 100-4 2 2 0 000 4z" fill="currentColor"></path>
  </symbol>
  <symbol fill="none" xmlns="http://www.w3.org/2000/svg" viewBox="0 0 24 24" id="orders">
    <g clip-path="url(#clip1)">
      <path d="M21.994 4.88h-4.87V4c0-1.17-.952-2.126-2.127-2.126H8.998c-1.17 0-2.126.95-2.126 2.126v.873H2.001C.819 4.88-.125 5.837-.125 7.188v12.996c0 .99.959 1.939 2.126 1.939H22c1.162 0 2.126-.944 2.126-1.939V7.188v0c-.005-1.35-.949-2.309-2.13-2.309zm.831 15.027v0a.874.874 0 01-.873.874H2.048a.874.874 0 01-.873-.874v-6.696c.266.123.56.195.873.195h7.734v1.187c0 .345.281.626.627.626h3.187c.345 0 .626-.28.626-.626v-1.187h7.735c.314 0 .608-.075.873-.197l-.005 6.698zM8.22 4.095c0-.484.393-.873.873-.873h5.811c.484 0 .874.393.874.873v.78H8.219v-.78zm2.905 9.782v-1.563h1.752v1.563h-1.752zm11.607-2.687a.874.874 0 01-.873.874h-7.64v-.47a.627.627 0 00-.627-.627h-3.187a.627.627 0 00-.626.626v.47H2.142a.874.874 0 01-.873-.873V7.1c0-.484.393-.873.873-.873h19.716c.484 0 .873.393.873.873v4.091z" fill="currentColor" stroke="currentColor" stroke-width=".25"></path>
    </g>
    <defs>
      <clipPath id="clip1">
        <path fill="#fff" d="M0 0h24v24H0z"></path>
      </clipPath>
    </defs>
  </symbol>
  <symbol fill="none" xmlns="http://www.w3.org/2000/svg" viewBox="0 0 24 24" id="people">
    <path d="M16 11c1.66 0 2.99-1.34 2.99-3S17.66 5 16 5c-1.66 0-3 1.34-3 3s1.34 3 3 3zm-8 0c1.66 0 2.99-1.34 2.99-3S9.66 5 8 5C6.34 5 5 6.34 5 8s1.34 3 3 3zm0 2c-2.33 0-7 1.17-7 3.5V19h14v-2.5c0-2.33-4.67-3.5-7-3.5zm8 0c-.29 0-.62.02-.97.05 1.16.84 1.97 1.97 1.97 3.45V19h6v-2.5c0-2.33-4.67-3.5-7-3.5z" fill="currentColor"></path>
  </symbol>
  <symbol fill="none" xmlns="http://www.w3.org/2000/svg" viewBox="0 0 24 24" id="plus">
    <path d="M12 2C6.489 2 2 6.489 2 12s4.489 10 10 10 10-4.489 10-10S17.511 2 12 2zm0 2c4.43 0 8 3.57 8 8s-3.57 8-8 8-8-3.57-8-8 3.57-8 8-8zm-1 3v4H7v2h4v4h2v-4h4v-2h-4V7h-2z" fill="currentColor"></path>
  </symbol>
  <symbol fill="none" xmlns="http://www.w3.org/2000/svg" viewBox="0 0 24 24" id="refresh">
    <path d="M7.16 3l1.602 2H18c.551 0 1 .448 1 1v9h-3l4 5 4-5h-3V6c0-1.654-1.346-3-3-3H7.16zM4 4L0 9h3v9c0 1.654 1.346 3 3 3h10.84l-1.602-2H6c-.551 0-1-.448-1-1V9h3L4 4z" fill="currentColor"></path>
  </symbol>
  <symbol fill="none" xmlns="http://www.w3.org/2000/svg" viewBox="0 0 24 24" id="settings">
    <path d="M9.666 2l-.49 2.523a7.951 7.951 0 00-2.244 1.291L4.508 4.98 2.172 9.02l1.941 1.688A8.005 8.005 0 004 12c0 .409.04.833.113 1.291v.002l-1.941 1.688 2.336 4.04 2.422-.834a7.953 7.953 0 002.246 1.29L9.666 22h4.668l.49-2.523a7.942 7.942 0 002.244-1.291l2.424.835 2.334-4.04-1.94-1.69c.075-.458.114-.883.114-1.291a8.01 8.01 0 00-.113-1.29v-.001l1.941-1.69-2.336-4.04-2.422.833a7.951 7.951 0 00-2.246-1.289L14.334 2H9.666zm1.649 2h1.37l.39 2 1.042.395a5.94 5.94 0 011.684.964l.863.707 1.922-.66.686 1.186-1.536 1.336.176 1.1v.001c.061.375.088.69.088.971s-.027.596-.088.97l-.178 1.1 1.535 1.336-.685 1.188-1.92-.662-.865.709a5.932 5.932 0 01-1.682.965h-.002L13.072 18l-.388 2h-1.37l-.388-2-1.043-.395a5.943 5.943 0 01-1.684-.964l-.863-.707-1.922.66-.685-1.186 1.537-1.338-.178-1.095v-.002A6.16 6.16 0 016 12c0-.281.027-.596.088-.97l.178-1.1-1.537-1.336.685-1.188 1.922.662.863-.709a5.941 5.941 0 011.684-.964L10.926 6l.389-2zM12 8c-2.197 0-4 1.803-4 4s1.803 4 4 4 4-1.803 4-4-1.803-4-4-4zm0 2c1.111 0 2 .889 2 2s-.889 2-2 2-2-.889-2-2 .889-2 2-2z" fill="currentColor"></path>
  </symbol>
  <symbol fill="none" xmlns="http://www.w3.org/2000/svg" viewBox="0 0 24 24" id="table_chart">
    <path d="M9 10.02h5V21H9V10.02zM16 21h3c1.1 0 2-.9 2-2v-9h-5v11zm3-18H4c-1.1 0-2 .9-2 2v3h19V5c0-1.1-.9-2-2-2zM2 19c0 1.1.9 2 2 2h3V10H2v9z" fill="currentColor"></path>
  </symbol>
  <symbol fill="none" xmlns="http://www.w3.org/2000/svg" viewBox="0 0 23 23" id="toys">
    <path d="M11.5 11.5c0-2.875 2.396-5.27 5.27-5.27 2.876 0 5.272 2.395 5.272 5.27H11.5zm0 0c0 2.875-2.396 5.27-5.27 5.27-2.876 0-5.272-2.395-5.272-5.27H11.5zm0 0c-2.875 0-5.27-2.396-5.27-5.27C6.23 3.353 8.624.957 11.5.957V11.5zm0 0c2.875 0 5.27 2.396 5.27 5.27 0 2.876-2.395 5.272-5.27 5.272V11.5z" fill="currentColor"></path>
  </symbol>
  <symbol fill="none" xmlns="http://www.w3.org/2000/svg" viewBox="0 0 24 24" id="user_circle">
    <path d="M11.99 2c-5.52 0-10 4.48-10 10s4.48 10 10 10 10-4.48 10-10-4.48-10-10-10zm3.61 6.34c1.07 0 1.93.86 1.93 1.93 0 1.07-.86 1.93-1.93 1.93-1.07 0-1.93-.86-1.93-1.93-.01-1.07.86-1.93 1.93-1.93zm-6-1.58c1.3 0 2.36 1.06 2.36 2.36 0 1.3-1.06 2.36-2.36 2.36-1.3 0-2.36-1.06-2.36-2.36 0-1.31 1.05-2.36 2.36-2.36zm0 9.13v3.75c-2.4-.75-4.3-2.6-5.14-4.96 1.05-1.12 3.67-1.69 5.14-1.69.53 0 1.2.08 1.9.22-1.64.87-1.9 2.02-1.9 2.68zM11.99 20c-.27 0-.53-.01-.79-.04v-4.07c0-1.42 2.94-2.13 4.4-2.13 1.07 0 2.92.39 3.84 1.15-1.17 2.97-4.06 5.09-7.45 5.09z" fill="currentColor"></path>
  </symbol>
  <symbol viewBox="0 0 24 24" fill="none" xmlns="http://www.w3.org/2000/svg" id="vertical_three_dots">
      <path d="M12 14C13.1046 14 14 13.1046 14 12C14 10.8954 13.1046 10 12 10C10.8954 10 10 10.8954 10 12C10 13.1046 10.8954 14 12 14Z" fill="#D0C9D6"/>
      <path d="M12 20C13.1046 20 14 19.1046 14 18C14 16.8954 13.1046 16 12 16C10.8954 16 10 16.8954 10 18C10 19.1046 10.8954 20 12 20Z" fill="#D0C9D6"/>
      <path d="M12 8C13.1046 8 14 7.10457 14 6C14 4.89543 13.1046 4 12 4C10.8954 4 10 4.89543 10 6C10 7.10457 10.8954 8 12 8Z" fill="#D0C9D6"/>
   </symbol> 
</svg>