<svg version="1.1" xmlns="http://www.w3.org/2000/svg" xmlns:xlink="http://www.w3.org/1999/xlink">

  <symbol id="dashboard" viewBox="0 0 24 24" fill="currentColor">
    <path d="M21.375 0H2.625C1.20337 0 0.046875 1.15649 0.046875 2.57812V17.2031C0.046875 18.6248 1.20337 19.7812 2.625 19.7812H8.48438V22.5938H6.375C5.98663 22.5938 5.67188 22.9085 5.67188 23.2969C5.67188 23.6852 5.98663 24 6.375 24H17.625C18.0134 24 18.3281 23.6852 18.3281 23.2969C18.3281 22.9085 18.0134 22.5938 17.625 22.5938H15.5156V19.7812H21.375C22.7966 19.7812 23.9531 18.6248 23.9531 17.2031V2.57812C23.9531 1.15649 22.7966 0 21.375 0ZM1.45312 2.57812C1.45312 1.93195 1.97882 1.40625 2.625 1.40625H21.375C22.0212 1.40625 22.5469 1.93195 22.5469 2.57812V14.1562H1.45312V2.57812ZM14.1094 22.5938H9.89062V19.7812H14.1094V22.5938ZM22.5469 17.2031C22.5469 17.8493 22.0212 18.375 21.375 18.375H2.625C1.97882 18.375 1.45312 17.8493 1.45312 17.2031V15.5625H22.5469V17.2031Z" fill="currentColor"/>
  </symbol>

  <symbol id="store" viewBox="0 0 24 24" fill="currentColor">
    <path fill='currentColor' fill-rule='nonzero' d='M21.574 6.124a.648.648 0 0 0-.504-.276l-12.524-.54a.648.648 0 1 0-.056 1.294l11.676.503-2.295 7.163H7.654L5.808 4.218a.648.648 0 0 0-.4-.486L2.385 2.545a.648.648 0 0 0-.474 1.206l2.688 1.056 1.878 10.226c.057.308.325.53.638.53h.311l-.711 1.977a.539.539 0 0 0 .507.723h.5c-.31.344-.5.797-.5 1.295 0 1.072.872 1.944 1.944 1.944a1.946 1.946 0 0 0 1.943-1.944c0-.498-.19-.951-.499-1.295h4.237c-.309.344-.499.797-.499 1.295 0 1.072.872 1.944 1.944 1.944a1.946 1.946 0 0 0 1.943-1.944c0-.498-.19-.951-.499-1.295h.607a.54.54 0 1 0 0-1.08H7.991l.582-1.62h9.77a.648.648 0 0 0 .617-.45l2.699-8.42a.646.646 0 0 0-.085-.569zM9.166 20.422a.865.865 0 1 1 .002-1.729.865.865 0 0 1-.002 1.73zm7.126 0a.865.865 0 1 1 .001-1.729.865.865 0 0 1-.001 1.73z' />
  </symbol>

  <symbol id="funnel" viewBox="0 0 24 24" fill="currentColor">
    <path d="M3 7h18M6 12h12m-9 5h6" fill="none" fill-rule="evenodd" stroke="currentColor" stroke-linecap="round" stroke-width="1.2"/>
  </symbol>

  <symbol id="triggers" viewBox="0 0 22 22" fill="currentColor">
    <path fill="currentColor" d="M18.24 5.58l-1.82-1.82a.88.88 0 00-1.22 0L1.74 17.22l-.02.02-1.47 1.47a.86.86 0 000 1.22l1.82 1.82c.17.17.39.25.61.25.22 0 .44-.08.61-.25l7.2-7.2.07-.05 7.68-7.7a.86.86 0 000-1.22zm-8.02 8.03a.27.27 0 00-.06.05l-7.47 7.47-1.82-1.82 1.69-1.69.01-.01 9.97-9.97 1.82 1.82-4.14 4.15zm4.75-4.75l-1.82-1.82 2.66-2.66 1.82 1.82-2.66 2.66zM19.85 1.48c.24 0 .43-.19.43-.43V.43a.43.43 0 00-.43-.43.43.43 0 00-.43.43v.62c0 .24.19.43.43.43zm0 0M19.85 4.3c.24 0 .43-.19.43-.43v-.62a.43.43 0 00-.43-.43.43.43 0 00-.43.43v.62c0 .23.19.43.43.43zm0 0M20.95 2.58h.62c.24 0 .43-.19.43-.43a.43.43 0 00-.43-.43h-.62a.43.43 0 00-.43.43c0 .24.19.43.43.43zm0 0M18.13 2.58h.62c.24 0 .43-.19.43-.43a.43.43 0 00-.43-.43h-.62a.43.43 0 00-.43.43c0 .24.2.43.43.43zm0 0M5.88 1.48c.24 0 .43-.19.43-.43V.43c0-.24-.2-.43-.43-.43a.43.43 0 00-.43.43v.62c0 .24.19.43.43.43zm0 0M5.88 4.3c.24 0 .43-.19.43-.43v-.62a.43.43 0 00-.43-.43.43.43 0 00-.43.43v.62c0 .23.19.43.43.43zm0 0M6.98 2.58h.62c.24 0 .43-.19.43-.43a.43.43 0 00-.43-.43h-.62a.43.43 0 00-.43.43c0 .24.19.43.43.43zm0 0M4.16 2.58h.62c.24 0 .43-.19.43-.43a.43.43 0 00-.43-.43h-.62a.43.43 0 00-.43.43c0 .24.19.43.43.43zm0 0M17.53 15.38a.43.43 0 00-.43.43v.62c0 .24.19.43.43.43s.43-.19.43-.43v-.62a.43.43 0 00-.43-.43zm0 0M17.53 18.2a.43.43 0 00-.43.43v.62c0 .24.19.43.43.43s.43-.19.43-.43v-.62a.43.43 0 00-.43-.43zm0 0M19.25 17.1h-.62c-.24 0-.43.19-.43.43s.19.43.43.43h.62c.24 0 .43-.19.43-.43s-.19-.43-.43-.43zm0 0M16.43 17.1h-.62c-.24 0-.43.19-.43.43s.19.43.43.43h.62c.24 0 .43-.19.43-.43s-.19-.43-.43-.43zm0 0M20.71 8.85a1.3 1.3 0 000 2.58 1.3 1.3 0 000-2.58zm0 1.72c-.24 0-.43-.19-.43-.43s.19-.43.43-.43.43.19.43.43-.19.43-.43.43zm0 0M11 19.42A1.3 1.3 0 0011 22a1.3 1.3 0 000-2.58zm0 1.72c-.24 0-.43-.19-.43-.43s.19-.43.43-.43.43.19.43.43-.19.43-.43.43zm0 0M1.29 10.23a1.3 1.3 0 000-2.58 1.3 1.3 0 000 2.58zm0-1.72c.24 0 .43.19.43.43s-.19.43-.43.43a.43.43 0 01-.43-.43c0-.23.19-.43.43-.43zm0 0"/>
  </symbol>

  <symbol id="yandex" viewBox="0 0 24 24" fill="currentColor">
    <g fill="none" fill-rule="evenodd">
      <rect width="17" height="17" x="3.5" y="3.5" stroke="currentColor" stroke-width="1.2" rx="1.7"/>
      <path fill="currentColor" d="M15 18.2h-1.3v-4.6h-1l-2 4.6H9l2.6-4.7s-2.2-1-2.2-3.6 1.8-4.1 3.3-4.1H15v12.4zM12.5 6.8c-.2 0-1.6.4-1.6 2.9 0 1 .2 1.8.6 2.2.3.4.8.6 1.3.6h.9V6.8h-1.2z"/>
    </g>
  </symbol>

  <symbol id="googleIcon" viewBox="0 0 5110 5110" fill="currentColor">
    <path d='M227 4893c-4-3-7-980-7-2170V560l33-42c17-24 69-78 114-122 46-43 81-82 78-86s2-13 10-20 15-9 15-6c0 4 14-9 31-29l31-35h1594l129 133c72 73 328 335 570 582s489 500 549 562c59 62 112 111 116 108 8-5 77 63 71 72-5 8 261 273 270 268 8-6 22 12 25 32 1 7 237 250 523 540 350 354 521 534 521 548 0 13-86 108-236 260-129 132-344 352-477 489l-242 249-477-6-478-5v848H1612c-758 0-1382-3-1385-7zm3323-3226c0-2-15-16-32-33l-33-29 29 33c28 30 36 37 36 29zm-2249-254c106-47 169-146 169-264 0-87-22-148-76-208-81-90-211-120-320-72-52 24-117 79-108 93 3 5 0 7-7 6-6-2-23 18-37 44-20 39-25 63-25 127-1 82 25 167 46 154 6-3 7-1 3 6-10 15 13 43 27 34 5-3 7-2 4 4-4 6 4 19 16 30 77 70 209 90 308 46z' fill='#4889f4'/>
    <path d='M227 4893c-10-9-9-2501 1-2506 4-3 142 120 308 272 165 152 565 519 889 816 323 297 593 543 600 547 8 5 56-40 141-135 70-78 265-294 432-479l305-338 36 32c39 34 871 818 961 906l55 54-482-5-483-5v848H1612c-758 0-1382-3-1385-7z' fill='#a2c3fa'/>
    <path d='M227 4893c-11-10-8-2503 3-2503 5 0 66 53 136 118 70 64 245 225 389 357s476 438 739 680 491 450 506 463c28 22 30 22 497 28 257 3 474 7 481 9 9 3 12 98 12 429v425l-1378 1c-758 0-1381-3-1385-7z' fill='#e0e0e0'/>
  </symbol>


  <symbol id="googleMenuIcon" viewBox="0 0 24 24" fill="currentColor">
    <path fill="none" stroke="currentColor" stroke-width="1.2" d="M12 10.3v3.4h4.81A5.11 5.11 0 0112 17.1 5.106 5.106 0 016.9 12c0-2.812 2.288-5.1 5.1-5.1 1.219 0 2.392.437 3.303 1.23l2.234-2.563A8.424 8.424 0 0012 3.5c-4.687 0-8.5 3.813-8.5 8.5 0 4.687 3.813 8.5 8.5 8.5 4.687 0 8.5-3.813 8.5-8.5v-1.7H12z"/>
  </symbol>


  <symbol id="avito" viewBox="0 0 400 400" fill="currentColor">
    <g fill-rule="evenodd">
      <path d="M119 64.4l-4.4.8a60.5 60.5 0 00-27.4 107 73.7 73.7 0 0020.8 10.6l3 .8c8.2 2 20.3 2 28.2-.2a63.1 63.1 0 0021-9.8 64.2 64.2 0 0022-30.5c1.4-3.4 3-13.2 3-18.6a65 65 0 00-6.8-27.5 64.8 64.8 0 00-34.5-29.5 51 51 0 00-9.1-2.3l-4.4-.8a53 53 0 00-11.4 0" fill="#05abfb"/>
      <path d="M258.2 190.8a74 74 0 00-65.5 54.7 76.5 76.5 0 001.6 41.1 74.9 74.9 0 0043.1 45c.9.4 1.9.8 2.3.8l1.8.6c8.6 4.2 36 4.2 44-.1a4 4 0 011.5-.5c.4 0 1.5-.4 2.5-.8l3.3-1.5a71.7 71.7 0 0014.8-8.8 90.1 90.1 0 0017.3-19 73.8 73.8 0 00-5.5-85.1A85.5 85.5 0 00308 206a103 103 0 00-17.8-10.2 118.5 118.5 0 00-16.7-4.4c-3.7-.7-10.7-1-15.3-.6" fill="#94cb24"/>
      <path d="M34.5 16.2c-.1.4-.7.6-1.5.6-1 0-1.4.2-1.4.6 0 .4-.4.6-1.4.6-1.1 0-1.4.2-1.4.8 0 .6-.3.8-1.2.8-.7 0-1.3.2-1.5.6 0 .3-.4.6-.7.6-.3 0-.6.3-.6.6s-.3.6-.6.6-.6.4-.6.8c0 .5-.3.8-.8.8-.4 0-.8.3-.8.6s-.3.6-.6.6-.6.3-.6.6-.3.6-.6.7c-.4.2-.6.8-.6 1.5 0 1-.2 1.2-.8 1.2-.6 0-.8.3-.8 1.4 0 1-.2 1.4-.6 1.4-.4 0-.6.4-.6 1.3 0 .7-.3 1.6-.6 2-1 1.3-.9 329.6 0 330.3.3.3.6 1.1.6 1.9 0 .8.2 1.4.6 1.6.3 0 .6.7.6 1.3 0 1 .2 1.2.8 1.2.6 0 .8.3.8 1.4 0 1 .2 1.4.6 1.4.3 0 .6.3.6.6s.3.6.6.6.6.3.6.6c0 .4.4.8.8.9.4.1.8.4.8.7 0 .4.3.6.6.6s.6.3.6.6.3.6.6.6.6.3.6.6.6.7 1.4.8c.8.2 1.4.5 1.4.8 0 .4.5.6 1.4.6 1 0 1.4.2 1.4.6 0 .4.4.6 1.2.6.7 0 1.6.4 2 .8 1.3 1.3 329 1.3 330.3 0 .5-.4 1.4-.8 2.1-.8.7 0 1.3-.2 1.5-.6 0-.3.7-.6 1.3-.6.8 0 1.2-.2 1.2-.6 0-.3.3-.6.8-.6 1.2 0 2-.4 2-1 0-.3.3-.6.6-.6s.6-.3.6-.6.4-.6.8-.6.8-.3.8-.6.3-.6.6-.6.6-.4.6-.8.3-.8.6-.8.6-.3.6-.6.3-.6.6-.6c.6 0 1-.8 1-2 0-.5.3-.8.6-.8.4 0 .6-.4.6-1.2 0-.8.2-1.2.6-1.2.4 0 .6-.4.6-1.4 0-.9.3-1.8.8-2.3 1.3-1.4 1.3-329 0-329.9-.6-.4-.8-1-.8-2 0-1.2-.2-1.6-.6-1.6-.4 0-.6-.4-.6-1.4 0-1-.2-1.4-.6-1.4-.3 0-.6-.3-.6-.8 0-1.2-.4-2-1-2-.3 0-.6-.3-.6-.6s-.3-.6-.6-.6a.6.6 0 01-.6-.6c0-.3-.2-.6-.6-.6-.3 0-.6-.4-.7-.8-.1-.4-.5-.8-.9-.8-.3 0-.6-.3-.6-.6s-.3-.6-.6-.6a.6.6 0 01-.6-.6c0-.4-.4-.6-1.4-.6-1.1 0-1.4-.2-1.4-.8 0-.6-.3-.8-1.2-.8-.6 0-1.2-.3-1.3-.6-.2-.4-.8-.6-1.8-.6s-1.7-.2-1.8-.6c-.4-1-330.2-1-330.6 0M135.2 65a46.1 46.1 0 0111.2 3l3.4 1.4a61.5 61.5 0 0134.2 68.4 58 58 0 01-7.6 19 63 63 0 01-21.4 21 57.3 57.3 0 01-14.2 6 61.9 61.9 0 01-45.7-5.5c-6.8-3.6-19.5-15-19.5-17.5a61.3 61.3 0 01-9.4-18.8A61.4 61.4 0 01109 66a60.4 60.4 0 0126.2-1m133 12.6c13.4 1.8 24.8 8 32.2 17.4a49.6 49.6 0 017.8 46.8c-2.2 9.4-13.7 22-24.6 27a48.3 48.3 0 01-66.4-31.1l-.6-2.5c-1.3-3.6-1.2-16.9.2-21l1.2-4c1.8-5.7 6-12.9 10.2-17.5a52.7 52.7 0 0111.8-9.2c4.6-3.9 19.7-7 28.2-5.9m5.3 113.8l3.8.6c.9 0 9.9 2.6 13 3.7A103 103 0 01308 206l2.6 2.2a85.5 85.5 0 0110.2 10.6 73.8 73.8 0 012.4 86.2 90.1 90.1 0 01-18.6 18.5 71.7 71.7 0 01-28.6 11.8 77.9 77.9 0 01-40.5-4.5 81.2 81.2 0 01-19.1-11.7 71.7 71.7 0 01-23.2-36.1 76.5 76.5 0 01-.5-37.5c1.3-3.9 3.5-10.2 4-11.1l2-4.2a72.7 72.7 0 0174.8-38.8m-144.3 39.4a32.7 32.7 0 0127.6 23.8c.7.9 1.3 7.7 1 11.8a33 33 0 01-17.4 26.8c-2.4 2.8-19.8 4.8-24 2.7-.7-.4-1.6-.7-1.9-.7-1 0-4.8-2-7.7-3.8-2.3-1.5-4-3.1-7.6-7a35 35 0 01-6-29.5c3.2-15 20-26.2 36-24.1" fill="#fbfbfb"/>
      <path d="M259.2 77.5a52.6 52.6 0 00-20.1 6.5c-1 0-8 5.7-10.9 8.7a50.6 50.6 0 00-11.4 21.5 57.8 57.8 0 00.4 23.5 35.3 35.3 0 004 10.2 49.6 49.6 0 0023.2 21.3c8.7 5.2 26.8 5 38.6-.4a11 11 0 012-.8l2-1.2a13 13 0 012-1.2 51 51 0 0021.2-31.2c3-12-1-28-9.8-39.4a48.9 48.9 0 00-41.2-17.5" fill="#fb6363"/>
      <path d="M118.5 64.3h1.4c.4-.1 0-.2-.7-.2-.8 0-1 0-.7.2m-3.7.5c-1.4.3-1.4.3-.2.3.7 0 1.7-.1 2.2-.3 1.3-.4 0-.4-2 0m17.8 0c.8.3 3.3.6 3 .3l-2-.4c-1.2-.2-1.5-.1-1 0M109.2 66c-.4.3-.3.4.6.2 1.5-.4 1.8-.6.8-.6a3 3 0 00-1.4.4m-8.4 2.8c-.8.4-1.2.8-1 .8l1.8-.8c.8-.4 1.2-.8 1-.8a7 7 0 00-1.8.8m46.4-.2l1.4.6c.2 0 0-.3-.6-.6l-1.4-.6c-.2 0 0 .3.6.6m5.5 2.6c1.7 1 2.3 1 .7 0l-1.6-.8c-.2 0 .2.4 1 .8m4.8 2.5l1.5 1.3c.8.6 1.3 1 1.2.7-.4-.5-2.7-2.3-2.7-2m-71.2 3.8a83.4 83.4 0 00-8.4 8.7 84 84 0 018.2-8.1c2.8-2.4 2.9-2.8.2-.6m78 1.3c0 .2 1.2 1.5 2.7 3a107.4 107.4 0 015.4 5.6c-.5-1-8-9-8-8.6M74.3 90.6c-.7 1-1.1 1.8-1 1.8a9 9 0 001.4-1.8c.7-1 1.1-1.8 1-1.8a9 9 0 00-1.4 1.8m101.9 2.8c.6 1 1.1 1.7 1.2 1.6.2-.2-1.8-3.4-2.1-3.4l.9 1.8M71.6 95a8.4 8.4 0 00-1.1 2.4c0 .1.7-.8 1.4-2 1.7-3 1.5-3.2-.3-.4m106.8 2l1 2.2c.5 1 1 1.6 1 1.4l-1-2.2c-.5-1-1-1.6-1-1.4m-109.7 4c-1 2-.8 2.3.1.5.5-.9.8-1.6.7-1.7 0-.1-.5.4-.8 1.2m-1.6 4.3l-.7 2.3c0 .3.4-.4.8-1.6 1-2.6.8-3.2-.1-.7m-1.3 4.1c-.1.6-.2 1.2 0 1.3l.4-1c.1-.5.2-1 0-1.2l-.4 1m117.6 1.1c.4 1.5.6 1.8.6.8 0-.5-.2-1-.4-1.4-.3-.4-.4-.3-.2.6m.7 3.2c0 .9.2 2.5.5 3.6l.6 2-.2-1.8-.6-3.6-.3-1.8v1.6m-119.7 2.4a12 12 0 00-.3 3.4c.1.3.3 0 .3-.6 0-.7.2-1.8.4-2.5.3-.7.4-1.7.3-2.2 0-.5-.4.4-.7 2m120.8 8.2a70.8 70.8 0 01-3.6 20.6c0 2 1.5-2.5 2.4-7.3l.9-3.8c.4-2 1-11.7.6-13-.1-.4-.2 1.1-.3 3.5m-121.1 5.8a47.3 47.3 0 002 10.3c0-.7-.4-2.8-.8-4.8-1.1-6.8-1.2-7-1.3-5.5m2.4 12.3c0 .4.2 1.3.5 1.8l.9 2.2a62.2 62.2 0 007.8 14.2c0 2.5 12.7 13.9 19.5 17.5l2.9 1.5a22 22 0 005.3 2.2c.4 0 .8.2.9.4.1.2.8.5 1.5.6l3.1.8a61.9 61.9 0 0048.4-7.3 63 63 0 0024.3-30.2c0-.2-.3 0-.6.6L179 151a64.2 64.2 0 01-18.8 22.6 63 63 0 01-26.2 10.8 63.7 63.7 0 01-29.9-2.8c-1.8 0-13.7-6.7-16.9-9.4A64.8 64.8 0 0168 145.8c0-1.2-1.5-4.2-1.6-3.2m226.6 20c-.7.7-.9 1-.4.7.8-.4 2.1-1.7 1.7-1.7l-1.3 1m-13.4 7.6c-1.3.7-.8.8.9 0 .7-.3 1-.6.7-.6-.3 0-1 .3-1.6.6m-4.4 1.4c-.5.3-.5.4 0 .4l1.2-.4c.5-.3.5-.4 0-.4l-1.2.4m-18.6 1.2c.7.2 1.6.3 2.2.3.9 0 .9 0-.2-.3-.7-.2-1.7-.3-2.2-.3-.9 0-.9 0 .2.3m11.6 0c-1 .3-1 .3-.2.3.6 0 1.5-.1 2.2-.3 1-.3 1-.3.2-.3-.5 0-1.5.1-2.2.3m-6.5.7h3.6c1 0 0-.2-1.9-.2-2 0-2.7.1-1.7.2m-140.5 57.2a34 34 0 00-28.8 27.5 35 35 0 006.8 26.2c3.5 3.9 5.3 5.5 7.6 7 3 1.9 6.8 3.8 7.7 3.8.3 0 1.2.3 2 .7 4 2 21.5.1 23.9-2.7l2.4-1.5a33 33 0 0015-25.3 37.6 37.6 0 00-1.6-13.4c-2.8-13.1-19.8-24-35-22.3" fill="#a56cf0"/>
    </g>
  </symbol>


  <symbol id="avitoMenuIcon" viewBox="0 0 24 24" fill="currentColor">
    <path fill="none" stroke="currentColor" stroke-width="1.2" d="M16 9.5a3 3 0 110-6 3 3 0 010 6zm0 12a5 5 0 110-10 5 5 0 010 10zm-9.5-3a2.5 2.5 0 110-5 2.5 2.5 0 010 5zm.5-8a4 4 0 110-8 4 4 0 010 8z"/>
  </symbol>


  <symbol id="vk" viewBox="0 0 304.36 304.36" fill="currentColor">
    <path d="M262 175.6c10 9.8 20.7 19.1 29.8 30 4 4.8 7.7 9.8 10.6 15.4 4.1 8 .4 16.7-6.7 17.1h-44.3a34.2 34.2 0 01-28.3-11.5c-6.1-6.2-11.8-12.9-17.7-19.3a42 42 0 00-8-7.1c-6-4-11.3-2.7-14.8 3.6a46.6 46.6 0 00-4.6 20.7c-.5 10.4-3.7 13.1-14.1 13.6-22.5 1-43.7-2.3-63.5-13.6-17.4-10-31-24-42.7-40A538.1 538.1 0 011.5 84.4C-2 76.4.5 72.2 9.3 72c14.5-.3 29-.3 43.4 0 5.9 0 9.8 3.4 12 9a269 269 0 0029.5 54.5c3.2 4.5 6.4 9 11 12.2 5.2 3.5 9.1 2.4 11.6-3.4 1.5-3.6 2.2-7.5 2.5-11.4 1.2-13.4 1.3-26.8-.7-40-1.2-8.4-6-13.8-14.2-15.4-4.3-.8-3.6-2.4-1.6-4.8 3.6-4.1 7-6.7 13.6-6.7h50.1c8 1.5 9.7 5 10.7 13v55.7c0 3 1.6 12.2 7.2 14.2 4.4 1.4 7.3-2.1 10-5 12-12.7 20.5-27.7 28.2-43.3a283 283 0 009.1-21c2.1-5.3 5.4-8 11.3-7.8h48.3c1.4 0 2.9 0 4.2.3 8.2 1.4 10.4 4.9 7.9 12.8-4 12.4-11.7 22.8-19.2 33.2-8 11.2-16.6 22-24.6 33.1-7.3 10.2-6.8 15.4 2.3 24.3zm0 0" fill="#4984ad" fill-rule="evenodd" clip-rule="evenodd"/>
  </symbol>


  <symbol id="vkMenuIcon" viewBox="0 0 24 24" fill="currentColor">
    <path fill="none" stroke="currentColor" stroke-width="1.2" d="M21.8 16.2c0-.1-.4-.8-2-2.3-1.6-1.6-1.4-1.3.6-4 1.2-1.6 1.7-2.6 1.6-3-.2-.5-1-.4-1-.4h-3l-.5.1-.2.3s-.5 1.3-1.2 2.4c-1.3 2.3-1.8 2.4-2 2.2-.6-.3-.4-1.3-.4-2 0-2.2.3-3.1-.7-3.4a5 5 0 00-1.4-.1c-1 0-2 0-2.5.3-.3.1-.6.5-.4.5.2 0 .6.1.9.5.3.4.3 1.3.3 1.3s.1 2.6-.4 3c-.5.2-1-.3-2.2-2.3-.6-1.1-1-2.3-1-2.3L6 6.7l-.5-.2H2.7s-.5 0-.6.2c-.2.2 0 .5 0 .5s2.2 5.3 4.7 7.9c2.3 2.4 5 2.3 5 2.3H13s.3 0 .5-.3c.2-.2.2-.5.2-.5s0-1.6.7-1.8c.7-.3 1.7 1.5 2.7 2.2.7.5 1.3.4 1.3.4h2.7s1.4-.1.7-1.2z"/>
  </symbol>


  <symbol id="bonus" viewBox="0 0 24 24" fill="currentColor">
    <path fill="currentColor" stroke="currentColor" stroke-width=".4" d="M17 5.5A2 2 0 0015.6 2c-.9 0-2.8 1.3-3.6 2.4C11.2 3.3 9.2 2 8.4 2A2 2 0 007 5.4H3v5h1V20h16v-9.6h1v-5h-4zm-1.4-2.7c.7 0 1.2.5 1.2 1.3 0 .7-.4 1.2-1 1.3h-3.1l-.3-.1c0-.7 2.3-2.5 3.2-2.5zm-7.2 0c.8 0 3.2 1.8 3.2 2.5l-.3.1h-3c-.7 0-1.1-.6-1.1-1.3 0-.7.5-1.3 1.2-1.3zm1.3 16.4H4.8v-8.8h4.9v8.8zm0-9.5h-6V6.3h6v3.4h0zm3.8 9.5h-3v-13h3v13zm5.7 0h-4.9v-8.8h4.9v8.8zm1-9.5h-5.9V6.3h6v3.4h0z"/>
  </symbol>


  <symbol id="partners" viewBox="0 0 24 24" fill="currentColor">
    <path fill="currentColor" d="M17.93 6.68l-.94-.47-1.65-.82a3.69 3.69 0 00-3.48.1l-.22.12a.46.46 0 00-.1-.03l-1.8-.2a3.56 3.56 0 00-3.28 1.3H2.53a.53.53 0 00-.53.54v10.44c0 .3.24.53.53.53h4.15l3.89.91a5.86 5.86 0 004.73-.92h6.17a.53.53 0 00.53-.52V7.2a.53.53 0 00-.53-.52h-3.54zm.46 1.06v9.39H15.7l-.03-7.84c0-.2-.11-.38-.3-.47l-1.55-.77a.6.6 0 00-.58-.08l-2.68 1.44a.85.85 0 11-.83-1.5l2.63-1.5a2.63 2.63 0 012.5-.08l2.7 1.35a.52.52 0 00.24.06h.58zm-15.33 0h1.5v9.39h-1.5V7.74zm3.8 9.4a.5.5 0 00-.12 0H5.6v-9.4h1.11a.53.53 0 00.44-.23A2.5 2.5 0 019.6 6.43l.5.05-.47.28c-.02 0-.02.02-.04.03L9.22 7a1.91 1.91 0 101.86 3.34l2.4-1.29 1.15.57.02 7.74a4.81 4.81 0 01-3.84.72l-3.95-.93zm14.08-.01h-1.5V7.74h1.5v9.4z"/>
  </symbol>

  <symbol id="reseller" viewBox="0 0 22 22" fill="currentColor">
    <path fill="currentColor" d="M18.7 7.7a7.7 7.7 0 00-15.4 0c0 2.3 1.1 4.4 2.7 5.8l.1.1c1.3 1.1 3 1.8 4.9 1.8 1.8 0 3.5-.7 4.9-1.7l.2-.1a8.7 8.7 0 002.6-5.9zM4 7.7a7 7 0 017-7 7 7 0 017 7c0 1.9-.7 3.6-2 4.8-.2-.9-.8-2.5-2.6-3.5a3 3 0 00.6-1.9C14 5.4 12.6 4 10.9 4A3 3 0 008 7.1c0 .7.2 1.4.6 1.9A5.3 5.3 0 006 12.5a7 7 0 01-2-4.8zm4.7-.6c0-1.3 1.1-2.3 2.3-2.3 1.3 0 2.3 1.1 2.3 2.3 0 1.3-1.1 2.3-2.3 2.3-1.3.1-2.3-1-2.3-2.3zm-2 6c0-.6.4-2.5 2.5-3.6a3 3 0 003.8-.1c2.1 1.1 2.4 3 2.5 3.6a6.7 6.7 0 01-4.4 1.5c-1.7.1-3.2-.4-4.4-1.4zm0 0M2.7 18.3c-1.5 0-2.7-1.2-2.7-2.7S1.2 13 2.7 13s2.7 1.2 2.7 2.7-1.3 2.6-2.7 2.6zm0-4.6c-1.1 0-1.9.9-1.9 1.9s.9 1.9 1.9 1.9 1.9-.9 1.9-1.9-.9-1.9-1.9-1.9zM19.3 18.3c-1.5 0-2.7-1.2-2.7-2.7s1.2-2.7 2.7-2.7 2.7 1.2 2.7 2.7-1.2 2.7-2.7 2.7zm0-4.6c-1.1 0-1.9.9-1.9 1.9s.9 1.9 1.9 1.9a1.9 1.9 0 100-3.8zM11 22c-1.5 0-2.7-1.2-2.7-2.7s1.2-2.7 2.7-2.7 2.7 1.2 2.7 2.7S12.5 22 11 22zm0-4.6c-1.1 0-1.9.9-1.9 1.9s.9 1.9 1.9 1.9 1.9-.9 1.9-1.9-.8-1.9-1.9-1.9zM11 16.4c-.2 0-.4-.2-.4-.4s.2-.4.4-.4.4.2.4.4-.2.4-.4.4z"/>
    <path d="M5 13.7a.4.4 0 01-.4-.4c0-.2.2-.4.4-.4s.4.2.4.4c-.1.2-.2.4-.4.4zM17.1 13.7a.4.4 0 01-.4-.4c0-.2.2-.4.4-.4s.4.2.4.4c-.1.2-.2.4-.4.4z"/>
  </symbol>

  <symbol id="instagram" viewBox="0 0 512 512" fill="currentColor">
      \t<linearGradient id="SVGID_1_" gradientUnits="userSpaceOnUse" x1="-46.0041" y1="634.1208" x2="-32.9334" y2="647.1917" gradientTransform="matrix(32 0 0 -32 1519 20757)">
        <stop offset="0" style="stop-color:#FFC107" />\t<stop offset="0.507" style="stop-color:#F44336" />\t<stop offset="0.99" style="stop-color:#9C27B0" />\t
      </linearGradient>\t<path style="fill:url(#SVGID_1_);" d="M352,0H160C71.648,0,0,71.648,0,160v192c0,88.352,71.648,160,160,160h192\tc88.352,0,160-71.648,160-160V160C512,71.648,440.352,0,352,0z M464,352c0,61.76-50.24,112-112,112H160c-61.76,0-112-50.24-112-112\tV160C48,98.24,98.24,48,160,48h192c61.76,0,112,50.24,112,112V352z" />\t<linearGradient id="SVGID_2_" gradientUnits="userSpaceOnUse" x1="-42.2971" y1="637.8279" x2="-36.6404" y2="643.4846" gradientTransform="matrix(32 0 0 -32 1519 20757)">
        <stop offset="0" style="stop-color:#FFC107" />\t<stop offset="0.507" style="stop-color:#F44336" />\t<stop offset="0.99" style="stop-color:#9C27B0" />
      </linearGradient><path style="fill:url(#SVGID_2_);" d="M256,128c-70.688,0-128,57.312-128,128s57.312,128,128,128s128-57.312,128-128\tS326.688,128,256,128z M256,336c-44.096,0-80-35.904-80-80c0-44.128,35.904-80,80-80s80,35.872,80,80 C336,300.096,300.096,336,256,336z" />\t<linearGradient id="SVGID_3_" gradientUnits="userSpaceOnUse" x1="-35.5456" y1="644.5793" x2="-34.7919" y2="645.3331" gradientTransform="matrix(32 0 0 -32 1519 20757)">
        \t\t<stop offset="0" style="stop-color:#FFC107" />\t\t<stop offset="0.507" style="stop-color:#F44336" />\t\t<stop offset="0.99" style="stop-color:#9C27B0" />\t
      </linearGradient><circle style="fill:url(#SVGID_3_);" cx="393.6" cy="118.4" r="17.056" />
  </symbol>


  <symbol id="instagramMenuIcon" viewBox="0 0 24 24" fill="currentColor">
    <g fill="none" stroke="currentColor" stroke-width="1.2">
      <path d="M16.1 3H8A4.9 4.9 0 003 7.9V16A4.9 4.9 0 007.9 21H16a4.9 4.9 0 004.9-4.9V8A4.9 4.9 0 0016.1 3zM12 17a5 5 0 01-5-5 5 5 0 015-5 5 5 0 015 5 5 5 0 01-5 5z"/>
      <path d="M17 6.4a.4.4 0 100 .8.4.4 0 000-.8z"/>
    </g>
  </symbol>

  <symbol id="ok" viewBox="0 0 21 36" fill="currentColor">
    <path fill="currentColor" d="M10.5 18.6c5 0 9-4.1 9-9 0-5-4.1-9-9-9s-9 4.1-9 9 4 9 9 9zm0-12.8a3.7 3.7 0 110 7.4 3.7 3.7 0 110-7.4zM14.2 25.9c1.8-.4 3.6-1.1 5.2-2.2a2.6 2.6 0 10-2.8-4.4 11.6 11.6 0 01-12.2 0 2.6 2.6 0 00-3.6.8c-.8 1.2-.4 2.9.8 3.7A17 17 0 006.8 26l-5 5.1a2.7 2.7 0 001.9 4.5c.7 0 1.4-.3 1.9-.8l5-5 5 5c1 1 2.7 1 3.7 0s1-2.7 0-3.7l-5.1-5.2z"/>
  </symbol>

  <symbol id="okMenuIcon" viewBox="0 0 24 24" fill="currentColor">
    <path fill="none" stroke="currentColor" stroke-width="1.2" d="M12.388 5.722c1.098 0 1.992.863 1.992 1.923s-.894 1.923-1.992 1.923c-1.098 0-1.993-.863-1.993-1.923s.895-1.923 1.993-1.923zm0 6.567c-2.654 0-4.812-2.083-4.812-4.644S9.734 3 12.388 3C15.042 3 17.2 5.084 17.2 7.645c0 2.561-2.158 4.644-4.812 4.644zm1.959 3.791l2.69 2.597a1.326 1.326 0 010 1.924 1.445 1.445 0 01-1.993 0L12.4 18.05 9.757 20.6a1.434 1.434 0 01-.998.399c-.36 0-.72-.133-.996-.399a1.328 1.328 0 010-1.924l2.69-2.597a9.211 9.211 0 01-2.795-1.117 1.333 1.333 0 01-.441-1.876c.414-.637 1.284-.829 1.943-.428a6.296 6.296 0 006.48 0c.659-.401 1.529-.21 1.943.428a1.334 1.334 0 01-.442 1.876 9.197 9.197 0 01-2.794 1.117z"/>
  </symbol>

  <symbol id="telegram" viewBox="0 0 512 512">
    <circle cx="255.997" cy="256" r="255.997" fill="#41b4e6"/>
    <path d="M512 256.003c0-6.238-.235-12.419-.673-18.546L405.228 131.36 106.772 248.759l114.191 114.192 1.498 5.392 1.939-1.955.008.008-1.947 1.947L348.778 494.66C444.298 457.5 512 364.663 512 256.003z" fill="#0091c8"/>
    <path fill="#fff" d="M231.138 293.3l115.691 87.347 58.399-249.287-298.457 117.399 90.817 30.081 165.743-111.176z"/>
    <path fill="#d2d2d7" d="M197.588 278.84l24.873 89.504 8.677-75.044 132.193-125.636z"/>
    <path fill="#b9b9be" d="M268.738 321.688l-46.277 46.656 8.677-75.044z"/>
  </symbol>

  <symbol id="telegramMenuIcon" viewBox="0 0 24 24" fill="currentColor">
    <g fill="none" fill-rule="evenodd">
      <path stroke="currentColor" stroke-width="1.2" d="M7.6 13.2l2.1 5.2 2.8-2.7 4.7 3.7 3.3-14.9-17 7z"/>
      <path fill="currentColor" d="M15.6 8.8l-5.2 4.7-.6 2.5-1.2-3z"/>
    </g>
  </symbol>

  <symbol id="screen" viewBox="0 0 24 24" fill="currentColor">
  <g fill="none" fill-rule="evenodd">
   <path d="M5 12h11M5 16h7" stroke="currentColor" stroke-width="2" stroke-linecap="round" stroke-linejoin="round"/>
   <rect x="1" y="2" width="22" height="20" rx="2" stroke="currentColor" stroke-width="2" stroke-linejoin="round"/>
   <path d="M22 7h1V4a2 2 0 0 0-2-2H3a2 2 0 0 0-2 2v3h21Z" stroke="currentColor" stroke-width="2"/>
   </g>
  </symbol>
	<symbol id="settings" viewBox="0 0 24 24" fill="currentColor">
		<g fill="none" fill-rule="evenodd">
			<path d="m9.666 2-.49 2.523a7.951 7.951 0 0 0-2.244 1.291L4.508 4.98 2.172 9.02l1.941 1.688A8.005 8.005 0 0 0 4 12c0 .409.04.833.113 1.291v.002l-1.941 1.688 2.336 4.04 2.422-.834a7.953 7.953 0 0 0 2.246 1.29L9.666 22h4.668l.49-2.523a7.942 7.942 0 0 0 2.244-1.291l2.424.835 2.334-4.04-1.94-1.69c.075-.458.114-.883.114-1.291a8.01 8.01 0 0 0-.113-1.29v-.001l1.941-1.69-2.336-4.04-2.422.833a7.951 7.951 0 0 0-2.246-1.289L14.334 2H9.666Zm1.649 2h1.37l.39 2 1.042.395a5.94 5.94 0 0 1 1.684.964l.863.707 1.922-.66.686 1.186-1.536 1.336.176 1.1v.001c.061.375.088.69.088.971s-.027.596-.088.97l-.178 1.1 1.535 1.336-.685 1.188-1.92-.662-.865.709a5.932 5.932 0 0 1-1.682.965h-.002L13.072 18l-.388 2h-1.37l-.388-2-1.043-.395a5.943 5.943 0 0 1-1.684-.964l-.863-.707-1.922.66-.685-1.186 1.537-1.338-.178-1.095v-.002A6.16 6.16 0 0 1 6 12c0-.281.027-.596.088-.97l.178-1.1-1.537-1.336.685-1.188 1.922.662.863-.709a5.941 5.941 0 0 1 1.684-.964L10.926 6l.389-2ZM12 8c-2.197 0-4 1.803-4 4s1.803 4 4 4 4-1.803 4-4-1.803-4-4-4Zm0 2c1.111 0 2 .889 2 2s-.889 2-2 2-2-.889-2-2 .889-2 2-2Z" fill="currentColor"/>
		</g>
	</symbol>

	<symbol id="paint-roller" viewBox="0 0 19 19" fill="currentColor">
        <path fill-rule="evenodd" clip-rule="evenodd" d="M11.6697 0.0478153C11.6085 0.0750207 11.4201 0.23766 11.251 0.409281C11.0101 0.653908 10.9389 0.750778 10.9216 0.857819C10.8937 1.02951 10.9769 1.16706 11.153 1.24066C11.3399 1.31875 11.463 1.25057 11.846 0.856742C12.1328 0.561973 12.1708 0.507191 12.1708 0.388793C12.1708 0.293481 12.1412 0.223296 12.0687 0.146319C11.944 0.0138919 11.8169 -0.0174705 11.6697 0.0478153ZM14.82 0.0470358C14.5658 0.157639 14.5036 0.439344 14.6918 0.627519C14.8445 0.780285 15.0643 0.780285 15.2171 0.627519C15.4082 0.436412 15.3422 0.154707 15.0807 0.0454399C14.9352 -0.0153178 14.9637 -0.0155034 14.82 0.0470358ZM17.3146 0.664634C17.0597 0.967494 17.3631 1.38838 17.7267 1.23647C17.8944 1.1664 17.982 0.968459 17.9236 0.791531C17.8718 0.634608 17.7439 0.55043 17.5571 0.55043C17.4391 0.55043 17.3919 0.572625 17.3146 0.664634ZM7.04116 3.58334C4.38912 6.23426 4.3899 6.23341 4.2502 6.70904C4.1226 7.14344 4.19813 7.73338 4.43381 8.14329C4.49164 8.24383 4.83644 8.62898 5.20006 8.9992C5.8387 9.64939 5.86119 9.67744 5.86119 9.82364C5.86119 9.95804 5.83521 10.0029 5.62922 10.2236C5.50165 10.3604 4.30328 11.4534 2.9662 12.6526C1.03127 14.3879 0.502708 14.8813 0.376256 15.0702C-0.196655 15.926 -0.107987 17.0559 0.592267 17.8221C1.24743 18.5389 2.33687 18.7391 3.20585 18.3023C3.30881 18.2505 3.4752 18.1483 3.57559 18.0751C3.68126 17.998 4.62859 16.9487 5.825 15.5836C6.96173 14.2865 8.03414 13.0875 8.2081 12.9191C8.53772 12.6 8.6252 12.5613 8.80503 12.6552C8.8496 12.6785 9.18056 12.9862 9.54047 13.339C10.2079 13.9932 10.3425 14.0914 10.7604 14.2284C11.0153 14.312 11.5212 14.316 11.7838 14.2366C12.2632 14.0916 12.2417 14.1107 14.8565 11.5046C16.2213 10.1442 17.3597 8.98116 17.3862 8.91992C17.4127 8.85868 17.4257 8.75847 17.4151 8.69723C17.3999 8.60975 16.5913 7.7806 13.6416 4.82796L9.88742 1.07004H9.72144H9.55542L7.04116 3.58334ZM13.162 1.65461C12.5105 2.2986 12.4365 2.40809 12.519 2.60547C12.6134 2.83142 12.8107 2.90784 13.017 2.79843C13.1697 2.71748 14.203 1.6601 14.2484 1.53836C14.2977 1.40597 14.2691 1.30432 14.1454 1.17211C14.072 1.09376 14.0153 1.07004 13.9016 1.07004C13.7601 1.07004 13.7268 1.09628 13.162 1.65461ZM15.2242 2.75018C14.1078 3.86657 14.0637 3.91604 14.0637 4.05207C14.0637 4.25824 14.2237 4.41042 14.4406 4.41042H14.6005L15.7425 3.26846L16.8844 2.12649V1.96656C16.8844 1.7497 16.7323 1.58966 16.5261 1.58966C16.3901 1.58966 16.3406 1.63379 15.2242 2.75018ZM10.0823 2.3405C10.2716 2.52893 10.4264 2.70776 10.4264 2.73793C10.4264 2.76807 10.0112 3.211 9.50368 3.72219C8.90754 4.32271 8.57235 4.68767 8.55661 4.75344C8.49686 5.00285 8.75759 5.26359 9.00701 5.20383C9.07277 5.18809 9.43773 4.85291 10.0383 4.25676C10.5494 3.74928 10.9918 3.33407 11.0213 3.33407C11.0803 3.33407 12.0223 4.25765 12.0223 4.31555C12.0223 4.33541 11.5964 4.77957 11.0759 5.30263C10.1478 6.23515 10.1294 6.25653 10.1294 6.40547C10.1294 6.60441 10.2963 6.78579 10.4793 6.78579C10.6554 6.78579 10.7875 6.67404 11.7251 5.73183C12.1842 5.27042 12.5765 4.89292 12.5968 4.89292C12.6571 4.89292 13.5812 5.83334 13.5812 5.89477C13.5812 5.92583 13.1726 6.3596 12.6732 6.85869C12.1738 7.35778 11.7463 7.81181 11.7231 7.86763C11.6916 7.94375 11.692 8.0021 11.7247 8.10109C11.7803 8.26974 11.8888 8.34464 12.0773 8.34464C12.2235 8.34464 12.2489 8.3227 13.1729 7.3982C13.6931 6.87766 14.1354 6.45176 14.1557 6.45176C14.2038 6.45176 15.1771 7.42299 15.1771 7.47098C15.1771 7.49117 14.7512 7.93473 14.2307 8.45669C13.3286 9.36126 13.2842 9.41226 13.2842 9.54568C13.2842 9.7264 13.3334 9.8144 13.4754 9.88781C13.7061 10.0071 13.753 9.97351 14.7503 8.9756C15.2603 8.46526 15.7025 8.04771 15.7329 8.04771C15.8057 8.04771 16.4762 8.71653 16.4762 8.78913C16.4762 8.85037 12.9185 12.4273 12.8576 12.4273C12.7971 12.4273 6.08388 5.69616 6.08388 5.63544C6.08388 5.57506 9.64172 1.99793 9.70177 1.99793C9.72188 1.99793 9.89314 2.1521 10.0823 2.3405ZM18.4948 2.66385C18.3831 2.71095 18.2577 2.88298 18.2577 2.98894C18.2577 3.19757 18.4275 3.36911 18.6353 3.37037C18.827 3.37152 19 3.19786 19 3.00412C19 2.76643 18.7118 2.57232 18.4948 2.66385ZM17.4783 3.69539C17.3613 3.71703 15.7611 5.29873 15.6771 5.47577C15.5446 5.75484 15.8176 6.07596 16.1116 5.987C16.2457 5.94643 17.8787 4.30534 17.9252 4.16438C17.9827 3.99042 17.8921 3.79352 17.722 3.72245C17.6505 3.69257 17.5873 3.67038 17.5815 3.67316C17.5758 3.67594 17.5293 3.68596 17.4783 3.69539ZM8.92131 9.56755C12.2796 12.926 12.2965 12.9436 12.2454 13.039C12.1757 13.1692 11.9131 13.3791 11.7044 13.4714C11.586 13.5238 11.4541 13.5473 11.2784 13.5473C10.8736 13.5473 10.757 13.4724 9.93192 12.6822C9.10959 11.8947 9.02813 11.8464 8.57491 11.8789C8.28445 11.8998 8.10132 11.9848 7.83947 12.2202C7.73547 12.3137 7.62791 12.3902 7.60049 12.3902C7.53049 12.3902 6.08388 10.9376 6.08388 10.8673C6.08388 10.8356 6.16041 10.7352 6.25398 10.6442C6.53016 10.3755 6.58472 10.241 6.58472 9.82925C6.58472 9.52973 6.5715 9.45186 6.49697 9.31186C6.44869 9.22122 6.10467 8.83708 5.73247 8.45821C5.1341 7.84911 5.04811 7.74623 4.98987 7.56952C4.90414 7.30927 4.92674 6.94231 5.04254 6.71557C5.13347 6.53746 5.4383 6.19195 5.50448 6.19195C5.52723 6.19195 7.0648 7.71097 8.92131 9.56755ZM17.9051 6.37021C17.8439 6.40896 17.6643 6.57661 17.5061 6.74274C17.2435 7.01851 17.2185 7.058 17.2185 7.19651C17.2185 7.41004 17.3738 7.56522 17.5877 7.56522C17.7274 7.56522 17.7652 7.5409 18.0511 7.26636C18.3921 6.93904 18.4985 6.76735 18.4625 6.60315C18.4098 6.36309 18.1126 6.2389 17.9051 6.37021ZM6.3248 12.2394C7.01796 12.9351 7.06354 12.9892 7.01811 13.0619C6.94841 13.1735 3.37573 17.2436 3.20303 17.4081C3.12383 17.4836 2.95878 17.5921 2.83629 17.6494C2.63676 17.7426 2.57307 17.7534 2.22389 17.7534C1.87312 17.7534 1.81113 17.7427 1.60362 17.6469C1.33572 17.5231 1.02017 17.2137 0.893903 16.9508C0.612941 16.3661 0.751121 15.6906 1.2514 15.2029C1.36779 15.0895 2.36155 14.1929 3.45976 13.2106C5.09268 11.7499 5.46799 11.4309 5.51966 11.4596C5.5544 11.4789 5.91671 11.8298 6.3248 12.2394ZM3.77795 14.2075C3.19349 14.8003 2.69474 15.3351 2.66954 15.3959C2.57211 15.6311 2.74451 15.879 3.00558 15.879C3.1465 15.879 3.18351 15.856 3.43834 15.6099C3.59159 15.4619 4.08251 14.9622 4.52927 14.4995C5.32376 13.6765 5.34158 13.6546 5.34158 13.503C5.34158 13.2985 5.17894 13.1332 4.97577 13.1311C4.84713 13.1298 4.78856 13.1825 3.77795 14.2075ZM1.70142 16.3216C1.55396 16.469 1.55329 16.65 1.69956 16.8137C1.78248 16.9065 1.83615 16.9331 1.94059 16.9331C2.10119 16.9331 2.26153 16.8239 2.3087 16.6824C2.42806 16.3243 1.97058 16.0524 1.70142 16.3216Z" fill="currentColor"/>
	</symbol>

	<symbol id="gears" viewBox="0 0 19 20" fill="currentColor">
        <path fill-rule="evenodd" clip-rule="evenodd" d="M8.21773 0.0654228C7.98651 0.162394 7.80909 0.284796 7.70874 0.416628C7.49962 0.691317 7.46156 0.822444 7.36474 1.60241C7.31332 2.0168 7.25897 2.39492 7.24401 2.44274C7.22318 2.50927 7.14284 2.55842 6.90123 2.65238C6.72767 2.71988 6.49508 2.81767 6.38434 2.86964C6.23331 2.94051 6.16582 2.95496 6.11421 2.92733C6.07638 2.90706 5.77103 2.67774 5.43568 2.41768C4.73033 1.87079 4.58573 1.80233 4.18099 1.82356C3.74128 1.84669 3.64204 1.91422 2.77691 2.77935C1.91178 3.64448 1.84425 3.74372 1.82112 4.18343C1.79989 4.58817 1.86835 4.73277 2.41524 5.43811C2.6753 5.77347 2.90481 6.07916 2.92527 6.11736C2.95355 6.17022 2.93774 6.23939 2.85929 6.40604C2.80253 6.52659 2.70842 6.75053 2.65013 6.90367C2.59184 7.05681 2.53118 7.19726 2.51537 7.21578C2.49951 7.23431 2.1254 7.29627 1.68402 7.35352C0.788521 7.46965 0.592277 7.53246 0.34157 7.78317C0.262048 7.86269 0.155944 8.01056 0.10575 8.1118C0.0156103 8.29364 0.014348 8.30975 0.00365597 9.44356C-0.00588522 10.457 0.000388946 10.6122 0.0572648 10.7704C0.156761 11.0471 0.355603 11.2807 0.610134 11.4199C0.816736 11.5329 0.894699 11.5501 1.59395 11.6369C2.01165 11.6888 2.39248 11.7435 2.4403 11.7584C2.50683 11.7793 2.55598 11.8596 2.64994 12.1012C2.71744 12.2748 2.81523 12.5074 2.8672 12.6181C2.94008 12.7733 2.95292 12.8358 2.92337 12.891C2.90228 12.9304 2.68826 13.2157 2.44772 13.525C1.86541 14.2739 1.83508 14.3348 1.83427 14.7557C1.8333 15.2609 1.8708 15.3194 2.77691 16.2255C3.64204 17.0907 3.74128 17.1582 4.18099 17.1813C4.58573 17.2025 4.73033 17.1341 5.43568 16.5872C5.77103 16.3271 6.07672 16.0976 6.11492 16.0772C6.16779 16.0489 6.23695 16.0647 6.4036 16.1431C6.52415 16.1999 6.74809 16.294 6.90123 16.3523C7.05437 16.4106 7.19493 16.4713 7.21357 16.4873C7.2322 16.5033 7.29353 16.876 7.34985 17.3155C7.46427 18.2083 7.52839 18.4085 7.78073 18.6609C7.86025 18.7404 8.00812 18.8465 8.10936 18.8967C8.2912 18.9868 8.30731 18.9881 9.44112 18.9988C10.4545 19.0083 10.6097 19.002 10.7679 18.9452C11.0447 18.8457 11.2782 18.6468 11.4174 18.3923C11.5305 18.1857 11.5476 18.1077 11.6345 17.4085C11.6863 16.9908 11.741 16.6103 11.756 16.5628C11.7769 16.4966 11.865 16.444 12.1359 16.336C12.3299 16.2586 12.5648 16.1615 12.658 16.1202C12.865 16.0284 12.8152 16.0033 13.5311 16.5604C14.2716 17.1368 14.3331 17.1674 14.7532 17.1682C15.2585 17.1691 15.317 17.1316 16.2231 16.2255C17.0882 15.3604 17.1557 15.2612 17.1789 14.8214C17.2001 14.4167 17.1317 14.2721 16.5848 13.5668C16.3247 13.2314 16.0952 12.9257 16.0747 12.8875C16.0464 12.8347 16.0623 12.7655 16.1407 12.5988C16.1975 12.4783 16.2916 12.2543 16.3499 12.1012C16.4082 11.9481 16.4689 11.8075 16.4849 11.7889C16.5009 11.7702 16.8735 11.7089 17.313 11.6526C18.2059 11.5382 18.4061 11.474 18.6584 11.2217C18.738 11.1422 18.8441 10.9943 18.8942 10.8931C18.9844 10.7112 18.9857 10.6951 18.9963 9.56132C19.0059 8.54791 18.9996 8.39269 18.9427 8.2345C18.8434 7.95832 18.6444 7.72418 18.3911 7.58566C18.1866 7.47384 18.1044 7.45561 17.4073 7.3674C16.9889 7.3145 16.6075 7.25952 16.5597 7.24522C16.4927 7.22521 16.4446 7.1468 16.3501 6.90367C16.2826 6.73011 16.1848 6.49752 16.1328 6.38678C16.0614 6.23464 16.0474 6.16848 16.0755 6.11591C16.096 6.07767 16.3171 5.78316 16.5669 5.46143C17.1188 4.75041 17.1975 4.5878 17.1787 4.19672C17.1569 3.74305 17.0952 3.65142 16.2231 2.77935C15.358 1.91422 15.2587 1.84669 14.819 1.82356C14.4145 1.80233 14.2695 1.8709 13.5669 2.41567C13.233 2.67462 12.9302 2.90305 12.894 2.92329C12.846 2.95013 12.782 2.93966 12.6584 2.88483C12.565 2.84343 12.3338 2.74757 12.1445 2.6718C11.9554 2.59603 11.7897 2.52315 11.7764 2.50986C11.7631 2.49657 11.7056 2.12235 11.6487 1.67825C11.5549 0.945588 11.534 0.848617 11.4229 0.630915C11.3379 0.464111 11.2467 0.350322 11.1238 0.257546C10.7933 0.00802718 10.7277 -0.0022565 9.48144 0.000268013C8.5219 0.00219853 8.34693 0.01122 8.21773 0.0654228ZM10.5192 0.830574C10.5885 0.859532 10.6717 0.923721 10.7041 0.973247C10.7432 1.03291 10.8048 1.3856 10.8863 2.01702C10.9859 2.78908 11.0237 2.98993 11.0845 3.07164C11.1405 3.14686 11.2585 3.20614 11.5479 3.30434C11.7614 3.37681 12.136 3.53136 12.3801 3.64775C12.6243 3.76417 12.8541 3.8594 12.8908 3.8594C12.9969 3.8594 13.0825 3.80204 13.7508 3.28262C14.6217 2.60583 14.652 2.5866 14.8075 2.61155C14.9138 2.62859 15.0603 2.7563 15.6521 3.34752C16.4379 4.13253 16.4777 4.19468 16.3416 4.42523C16.3022 4.49205 16.0261 4.85985 15.728 5.24254C15.4248 5.63183 15.1752 5.98809 15.1613 6.05139C15.1412 6.14268 15.1777 6.25101 15.3508 6.61409C15.4687 6.86139 15.6254 7.23947 15.6991 7.45428C15.7983 7.74304 15.8594 7.8644 15.9336 7.91983C16.0149 7.98053 16.2149 8.01799 16.9865 8.11704C17.6184 8.19812 17.9694 8.25915 18.0292 8.29828C18.2042 8.413 18.2244 8.53766 18.2244 9.50244C18.2244 10.4672 18.2042 10.5919 18.0292 10.7066C17.9695 10.7457 17.6168 10.8072 16.9854 10.8887C16.2134 10.9884 16.0125 11.0261 15.9308 11.0869C15.8556 11.1429 15.7963 11.2609 15.6981 11.5503C15.6256 11.7639 15.4696 12.1415 15.3514 12.3895C15.1778 12.7537 15.1412 12.8622 15.1613 12.9535C15.1752 13.0168 15.4248 13.373 15.728 13.7623C16.3842 14.6049 16.4205 14.6628 16.3907 14.8216C16.3584 14.9939 14.9941 16.3582 14.8194 16.3928C14.6619 16.4241 14.6038 16.3877 13.7599 15.7305C13.3706 15.4272 13.0144 15.1776 12.9511 15.1637C12.8598 15.1436 12.7514 15.1801 12.3883 15.3532C12.1411 15.4711 11.763 15.6278 11.5482 15.7016C11.2594 15.8007 11.138 15.8618 11.0826 15.9361C11.0219 16.0174 10.9845 16.2174 10.8854 16.989C10.8043 17.6209 10.7433 17.9718 10.7042 18.0316C10.5894 18.2066 10.4648 18.2269 9.5 18.2269C8.53523 18.2269 8.41056 18.2066 8.29584 18.0316C8.25671 17.9718 8.19568 17.6209 8.1146 16.989C8.01536 16.2158 7.97812 16.0172 7.91687 15.9344C7.85999 15.8575 7.7416 15.798 7.43691 15.693C7.21446 15.6164 6.8366 15.4604 6.59721 15.3463C6.24746 15.1796 6.1399 15.1437 6.04936 15.1636C5.98621 15.1775 5.62264 15.4335 5.22168 15.7466C4.46693 16.3359 4.31505 16.4277 4.15797 16.3898C4.09983 16.3757 3.77573 16.082 3.34649 15.6542C2.56207 14.8725 2.52227 14.8103 2.65837 14.5796C2.6978 14.5128 2.97394 14.145 3.27198 13.7623C3.57522 13.373 3.82485 13.0168 3.83873 12.9535C3.85882 12.8622 3.82232 12.7539 3.64925 12.3908C3.53134 12.1435 3.37418 11.7642 3.30001 11.5479C3.19038 11.2282 3.14401 11.1402 3.05227 11.0783C2.96143 11.0169 2.75694 10.9792 2.00207 10.885C0.988886 10.7586 0.917977 10.7367 0.828134 10.5217C0.752324 10.3402 0.752324 8.66463 0.828134 8.4832C0.917977 8.26821 0.988886 8.24627 2.00207 8.11986C3.16591 7.97462 3.11854 7.99879 3.3016 7.45702C3.37426 7.2421 3.53041 6.86335 3.64861 6.61536C3.82225 6.25116 3.85882 6.14271 3.83873 6.05139C3.82485 5.98809 3.57522 5.63183 3.27198 5.24254C2.61575 4.39998 2.57948 4.34203 2.60926 4.18328C2.64159 4.01095 4.00594 2.64667 4.18058 2.61203C4.33807 2.58081 4.3962 2.61715 5.2401 3.27442C5.6294 3.57766 5.98565 3.82729 6.04895 3.84117C6.1402 3.86122 6.24831 3.82487 6.60972 3.65261C6.85594 3.53522 7.2338 3.37919 7.44942 3.30586C7.74446 3.20555 7.86007 3.14734 7.91687 3.07049C7.97812 2.98766 8.01536 2.78893 8.1146 2.01591C8.24531 0.997192 8.26837 0.921011 8.47256 0.832171C8.64478 0.757252 10.3406 0.755952 10.5192 0.830574ZM8.99881 5.56935C7.44679 5.77837 6.13077 6.90586 5.69878 8.39663C5.09193 10.4907 6.3073 12.6989 8.40046 13.3055C10.488 13.9104 12.6973 12.6921 13.303 10.602C13.5092 9.89054 13.5086 9.1121 13.3012 8.39663C12.9003 7.01312 11.7133 5.91447 10.3073 5.6256C9.9409 5.55031 9.33386 5.52421 8.99881 5.56935ZM10.1234 6.40564C11.6032 6.70999 12.6556 7.99708 12.6556 9.50244C12.6556 10.359 12.3403 11.1142 11.726 11.7285C10.6462 12.8082 9.01154 12.9692 7.73714 12.1212C6.29364 11.1607 5.91036 9.19864 6.88122 7.73958C7.5794 6.69031 8.88858 6.15166 10.1234 6.40564Z" fill="currentColor"/>
	</symbol>

	<symbol id="mobile-phone" viewBox="0 0 12 19" fill="currentColor">
        <path fill-rule="evenodd" clip-rule="evenodd" d="M1.72854 0.0665965C0.995613 0.26398 0.354798 0.866745 0.102862 1.59579L0 1.89345V9.49883V17.1042L0.100587 17.3951C0.288871 17.9395 0.697152 18.428 1.19777 18.708C1.73501 19.0085 1.60413 19 5.7109 19C8.97367 19 9.44708 18.9915 9.6603 18.9288C10.4721 18.6904 11.1214 18.0316 11.3286 17.2362C11.3886 17.0058 11.3969 16.0672 11.3969 9.49883C11.3969 1.26914 11.4142 1.78791 11.1222 1.24006C10.835 0.701211 10.3075 0.270403 9.70834 0.0852867C9.43579 0.00106993 9.28039 -0.00218628 5.69377 0.000623919C2.62584 0.00303266 1.92106 0.014764 1.72854 0.0665965ZM2.68494 1.07885C2.76934 1.1632 2.80373 1.26151 2.83446 1.50622C2.88442 1.90442 3.02912 2.19396 3.30881 2.45558C3.70603 2.82715 3.72534 2.83018 5.6873 2.83018C7.64927 2.83018 7.66858 2.82715 8.0658 2.45558C8.34548 2.19396 8.49018 1.90442 8.54014 1.50622C8.59572 1.06377 8.70434 0.955645 9.08965 0.959437C9.46394 0.963094 9.77141 1.10316 10.0487 1.39631C10.1682 1.52268 10.3046 1.7264 10.3519 1.84898C10.4356 2.06585 10.4379 2.27242 10.4379 9.49883C10.4379 16.7252 10.4356 16.9318 10.3519 17.1487C10.2393 17.4407 9.89261 17.8034 9.59937 17.936L9.36732 18.0409H5.6873H2.00728L1.75289 17.916C1.43374 17.7593 1.12577 17.4232 1.01792 17.114C0.940658 16.8925 0.936732 16.5235 0.936732 9.49883C0.936732 2.49885 0.940881 2.10453 1.0172 1.88582C1.10798 1.62568 1.37164 1.30215 1.61604 1.15111C1.99769 0.915277 2.48823 0.882089 2.68494 1.07885ZM7.61336 1.15744C7.59007 1.48423 7.52143 1.6821 7.39755 1.77952C7.28501 1.86807 7.22743 1.87115 5.6873 1.87115C4.14718 1.87115 4.08959 1.86807 3.97705 1.77952C3.913 1.72916 3.84203 1.61372 3.81933 1.52304C3.76111 1.29059 3.72918 0.989368 3.75946 0.95908C3.77351 0.944984 4.64963 0.938695 5.70635 0.945118L7.62768 0.956716L7.61336 1.15744Z" fill="currentColor"/>
	</symbol>

	<symbol id="cart-alt" viewBox="0 0 19 18" fill="currentColor">
        <path fill-rule="evenodd" clip-rule="evenodd" d="M8.43371 0.0417232C8.20603 0.116203 8.02877 0.236606 7.88888 0.411781C7.7429 0.594578 4.63117 5.30842 4.54122 5.483L4.47968 5.60244L2.77787 5.61315L1.07603 5.62386L0.829308 5.74538C0.516068 5.89962 0.207476 6.22338 0.0868504 6.52427C0.0179481 6.69621 0.000508654 6.8107 2.52592e-05 7.09457C-0.000532504 7.43034 0.0070159 7.46507 0.138313 7.73072C0.265669 7.98844 0.439692 8.19206 0.673469 8.3569C0.746945 8.4087 0.788963 8.68427 1.26232 12.2191C1.54265 14.3126 1.79617 16.0947 1.82566 16.1792C1.96975 16.5923 2.36078 16.9604 2.79914 17.0959C3.03318 17.1681 3.16213 17.1696 9.5 17.1696C15.8379 17.1696 15.9668 17.1681 16.2009 17.0959C16.6387 16.9606 17.0303 16.5923 17.1739 16.1805C17.2032 16.0966 17.4567 14.3146 17.7373 12.2203C18.2109 8.68602 18.2532 8.40866 18.3266 8.3569C18.5605 8.1918 18.7344 7.98837 18.8617 7.73072C18.993 7.46507 19.0005 7.43034 19 7.09457C18.9995 6.8107 18.9821 6.69621 18.9132 6.52427C18.7925 6.22338 18.4839 5.89962 18.1707 5.74538L17.924 5.62386L16.2221 5.61315L14.5203 5.60244L14.4587 5.483C14.3595 5.29061 11.2203 0.544826 11.0797 0.374671C11.0058 0.285317 10.8608 0.17514 10.7371 0.114381C10.5587 0.0268123 10.475 0.00903824 10.2404 0.00903824C9.99619 0.00903824 9.92736 0.0249531 9.72909 0.12721L9.5 0.245344L9.28132 0.132564C9.02211 -0.00111304 8.67756 -0.038037 8.43371 0.0417232ZM9.00846 0.85788C9.05513 0.904509 9.1025 1.0003 9.11377 1.0708C9.13701 1.21611 9.23584 1.05786 7.07098 4.341C6.27851 5.54283 5.81512 6.21159 5.73577 6.26796C5.58145 6.37766 5.42993 6.35449 5.28889 6.19973C5.08553 5.97651 5.03957 6.062 6.79042 3.40742C7.67254 2.07005 8.42969 0.936339 8.47301 0.888111C8.63011 0.713159 8.85117 0.700702 9.00846 0.85788ZM10.509 0.874427C10.5628 0.930203 11.3283 2.07005 12.2101 3.40742C13.9604 6.06196 13.9144 5.97655 13.7111 6.19973C13.5701 6.35449 13.4185 6.37766 13.2643 6.26796C13.185 6.21156 12.709 5.52394 11.8918 4.28523C9.77944 1.08318 9.86296 1.21686 9.88582 1.07347C9.93725 0.75131 10.2832 0.640761 10.509 0.874427ZM10.6794 3.80406C11.2987 4.74307 11.8054 5.53246 11.8054 5.5583C11.8054 5.59563 11.3321 5.60527 9.5 5.60527C7.78056 5.60527 7.19458 5.59433 7.19458 5.56228C7.19458 5.46523 9.45728 2.06473 9.51015 2.08236C9.53395 2.09028 10.0601 2.86505 10.6794 3.80406ZM4.59343 6.54339C4.9192 7.03667 5.51062 7.21817 6.01692 6.98019C6.2141 6.88745 6.36273 6.75292 6.51898 6.52558L6.64038 6.34895H9.5H12.3596L12.481 6.52558C12.6373 6.75292 12.7859 6.88745 12.9831 6.98019C13.4899 7.21839 14.0808 7.03671 14.4073 6.54227L14.5364 6.34672L16.1611 6.35713L17.7858 6.36754L17.9436 6.4791C18.423 6.81777 18.3504 7.52189 17.811 7.76697C17.6683 7.83182 17.3141 7.83472 9.49494 7.8355L1.32795 7.83632L1.12979 7.7328C0.968526 7.64854 0.911634 7.59139 0.824511 7.42603C0.73248 7.2513 0.720284 7.19437 0.737649 7.02031C0.763008 6.76582 0.904903 6.55436 1.13009 6.43548L1.294 6.34895H2.87953H4.46507L4.59343 6.54339ZM17.441 8.62794C17.474 8.71413 16.4928 15.8709 16.4296 16.004C16.351 16.1698 16.1527 16.3386 15.9804 16.3865C15.7843 16.4409 3.21572 16.4409 3.01964 16.3865C2.84681 16.3385 2.64899 16.1697 2.56968 16.0025C2.50598 15.8684 1.52573 8.71469 1.55912 8.62771C1.58627 8.55699 17.4138 8.55721 17.441 8.62794ZM4.1947 9.37497C3.81204 9.50017 3.51713 9.79567 3.4016 10.1697C3.33125 10.3975 3.32742 10.5167 3.32742 12.4804C3.32742 14.7151 3.33474 14.8121 3.52706 15.1167C3.75203 15.4731 4.09167 15.6561 4.53591 15.6604C4.78898 15.6628 4.86469 15.6479 5.04317 15.5604C5.28781 15.4405 5.53159 15.1914 5.64545 14.9451C5.72498 14.7729 5.7258 14.7486 5.7258 12.5215C5.7258 10.3894 5.72205 10.2622 5.65415 10.0861C5.55866 9.8385 5.27067 9.53902 5.02681 9.43368C4.78973 9.33131 4.41007 9.3045 4.1947 9.37497ZM7.5041 9.37497C7.17323 9.48321 6.88279 9.7429 6.73487 10.0628C6.65645 10.2324 6.65541 10.2645 6.65541 12.5029V14.7712L6.75848 14.981C6.87926 15.2269 7.12913 15.4707 7.37396 15.5817C7.64492 15.7045 8.07793 15.6951 8.35257 15.5604C8.5972 15.4405 8.84098 15.1914 8.95484 14.9451C9.03442 14.7729 9.0352 14.7491 9.0352 12.5029C9.0352 10.251 9.0346 10.2334 8.95417 10.0593C8.83827 9.80842 8.56645 9.53311 8.33665 9.4339C8.09912 9.33131 7.71966 9.30447 7.5041 9.37497ZM10.82 9.37344C10.7382 9.40055 10.6202 9.44937 10.5578 9.48191C10.397 9.5658 10.1397 9.85635 10.0452 10.0608C9.96558 10.233 9.9648 10.2568 9.9648 12.5029C9.9648 14.7491 9.96558 14.7729 10.0452 14.9451C10.159 15.1914 10.4028 15.4405 10.6474 15.5604C10.9221 15.6951 11.3551 15.7045 11.626 15.5817C11.8709 15.4707 12.1207 15.2269 12.2415 14.981L12.3446 14.7712V12.5029V10.2347L12.2416 10.0249C12.1203 9.77801 11.8693 9.53371 11.6266 9.42635C11.4132 9.33194 11.0226 9.30632 10.82 9.37344ZM14.1294 9.37344C13.8827 9.45521 13.7635 9.53151 13.586 9.72123C13.2627 10.0669 13.2742 9.96393 13.2742 12.5215C13.2742 14.7486 13.275 14.7729 13.3546 14.9451C13.4684 15.1914 13.7122 15.4405 13.9568 15.5604C14.1353 15.6479 14.211 15.6628 14.4641 15.6604C14.9087 15.6561 15.248 15.4731 15.4735 15.1159C15.6701 14.8044 15.6764 14.7141 15.6641 12.4034C15.6512 9.99051 15.6617 10.0801 15.3513 9.7348C15.1304 9.48912 14.8518 9.3547 14.5277 9.33745C14.3832 9.32975 14.2156 9.34492 14.1294 9.37344ZM4.80322 10.1615C4.99889 10.2897 5.00071 10.3112 5.00071 12.5029C5.00071 14.7099 5.0009 14.708 4.79311 14.8441C4.65999 14.9314 4.41606 14.9342 4.28752 14.8499C4.09014 14.7206 4.0897 14.7153 4.0897 12.4658C4.0897 10.4618 4.09241 10.3794 4.16228 10.2762C4.30046 10.0722 4.58826 10.0207 4.80322 10.1615ZM8.12333 10.1722C8.30888 10.3098 8.3133 10.3694 8.302 12.5746C8.29237 14.4562 8.2862 14.6303 8.22618 14.7186C8.03922 14.9936 7.60543 14.9781 7.45171 14.6909C7.40813 14.6094 7.39909 14.2315 7.39909 12.4864C7.39909 10.5099 7.40326 10.3738 7.46695 10.2766C7.60275 10.0693 7.91722 10.0194 8.12333 10.1722ZM11.3342 10.1181C11.401 10.146 11.4883 10.2171 11.5283 10.2761C11.5982 10.3795 11.6009 10.4612 11.6009 12.488C11.6009 14.764 11.6048 14.7177 11.4007 14.8515C11.2788 14.9314 11.0306 14.9314 10.9087 14.8515C10.7046 14.7177 10.7085 14.764 10.7085 12.4864C10.7085 10.5099 10.7127 10.3738 10.7763 10.2766C10.8448 10.1721 11.0241 10.0715 11.1466 10.0688C11.183 10.068 11.2675 10.0902 11.3342 10.1181ZM14.6515 10.1263C14.9227 10.255 14.9103 10.143 14.9103 12.4658C14.9103 14.7153 14.9099 14.7206 14.7125 14.8499C14.5868 14.9322 14.3301 14.9317 14.2036 14.8489C14.0001 14.7155 13.9993 14.7062 13.9994 12.4948C13.9994 10.2158 13.994 10.2652 14.2596 10.1325C14.4204 10.0522 14.4928 10.0511 14.6515 10.1263Z" fill="currentColor"/>
	</symbol>

	<symbol id="menus" viewBox="0 0 19 19" fill="currentColor">
        <path fill-rule="evenodd" clip-rule="evenodd" d="M0.945125 0.0486082C0.529455 0.180058 0.137909 0.593817 0.036996 1.00826C0.00492991 1.14009 -0.00568802 2.12199 0.00280632 4.1724L0.0151656 7.14541L0.119136 7.35667C0.25169 7.62611 0.51132 7.88574 0.78076 8.01829L0.992014 8.12226H4.07121H7.15041L7.36166 8.01829C7.6311 7.88574 7.89073 7.62611 8.02328 7.35667L8.12725 7.14541V4.06622V0.98702L8.02328 0.775766C7.89047 0.505816 7.60477 0.220109 7.34985 0.102335C7.15168 0.0107659 7.13087 0.010129 4.13492 0.001847C1.76262 -0.00473611 1.08227 0.00524464 0.945125 0.0486082ZM11.8179 0.0486082C11.4022 0.180058 11.0107 0.593817 10.9097 1.00826C10.8777 1.14009 10.8671 2.12199 10.8756 4.1724L10.8879 7.14541L10.9919 7.35667C11.1244 7.62611 11.3841 7.88574 11.6535 8.01829L11.8648 8.12226H14.944H18.0232L18.2344 8.01829C18.5038 7.88574 18.7635 7.62611 18.896 7.35667L19 7.14541V4.06622V0.98702L18.896 0.775766C18.7632 0.505816 18.4775 0.220109 18.2226 0.102335C18.0244 0.0107659 18.0036 0.010129 15.0077 0.001847C12.6354 -0.00473611 11.955 0.00524464 11.8179 0.0486082ZM7.09651 1.04092L7.23535 1.17976V4.06622V6.95268L7.09651 7.09152L6.95767 7.23036H4.07121H1.18475L1.04591 7.09152L0.907071 6.95268V4.06817V1.18371L1.02973 1.0557C1.09717 0.985278 1.19273 0.91949 1.24209 0.909467C1.2914 0.899443 2.59761 0.893667 4.14473 0.89664L6.95771 0.902076L7.09651 1.04092ZM17.9693 1.04092L18.1081 1.17976V4.06622V6.95268L17.9693 7.09152L17.8304 7.23036H14.944H12.0575L11.9187 7.09152L11.7798 6.95268V4.06817V1.18371L11.9025 1.0557C11.9699 0.985278 12.0655 0.91949 12.1148 0.909467C12.1641 0.899443 13.4704 0.893667 15.0175 0.89664L17.8305 0.902076L17.9693 1.04092ZM0.945125 10.9214C0.529455 11.0528 0.137909 11.4666 0.036996 11.881C0.00492991 12.0128 -0.00568802 12.9947 0.00280632 15.0451L0.0151656 18.0182L0.119136 18.2294C0.25169 18.4989 0.51132 18.7585 0.78076 18.891L0.992014 18.995H4.07121H7.15041L7.36166 18.891C7.6311 18.7585 7.89073 18.4989 8.02328 18.2294L8.12725 18.0182V14.939V11.8598L8.02328 11.6485C7.89047 11.3786 7.60477 11.0929 7.34985 10.9751C7.15168 10.8835 7.13087 10.8829 4.13492 10.8746C1.76262 10.868 1.08227 10.878 0.945125 10.9214ZM11.8179 10.9214C11.4022 11.0528 11.0107 11.4666 10.9097 11.881C10.8777 12.0128 10.8671 12.9947 10.8756 15.0451L10.8879 18.0182L10.9919 18.2294C11.1244 18.4989 11.3841 18.7585 11.6535 18.891L11.8648 18.995H14.944H18.0232L18.2344 18.891C18.5038 18.7585 18.7635 18.4989 18.896 18.2294L19 18.0182V14.939V11.8598L18.896 11.6485C18.7632 11.3786 18.4775 11.0929 18.2226 10.9751C18.0244 10.8835 18.0036 10.8829 15.0077 10.8746C12.6354 10.868 11.955 10.878 11.8179 10.9214ZM7.09651 11.9137L7.23535 12.0525V14.939V17.8254L7.09651 17.9643L6.95767 18.1031H4.07121H1.18475L1.04591 17.9643L0.907071 17.8254V14.9409V12.0565L1.02973 11.9284C1.09717 11.858 1.19273 11.7922 1.24209 11.7822C1.2914 11.7722 2.59761 11.7664 4.14473 11.7694L6.95771 11.7748L7.09651 11.9137ZM17.9693 11.9137L18.1081 12.0525V14.939V17.8254L17.9693 17.9643L17.8304 18.1031H14.944H12.0575L11.9187 17.9643L11.7798 17.8254V14.9409V12.0565L11.9025 11.9284C11.9699 11.858 12.0655 11.7922 12.1148 11.7822C12.1641 11.7722 13.4704 11.7664 15.0175 11.7694L17.8305 11.7748L17.9693 11.9137Z" fill="currentColor"/>
	</symbol>

	<symbol id="carousel" viewBox="0 0 21 17" fill="none">
        <rect x="5.83464" y="0.45" width="9.33077" height="15.1769" rx="1.55" stroke="#0084F4" stroke-width="0.9"/>
        <path d="M15.9808 1.82692V1.82692C16.9898 1.82692 17.8077 2.64486 17.8077 3.65385V8.03846C17.8077 8.03846 17.8077 8.03846 17.8077 8.03846C17.8077 8.03846 17.8077 10.2832 17.8077 12.4232C17.8077 13.4322 16.9898 14.25 15.9808 14.25V14.25" stroke="currentColor" stroke-width="0.9"/>
        <path d="M5.01923 1.82692V1.82692C4.01024 1.82692 3.1923 2.64486 3.1923 3.65385V8.03846C3.1923 8.03846 3.1923 8.03846 3.1923 8.03846C3.1923 8.03846 3.1923 10.2832 3.1923 12.4232C3.1923 13.4322 4.01024 14.25 5.01923 14.25V14.25" stroke="currentColor" stroke-width="0.9"/>
        <path d="M18.5385 3.65385H19C19.5523 3.65385 20 4.10156 20 4.65385V8.03846C20 8.03846 20 8.03846 20 8.03846C20 8.03846 20 9.83302 20 11.4232C20 11.9755 19.5523 12.4231 19 12.4231H18.5385" stroke="currentColor" stroke-width="0.9"/>
        <path d="M2.46155 3.65385H2.00001C1.44772 3.65385 1.00001 4.10156 1.00001 4.65385V8.03846C1.00001 8.03846 1.00001 8.03846 1.00001 8.03846C1.00001 8.03846 1.00001 9.83302 1.00001 11.4232C1.00001 11.9755 1.44772 12.4231 2.00001 12.4231H2.46155" stroke="currentColor" stroke-width="0.9"/>
        <path d="M8.30768 10.0999V5.97697C8.30768 5.59306 8.72242 5.35238 9.05575 5.54285L12.6634 7.60434C12.9993 7.79629 12.9993 8.28063 12.6633 8.47258L9.05575 10.5341C8.72242 10.7245 8.30768 10.4839 8.30768 10.0999Z" stroke="currentColor" stroke-width="0.9"/>
	</symbol>

	<symbol id="doc-fill" viewBox="0 0 15 19" fill="currentColor">
        <path fill-rule="evenodd" clip-rule="evenodd" d="M2.00363 0.0345492C1.06643 0.14669 0.288679 0.84236 0.0595713 1.77339C-0.0198571 2.09624 -0.0198571 16.9169 0.0595713 17.2398C0.263878 18.0701 0.935934 18.7422 1.76629 18.9465C1.94378 18.9902 2.97125 19 7.34368 19H12.7035L13.0231 18.8917C13.6037 18.6948 14.0763 18.2866 14.3489 17.7464C14.5956 17.2578 14.5825 17.6296 14.5821 11.13C14.5819 5.55169 14.5778 5.18885 14.5129 5.0932C14.3916 4.91405 9.51732 0.09416 9.4074 0.0445964C9.3273 0.0084818 8.44872 -0.00223786 5.78122 0.000372834C3.84496 0.00223196 2.14504 0.0176192 2.00363 0.0345492ZM8.80963 2.46562C8.82537 3.56124 8.84657 4.05414 8.88273 4.16652C9.05915 4.71445 9.51103 5.27369 9.97439 5.51756C10.4709 5.77882 10.4993 5.78262 12.1497 5.80631L13.6529 5.82787L13.6629 11.4133L13.6729 16.9987L13.5872 17.2277C13.4702 17.5404 13.1428 17.868 12.8303 17.9849L12.6017 18.0704H7.30413C2.05723 18.0704 2.00454 18.0696 1.78947 17.9892C1.51741 17.8874 1.22509 17.6278 1.07256 17.3524L0.955395 17.1409V9.50657V1.87228L1.04855 1.69428C1.24748 1.31403 1.64976 1.00937 2.04049 0.942951C2.13986 0.926061 3.6986 0.914629 5.50433 0.917596L8.78748 0.922936L8.80963 2.46562ZM12.9758 4.86619C12.9649 4.88387 12.4961 4.89831 11.934 4.89831C11.0199 4.89831 10.8847 4.88984 10.653 4.81829C10.3242 4.71675 10.0069 4.43962 9.84734 4.1147L9.73682 3.88963L9.72456 2.80687C9.71783 2.21131 9.72309 1.69602 9.73627 1.66168C9.75371 1.61619 10.1979 2.03691 11.3779 3.21671C12.2677 4.10628 12.9867 4.84855 12.9758 4.86619Z" fill="currentColor"/>
	</symbol>

	<symbol id="card" viewBox="0 0 19 19" fill="none">
        <rect x="0.45" y="0.45" width="18.1" height="18.1" rx="1.55" stroke="currentColor" stroke-width="0.9"/>
        <circle cx="6.47727" cy="12.5227" r="1.70909" stroke="currentColor" stroke-width="0.9"/>
        <path d="M4.31818 7.77272V7.77272C8.13396 7.77272 11.2273 10.866 11.2273 14.6818V14.6818" stroke="currentColor" stroke-width="0.9" stroke-linecap="round"/>
        <path d="M4.31818 5.18182V5.18182C9.56488 5.18182 13.8182 9.43512 13.8182 14.6818V14.6818" stroke="currentColor" stroke-width="0.9" stroke-linecap="round"/>
	</symbol>

	<symbol id="mobile-phone-alt" viewBox="0 0 12 19" fill="none">
        <path fill-rule="evenodd" clip-rule="evenodd" d="M1.72854 0.0665965C0.995613 0.26398 0.354798 0.866745 0.102862 1.59579L0 1.89345V9.49883V17.1042L0.100587 17.3951C0.288871 17.9395 0.697152 18.428 1.19777 18.708C1.73501 19.0085 1.60413 19 5.7109 19C8.97367 19 9.44708 18.9915 9.6603 18.9288C10.4721 18.6904 11.1214 18.0316 11.3286 17.2362C11.3886 17.0058 11.3969 16.0672 11.3969 9.49883C11.3969 1.26914 11.4142 1.78791 11.1222 1.24006C10.835 0.701211 10.3075 0.270403 9.70834 0.0852867C9.43579 0.00106993 9.28039 -0.00218628 5.69377 0.000623919C2.62584 0.00303266 1.92106 0.014764 1.72854 0.0665965ZM2.68494 1.07885C2.76934 1.1632 2.80373 1.26151 2.83446 1.50622C2.88442 1.90442 3.02912 2.19396 3.30881 2.45558C3.70603 2.82715 3.72534 2.83018 5.6873 2.83018C7.64927 2.83018 7.66858 2.82715 8.0658 2.45558C8.34548 2.19396 8.49018 1.90442 8.54014 1.50622C8.59572 1.06377 8.70434 0.955645 9.08965 0.959437C9.46394 0.963094 9.77141 1.10316 10.0487 1.39631C10.1682 1.52268 10.3046 1.7264 10.3519 1.84898C10.4356 2.06585 10.4379 2.27242 10.4379 9.49883C10.4379 16.7252 10.4356 16.9318 10.3519 17.1487C10.2393 17.4407 9.89261 17.8034 9.59937 17.936L9.36732 18.0409H5.6873H2.00728L1.75289 17.916C1.43374 17.7593 1.12577 17.4232 1.01792 17.114C0.940658 16.8925 0.936732 16.5235 0.936732 9.49883C0.936732 2.49885 0.940881 2.10453 1.0172 1.88582C1.10798 1.62568 1.37164 1.30215 1.61604 1.15111C1.99769 0.915277 2.48823 0.882089 2.68494 1.07885ZM7.61336 1.15744C7.59007 1.48423 7.52143 1.6821 7.39755 1.77952C7.28501 1.86807 7.22743 1.87115 5.6873 1.87115C4.14718 1.87115 4.08959 1.86807 3.97705 1.77952C3.913 1.72916 3.84203 1.61372 3.81933 1.52304C3.76111 1.29059 3.72918 0.989368 3.75946 0.95908C3.77351 0.944984 4.64963 0.938695 5.70635 0.945118L7.62768 0.956716L7.61336 1.15744Z" fill="currentColor"/>
        <rect x="2.33092" y="5.20801" width="1.9548" height="1.9548" stroke="currentColor" stroke-width="0.9"/>
        <rect x="2.33092" y="9.96601" width="1.9548" height="1.9548" stroke="currentColor" stroke-width="0.9"/>
        <rect x="2.33092" y="14.724" width="1.9548" height="1.9548" stroke="currentColor" stroke-width="0.9"/>
        <rect x="7.08892" y="5.20801" width="1.9548" height="1.9548" stroke="currentColor" stroke-width="0.9"/>
        <rect x="7.08892" y="9.96601" width="1.9548" height="1.9548" stroke="currentColor" stroke-width="0.9"/>
        <rect x="7.08892" y="14.724" width="1.9548" height="1.9548" stroke="currentColor" stroke-width="0.9"/>
	</symbol>

    <symbol id="mobile-app" viewBox="0 0 256 256" fill="currentColor">
        <g transform="translate(1.4065934065934016 1.4065934065934016) scale(2.81 2.81)" >
            <path d="M 55.229 78.816 v 6.086 c 0 0.606 -0.493 1.098 -1.098 1.098 H 18.004 c -0.606 0 -1.098 -0.493 -1.098 -1.098 V 4.731 C 16.906 4.328 17.234 4 17.637 4 h 5.689 c 0.379 2.345 2.052 4.126 4.044 4.126 h 17.396 c 1.992 0 3.664 -1.781 4.044 -4.126 h 5.321 c 0.606 0 1.098 0.493 1.098 1.098 v 18.809 c 1.362 0.081 2.698 0.258 4 0.531 V 5.098 C 59.229 2.283 56.946 0 54.131 0 H 17.637 c -2.613 0 -4.731 2.118 -4.731 4.731 v 80.171 c 0 2.816 2.283 5.098 5.098 5.098 h 36.126 c 2.816 0 5.098 -2.283 5.098 -5.098 v -6.617 C 57.927 78.557 56.591 78.735 55.229 78.816 z M 41.948 4.25 c 0.414 0 0.75 0.336 0.75 0.75 c 0 0.414 -0.336 0.75 -0.75 0.75 c -0.414 0 -0.75 -0.336 -0.75 -0.75 C 41.198 4.586 41.534 4.25 41.948 4.25 z M 29.437 4.25 h 9.466 c 0.414 0 0.75 0.336 0.75 0.75 s -0.336 0.75 -0.75 0.75 h -9.466 c -0.414 0 -0.75 -0.336 -0.75 -0.75 S 29.023 4.25 29.437 4.25 z" transform=" matrix(1 0 0 1 0 0) " stroke-linecap="round" />
            <path d="M 55.832 46.387 c -0.753 0.753 -0.753 1.975 0 2.728 s 1.975 0.753 2.728 0 c 0.753 -0.753 0.753 -1.975 0 -2.728 C 57.807 45.634 56.585 45.634 55.832 46.387 z" transform=" matrix(1 0 0 1 0 0) " stroke-linecap="round" />
            <path d="M 53.586 27.853 c -12.983 0 -23.508 10.525 -23.508 23.508 c 0 12.983 10.525 23.508 23.508 23.508 s 23.508 -10.525 23.508 -23.508 C 77.094 38.378 66.569 27.853 53.586 27.853 z M 56.922 55.357 c -0.008 0.008 -0.016 0.015 -0.024 0.024 v 4.411 l -2.233 4.052 l -3.719 -3.719 c -0.517 0.316 -1.029 0.609 -1.53 0.865 l -5.457 -5.457 c 0.256 -0.5 0.549 -1.013 0.865 -1.53 l -3.719 -3.719 l 4.052 -2.233 h 4.411 c 0.008 -0.008 0.016 -0.016 0.024 -0.024 c 5.292 -5.292 11.26 -8.088 14.189 -6.857 C 65.01 44.097 62.214 50.065 56.922 55.357 z" transform=" matrix(1 0 0 1 0 0) " stroke-linecap="round" />
        </g>
    </symbol>
</svg>
