<svg width="24" height="24" viewBox="0 0 24 24" fill="none" xmlns="http://www.w3.org/2000/svg">
<path d="M21.2049 20.746L19.8307 5.27117C19.8012 4.92761 19.5117 4.66748 19.173 4.66748H16.346C16.3067 2.08589 14.1963 0 11.6049 0C9.0135 0 6.90307 2.08589 6.8638 4.66748H4.03681C3.69325 4.66748 3.40859 4.92761 3.37914 5.27117L2.00491 20.746C2.00491 20.7656 2 20.7853 2 20.8049C2 22.5669 3.61472 24 5.60245 24H17.6074C19.5951 24 21.2098 22.5669 21.2098 20.8049C21.2098 20.7853 21.2098 20.7656 21.2049 20.746ZM11.6049 1.32515C13.465 1.32515 14.9816 2.81718 15.0209 4.66748H8.18896C8.22822 2.81718 9.74478 1.32515 11.6049 1.32515ZM17.6074 22.6748H5.60245C4.35583 22.6748 3.34479 21.8503 3.32515 20.8344L4.64049 5.99755H6.8589V8.00982C6.8589 8.37791 7.15337 8.67239 7.52147 8.67239C7.88957 8.67239 8.18405 8.37791 8.18405 8.00982V5.99755H15.0209V8.00982C15.0209 8.37791 15.3153 8.67239 15.6834 8.67239C16.0515 8.67239 16.346 8.37791 16.346 8.00982V5.99755H18.5644L19.8847 20.8344C19.865 21.8503 18.8491 22.6748 17.6074 22.6748Z" fill="#0084F4"/>
</svg>
