<svg width="24" height="24" viewBox="0 0 24 24" fill="none" xmlns="http://www.w3.org/2000/svg">
<path d="M21.1613 4.62876H16.7067V3.83441C16.7067 2.75599 15.8304 1.875 14.7473 1.875H9.24839C8.16998 1.875 7.28898 2.75132 7.28898 3.83441V4.62446L2.83441 4.62446L2.83388 4.62446C1.74441 4.62908 0.875 5.51245 0.875 6.75571V18.6686C0.875 19.5829 1.75931 20.4562 2.83441 20.4562H21.1656C22.236 20.4562 23.125 19.5876 23.125 18.6686V6.75571V6.75526C23.1205 5.51254 22.2513 4.62876 21.1613 4.62876ZM21.9127 18.4151V18.4152C21.9127 18.8527 21.5566 19.2052 21.1226 19.2052H2.87737C2.43985 19.2052 2.08731 18.8491 2.08731 18.4152V12.2928C2.3283 12.4024 2.59403 12.4656 2.87737 12.4656H9.95682V13.5434C9.95682 13.866 10.219 14.1281 10.5415 14.1281H13.4628C13.7853 14.1281 14.0475 13.866 14.0475 13.5434V12.4656H21.1269C21.4111 12.4656 21.6768 12.3994 21.9168 12.2911L21.9127 18.4151ZM8.54425 3.92033C8.54425 3.48281 8.90033 3.13027 9.33431 3.13027H14.6614C15.0989 3.13027 15.4514 3.48635 15.4514 3.92033V4.62446H8.54425V3.92033ZM11.2078 12.8771V11.4646H12.7922V12.8771H11.2078ZM21.8268 10.4245C21.8268 10.862 21.4707 11.2146 21.0367 11.2146H14.0432V10.794C14.0432 10.4715 13.781 10.2093 13.4585 10.2093H10.5372C10.2147 10.2093 9.95252 10.4715 9.95252 10.794V11.2146H2.96329C2.52577 11.2146 2.17323 10.8585 2.17323 10.4245V6.67409C2.17323 6.23657 2.52931 5.88403 2.96329 5.88403H21.0367C21.4742 5.88403 21.8268 6.2401 21.8268 6.67409V10.4245Z" fill="#0084F4" stroke="#0084F4" stroke-width="0.25"/>
</svg>
