<svg width="15" height="16" viewBox="0 0 15 16" fill="none" xmlns="http://www.w3.org/2000/svg">
<path fill-rule="evenodd" clip-rule="evenodd" d="M14.4 3.2V14.4C14.4 15.28 13.68 16 12.8 16H1.6C0.712 16 0 15.28 0 14.4L0.008 3.2C0.008 2.32 0.712 1.6 1.6 1.6H2.4V0H4V1.6H10.4V0H12V1.6H12.8C13.68 1.6 14.4 2.32 14.4 3.2ZM1.6 4.8H12.8V3.2H1.6V4.8ZM12.8 6.4V14.4H1.6V6.4H12.8ZM9.6001 9.6H11.2001V8H9.6001V9.6ZM11.2001 12.4H9.6001V10.8H11.2001V12.4ZM6.3999 9.6H7.9999V8H6.3999V9.6ZM4.6 9.6H3V8H4.6V9.6ZM6.3999 12.4H7.9999V10.8H6.3999V12.4ZM4.6 12.4H3V10.8H4.6V12.4Z" fill="white"/>
</svg>
