<svg width="19" height="19" fill="none" xmlns="http://www.w3.org/2000/svg"><path fill-rule="evenodd" clip-rule="evenodd" d="M2.109.063C1.124.241.255 1.114.066 2.116c-.088.465-.088 14.26 0 14.754.18 1.008 1.053 1.881 2.061 2.06.482.087 14.265.087 14.748 0 1.008-.179 1.88-1.052 2.06-2.06.087-.482.087-14.265 0-14.748-.18-1.013-1.049-1.88-2.065-2.061C16.407-.022 2.565-.02 2.11.063Zm8.503 4.307c.246.068.524.367.579.623.086.41-.088.765-.478.973-.135.072-.296.076-3.374.076H4.107l-.193-.114a.857.857 0 0 1-.175-1.357c.258-.25.147-.243 3.58-.245 2.17 0 3.181.013 3.293.044Zm2.799 4.408a.864.864 0 0 1 0 1.436l-.167.11-3.26.011-3.26.011-.216-.113a.835.835 0 0 1 0-1.473l.217-.114 3.26.011 3.26.011.166.11Zm1.664 4.274c.516.29.6.995.164 1.389a.95.95 0 0 1-.31.184c-.22.06-6.319.059-6.54-.002-.245-.068-.523-.368-.578-.623-.102-.48.174-.911.66-1.032.066-.017 1.539-.027 3.272-.024l3.152.007.18.1Z" fill="currentColor"/></svg>