<svg width="20" height="18" fill="none" xmlns="http://www.w3.org/2000/svg"><path fill-rule="evenodd" clip-rule="evenodd" d="M0 3a3 3 0 0 1 3-3h14a3 3 0 0 1 3 3v8a3 3 0 0 1-3 3H3a3 3 0 0 1-3-3V3Zm16.258 2.01c-.16.052-.267.226-.257.42a.46.46 0 0 0 .06.211c.013.022.268.334.567.695.3.36.544.66.542.666-.001.006-.245.304-.542.66-.296.358-.552.673-.568.7a.464.464 0 0 0 .043.518c.124.15.318.16.454.023.016-.016.331-.393.7-.838l.026-.031c.611-.736.677-.816.701-.906a.587.587 0 0 0 .008-.035v-.005a.505.505 0 0 0-.054-.323 81.95 81.95 0 0 0-1.408-1.696.314.314 0 0 0-.272-.058Zm-12.259.42c.01-.194-.097-.368-.257-.42a.314.314 0 0 0-.272.059 81.79 81.79 0 0 0-1.408 1.696.505.505 0 0 0-.055.323l.009.04c.024.092.092.172.727.937.369.445.684.822.7.838.136.138.33.128.454-.023a.464.464 0 0 0 .043-.518 25.064 25.064 0 0 0-.568-.7c-.297-.356-.54-.654-.542-.66-.002-.006.242-.306.542-.666.299-.36.554-.673.567-.695a.459.459 0 0 0 .06-.212Z" fill="currentColor"/><circle cx="5.5" cy="16.5" r="1.5" fill="currentColor"/><circle cx="9.5" cy="16.5" r="1.5" fill="currentColor"/><circle cx="13.5" cy="16.5" r="1.5" fill="currentColor"/></svg>