<svg width="20" height="19" fill="none" xmlns="http://www.w3.org/2000/svg"><path fill-rule="evenodd" clip-rule="evenodd" d="M.123.123A.403.403 0 0 0 0 .4c0 .097.045.2.123.277L.246.8h2.233l1.289 5.895c.709 3.243 1.3 5.94 1.315 5.996.026.097-.003.1-.94.118-.904.018-.984.027-1.218.141a1.785 1.785 0 0 0-.775.775c-.169.343-.173.988-.01 1.327.172.352.375.565.719.752l.316.171 1.115.017c.825.012 1.11.031 1.09.075-.13.308-.19.63-.162.89.058.555.343.977.84 1.246.29.155.354.17.742.17s.452-.015.74-.17c.35-.188.506-.35.689-.71.212-.42.209-.906-.011-1.43-.02-.05.435-.063 2.182-.063 1.747 0 2.203.013 2.182.063-.134.319-.191.634-.164.895.058.554.343.976.84 1.245.29.155.354.17.742.17s.453-.015.74-.17c.35-.188.506-.35.689-.71.212-.42.209-.906-.011-1.43-.02-.05.31-.063 1.555-.063h1.582l.122-.123a.39.39 0 0 0 .027-.534l-.095-.118-7.65-.025c-7.63-.025-7.652-.025-7.79-.128-.262-.196-.344-.356-.344-.672 0-.316.082-.476.344-.672.138-.102.173-.103 6.383-.128 5.463-.022 6.254-.034 6.317-.1C15.973 13.393 20 3.705 20 3.563c0-.065-.055-.173-.123-.24l-.122-.123H3.819l-.322-1.488c-.259-1.2-.342-1.509-.432-1.6C2.956.002 2.94 0 1.6 0H.246L.123.123Zm18.862 3.914c-.011.021-.837 2.001-1.836 4.4L15.334 12.8H5.92l-.938-4.294c-.517-2.361-.951-4.341-.967-4.4L3.988 4h7.51c4.13 0 7.499.017 7.487.037ZM7.117 16.068c.513.215.639.888.239 1.288a.757.757 0 0 1-1.112 0c-.618-.619.064-1.626.873-1.288Zm7.2 0c.513.215.639.888.239 1.288-.562.562-1.482.058-1.334-.73.088-.47.636-.75 1.095-.558Z" fill="currentColor"/></svg>