<svg width="19" height="17" fill="none" xmlns="http://www.w3.org/2000/svg"><path fill-rule="evenodd" clip-rule="evenodd" d="M5.696.012C4.756.23 4.061.86 3.764 1.77c-.057.175-.07.39-.088 1.503l-.02 1.299-1.43.018C.624 4.61.665 4.603.35 4.893a1.236 1.236 0 0 0-.262.356C.001 5.443 0 5.456 0 6.845v1.4l.106.223c.186.393.5.596.995.641.26.024.287.034.314.119.016.051.289 1.528.607 3.282.326 1.794.608 3.257.647 3.343.083.188.286.397.496.509l.156.084 6.122.01c6.95.01 6.34.038 6.683-.304.109-.11.215-.26.251-.356.034-.092.321-1.603.638-3.358.317-1.755.59-3.217.607-3.247.02-.037.122-.065.299-.083.479-.048.79-.254.974-.64L19 8.245V6.847c0-1.586.002-1.576-.304-1.91-.302-.328-.292-.327-1.923-.348l-1.428-.018-.021-1.3c-.023-1.45-.024-1.456-.307-2.003-.27-.523-.809-.978-1.398-1.18l-.241-.082L9.574.001C7.482-.002 5.737.003 5.696.012Zm7.433 2.072c.189.158.195.209.185 1.392l-.01 1.095H5.696l-.01-1.105c-.01-1.225-.005-1.261.225-1.402.116-.07.213-.072 3.614-.072h3.495l.11.092ZM6.71 7.8c.183.077.3.19.383.37.064.138.069.289.07 2.366 0 2.394.002 2.368-.197 2.581-.378.406-1.097.244-1.251-.283-.028-.094-.037-.845-.03-2.37l.012-2.233.112-.16a.752.752 0 0 1 .9-.271Zm3.124.026c.09.046.215.148.277.226l.114.143.01 2.25c.007 1.239.001 2.307-.011 2.376-.03.16-.282.434-.452.49-.338.112-.75-.044-.91-.345l-.085-.158V8.276l.112-.18a.709.709 0 0 1 .945-.269Zm3.122.003a.73.73 0 0 1 .274.266l.112.18v4.539l-.111.18a.753.753 0 0 1-.92.3.904.904 0 0 1-.396-.405c-.026-.07-.039-.856-.039-2.348 0-2.439-.004-2.386.209-2.58.259-.238.58-.286.87-.132Z" fill="currentColor"/></svg>