<svg width="20" height="20" fill="none" xmlns="http://www.w3.org/2000/svg"><path fill-rule="evenodd" clip-rule="evenodd" d="M8.503.076c-.043.048-.134.416-.251 1.023-.2 1.026-.23 1.132-.321 1.132-.174 0-1.133.369-1.671.643l-.615.312-.857-.58c-.472-.32-.898-.581-.946-.581-.124 0-1.855 1.763-1.855 1.89 0 .049.257.482.57.963l.57.874-.304.615c-.268.542-.633 1.529-.633 1.71 0 .097-.098.126-1.112.33-.595.12-.956.212-1.004.256C.005 8.727 0 8.822 0 10s.005 1.273.074 1.337c.048.044.41.136 1.004.256 1.008.203 1.112.233 1.112.326 0 .178.362 1.154.63 1.703l.307.626-.57.874c-.313.48-.57.914-.57.964 0 .126 1.731 1.89 1.855 1.89.048 0 .474-.262.946-.582l.858-.58.594.304c.532.272 1.51.65 1.685.65.098 0 .125.095.327 1.133.117.607.208.974.25 1.023.063.07.157.076 1.313.076s1.25-.005 1.312-.076c.043-.049.133-.416.251-1.023.2-1.026.23-1.132.32-1.132.175 0 1.133-.369 1.672-.643l.614-.312.858.58c.472.32.897.581.946.581.123 0 1.854-1.763 1.854-1.89 0-.049-.257-.484-.572-.966l-.571-.876.263-.52a8.461 8.461 0 0 0 .621-1.576 1.9 1.9 0 0 1 .094-.296c.013-.016.47-.123 1.013-.237.63-.132 1.017-.233 1.065-.277.07-.064.075-.156.075-1.337 0-1.18-.006-1.273-.075-1.337-.048-.044-.436-.145-1.065-.277-.544-.114-1-.22-1.014-.237a1.825 1.825 0 0 1-.095-.298 8.404 8.404 0 0 0-.619-1.574l-.263-.52.572-.876c.314-.482.571-.917.571-.967 0-.126-1.73-1.89-1.854-1.89-.049 0-.475.263-.948.583l-.86.583-.552-.29c-.497-.262-1.544-.669-1.72-.669-.102 0-.127-.088-.33-1.132-.118-.607-.208-.975-.251-1.023C11.064.006 10.97 0 9.815 0c-1.156 0-1.25.005-1.312.076Zm2.224.595a91 91 0 0 1 .198.993c.113.576.201.927.245.976.038.043.177.1.313.126.583.117 1.45.48 2.164.908.156.093.305.169.332.169.028 0 .431-.258.898-.574l.848-.574.63.642.63.642-.564.864c-.31.475-.563.886-.563.914 0 .028.075.18.166.339.417.723.82 1.736.907 2.278a.5.5 0 0 0 .105.244c.05.046.381.133.96.25.486.1.924.19.975.202.09.022.09.023.09.93s0 .908-.09.93c-.05.012-.489.103-.975.201-.579.118-.91.204-.96.251a.5.5 0 0 0-.105.244c-.087.542-.49 1.555-.907 2.278-.091.159-.166.312-.166.34 0 .027.253.438.563.913l.564.864-.63.642-.63.642-.848-.574c-.467-.316-.87-.574-.898-.574-.027 0-.176.076-.332.17-.715.427-1.58.79-2.164.907-.136.027-.275.083-.313.125-.044.05-.132.4-.245.977-.097.495-.186.941-.198.992-.021.093-.022.094-.912.094s-.89 0-.913-.094a87.664 87.664 0 0 1-.198-.992c-.115-.59-.2-.927-.246-.978a.485.485 0 0 0-.238-.108c-.533-.092-1.431-.456-2.14-.867-.212-.124-.408-.226-.433-.226-.025 0-.428.258-.894.574l-.848.574-.63-.642-.631-.643.525-.8c.289-.442.543-.85.565-.91.035-.093.013-.157-.16-.463-.11-.195-.267-.495-.35-.665-.163-.332-.48-1.27-.526-1.56a.411.411 0 0 0-.121-.25c-.06-.048-.403-.136-.98-.252a53.88 53.88 0 0 1-.958-.197C.574 10.905.568 10.826.568 10c0-.826.006-.905.07-.923.04-.01.47-.1.959-.197.577-.116.92-.204.98-.252a.411.411 0 0 0 .12-.25c.089-.546.49-1.557.909-2.282.091-.159.166-.311.166-.34 0-.027-.254-.438-.564-.913l-.563-.864.63-.643.631-.643.786.536c.433.294.834.553.892.575.09.036.158.01.495-.185.71-.413 1.607-.777 2.14-.869a.486.486 0 0 0 .24-.108c.045-.051.13-.388.245-.978.097-.495.186-.941.198-.993.022-.092.023-.092.913-.092s.89 0 .912.092ZM9.312 5.168a4.912 4.912 0 0 0-1.938.662c-1.98 1.203-2.828 3.685-2.013 5.89 1.042 2.82 4.385 4.002 6.904 2.441 2.537-1.572 3.084-5.028 1.16-7.33-.987-1.181-2.603-1.834-4.113-1.663Zm.99.577A4.077 4.077 0 0 1 12.78 6.98c1.386 1.412 1.634 3.52.62 5.262-.269.46-.93 1.136-1.38 1.408-1.192.72-2.55.833-3.803.314-.714-.296-1.506-.96-1.91-1.601-.904-1.434-.931-3.138-.073-4.608.254-.436.893-1.098 1.318-1.365.863-.544 1.799-.763 2.75-.644Z" fill="currentColor"/></svg>