<svg width="24" height="24" viewBox="0 0 24 24" fill="none" xmlns="http://www.w3.org/2000/svg">
<path fill-rule="evenodd" clip-rule="evenodd" d="M10.8889 0.0313442C8.1088 0.318029 5.64671 1.44844 3.69519 3.3342C2.61326 4.37963 1.88573 5.36526 1.24821 6.64917C0.652736 7.84843 0.277967 9.05383 0.0893618 10.3765C-0.0288506 11.2053 -0.0299769 12.8682 0.0871561 13.638C0.198189 14.368 0.407583 15.23 0.645697 15.9375C0.876819 16.6242 1.49153 17.8848 1.903 18.5159L2.19194 18.959L1.7632 20.5523C1.47703 21.6161 1.34385 22.1883 1.36262 22.2738C1.39486 22.4205 1.54691 22.5753 1.70623 22.6237C1.77977 22.646 2.33981 22.5164 3.42324 22.2263L5.03115 21.7958L5.42586 22.0523C8.29675 23.9181 11.7815 24.4714 15.1163 23.5908C16.6498 23.1859 18.2628 22.3615 19.5547 21.3224C20.1251 20.8636 21.1179 19.8383 21.5577 19.254C22.2538 18.329 22.8743 17.1931 23.2761 16.1085C24.2141 13.5766 24.23 10.5933 23.3194 7.99742C22.9955 7.07411 22.1688 5.48953 21.8293 5.14127C21.6412 4.94835 21.3784 4.94797 21.186 5.14038C20.9664 5.36005 20.9946 5.53148 21.3394 6.07252C22.641 8.11507 23.237 10.5691 23.0173 12.981C22.5718 17.87 18.9801 21.8701 14.1739 22.83C13.0398 23.0565 11.5895 23.1065 10.5135 22.9561C8.7603 22.7112 7.27592 22.149 5.79706 21.17C5.5047 20.9764 5.22149 20.8178 5.16766 20.8174C5.11383 20.8171 4.50428 20.9678 3.81317 21.1525C3.12201 21.3371 2.54362 21.4752 2.5278 21.4594C2.51199 21.4436 2.65033 20.8652 2.83518 20.174C3.02003 19.4829 3.17081 18.8742 3.17025 18.8214C3.16964 18.7686 3.01229 18.4896 2.82059 18.2013C2.2314 17.3155 1.87578 16.6016 1.54442 15.6397C0.834818 13.5798 0.747625 11.3753 1.29077 9.22629C1.49158 8.4317 1.73504 7.78878 2.13473 6.99766C2.72772 5.82384 3.26495 5.08383 4.1969 4.15709C5.82916 2.53398 7.85496 1.48007 10.0911 1.09066C12.7907 0.620482 15.5329 1.15758 17.8526 2.61081C18.4645 2.99407 18.6235 3.02452 18.8468 2.80119C19.0392 2.60879 19.0389 2.34599 18.8459 2.1579C18.4977 1.81837 16.9131 0.991685 15.9898 0.667833C15.3278 0.435585 14.4803 0.226941 13.7515 0.116707C13.0434 0.00961639 11.5357 -0.0353409 10.8889 0.0313442ZM19.9124 3.43984C19.6723 3.5933 19.6223 3.99519 19.821 4.17497C20.0359 4.36944 20.4324 4.30388 20.5625 4.05235C20.7702 3.6506 20.2903 3.19839 19.9124 3.43984ZM11.1185 4.34734C9.57216 4.62553 8.21514 5.69155 7.59977 7.11156C7.51107 7.31626 7.41816 7.59084 7.39333 7.72172C7.2281 8.59313 7.94187 9.43324 8.8475 9.43324C9.47943 9.43324 9.92361 9.11948 10.2356 8.45263C10.4904 7.90817 10.7354 7.63105 11.1368 7.43349C11.4246 7.29176 11.4864 7.27923 11.8969 7.27942C12.2901 7.27961 12.3755 7.29528 12.6096 7.41002C12.9724 7.58802 13.4046 8.05421 13.5403 8.4141C13.6734 8.76719 13.6571 9.36707 13.5053 9.70622C13.3604 10.0299 13.0183 10.3682 12.5844 10.6169C12.0435 10.927 11.7017 11.2118 11.3547 11.6417C10.7608 12.3776 10.4717 13.1665 10.4685 14.0604C10.4668 14.5407 10.4792 14.6258 10.5816 14.8339C10.9364 15.5549 11.8111 15.8637 12.5314 15.5224C13.0291 15.2866 13.3286 14.8511 13.3806 14.2876C13.3957 14.1239 13.4298 13.9186 13.4564 13.8313C13.5274 13.5982 13.7928 13.3305 14.1697 13.1117C15.3136 12.4478 16.1191 11.416 16.4595 10.1786C16.6004 9.66657 16.611 8.3798 16.4784 7.8893C16.2455 7.02779 15.8048 6.28651 15.1517 5.65748C14.6722 5.19557 14.4527 5.03648 13.934 4.77495C13.2907 4.45058 12.8256 4.33899 12.0386 4.32036C11.6644 4.31149 11.2503 4.32359 11.1185 4.34734ZM13.0007 5.39783C13.6023 5.60103 14.0292 5.8681 14.5077 6.34067C14.998 6.82483 15.3045 7.30514 15.4959 7.8893C15.6725 8.42855 15.7019 9.26993 15.5643 9.84752C15.3185 10.8789 14.7127 11.6897 13.7678 12.2522C13.2039 12.5879 13.0782 12.6902 12.8519 12.9972C12.6338 13.2932 12.461 13.7659 12.461 14.0668C12.461 14.3025 12.3603 14.5432 12.2208 14.6408C12.1603 14.6833 12.0201 14.7174 11.9061 14.7174C11.7351 14.7174 11.674 14.6907 11.5412 14.5578C11.3927 14.4094 11.3816 14.3772 11.3816 14.096C11.3816 13.0456 11.9994 12.0608 13.0511 11.4345C13.6897 11.0543 14.0354 10.7119 14.2856 10.212C14.5229 9.73804 14.5882 9.4171 14.5621 8.85448C14.5216 7.9833 14.1042 7.2599 13.3588 6.76912C12.9035 6.46934 12.5654 6.35667 12.0386 6.32912C11.5203 6.302 11.1546 6.37661 10.6777 6.6068C10.2507 6.81291 9.72107 7.3539 9.51402 7.79544C9.42931 7.97612 9.33414 8.17674 9.30251 8.24126C9.27093 8.30579 9.16267 8.39894 9.06196 8.44831C8.89574 8.52973 8.86148 8.53189 8.69141 8.47177C8.26798 8.32203 8.21448 7.99667 8.51224 7.38154C9.03244 6.30678 10.0247 5.53242 11.1974 5.286C11.3117 5.26197 11.6796 5.24879 12.0152 5.25667C12.5299 5.26878 12.6839 5.29083 13.0007 5.39783ZM11.6267 16.7851C10.4826 17.0106 10.0468 18.4398 10.871 19.2639C11.1798 19.5728 11.4279 19.6683 11.9213 19.6683C12.3017 19.6683 12.3686 19.6545 12.595 19.5291C13.2808 19.1492 13.5674 18.3382 13.261 17.6447C13.151 17.3957 12.8728 17.0887 12.6292 16.9475C12.4727 16.8568 11.9602 16.7199 11.854 16.7404C11.8394 16.7433 11.7371 16.7633 11.6267 16.7851ZM12.2185 17.8004C12.2788 17.8381 12.36 17.9454 12.3991 18.039C12.5473 18.3937 12.2949 18.7532 11.8976 18.7532C11.7363 18.7532 11.6719 18.7244 11.5412 18.5936C11.0826 18.1351 11.6643 17.4539 12.2185 17.8004Z" fill="currentColor"/>
<mask id="mask0_2253_1665" style="mask-type:alpha" maskUnits="userSpaceOnUse" x="0" y="0" width="24" height="24">
<path fill-rule="evenodd" clip-rule="evenodd" d="M23.9687 10.8933C23.682 8.11319 22.5516 5.6511 20.6658 3.69959C19.6204 2.61765 18.6347 1.89012 17.3508 1.2526C16.1516 0.65713 14.9462 0.282361 13.6235 0.0937559C12.7947 -0.0244566 11.1318 -0.0255829 10.362 0.0915501C9.63197 0.202582 8.77003 0.411976 8.0625 0.650091C7.3758 0.881212 6.11521 1.49593 5.48412 1.90739L5.04102 2.19633L3.44766 1.76759C2.38394 1.48143 1.81174 1.34824 1.72624 1.36701C1.57954 1.39925 1.42472 1.5513 1.3763 1.71062C1.35396 1.78416 1.48357 2.3442 1.77368 3.42764L2.20425 5.03554L1.94769 5.43025C0.0818707 8.30114 -0.471415 11.7859 0.409194 15.1207C0.81414 16.6542 1.63853 18.2672 2.67761 19.5591C3.13639 20.1295 4.16168 21.1223 4.74598 21.562C5.67103 22.2582 6.80688 22.8787 7.89154 23.2805C10.4234 24.2185 13.4067 24.2344 16.0026 23.3238C16.9259 22.9999 18.5105 22.1732 18.8587 21.8337C19.0516 21.6456 19.052 21.3828 18.8596 21.1904C18.6399 20.9708 18.4685 20.999 17.9275 21.3438C15.8849 22.6454 13.4309 23.2414 11.019 23.0217C6.12999 22.5762 2.12991 18.9845 1.17 14.1783C0.943521 13.0442 0.893543 11.5939 1.0439 10.5178C1.28882 8.7647 1.85097 7.28031 2.83004 5.80146C3.02362 5.50909 3.18224 5.22588 3.18261 5.17205C3.18294 5.11823 3.03216 4.50868 2.84754 3.81756C2.66293 3.1264 2.52482 2.54801 2.54063 2.5322C2.5564 2.51638 3.13479 2.65473 3.82595 2.83958C4.51706 3.02443 5.12577 3.17521 5.17856 3.17465C5.23136 3.17404 5.51044 3.01668 5.79872 2.82498C6.68449 2.2358 7.39841 1.88018 8.3603 1.54881C10.4202 0.839212 12.6247 0.752019 14.7737 1.29517C15.5683 1.49597 16.2112 1.73944 17.0023 2.13913C18.1762 2.73211 18.9162 3.26935 19.8429 4.2013C21.466 5.83356 22.5199 7.85936 22.9093 10.0955C23.3795 12.7951 22.8424 15.5373 21.3892 17.857C21.0059 18.4689 20.9755 18.6279 21.1988 18.8512C21.3912 19.0436 21.654 19.0433 21.8421 18.8503C22.1816 18.5021 23.0083 16.9175 23.3322 15.9942C23.5644 15.3322 23.7731 14.4847 23.8833 13.7559C23.9904 13.0478 24.0353 11.5401 23.9687 10.8933ZM20.5602 19.9168C20.4067 19.6767 20.0048 19.6267 19.825 19.8254C19.6306 20.0403 19.6961 20.4368 19.9477 20.5669C20.3494 20.7746 20.8016 20.2947 20.5602 19.9168ZM19.6527 11.1229C19.3745 9.57656 18.3084 8.21953 16.8884 7.60416C16.6837 7.51547 16.4092 7.42255 16.2783 7.39772C15.4069 7.23249 14.5668 7.94627 14.5668 8.85189C14.5668 9.48383 14.8805 9.928 15.5474 10.24C16.0918 10.4948 16.3689 10.7398 16.5665 11.1411C16.7082 11.429 16.7208 11.4908 16.7206 11.9012C16.7204 12.2945 16.7047 12.3799 16.59 12.6139C16.412 12.9768 15.9458 13.409 15.5859 13.5447C15.2328 13.6778 14.6329 13.6615 14.2938 13.5097C13.9701 13.3648 13.6318 13.0227 13.3831 12.5888C13.073 12.0479 12.7882 11.7061 12.3583 11.3591C11.6224 10.7652 10.8335 10.4761 9.93963 10.4729C9.45932 10.4712 9.37424 10.4836 9.16606 10.586C8.44515 10.9408 8.13627 11.8155 8.47758 12.5358C8.71339 13.0335 9.14893 13.333 9.71236 13.385C9.87609 13.4001 10.0814 13.4342 10.1687 13.4608C10.4018 13.5318 10.6695 13.7971 10.8883 14.1741C11.5522 15.318 12.584 16.1235 13.8213 16.4639C14.3334 16.6048 15.6202 16.6154 16.1107 16.4828C16.9722 16.2499 17.7135 15.8092 18.3425 15.1561C18.8044 14.6766 18.9635 14.4571 19.225 13.9384C19.5494 13.2951 19.661 12.83 19.6796 12.043C19.6885 11.6688 19.6764 11.2547 19.6527 11.1229ZM18.6022 13.005C18.399 13.6067 18.1319 14.0336 17.6593 14.5121C17.1752 15.0024 16.6949 15.3089 16.1107 15.5003C15.5714 15.6769 14.7301 15.7063 14.1525 15.5686C13.1211 15.3229 12.3103 14.7171 11.7478 13.7722C11.4121 13.2082 11.3098 13.0826 11.0028 12.8563C10.7068 12.6382 10.2341 12.4654 9.9332 12.4654C9.69753 12.4654 9.45683 12.3647 9.35917 12.2252C9.3167 12.1647 9.28263 12.0245 9.28263 11.9105C9.28263 11.7395 9.30933 11.6784 9.44219 11.5456C9.59062 11.3971 9.62281 11.386 9.90396 11.386C10.9544 11.386 11.9392 12.0038 12.5655 13.0555C12.9457 13.6941 13.2881 14.0398 13.788 14.29C14.262 14.5273 14.5829 14.5926 15.1455 14.5665C16.0167 14.526 16.7401 14.1086 17.2309 13.3632C17.5307 12.9079 17.6433 12.5698 17.6709 12.043C17.698 11.5247 17.6234 11.159 17.3932 10.6821C17.1871 10.2551 16.6461 9.72546 16.2046 9.51841C16.0239 9.43371 15.8233 9.33854 15.7587 9.30691C15.6942 9.27533 15.6011 9.16706 15.5517 9.06635C15.4703 8.90013 15.4681 8.86588 15.5282 8.69581C15.678 8.27237 16.0033 8.21888 16.6185 8.51664C17.6932 9.03684 18.4676 10.0291 18.714 11.2018C18.738 11.316 18.7512 11.684 18.7433 12.0196C18.7312 12.5343 18.7092 12.6883 18.6022 13.005ZM7.21488 11.6311C6.98939 10.487 5.56023 10.0512 4.73613 10.8753C4.4272 11.1842 4.3317 11.4323 4.3317 11.9257C4.3317 12.3061 4.34549 12.373 4.47089 12.5994C4.85077 13.2852 5.66179 13.5718 6.35534 13.2654C6.60434 13.1554 6.91125 12.8772 7.0525 12.6336C7.14322 12.4771 7.28011 11.9646 7.25955 11.8584C7.25674 11.8438 7.23665 11.7415 7.21488 11.6311ZM6.19958 12.2229C6.16195 12.2831 6.05462 12.3644 5.96105 12.4035C5.60627 12.5517 5.2468 12.2993 5.2468 11.902C5.2468 11.7407 5.27561 11.6763 5.40635 11.5456C5.86489 11.087 6.5461 11.6687 6.19958 12.2229Z" fill="currentColor"/>
</mask>
</svg>
