<svg width="24" height="24" viewBox="0 0 24 24" fill="none" xmlns="http://www.w3.org/2000/svg">
<path d="M12.0772 3.53906L16.855 8.31683C17.0465 8.50837 17.1541 8.76817 17.1541 9.03906V9.03906M12.0772 3.53906H4.46184C3.5272 3.53906 2.76953 4.29673 2.76953 5.23137V5.23137V20.0006C2.76953 21.6575 4.11268 23.0006 5.76953 23.0006H14.1541C15.811 23.0006 17.1541 21.6575 17.1541 20.0006V9.03906M12.0772 3.53906V6.03906C12.0772 7.69592 13.4204 9.03906 15.0772 9.03906H17.1541" stroke="#2F80ED"/>
<path d="M17.1544 1L21.9321 5.77776C22.1237 5.96931 22.2313 6.22911 22.2313 6.5V6.5M17.1544 1H9.53899C8.60435 1 7.84668 1.75767 7.84668 2.69231V2.69231V3.53846M17.1544 1V3.5C17.1544 5.15685 18.4975 6.5 20.1544 6.5H22.2313M22.2313 6.5V17.4615C22.2313 19.1184 20.8881 20.4615 19.2313 20.4615H17.1544" stroke="#2F80ED"/>
</svg>
