<svg xmlns="http://www.w3.org/2000/svg" viewBox="0 0 512 512"><path d="M465.173 123.627c-.64-1.387-1.493-2.667-2.56-3.733L345.387 3.413C343.147 1.28 340.16 0 337.067 0H151.36c-6.4 0-11.627 5.227-11.627 11.627v35.307h-35.307c-6.4 0-11.627 5.227-11.627 11.627V92.8H57.6c-6.507 0-11.733 5.227-11.733 11.627v395.947c0 6.4 5.227 11.627 11.627 11.627h303.04a11.7 11.7 0 0 0 11.733-11.733v-35.2h35.2a11.7 11.7 0 0 0 11.733-11.733V419.2h35.2c6.507 0 11.733-5.227 11.733-11.627V128.107c0-1.6-.32-3.094-.96-4.48zM348.8 39.68l76.693 76.587H348.8V39.68zm0 448.853H69.333V116.267H92.8V453.44c0 6.4 5.227 11.627 11.627 11.627H348.8v23.466zm46.933-46.933H116.267V69.333h23.467V408c0 6.187 5.227 11.2 11.627 11.2h244.373v22.4zm46.934-45.867H163.2V23.467h163.2v104.64c0 6.4 5.227 11.627 11.627 11.627h104.64v255.999z" fill="currentColor"/></svg>