<svg width="15" height="19" fill="none" xmlns="http://www.w3.org/2000/svg"><path fill-rule="evenodd" clip-rule="evenodd" d="M1.077.052C.647.19.31.482.12.882L0 1.133v16.754l.119.25c.153.324.42.592.745.745l.25.119h11.887l.25-.119c.438-.207.745-.59.843-1.051.033-.153.04-1.744.033-6.296l-.012-6.092-1.634-.022c-1.828-.025-1.834-.026-2.393-.3a2.556 2.556 0 0 1-1.07-1.053c-.28-.547-.28-.541-.297-2.405L8.705 0l-3.74.002c-2.912.002-3.772.013-3.888.05Zm8.654.736c-.013.033-.017.6-.01 1.261l.011 1.201.118.25c.216.454.62.782 1.082.88.228.047 2.407.057 2.436.01.01-.016-.799-.847-1.798-1.846C10.221 1.195 9.748.744 9.731.788Z" fill="currentColor"/></svg>