<svg width="24" height="24" viewBox="0 0 24 24" fill="none" xmlns="http://www.w3.org/2000/svg">
<path d="M20.1446 4.88029H14.4589C13.0773 4.88029 11.9501 3.75809 11.9501 2.37156C11.9501 1.99749 11.6509 1.69824 11.2768 1.69824H3.85536C1.73067 1.69824 0 3.42892 0 5.55361V18.4464C0 20.5711 1.73067 22.3017 3.85536 22.3017H20.1446C22.2693 22.3017 24 20.5711 24 18.4464V8.73067C24 6.60598 22.2693 4.88029 20.1446 4.88029ZM22.6534 18.4414C22.6534 19.8229 21.5312 20.9501 20.1446 20.9501H3.85536C2.47382 20.9501 1.34663 19.8279 1.34663 18.4414V5.55361C1.34663 4.17206 2.46883 3.04488 3.85536 3.04488H10.6633C10.9825 4.85036 12.5636 6.22692 14.4589 6.22692H20.1446C21.5262 6.22692 22.6534 7.34912 22.6534 8.73565V18.4414Z" fill="#D0C9D6"/>
</svg>
