<svg width="21" height="21" viewBox="0 0 21 21" fill="none" xmlns="http://www.w3.org/2000/svg">
<path d="M16.7475 11.319C16.779 11.0565 16.8 10.7835 16.8 10.5C16.8 10.2165 16.779 9.94348 16.737 9.68098L18.5115 8.29498C18.669 8.16898 18.711 7.93798 18.6165 7.75948L16.9365 4.85098C16.8315 4.66198 16.611 4.59898 16.422 4.66198L14.3325 5.50198C13.8915 5.16598 13.4295 4.89298 12.915 4.68298L12.6 2.45698C12.5685 2.24698 12.39 2.09998 12.18 2.09998H8.81997C8.60997 2.09998 8.44197 2.24698 8.41047 2.45698L8.09547 4.68298C7.58097 4.89298 7.10847 5.17648 6.67797 5.50198L4.58847 4.66198C4.39947 4.58848 4.17897 4.66198 4.07397 4.85098L2.39397 7.75948C2.28897 7.94848 2.33097 8.16898 2.49897 8.29498L4.27347 9.68098C4.23147 9.94348 4.19997 10.227 4.19997 10.5C4.19997 10.773 4.22097 11.0565 4.26297 11.319L2.48847 12.705C2.33097 12.831 2.28897 13.062 2.38347 13.2405L4.06347 16.149C4.16847 16.338 4.38897 16.401 4.57797 16.338L6.66747 15.498C7.10847 15.834 7.57047 16.107 8.08497 16.317L8.39997 18.543C8.44197 18.753 8.60997 18.9 8.81997 18.9H12.18C12.39 18.9 12.5685 18.753 12.5895 18.543L12.9045 16.317C13.419 16.107 13.8915 15.8235 14.322 15.498L16.4115 16.338C16.6005 16.4115 16.821 16.338 16.926 16.149L18.606 13.2405C18.711 13.0515 18.669 12.831 18.501 12.705L16.7475 11.319ZM10.5 13.65C8.76747 13.65 7.34997 12.2325 7.34997 10.5C7.34997 8.76748 8.76747 7.34998 10.5 7.34998C12.2325 7.34998 13.65 8.76748 13.65 10.5C13.65 12.2325 12.2325 13.65 10.5 13.65Z" fill="currentColor"/>
</svg>
