<svg width="18" height="20" fill="none" xmlns="http://www.w3.org/2000/svg"><path fill-rule="evenodd" clip-rule="evenodd" d="M3.422.039c-.221.089-.21-.127-.21 4.068v3.856l.101.12c.144.17.359.17.502 0l.101-.12V.703H16.44v18.593H3.916v-7.26l-.1-.12c-.144-.17-.36-.17-.503 0l-.1.12v7.725l.094.11.094.109 6.75.01 6.75.01.121-.101.12-.102V.202l-.12-.1-.12-.102-6.698.002C6.52.004 3.468.02 3.422.04Zm4.33 5.34a.35.35 0 0 0-.235.34c0 .156.018.176 1.887 2.043l1.888 1.886H.21l-.104.103a.343.343 0 0 0 0 .497l.104.103h11.082l-1.888 1.886c-1.87 1.867-1.887 1.887-1.887 2.044 0 .266.266.435.494.314.062-.032 1.094-1.04 2.294-2.24l2.181-2.181v-.348l-2.181-2.182c-1.2-1.2-2.23-2.206-2.288-2.237-.11-.058-.167-.064-.266-.028Z" fill="currentColor"/></svg>