<svg width="30" height="30" viewBox="0 0 30 30" fill="none" xmlns="http://www.w3.org/2000/svg">
<g clip-path="url(#clip0)">
<path d="M26.7784 14.3324L15.4842 4.23274C15.4645 4.213 15.4447 4.19819 15.4201 4.18338C15.1732 3.94644 14.7783 3.93657 14.5167 4.16857L3.22251 14.2682C2.94608 14.515 2.92633 14.9346 3.16821 15.211C3.30149 15.3591 3.48413 15.4332 3.66677 15.4332C3.82473 15.4332 3.98269 15.3789 4.11104 15.2653L6.14478 13.4438V13.7993V19.0712V25.2218C6.14478 26.1449 6.8951 26.9001 7.82312 26.9001C7.83793 26.9001 7.8478 26.9001 7.86261 26.9001C7.87742 26.9001 7.88729 26.9001 7.9021 26.9001H11.3871C12.2559 26.9001 12.9618 26.1943 12.9618 25.3255V19.3378C12.9618 19.2045 13.0704 19.0959 13.2037 19.0959H16.8022C16.9355 19.0959 17.0441 19.2045 17.0441 19.3378V25.3255C17.0441 26.1943 17.75 26.9001 18.6188 26.9001H22.1828C23.1207 26.9001 23.8611 25.9771 23.8611 24.7973V19.3081V17.6298V13.508L25.8948 15.3295C26.0232 15.443 26.1811 15.4973 26.3391 15.4973C26.5217 15.4973 26.7044 15.4233 26.8377 15.2752C27.0746 14.9988 27.0499 14.5792 26.7784 14.3324ZM22.5234 17.6249V19.3032V24.7874C22.5234 25.2662 22.2864 25.5575 22.1778 25.5575H18.6138C18.4805 25.5575 18.3719 25.4489 18.3719 25.3156V19.3378C18.3719 18.469 17.6661 17.7631 16.7973 17.7631H13.1987C12.3299 17.7631 11.6241 18.469 11.6241 19.3378V25.3255C11.6241 25.4588 11.5155 25.5673 11.3822 25.5673H7.89716C7.88236 25.5673 7.87248 25.5673 7.85767 25.5673C7.84287 25.5673 7.83299 25.5673 7.81818 25.5673C7.63061 25.5673 7.47264 25.4143 7.47264 25.2218V19.0663V13.7943V12.2493L14.9659 5.55567L22.5234 12.3134V17.6249Z" fill="#0084F4"/>
</g>
<defs>
<clipPath id="clip0">
<rect width="24" height="24" fill="white" transform="translate(3 4)"/>
</clipPath>
</defs>
</svg>
