<svg width="584" height="578" xmlns="http://www.w3.org/2000/svg">
 <!-- Created with SVG Editor - http://github.com/mzalive/SVG Editor/ -->

 <g>
  <title>background</title>
  <rect fill="#fff" id="canvas_background" height="580" width="586" y="-1" x="-1"/>
  <g display="none" overflow="visible" y="0" x="0" height="100%" width="100%" id="canvasGrid">
   <rect fill="url(#gridpattern)" stroke-width="0" y="0" x="0" height="100%" width="100%"/>
  </g>
 </g>
 <g>
  <title>Layer 1</title>
  <g stroke="null" id="svg_5">
   <path stroke="null" id="svg_4" d="m307.326848,383.747002l65.782774,-72.832721a15.326835,16.961509 0 0 1 21.702798,24.017497l-91.961008,101.769055a15.326835,16.961509 0 0 1 -21.702798,0l-91.961008,-101.769055a15.326835,16.961509 0 0 1 21.702798,-24.017497l65.782774,72.832721l0,-366.131139a15.326835,16.961509 0 1 1 30.653669,0l0,366.131139zm168.595182,-281.323592a15.326835,16.961509 0 1 1 0,-33.923018l30.653669,0a76.634173,84.807546 0 0 1 76.634173,84.807546l0,339.230185a76.634173,84.807546 0 0 1 -76.634173,84.807546l-429.151371,0a76.634173,84.807546 0 0 1 -76.634173,-84.807546l0,-339.230185a76.634173,84.807546 0 0 1 76.634173,-84.807546l30.653669,0a15.326835,16.961509 0 0 1 0,33.923018l-30.653669,0a45.980504,50.884528 0 0 0 -45.980504,50.884528l0,339.230185a45.980504,50.884528 0 0 0 45.980504,50.884528l429.151371,0a45.980504,50.884528 0 0 0 45.980504,-50.884528l0,-339.230185a45.980504,50.884528 0 0 0 -45.980504,-50.884528l-30.653669,0z" fill="currentColor"/>
  </g>
 </g>
</svg>