<svg width="24" height="24" viewBox="0 0 24 24" fill="none" xmlns="http://www.w3.org/2000/svg">
<path d="M2.58281 6.60398C4.00899 6.60398 5.16561 5.44246 5.16561 4.02118C5.16561 2.5999 4.00899 1.43347 2.58281 1.43347C1.15663 1.43347 0 2.595 0 4.01628C0 5.43756 1.16153 6.60398 2.58281 6.60398ZM2.58281 2.63421C3.34736 2.63421 3.96488 3.25663 3.96488 4.01628C3.96488 4.77593 3.34245 5.39835 2.58281 5.39835C1.82316 5.39835 1.20074 4.77593 1.20074 4.01628C1.20074 3.25663 1.82316 2.63421 2.58281 2.63421Z" fill="#0084F4"/>
<path d="M2.58281 14.5827C4.00899 14.5827 5.16561 13.4212 5.16561 11.9999C5.16561 10.5786 4.00899 9.41711 2.58281 9.41711C1.15663 9.41711 0 10.5737 0 11.9999C0 13.4261 1.16153 14.5827 2.58281 14.5827ZM2.58281 10.6178C3.34736 10.6178 3.96488 11.2403 3.96488 11.9999C3.96488 12.7596 3.34245 13.382 2.58281 13.382C1.82316 13.382 1.20074 12.7645 1.20074 11.9999C1.20074 11.2354 1.82316 10.6178 2.58281 10.6178Z" fill="#0084F4"/>
<path d="M2.58281 22.5664C4.00899 22.5664 5.16561 21.4048 5.16561 19.9836C5.16561 18.5574 4.00408 17.4008 2.58281 17.4008C1.16153 17.4008 0 18.5623 0 19.9836C0 21.4048 1.16153 22.5664 2.58281 22.5664ZM2.58281 18.5966C3.34736 18.5966 3.96488 19.219 3.96488 19.9787C3.96488 20.7432 3.34245 21.3607 2.58281 21.3607C1.82316 21.3607 1.20074 20.7383 1.20074 19.9787C1.20074 19.219 1.82316 18.5966 2.58281 18.5966Z" fill="#0084F4"/>
<path d="M8.62088 4.61909H23.3973C23.7305 4.61909 24.0001 4.34954 24.0001 4.01627C24.0001 3.683 23.7305 3.41345 23.3973 3.41345H8.62088C8.28762 3.41345 8.01807 3.683 8.01807 4.01627C8.01807 4.34954 8.28762 4.61909 8.62088 4.61909Z" fill="#0084F4"/>
<path d="M8.62088 12.6027H23.3973C23.7305 12.6027 24.0001 12.3332 24.0001 11.9999C24.0001 11.6666 23.7305 11.3971 23.3973 11.3971H8.62088C8.28762 11.3971 8.01807 11.6666 8.01807 11.9999C8.01807 12.3332 8.28762 12.6027 8.62088 12.6027Z" fill="#0084F4"/>
<path d="M8.62088 20.5815H23.3973C23.7305 20.5815 24.0001 20.3119 24.0001 19.9787C24.0001 19.6454 23.7305 19.3759 23.3973 19.3759H8.62088C8.28762 19.3759 8.01807 19.6454 8.01807 19.9787C8.01807 20.3119 8.28762 20.5815 8.62088 20.5815Z" fill="#0084F4"/>
</svg>
