<svg width="19" height="19" fill="none" xmlns="http://www.w3.org/2000/svg"><path fill-rule="evenodd" clip-rule="evenodd" d="M2.079.078A2.73 2.73 0 0 0 .296 1.504C-.093 2.29-.1 3.086.278 3.88a2.644 2.644 0 0 0 2.42 1.54c.463 0 .809-.08 1.236-.288.505-.246.95-.691 1.196-1.196A2.59 2.59 0 0 0 5.418 2.7c0-1.051-.581-1.965-1.54-2.42-.59-.282-1.22-.352-1.8-.202ZM8.883.072a2.744 2.744 0 0 0-1.791 1.414c-.239.462-.281.651-.28 1.243.002.457.014.554.098.808.14.417.37.782.695 1.103.327.322.642.517 1.06.658.268.09.35.1.835.1s.567-.01.835-.1c.417-.14.732-.336 1.06-.658.325-.32.555-.686.694-1.103.085-.254.096-.35.098-.808.002-.592-.04-.781-.28-1.243A2.637 2.637 0 0 0 10.632.26 2.694 2.694 0 0 0 8.883.072Zm6.788 0c-1.233.304-2.09 1.38-2.09 2.628 0 .462.08.808.289 1.235.145.298.222.404.507.688.284.285.39.362.688.507a2.59 2.59 0 0 0 1.235.289c1.051 0 1.965-.582 2.42-1.54.378-.792.372-1.59-.016-2.375C18.154.392 16.858-.219 15.67.072ZM2.283 6.813C1.51 7 .963 7.327.575 7.838c-1.039 1.37-.61 3.286.91 4.07.462.239.652.281 1.243.28.457-.002.554-.014.808-.098.417-.14.783-.37 1.103-.695.322-.327.518-.642.658-1.06.09-.268.1-.35.1-.835s-.01-.567-.1-.834a2.602 2.602 0 0 0-.658-1.06 2.702 2.702 0 0 0-1.103-.692c-.227-.074-.383-.096-.734-.106a4.39 4.39 0 0 0-.52.005Zm6.64.03a2.756 2.756 0 0 0-1.945 1.665c-.15.374-.201.711-.176 1.157.023.419.086.66.272 1.043.323.664.946 1.182 1.702 1.414.315.096 1.132.096 1.447 0a2.803 2.803 0 0 0 1.898-1.898c.097-.315.097-1.132 0-1.447a2.805 2.805 0 0 0-1.88-1.892c-.276-.086-1.02-.109-1.317-.041Zm6.787.002a2.77 2.77 0 0 0-2.008 1.82c-.09.268-.1.35-.1.835 0 .486.01.567.1.835a2.6 2.6 0 0 0 .658 1.06c.32.325.686.556 1.103.695.254.084.35.096.808.098.592.001.781-.041 1.243-.28A2.722 2.722 0 0 0 18.998 9.5c0-1.178-.79-2.238-1.945-2.605-.3-.096-1.026-.123-1.343-.05ZM2.042 13.658a2.669 2.669 0 0 0-1.764 1.464c-.376.792-.37 1.589.018 2.374a2.62 2.62 0 0 0 1.208 1.208c.785.389 1.582.395 2.374.018a2.644 2.644 0 0 0 1.54-2.42c0-.463-.08-.809-.288-1.236-.145-.299-.223-.404-.508-.688-.284-.285-.39-.363-.688-.508a3.465 3.465 0 0 0-.62-.23 3.205 3.205 0 0 0-1.272.018Zm6.794-.002a2.751 2.751 0 0 0-1.926 1.808c-.084.254-.096.35-.098.808-.001.591.041.781.28 1.243.289.56.702.958 1.276 1.226 1.32.617 2.865.082 3.54-1.226.238-.462.28-.652.279-1.243-.002-.457-.013-.554-.098-.808a2.747 2.747 0 0 0-.694-1.103 2.56 2.56 0 0 0-1.06-.656c-.414-.135-1.097-.158-1.5-.05Zm6.79-.001c-.48.117-.867.342-1.25.723-.284.285-.361.389-.506.688a2.589 2.589 0 0 0-.289 1.235c0 1.05.582 1.965 1.54 2.42.793.378 1.59.372 2.375-.017 1.097-.543 1.705-1.8 1.443-2.981a3.337 3.337 0 0 0-.558-1.157 2.746 2.746 0 0 0-2.755-.911Z" fill="currentColor"/></svg>