<svg width="11" height="19" fill="none" xmlns="http://www.w3.org/2000/svg"><path fill-rule="evenodd" clip-rule="evenodd" d="M1.51.07c-.328.098-.464.165-.708.35-.37.278-.631.684-.74 1.148-.084.353-.082 15.516.001 15.87a2.07 2.07 0 0 0 1.007 1.311c.498.261.33.25 4.12.25 3.756 0 3.61.01 4.094-.232.302-.15.682-.522.842-.825.252-.478.235.139.235-8.443 0-8.582.017-7.965-.235-8.443-.16-.303-.54-.675-.842-.825C8.8-.01 8.95-.002 5.166 0c-3.19.002-3.45.007-3.657.07Zm5.254 1.776c.088.079.12.143.135.274.017.156.008.183-.112.314l-.132.144-1.404.01c-1.28.009-1.415.004-1.532-.056-.278-.142-.331-.466-.113-.684l.106-.105h2.936l.116.103ZM5.63 15.676a.83.83 0 0 1 .394.58c.07.343-.061.65-.37.867-.219.154-.577.179-.834.058-.31-.146-.479-.421-.479-.78 0-.344.232-.682.55-.8.21-.078.532-.045.739.076Z" fill="currentColor"/></svg>