<svg width="11" height="19" fill="none" xmlns="http://www.w3.org/2000/svg"><path fill-rule="evenodd" clip-rule="evenodd" d="M.802.42c.244-.185.38-.252.707-.35.207-.062.467-.067 3.657-.07C8.35-.001 8.748-.007 9.083.135c.063.027.124.059.201.097.302.15.682.522.842.825.03.057.056.098.078.14.17.321.157.738.157 8.303 0 7.565.013 7.982-.157 8.302-.022.043-.049.085-.078.141-.16.303-.54.675-.842.825-.076.038-.137.07-.2.097-.336.142-.733.136-3.894.136-3.163 0-3.57.007-3.907-.142-.067-.03-.13-.066-.213-.109a2.07 2.07 0 0 1-1.007-1.312C-.02 17.084-.022 1.921.062 1.567.17 1.105.432.698.802.42Zm6.097 1.7c-.015-.13-.047-.195-.135-.274l-.116-.103H3.712l-.106.105c-.218.218-.165.542.113.684.117.06.251.065 1.532.055l1.404-.01.132-.143c.12-.131.13-.158.112-.314Zm-.875 14.136a.83.83 0 0 0-.394-.58c-.207-.12-.529-.153-.739-.075a.879.879 0 0 0-.55.8c0 .359.169.634.479.78.257.121.615.096.834-.058.309-.216.44-.524.37-.867ZM1.188 7.497V5.493h2.004l-.004.998-.004.998-.998.004-.998.004Zm3.014-.008-.004-.998-.005-.998h2.005l-.004.998-.004.998H4.202Zm3.006 0-.004-.998-.004-.998h2.004v2.004l-.998-.004-.998-.004Zm-6.02 3.014V8.5l.998.004.998.004v1.988l-.998.004-.998.004Zm3.01-.986c-.003-.539-.001-.988.003-.999.006-.015.214-.019.998-.015l.991.004v1.988H4.202l-.005-.978Zm3.006 0c-.003-.539-.001-.988.003-.999.006-.015.22-.02 1.002-.02h.995v2.005l-.998-.004-.998-.004-.004-.978Zm-6.016 3.992v-2.004l.998.004.998.004.004.998.004.998H1.188Zm3.006-.992c0-.545.004-.996.01-1.002.006-.006.455-.008.998-.006l.988.004.004.998.004.998H4.194v-.992Zm3.006 0c0-.545.005-.996.01-1.002.006-.005.457-.01 1.002-.01h.992v2.004H7.2v-.992Z" fill="currentColor"/></svg>