<svg width="24" height="24" viewBox="0 0 24 24" fill="none" xmlns="http://www.w3.org/2000/svg">
<rect width="24" height="24" rx="4" transform="matrix(-1 0 0 1 24 0)" fill="#2E9DEC"/>
<path fill-rule="evenodd" clip-rule="evenodd" d="M7.49062 4.05845C6.82745 4.23692 6.28877 4.75278 6.08315 5.40622L6 5.67059V11.9963V18.322L6.08315 18.5864C6.29053 19.2455 6.83515 19.7611 7.50928 19.9367C7.83709 20.0221 16.9688 20.0206 17.3014 19.9351C17.9611 19.7656 18.5028 19.2559 18.7139 18.6063C18.7848 18.3884 18.7962 18.2483 18.8115 17.4059C18.8304 16.3678 18.8119 16.2212 18.6455 16.0903C18.4644 15.9479 18.1774 16.0077 18.0605 16.2122C18.027 16.2706 18.0078 16.5972 17.9945 17.3272C17.9766 18.3129 17.9718 18.3669 17.8896 18.5208C17.7569 18.7693 17.5581 18.9665 17.3248 19.0811L17.1122 19.1855H12.4008H7.68936L7.47684 19.0811C7.24348 18.9665 7.0447 18.7693 6.91199 18.5208L6.82591 18.3596V11.9963V5.63305L6.91199 5.47181C7.0447 5.22329 7.24348 5.02612 7.47684 4.9115L7.68936 4.80714L11.2464 4.797L14.8034 4.7869V6.23656C14.8034 7.81398 14.8071 7.84258 15.0179 7.93865C15.0772 7.96568 15.5929 7.97938 16.5509 7.97938H17.9945V8.60002C17.9945 9.29724 18.0276 9.43805 18.2149 9.53487C18.3585 9.60913 18.4563 9.60913 18.5999 9.53487C18.7972 9.43284 18.8204 9.31293 18.8204 8.39234C18.8204 7.76607 18.8076 7.53456 18.768 7.44322C18.7383 7.37482 17.9925 6.60154 17.0494 5.66121L15.3834 4L11.5364 4.00248C8.33053 4.00454 7.65625 4.01385 7.49062 4.05845ZM16.5491 6.29002L17.4495 7.19102H16.5207H15.5918V6.29002C15.5918 5.79448 15.6046 5.38903 15.6203 5.38903C15.6359 5.38903 16.0539 5.79448 16.5491 6.29002ZM15.7928 9.66597C15.6316 9.76429 15.5689 9.95586 15.6425 10.1254C15.6728 10.1953 16.08 10.632 16.5644 11.1141L17.432 11.9775L14.2227 11.9963L11.0135 12.0151L10.916 12.1126C10.8551 12.1734 10.8106 12.2684 10.7977 12.3649C10.7789 12.5049 10.7896 12.5325 10.9094 12.6522L11.0418 12.7847H14.2457H17.4495L16.56 13.6763C16.0708 14.1667 15.6523 14.6168 15.63 14.6765C15.539 14.921 15.7412 15.1873 16.0179 15.1873C16.1692 15.1873 16.188 15.1705 17.4581 13.9024C18.3068 13.055 18.7583 12.5774 18.7839 12.5C18.8109 12.4181 18.8104 12.3496 18.7822 12.2739C18.7368 12.152 16.3434 9.73166 16.185 9.6475C16.0478 9.57463 15.9338 9.58 15.7928 9.66597Z" fill="white"/>
</svg>
