<svg width="24" height="24" viewBox="0 0 24 24" fill="none" xmlns="http://www.w3.org/2000/svg">
<rect width="24" height="24" rx="4" transform="matrix(-1 0 0 1 24 0)" fill="#2E9DEC"/>
<path fill-rule="evenodd" clip-rule="evenodd" d="M5.16093 4.03097C4.61819 4.13754 4.1382 4.62713 4.0331 5.18137C3.98897 5.41399 3.98897 18.582 4.0331 18.8146C4.1407 19.382 4.618 19.8593 5.1854 19.9669C5.41802 20.011 18.586 20.011 18.8186 19.9669C19.386 19.8593 19.8633 19.382 19.9709 18.8146C19.9919 18.704 20.0028 16.687 20.0028 12.9282C20.0028 7.90353 19.9972 7.19805 19.9558 7.11101C19.8929 6.97837 16.9797 4.07204 16.8677 4.0301C16.7589 3.9894 5.36824 3.99025 5.16093 4.03097ZM6.90793 6.92715C6.90802 8.21325 6.92083 9.21676 6.93855 9.32583C7.00078 9.70875 7.28925 10.1374 7.61344 10.3286C7.68357 10.3699 7.8229 10.432 7.92303 10.4664C8.10108 10.5277 8.18381 10.5291 11.6262 10.5291C15.5287 10.5291 15.3023 10.5406 15.6621 10.3232C15.9524 10.1479 16.1595 9.89002 16.2912 9.53995C16.3595 9.35849 16.3601 9.33912 16.3704 7.03653L16.3808 4.71598H16.4808C16.571 4.71598 16.7141 4.84921 17.9329 6.06824L19.2849 7.42048L19.2766 13.0768C19.2687 18.5271 19.2663 18.737 19.2101 18.8424C19.1281 18.9965 19.0077 19.1186 18.8621 19.1955C18.7554 19.2518 18.6695 19.2634 18.2761 19.2741L17.8151 19.2868V15.7815C17.8151 11.9128 17.8277 12.1493 17.6164 12.0491C17.5181 12.0024 17.034 11.998 12.002 11.998C6.97 11.998 6.48598 12.0024 6.38759 12.0491C6.17632 12.1493 6.18891 11.9128 6.18891 15.7815V19.2868L5.72793 19.2743C5.36033 19.2643 5.24479 19.2502 5.15756 19.2048C5.00567 19.1257 4.88253 19.0053 4.80308 18.8581L4.73564 18.7331V11.998C4.73564 5.48647 4.73758 5.25929 4.79389 5.15353C4.908 4.93932 5.08305 4.79758 5.2982 4.7452C5.34976 4.73264 5.73302 4.72095 6.14985 4.71917L6.90774 4.71598L6.90793 6.92715ZM15.6267 6.98965C15.626 9.12172 15.6225 9.27111 15.5691 9.38834C15.4959 9.54911 15.2899 9.73437 15.1374 9.77675C15.0565 9.79919 13.9186 9.80976 11.6114 9.80938C8.37948 9.80891 8.19831 9.80594 8.07905 9.75178C7.92403 9.68137 7.77977 9.54035 7.70148 9.38271C7.64519 9.26939 7.64172 9.15016 7.63319 7.03091C7.62825 5.80309 7.63131 4.77992 7.64003 4.75723C7.65303 4.72336 8.36864 4.71598 11.6416 4.71598H15.6274L15.6267 6.98965ZM12.8525 5.55794C12.802 5.60848 12.7517 5.69461 12.7407 5.74937C12.7298 5.80412 12.7216 6.4976 12.7226 7.29047C12.7245 8.84403 12.7292 8.89316 12.8871 9.01036C12.9704 9.07221 13.0199 9.07631 13.7856 9.08509C14.6965 9.09556 14.7674 9.08259 14.8593 8.88897C14.9314 8.73696 14.9338 5.79297 14.8619 5.65392C14.7655 5.4675 14.7573 5.46606 13.8101 5.46606H12.9444L12.8525 5.55794ZM14.1823 7.27093L14.1741 8.35698L13.8225 8.36583L13.4709 8.37467V7.27978V6.18488H13.8307H14.1906L14.1823 7.27093ZM17.0963 15.9984V19.28H12.002H6.90774V15.9984V12.7168H12.002H17.0963V15.9984Z" fill="white"/>
</svg>
