<svg width="24" height="24" viewBox="0 0 24 24" fill="none" xmlns="http://www.w3.org/2000/svg">
<rect width="24" height="24" rx="4" transform="matrix(-1 0 0 1 24 0)" fill="#2E9DEC"/>
<path fill-rule="evenodd" clip-rule="evenodd" d="M11.836 5.03145C11.7925 5.04927 11.7214 5.1033 11.678 5.15161C11.6001 5.23818 11.5988 5.30245 11.5886 9.86407L11.5783 14.4888L10.6405 13.5562C10.0456 12.9646 9.66297 12.6136 9.59424 12.5964C9.27146 12.5154 8.97582 12.8215 9.072 13.1371C9.10521 13.246 11.6288 15.7967 11.7846 15.8789C11.8433 15.9098 11.9585 15.9351 12.0407 15.9351C12.1845 15.9351 12.2427 15.8826 13.5634 14.5619C14.8714 13.2539 14.9366 13.1818 14.9366 13.0431C14.9366 12.841 14.8703 12.7155 14.721 12.6351C14.462 12.4956 14.4085 12.5324 13.3962 13.5454C12.886 14.0559 12.4551 14.4736 12.4386 14.4736C12.4222 14.4736 12.4087 12.4127 12.4087 9.89373C12.4087 6.42703 12.3973 5.28866 12.3615 5.21026C12.2809 5.03331 12.0355 4.94981 11.836 5.03145ZM5.57556 6.7489C4.98455 6.91278 4.46057 7.34161 4.21157 7.86516C3.98703 8.33735 3.99276 8.1918 4.00456 13.1213L4.01539 17.6532L4.12097 17.9249C4.32624 18.4533 4.68847 18.8587 5.16126 19.0892C5.64365 19.3244 5.26554 19.3121 12.0137 19.3121H18.2347L18.5128 19.2247C19.2062 19.0065 19.7488 18.4335 19.9335 17.7242C20.0232 17.3797 20.0217 8.59926 19.9318 8.25437C19.7456 7.53918 19.1457 6.93928 18.4305 6.75301C18.1487 6.67962 17.009 6.66777 16.8578 6.7367C16.6187 6.84563 16.574 7.21628 16.777 7.40706C16.8737 7.49798 16.9086 7.5032 17.5564 7.52362C18.2337 7.54498 18.235 7.54518 18.4835 7.67833C18.7596 7.82621 18.8786 7.94889 19.0367 8.24848L19.1431 8.4502V12.9925V17.5347L19.0333 17.7583C18.9127 18.0038 18.7053 18.213 18.4438 18.3526L18.2742 18.4432H12.0137H5.7533L5.55885 18.3475C5.29927 18.2197 5.07686 17.9901 4.94944 17.7183L4.84484 17.4952V13.032C4.84484 7.9528 4.81913 8.33972 5.18311 7.94147C5.49064 7.60498 5.65937 7.54909 6.44451 7.5235C7.13652 7.50094 7.22788 7.47685 7.31066 7.29516C7.39041 7.12011 7.36229 6.93277 7.23751 6.80799L7.12206 6.69254L6.43768 6.69605C6.02323 6.69823 5.68319 6.71904 5.57556 6.7489Z" fill="white"/>
</svg>
