<svg width="24" height="24" viewBox="0 0 24 24" fill="none" xmlns="http://www.w3.org/2000/svg">
<path d="M8.56566 2.19458C8.82563 2.10148 8.96091 1.81525 8.86781 1.55528C8.77471 1.2953 8.48849 1.16002 8.22851 1.25312L8.56566 2.19458ZM2.6661 6.49664L2.23365 6.24568L2.23365 6.24568L2.6661 6.49664ZM1.36552 13.8405L1.85786 13.7533L1.36552 13.8405ZM5.10884 20.2912L5.42882 19.907L5.42882 19.907L5.10884 20.2912ZM19.1177 20.1981L19.4427 20.578L19.4427 20.578L19.1177 20.1981ZM22.7749 13.6982L22.2815 13.6176L22.2815 13.6176L22.7749 13.6982ZM21.3769 6.3723L20.9478 6.62899L20.9478 6.62899L21.3769 6.3723ZM15.7453 1.20317C15.4841 1.11353 15.1997 1.25261 15.11 1.5138C15.0204 1.77498 15.1595 2.05939 15.4207 2.14902L15.7453 1.20317ZM8.22851 1.25312C5.70347 2.15737 3.57985 3.92593 2.23365 6.24568L3.09856 6.7476C4.32624 4.63208 6.26291 3.01921 8.56566 2.19458L8.22851 1.25312ZM2.23365 6.24568C0.887445 8.56542 0.405512 11.2867 0.873178 13.9277L1.85786 13.7533C1.43136 11.3448 1.87087 8.86313 3.09856 6.7476L2.23365 6.24568ZM0.873178 13.9277C1.34084 16.5687 2.72794 18.959 4.78887 20.6754L5.42882 19.907C3.54933 18.3417 2.28435 16.1618 1.85786 13.7533L0.873178 13.9277ZM4.78887 20.6754C6.84979 22.3918 9.45159 23.3236 12.1336 23.3057L12.127 22.3058C9.68106 22.322 7.30831 21.4723 5.42882 19.907L4.78887 20.6754ZM12.1336 23.3057C14.8156 23.2879 17.4048 22.3216 19.4427 20.578L18.7926 19.8182C16.9341 21.4083 14.5729 22.2895 12.127 22.3058L12.1336 23.3057ZM19.4427 20.578C21.4807 18.8343 22.8359 16.4258 23.2684 13.7789L22.2815 13.6176C21.887 16.0315 20.6511 18.228 18.7926 19.8182L19.4427 20.578ZM23.2684 13.7789C23.7009 11.1319 23.1829 8.41726 21.806 6.11561L20.9478 6.62899C22.2035 8.72801 22.6759 11.2037 22.2815 13.6176L23.2684 13.7789ZM21.806 6.11561C20.429 3.81396 18.2821 2.07378 15.7453 1.20317L15.4207 2.14902C17.7342 2.94298 19.6921 4.52997 20.9478 6.62899L21.806 6.11561Z" fill="#2F80ED"/>
<rect x="11.625" y="1.10645" width="0.868718" height="8.68718" rx="0.434359" fill="#2F80ED"/>
</svg>
