<svg width="17" height="19" viewBox="0 0 17 19" fill="none" xmlns="http://www.w3.org/2000/svg">
<path d="M14.587 4.84716C14.5558 4.59695 14.3431 4.40918 14.0909 4.40918H2.63636C2.3842 4.40918 2.1715 4.59695 2.14022 4.84716L0.644365 16.814C0.532455 17.7093 1.23054 18.5001 2.13278 18.5001H14.5945C15.4967 18.5001 16.1948 17.7093 16.0829 16.814L14.587 4.84716Z" stroke="#0084F4" stroke-linecap="round" stroke-linejoin="round"/>
<path fill-rule="evenodd" clip-rule="evenodd" d="M11.3454 4.90892C11.4167 4.64837 11.4548 4.37409 11.4548 4.09091C11.4548 2.38385 10.0709 1 8.36386 1C6.6568 1 5.27295 2.38385 5.27295 4.09091C5.27295 4.37409 5.31103 4.64837 5.38235 4.90892H4.35475C4.30111 4.64461 4.27295 4.37105 4.27295 4.09091C4.27295 1.83156 6.10451 0 8.36386 0C10.6232 0 12.4548 1.83156 12.4548 4.09091C12.4548 4.37105 12.4266 4.64461 12.373 4.90892H11.3454Z" fill="#0084F4"/>
<path d="M5.09131 4.09082V6.54537" stroke="#0084F4" stroke-linecap="round" stroke-linejoin="round"/>
<path d="M11.6362 4.5V6.54545" stroke="#0084F4" stroke-linecap="round" stroke-linejoin="round"/>
</svg>
