<svg width="24" height="24" viewBox="0 0 24 24" fill="none" xmlns="http://www.w3.org/2000/svg">
<g clip-path="url(#clip0)">
<path d="M21.9941 4.8791H17.1232V4.00117C17.1232 2.83098 16.1723 1.875 14.9971 1.875H8.99824C7.82805 1.875 6.87207 2.82591 6.87207 4.00117V4.87441L2.00117 4.87441L2.00064 4.87442C0.819009 4.87942 -0.125 5.83738 -0.125 7.18805V20.184C-0.125 21.1744 0.833903 22.1227 2.00117 22.1227H21.9988C23.161 22.1227 24.125 21.1795 24.125 20.184V7.18805V7.1876C24.1201 5.83748 23.1763 4.8791 21.9941 4.8791ZM22.8252 19.9074V19.9074C22.8252 20.391 22.4316 20.7807 21.952 20.7807H2.04804C1.56444 20.7807 1.1748 20.3871 1.1748 19.9074V13.2108C1.44056 13.3343 1.73437 13.4056 2.04804 13.4056H9.78244V14.5929C9.78244 14.9384 10.0634 15.2193 10.4089 15.2193H13.5958C13.9413 15.2193 14.2222 14.9384 14.2222 14.5929V13.4056H21.9566C22.2712 13.4056 22.5649 13.3309 22.8298 13.209L22.8252 19.9074ZM8.21873 4.0949C8.21873 3.6113 8.6123 3.22166 9.09197 3.22166H14.9033C15.3869 3.22166 15.7766 3.61523 15.7766 4.0949V4.87441H8.21873V4.0949ZM11.1244 13.8773V12.3136H12.8756V13.8773H11.1244ZM22.7315 11.1904C22.7315 11.674 22.3379 12.0636 21.8582 12.0636H14.2176V11.5934C14.2176 11.2479 13.9366 10.967 13.5911 10.967H10.4042C10.0587 10.967 9.77775 11.2479 9.77775 11.5934V12.0636H2.14177C1.65817 12.0636 1.26853 11.6701 1.26853 11.1904V7.099C1.26853 6.61541 1.66209 6.22576 2.14177 6.22576H21.8582C22.3418 6.22576 22.7315 6.61933 22.7315 7.099V11.1904Z" fill="#D0C9D6" stroke="#D0C9D6" stroke-width="0.25"/>
</g>
<defs>
<clipPath id="clip0">
<rect width="24" height="24" fill="white"/>
</clipPath>
</defs>
</svg>
