<svg width="20" height="19" fill="none" xmlns="http://www.w3.org/2000/svg"><path fill-rule="evenodd" clip-rule="evenodd" d="M10.767.094c-.18.081-.83.719-5.39 5.279-4.717 4.716-5.195 5.205-5.28 5.4a.949.949 0 0 0 .015.865c.091.182.336.445 1.439 1.54.843.839 1.383 1.347 1.477 1.393.22.105.685.099.91-.012.122-.06 1.557-1.475 5.387-5.308 4.988-4.993 5.223-5.234 5.284-5.424.078-.243.063-.592-.036-.804-.045-.097-.527-.609-1.39-1.477C11.701.055 11.625-.004 11.197 0c-.157.002-.288.03-.43.094Zm2.588.639c-.076.077-.138.157-.138.177 0 .06.498.536.56.536.061 0 .331-.26.331-.318 0-.06-.498-.536-.56-.536-.03 0-.118.063-.193.14Zm-3.219 9.898c-.272.07-.51.174-.77.338-.14.09-1.093 1.013-2.775 2.691-2.726 2.72-2.675 2.674-3.1 2.742a1.406 1.406 0 0 1-.755-.114c-.084-.043-.381-.303-.66-.577-.584-.578-.7-.764-.73-1.17-.013-.195.002-.309.068-.514l.084-.263-.255-.257c-.14-.141-.284-.257-.32-.257-.09 0-.344.545-.402.865-.079.438 0 .883.242 1.363.149.294 1.252 1.39 1.56 1.548.603.312 1.304.313 1.948.004.22-.105.479-.352 2.858-2.72 2.98-2.965 2.854-2.86 3.405-2.86h.306l.456.454c.25.25.481.455.512.455.075 0 .555-.487.555-.562 0-.032-.21-.263-.466-.512-.57-.556-.768-.665-1.246-.69a1.825 1.825 0 0 0-.515.036Zm2.57 2.072c-.535.536-.974.99-.974 1.011 0 .06 4.98 5.01 5.123 5.094.73.422 1.65.124 2.016-.65a1.392 1.392 0 0 0-.059-1.308c-.083-.144-5.034-5.122-5.094-5.122-.02 0-.476.438-1.011.975Z" fill="currentColor"/></svg>