<svg width="22" height="22" viewBox="0 0 22 22" fill="none" xmlns="http://www.w3.org/2000/svg">
	<path d="M20.562 16.65c.51.514.509 1.342-.003 1.854L17.562 21.5C8.14 21.5.5 13.861.5 4.437l.005.004L3.52 1.43a1.313 1.313 0 011.857 0l3.386 3.392c.512.513.51 1.344-.001 1.856L5.75 9.687l6.563 6.563 3.006-3.007a1.312 1.312 0 011.859.003l3.384 3.404zM21.5 11h-2.625c0-4.343-3.532-7.875-7.875-7.875V.5C16.79.5 21.5 5.21 21.5 11zm-5.25 0h-2.625A2.628 2.628 0 0011 8.375V5.75A5.255 5.255 0 0116.25 11z" fill="#00C48C" />
</svg>