<?xml version="1.0" encoding="utf-8"?><!DOCTYPE svg PUBLIC "-//W3C//DTD SVG 1.1//EN" "http://www.w3.org/Graphics/SVG/1.1/DTD/svg11.dtd"><svg xmlns:xlink="http://www.w3.org/1999/xlink" xmlns="http://www.w3.org/2000/svg" id="map" viewBox="0 0 250 250" width="200" height="200" data-dot="10"><rect x="0" y="0" height="250" width="250" fill="#ffffff"/><defs/><g fill="#000000"><rect x="40" y="180" width="30" height="30" transform="rotate(-90,55,195)"/><path clip-rule="evenodd" class="svgeye" d="M 20 160v 70h 70v -70zM 30 170h 50v 50h -50z" transform="rotate(-90,55,195)"/><rect x="180" y="40" width="30" height="30" transform="rotate(90,195,55)"/><path clip-rule="evenodd" class="svgeye" d="M 160 20v 70h 70v -70zM 170 30h 50v 50h -50z" transform="rotate(90,195,55)"/><rect x="40" y="40" width="30" height="30" transform="rotate(0,55,55)"/><path clip-rule="evenodd" class="svgeye" d="M 20 20v 70h 70v -70zM 30 30h 50v 50h -50z" transform="rotate(0,55,55)"/><rect x="110" y="20" width="10" height="10" transform="rotate(0,115,25)"/><rect x="140" y="20" width="10" height="10" transform="rotate(0,145,25)"/><rect x="100" y="30" width="10" height="10" transform="rotate(0,105,35)"/><rect x="140" y="30" width="10" height="10" transform="rotate(0,145,35)"/><rect x="100" y="40" width="10" height="10" transform="rotate(0,105,45)"/><rect x="110" y="40" width="10" height="10" transform="rotate(0,115,45)"/><rect x="130" y="40" width="10" height="10" transform="rotate(0,135,45)"/><rect x="140" y="40" width="10" height="10" transform="rotate(0,145,45)"/><rect x="110" y="50" width="10" height="10" transform="rotate(0,115,55)"/><rect x="130" y="50" width="10" height="10" transform="rotate(0,135,55)"/><rect x="120" y="60" width="10" height="10" transform="rotate(0,125,65)"/><rect x="130" y="60" width="10" height="10" transform="rotate(0,135,65)"/><rect x="140" y="60" width="10" height="10" transform="rotate(0,145,65)"/><rect x="120" y="70" width="10" height="10" transform="rotate(0,125,75)"/><rect x="100" y="80" width="10" height="10" transform="rotate(0,105,85)"/><rect x="120" y="80" width="10" height="10" transform="rotate(0,125,85)"/><rect x="140" y="80" width="10" height="10" transform="rotate(0,145,85)"/><rect x="110" y="90" width="10" height="10" transform="rotate(0,115,95)"/><rect x="120" y="90" width="10" height="10" transform="rotate(0,125,95)"/><rect x="140" y="90" width="10" height="10" transform="rotate(0,145,95)"/><rect x="30" y="100" width="10" height="10" transform="rotate(0,35,105)"/><rect x="40" y="100" width="10" height="10" transform="rotate(0,45,105)"/><rect x="50" y="100" width="10" height="10" transform="rotate(0,55,105)"/><rect x="70" y="100" width="10" height="10" transform="rotate(0,75,105)"/><rect x="80" y="100" width="10" height="10" transform="rotate(0,85,105)"/><rect x="110" y="100" width="10" height="10" transform="rotate(0,115,105)"/><rect x="140" y="100" width="10" height="10" transform="rotate(0,145,105)"/><rect x="200" y="100" width="10" height="10" transform="rotate(0,205,105)"/><rect x="210" y="100" width="10" height="10" transform="rotate(0,215,105)"/><rect x="30" y="110" width="10" height="10" transform="rotate(0,35,115)"/><rect x="90" y="110" width="10" height="10" transform="rotate(0,95,115)"/><rect x="110" y="110" width="10" height="10" transform="rotate(0,115,115)"/><rect x="120" y="110" width="10" height="10" transform="rotate(0,125,115)"/><rect x="130" y="110" width="10" height="10" transform="rotate(0,135,115)"/><rect x="150" y="110" width="10" height="10" transform="rotate(0,155,115)"/><rect x="160" y="110" width="10" height="10" transform="rotate(0,165,115)"/><rect x="170" y="110" width="10" height="10" transform="rotate(0,175,115)"/><rect x="180" y="110" width="10" height="10" transform="rotate(0,185,115)"/><rect x="190" y="110" width="10" height="10" transform="rotate(0,195,115)"/><rect x="200" y="110" width="10" height="10" transform="rotate(0,205,115)"/><rect x="210" y="110" width="10" height="10" transform="rotate(0,215,115)"/><rect x="220" y="110" width="10" height="10" transform="rotate(0,225,115)"/><rect x="20" y="120" width="10" height="10" transform="rotate(0,25,125)"/><rect x="30" y="120" width="10" height="10" transform="rotate(0,35,125)"/><rect x="70" y="120" width="10" height="10" transform="rotate(0,75,125)"/><rect x="80" y="120" width="10" height="10" transform="rotate(0,85,125)"/><rect x="130" y="120" width="10" height="10" transform="rotate(0,135,125)"/><rect x="150" y="120" width="10" height="10" transform="rotate(0,155,125)"/><rect x="190" y="120" width="10" height="10" transform="rotate(0,195,125)"/><rect x="210" y="120" width="10" height="10" transform="rotate(0,215,125)"/><rect x="220" y="120" width="10" height="10" transform="rotate(0,225,125)"/><rect x="20" y="130" width="10" height="10" transform="rotate(0,25,135)"/><rect x="30" y="130" width="10" height="10" transform="rotate(0,35,135)"/><rect x="40" y="130" width="10" height="10" transform="rotate(0,45,135)"/><rect x="70" y="130" width="10" height="10" transform="rotate(0,75,135)"/><rect x="100" y="130" width="10" height="10" transform="rotate(0,105,135)"/><rect x="110" y="130" width="10" height="10" transform="rotate(0,115,135)"/><rect x="170" y="130" width="10" height="10" transform="rotate(0,175,135)"/><rect x="190" y="130" width="10" height="10" transform="rotate(0,195,135)"/><rect x="210" y="130" width="10" height="10" transform="rotate(0,215,135)"/><rect x="40" y="140" width="10" height="10" transform="rotate(0,45,145)"/><rect x="60" y="140" width="10" height="10" transform="rotate(0,65,145)"/><rect x="80" y="140" width="10" height="10" transform="rotate(0,85,145)"/><rect x="100" y="140" width="10" height="10" transform="rotate(0,105,145)"/><rect x="110" y="140" width="10" height="10" transform="rotate(0,115,145)"/><rect x="120" y="140" width="10" height="10" transform="rotate(0,125,145)"/><rect x="130" y="140" width="10" height="10" transform="rotate(0,135,145)"/><rect x="160" y="140" width="10" height="10" transform="rotate(0,165,145)"/><rect x="180" y="140" width="10" height="10" transform="rotate(0,185,145)"/><rect x="190" y="140" width="10" height="10" transform="rotate(0,195,145)"/><rect x="220" y="140" width="10" height="10" transform="rotate(0,225,145)"/><rect x="100" y="150" width="10" height="10" transform="rotate(0,105,155)"/><rect x="130" y="150" width="10" height="10" transform="rotate(0,135,155)"/><rect x="140" y="150" width="10" height="10" transform="rotate(0,145,155)"/><rect x="160" y="150" width="10" height="10" transform="rotate(0,165,155)"/><rect x="180" y="150" width="10" height="10" transform="rotate(0,185,155)"/><rect x="110" y="160" width="10" height="10" transform="rotate(0,115,165)"/><rect x="120" y="160" width="10" height="10" transform="rotate(0,125,165)"/><rect x="130" y="160" width="10" height="10" transform="rotate(0,135,165)"/><rect x="140" y="160" width="10" height="10" transform="rotate(0,145,165)"/><rect x="180" y="160" width="10" height="10" transform="rotate(0,185,165)"/><rect x="100" y="170" width="10" height="10" transform="rotate(0,105,175)"/><rect x="110" y="170" width="10" height="10" transform="rotate(0,115,175)"/><rect x="130" y="170" width="10" height="10" transform="rotate(0,135,175)"/><rect x="150" y="170" width="10" height="10" transform="rotate(0,155,175)"/><rect x="170" y="170" width="10" height="10" transform="rotate(0,175,175)"/><rect x="180" y="170" width="10" height="10" transform="rotate(0,185,175)"/><rect x="190" y="170" width="10" height="10" transform="rotate(0,195,175)"/><rect x="200" y="170" width="10" height="10" transform="rotate(0,205,175)"/><rect x="210" y="170" width="10" height="10" transform="rotate(0,215,175)"/><rect x="220" y="170" width="10" height="10" transform="rotate(0,225,175)"/><rect x="120" y="180" width="10" height="10" transform="rotate(0,125,185)"/><rect x="140" y="180" width="10" height="10" transform="rotate(0,145,185)"/><rect x="180" y="180" width="10" height="10" transform="rotate(0,185,185)"/><rect x="200" y="180" width="10" height="10" transform="rotate(0,205,185)"/><rect x="100" y="190" width="10" height="10" transform="rotate(0,105,195)"/><rect x="120" y="190" width="10" height="10" transform="rotate(0,125,195)"/><rect x="170" y="190" width="10" height="10" transform="rotate(0,175,195)"/><rect x="210" y="190" width="10" height="10" transform="rotate(0,215,195)"/><rect x="100" y="200" width="10" height="10" transform="rotate(0,105,205)"/><rect x="110" y="200" width="10" height="10" transform="rotate(0,115,205)"/><rect x="120" y="200" width="10" height="10" transform="rotate(0,125,205)"/><rect x="140" y="200" width="10" height="10" transform="rotate(0,145,205)"/><rect x="170" y="200" width="10" height="10" transform="rotate(0,175,205)"/><rect x="200" y="200" width="10" height="10" transform="rotate(0,205,205)"/><rect x="100" y="210" width="10" height="10" transform="rotate(0,105,215)"/><rect x="120" y="210" width="10" height="10" transform="rotate(0,125,215)"/><rect x="130" y="210" width="10" height="10" transform="rotate(0,135,215)"/><rect x="140" y="210" width="10" height="10" transform="rotate(0,145,215)"/><rect x="150" y="210" width="10" height="10" transform="rotate(0,155,215)"/><rect x="160" y="210" width="10" height="10" transform="rotate(0,165,215)"/><rect x="170" y="210" width="10" height="10" transform="rotate(0,175,215)"/><rect x="180" y="210" width="10" height="10" transform="rotate(0,185,215)"/><rect x="220" y="210" width="10" height="10" transform="rotate(0,225,215)"/><rect x="110" y="220" width="10" height="10" transform="rotate(0,115,225)"/><rect x="120" y="220" width="10" height="10" transform="rotate(0,125,225)"/><rect x="130" y="220" width="10" height="10" transform="rotate(0,135,225)"/><rect x="160" y="220" width="10" height="10" transform="rotate(0,165,225)"/><rect x="180" y="220" width="10" height="10" transform="rotate(0,185,225)"/><rect x="190" y="220" width="10" height="10" transform="rotate(0,195,225)"/><rect x="200" y="220" width="10" height="10" transform="rotate(0,205,225)"/></g></svg>