<svg width="14" height="14" viewBox="0 0 14 14" fill="none" xmlns="http://www.w3.org/2000/svg">
<path d="M7.00006 13C10.3138 13 13.0001 10.3137 13.0001 7C13.0001 3.68629 10.3138 1 7.00006 1C3.68635 1 1.00006 3.68629 1.00006 7C1.00006 10.3137 3.68635 13 7.00006 13Z" stroke="#0B88F2" stroke-linecap="round" stroke-linejoin="round"/>
<path d="M5.25397 5.2C5.39503 4.799 5.67346 4.46086 6.03994 4.24548C6.40642 4.0301 6.8373 3.95136 7.25627 4.02323C7.67524 4.09509 8.05526 4.31291 8.32901 4.63812C8.60277 4.96332 8.7526 5.37491 8.75197 5.8C8.75197 7 6.95197 7.6 6.95197 7.6" stroke="#0B88F2" stroke-linecap="round" stroke-linejoin="round"/>
<path d="M6.99951 10H7.00551" stroke="#0B88F2" stroke-linecap="round" stroke-linejoin="round"/>
</svg>
