<svg viewBox="0 0 416 513" fill="currentColor" xmlns="http://www.w3.org/2000/svg">
    <path fill-rule="evenodd" clip-rule="evenodd" d="M144.819 1.09008C137.183 2.58808 126.676 8.29708 120.868 14.1051C111.166 23.8081 106.83 36.1651 106.783 54.2501L106.763 62.0001L76.5129 62.0201C42.4759 62.0421 34.9899 62.7811 25.9379 67.0101C17.8209 70.8021 8.17488 80.3641 4.45588 88.3031C-3.88912 106.121 -0.312122 126.73 13.5039 140.436C18.2779 145.172 29.5629 152 32.6169 152C33.4229 152 33.7989 194.154 33.9949 306.25L34.2629 460.5L36.9869 468.5C40.7609 479.58 46.1159 488.147 53.7789 495.364C61.6359 502.763 69.9969 507.374 80.3589 510.025C87.8399 511.938 91.8519 512 207.763 512C323.674 512 327.686 511.938 335.167 510.025C359.492 503.803 376.935 483.618 380.743 457.284C381.348 453.094 381.731 393.449 381.743 301.328L381.763 152.155L385.513 150.931C399.826 146.259 412.263 131.006 414.848 114.952C417.569 98.0591 409.126 79.2161 394.682 69.9481C383.783 62.9541 382.062 62.6941 343.662 62.2371L309.061 61.8261L308.432 50.1271C307.735 37.1651 305.684 29.6691 300.718 21.9291C294.028 11.5051 281.937 3.30908 269.872 1.02108C263.261 -0.232919 151.251 -0.170919 144.819 1.09008ZM271.284 26.1571C280.246 31.0741 283.824 37.9741 284.524 51.6901L285.05 62.0001H207.796H130.542L130.91 51.2501C131.238 41.7001 131.585 39.9771 134.025 35.8151C135.535 33.2391 138.18 30.1271 139.902 28.9011C146.753 24.0231 146.467 24.0421 209.263 24.2781C262.045 24.4771 268.581 24.6751 271.284 26.1571ZM379.263 88.6531C384.36 91.3961 387.238 94.4991 389.331 99.5081C393.182 108.724 390.011 119.771 381.872 125.491L377.591 128.5L209.927 128.794C92.8749 129 41.1449 128.766 38.5579 128.018C28.5979 125.138 22.2129 113.63 24.7369 103.107C26.6349 95.1951 33.0059 88.9581 41.2629 86.9281C42.9129 86.5221 118.738 86.2601 209.763 86.3451L375.263 86.5001L379.263 88.6531ZM357.534 300.5C357.718 400.792 357.466 449.724 356.739 454.5C354.634 468.328 347.498 478.543 335.982 484.213L329.306 487.5L210.387 487.77C81.3749 488.063 84.7799 488.192 76.0289 482.668C67.8409 477.499 61.0549 467.417 58.8869 457.201C58.0839 453.412 57.7629 409.297 57.7629 302.448V152.993L207.513 153.247L357.263 153.5L357.534 300.5ZM128.977 188.94C127.36 190.557 125.75 193.313 125.4 195.065C125.05 196.817 124.763 249.283 124.763 311.657C124.763 432.569 124.622 428.95 129.501 433.293C132.52 435.98 137.887 436.51 142.054 434.532C149.199 431.141 148.763 439.205 148.763 310.549C148.763 184.991 149.044 191.38 143.349 187.648C141.963 186.74 138.832 186 136.375 186C132.775 186 131.351 186.566 128.977 188.94ZM200.607 188.255C199.147 189.49 197.459 191.483 196.857 192.684C196.084 194.228 195.763 228.782 195.763 310.533C195.763 439.206 195.327 431.141 202.472 434.532C206.639 436.51 212.006 435.98 215.025 433.293C219.904 428.95 219.763 432.569 219.763 311.657C219.763 249.283 219.476 196.817 219.126 195.065C218.776 193.313 217.166 190.557 215.549 188.94C211.716 185.107 204.711 184.785 200.607 188.255ZM270.163 189.4L266.763 192.8V309.95C266.763 410.552 266.969 427.497 268.219 429.915C269.81 432.991 275.148 436 279.016 436C282.754 436 288.109 431.879 289.457 427.965C291.028 423.403 291.288 200.429 289.728 194.814C288.235 189.438 283.694 186 278.086 186C274.275 186 273.027 186.536 270.163 189.4Z" fill="currentColor"></path>
</svg>