<svg width="20" height="20" viewBox="0 0 20 20" fill="none" xmlns="http://www.w3.org/2000/svg">
<path fill-rule="evenodd" clip-rule="evenodd" d="M8.50271 0.0758678C8.45956 0.124463 8.3692 0.492397 8.25158 1.09859C8.05237 2.12533 8.02235 2.23141 7.93098 2.23141C7.75683 2.23141 6.79822 2.59988 6.25991 2.87376L5.64538 3.18636L4.78768 2.60558C4.31592 2.28616 3.89028 2.02479 3.84177 2.02479C3.71827 2.02479 1.9873 3.78843 1.9873 3.91426C1.9873 3.96368 2.2439 4.39748 2.55753 4.87831L3.12776 5.75248L2.82346 6.36748C2.55546 6.90913 2.19008 7.89562 2.19008 8.07764C2.19008 8.17401 2.09185 8.20314 1.07825 8.40727C0.483278 8.52711 0.122158 8.61917 0.0744628 8.66314C0.00531299 8.72694 0 8.82194 0 10C0 11.1781 0.00531299 11.2731 0.0744628 11.3369C0.122158 11.3808 0.483278 11.4729 1.07825 11.5927C2.08597 11.7957 2.19008 11.8263 2.19008 11.9194C2.19008 12.0968 2.55173 13.0735 2.82054 13.622L3.12736 14.2481L2.55733 15.122C2.24382 15.6026 1.9873 16.0363 1.9873 16.0857C1.9873 16.2116 3.71827 17.9752 3.84177 17.9752C3.89028 17.9752 4.31604 17.7138 4.78797 17.3942L5.64595 16.8132L6.23991 17.1178C6.77157 17.3904 7.75078 17.7686 7.92502 17.7686C8.02292 17.7686 8.05005 17.8627 8.25158 18.9014C8.3692 19.5076 8.45956 19.8755 8.50271 19.9241C8.56533 19.9946 8.65857 20 9.81481 20C10.9711 20 11.0643 19.9946 11.1269 19.9241C11.1701 19.8755 11.2604 19.5076 11.378 18.9014C11.5773 17.8747 11.6073 17.7686 11.6987 17.7686C11.8728 17.7686 12.8314 17.4001 13.3697 17.1262L13.9842 16.8136L14.8419 17.3944C15.3137 17.7138 15.7394 17.9752 15.7879 17.9752C15.9114 17.9752 17.6423 16.2116 17.6423 16.0857C17.6423 16.0363 17.385 15.6014 17.0705 15.1193L16.4987 14.2426L16.7623 13.7226C17.0348 13.1849 17.261 12.6109 17.383 12.1472C17.4217 12.0003 17.464 11.867 17.4771 11.851C17.4902 11.8349 17.9462 11.7283 18.4904 11.614C19.1194 11.4819 19.5071 11.3811 19.5548 11.3372C19.6244 11.273 19.6296 11.1805 19.6296 10C19.6296 8.8195 19.6244 8.72703 19.5548 8.66277C19.5071 8.61888 19.1194 8.51806 18.4904 8.38599C17.9462 8.27169 17.4898 8.16508 17.4763 8.14901C17.4627 8.13297 17.4197 7.99897 17.3807 7.85124C17.2559 7.37855 17.0332 6.81182 16.7623 6.27744L16.4987 5.7574L17.0705 4.88074C17.385 4.39859 17.6423 3.96368 17.6423 3.91426C17.6423 3.78843 15.9114 2.02479 15.7879 2.02479C15.7394 2.02479 15.3127 2.28686 14.8396 2.60719L13.9795 3.18959L13.4282 2.89975C12.9306 2.63814 11.8836 2.23141 11.7079 2.23141C11.6064 2.23141 11.5807 2.14326 11.378 1.09859C11.2604 0.492397 11.1701 0.124463 11.1269 0.0758678C11.0643 0.00541324 10.9711 0 9.81481 0C8.65857 0 8.56533 0.00541324 8.50271 0.0758678ZM10.7273 0.671488C10.7392 0.722645 10.8283 1.16926 10.9253 1.66405C11.0382 2.24041 11.126 2.59124 11.1697 2.64045C11.2076 2.6831 11.3469 2.73909 11.4828 2.76632C12.0663 2.88331 12.9324 3.2464 13.6468 3.67359C13.8026 3.76674 13.9522 3.84298 13.9794 3.84298C14.0065 3.84298 14.4103 3.58459 14.8767 3.26876L15.7246 2.69455L16.3548 3.33661L16.985 3.97868L16.4214 4.84264C16.1114 5.31785 15.8578 5.72926 15.8578 5.75686C15.8578 5.7845 15.9326 5.93698 16.0241 6.0957C16.4407 6.81901 16.8441 7.8324 16.9312 8.37442C16.9463 8.46897 16.9936 8.57847 17.0361 8.61769C17.0869 8.6645 17.4171 8.75074 17.9964 8.8686C18.482 8.96735 18.9204 9.05814 18.9706 9.07033C19.0618 9.09248 19.0618 9.09297 19.0618 10C19.0618 10.907 19.0618 10.9075 18.9706 10.9297C18.9204 10.9419 18.482 11.0326 17.9964 11.1314C17.4171 11.2493 17.0869 11.3355 17.0361 11.3823C16.9936 11.4215 16.9463 11.531 16.9312 11.6256C16.8441 12.1676 16.4407 13.181 16.0241 13.9043C15.9326 14.063 15.8578 14.2155 15.8578 14.2431C15.8578 14.2707 16.1114 14.6821 16.4214 15.1574L16.985 16.0213L16.3548 16.6634L15.7246 17.3055L14.8767 16.7312C14.4103 16.4154 14.0065 16.157 13.9794 16.157C13.9522 16.157 13.8026 16.2333 13.6468 16.3264C12.9324 16.7536 12.0663 17.1167 11.4828 17.2337C11.3469 17.2609 11.2076 17.3169 11.1697 17.3595C11.126 17.4088 11.0382 17.7596 10.9253 18.336C10.8283 18.8307 10.7392 19.2774 10.7273 19.3285C10.7055 19.4214 10.705 19.4215 9.81481 19.4215C8.92459 19.4215 8.9241 19.4214 8.90236 19.3285C8.8904 19.2774 8.80129 18.8307 8.70436 18.336C8.58869 17.7457 8.50405 17.4093 8.4581 17.3576C8.41961 17.3142 8.3123 17.2657 8.2197 17.2498C7.68695 17.1581 6.78873 16.7938 6.08093 16.3825C5.8676 16.2585 5.67231 16.157 5.64701 16.157C5.62166 16.157 5.21937 16.4154 4.75297 16.7312L3.905 17.3055L3.2743 16.6629L2.64359 16.0202L3.16881 15.2191C3.45769 14.7785 3.71215 14.3694 3.73429 14.31C3.76905 14.2169 3.74703 14.153 3.57478 13.8469C3.46487 13.6515 3.30662 13.3523 3.22307 13.1819C3.06052 12.8503 2.74438 11.9113 2.6979 11.6221C2.68034 11.5128 2.63463 11.4185 2.57675 11.3721C2.5162 11.3236 2.17431 11.2356 1.59677 11.1199C1.10891 11.0222 0.67779 10.9336 0.638774 10.9229C0.573923 10.9052 0.567799 10.8256 0.567799 10C0.567799 9.17442 0.573923 9.09479 0.638774 9.07711C0.677831 9.06645 1.10891 8.97781 1.59677 8.88008C2.17431 8.76438 2.5162 8.6764 2.57675 8.62789C2.63463 8.58149 2.68034 8.48723 2.6979 8.37793C2.78558 7.83231 3.18783 6.82091 3.60557 6.0957C3.69698 5.93698 3.77181 5.7845 3.77181 5.75686C3.77181 5.72926 3.51821 5.31785 3.20823 4.84264L2.64465 3.97868L3.27535 3.33607L3.90605 2.69347L4.69237 3.2286C5.12483 3.52293 5.52602 3.78207 5.5839 3.80446C5.67479 3.83967 5.74227 3.81434 6.07898 3.61868C6.78873 3.20616 7.68634 2.84207 8.2197 2.75025C8.3123 2.7343 8.41961 2.68579 8.4581 2.64244C8.50405 2.59074 8.58869 2.2543 8.70436 1.66405C8.80129 1.16926 8.8904 0.722645 8.90236 0.671488C8.9241 0.578554 8.92459 0.578512 9.81481 0.578512C10.705 0.578512 10.7055 0.578554 10.7273 0.671488ZM9.31211 5.16752C8.64726 5.24277 7.94732 5.48219 7.37401 5.83041C5.39446 7.03273 4.54617 9.51479 5.36116 11.7197C6.40344 14.5394 9.74644 15.7218 12.2648 14.1614C14.802 12.5895 15.3491 9.13264 13.4251 6.83066C12.4382 5.64983 10.8225 4.99653 9.31211 5.16752ZM10.3026 5.7455C11.2703 5.86661 12.0887 6.27388 12.7803 6.97851C14.1663 8.39062 14.4144 10.4987 13.3997 12.2408C13.1313 12.7017 12.4692 13.3774 12.0202 13.6488C10.8281 14.3694 9.47016 14.4815 8.21719 13.9629C7.50318 13.6674 6.7111 13.0037 6.30667 12.362C5.40265 10.9278 5.37564 9.22388 6.23358 7.75372C6.48763 7.31839 7.12698 6.65636 7.55157 6.38909C8.41523 5.84533 9.35104 5.6264 10.3026 5.7455Z" fill="#0084F4"/>
</svg>
