<svg width="23" height="23" viewBox="0 0 23 23" fill="none" xmlns="http://www.w3.org/2000/svg">
<path d="M11.4999 11.5C11.4999 8.62498 13.8958 6.22915 16.7708 6.22915C19.6458 6.22915 22.0416 8.62498 22.0416 11.5H11.4999ZM11.4999 11.5C11.4999 14.375 9.10408 16.7708 6.22908 16.7708C3.35408 16.7708 0.958252 14.375 0.958252 11.5H11.4999ZM11.4999 11.5C8.62492 11.5 6.22908 9.10415 6.22908 6.22915C6.22908 3.35415 8.62492 0.958313 11.4999 0.958313V11.5ZM11.4999 11.5C14.3749 11.5 16.7708 13.8958 16.7708 16.7708C16.7708 19.6458 14.3749 22.0416 11.4999 22.0416V11.5Z" fill="#0084F4"/>
</svg>
