<svg width="24" height="24" viewBox="0 0 24 24" fill="none" xmlns="http://www.w3.org/2000/svg">
<path fill-rule="evenodd" clip-rule="evenodd" d="M10.9868 0.0441764C8.0661 0.370141 5.60861 2.55521 4.94599 5.41523C4.78667 6.10284 4.75075 6.66067 4.75075 8.44569C4.75075 10.3374 4.76651 10.4644 5.04662 10.8336C5.13064 10.9443 5.30694 11.0982 5.43841 11.1756L5.67745 11.3162L5.69733 11.7617C5.72096 12.2915 5.8197 12.5493 6.1105 12.8401C6.3862 13.1158 6.66233 13.2273 7.13257 13.2529L7.52164 13.2741L7.64289 13.5142C7.80499 13.8351 7.99929 14.1205 8.27574 14.4438L8.50446 14.7113L8.10746 15.5042L7.71046 16.2972L6.35957 16.7516C4.58472 17.3487 4.05798 17.633 3.19506 18.4592C2.02793 19.5767 1.31818 20.9655 1.07062 22.6162C1.03193 22.8741 1.00014 23.2166 1 23.3774C0.999768 23.6343 1.01627 23.6882 1.13654 23.8228L1.27336 23.9759L11.7556 23.988L22.2378 24L22.3877 23.866C22.5179 23.7497 22.5404 23.6951 22.5579 23.4526C22.569 23.2989 22.5439 22.9398 22.5021 22.6546C22.2559 20.9758 21.5513 19.5876 20.3728 18.4592C19.5099 17.633 18.9832 17.3487 17.2083 16.7516L15.8574 16.2972L15.4604 15.5042L15.0634 14.7113L15.2921 14.4438C15.8825 13.7535 16.2759 12.9263 16.4449 12.0195C16.4882 11.7874 16.5331 11.5522 16.5448 11.4968C16.5648 11.4012 16.5969 11.395 17.164 11.3782C17.6473 11.3637 17.804 11.3412 17.9801 11.2609C18.2579 11.1343 18.5637 10.8291 18.6929 10.5496C18.7893 10.3411 18.7943 10.2559 18.8087 8.59672C18.8178 7.54479 18.8032 6.65884 18.7715 6.3461C18.6047 4.69963 17.9439 3.28812 16.7875 2.10842C15.2669 0.557224 13.1476 -0.196968 10.9868 0.0441764ZM12.9313 1.04814C14.1971 1.31235 15.1882 1.84289 16.0776 2.73231C17.0575 3.71217 17.6421 4.89384 17.8248 6.26404L17.8638 6.55709H17.412H16.9601L16.9005 6.07977C16.6348 3.95074 15.0761 2.30553 12.978 1.93967C12.4324 1.84453 11.1355 1.84453 10.5899 1.93967C8.49175 2.30553 6.93306 3.95074 6.66734 6.07977L6.60775 6.55709H6.15251C5.74412 6.55709 5.69892 6.54865 5.71327 6.47504C5.72208 6.42989 5.75383 6.22419 5.78388 6.01788C5.8973 5.23837 6.22721 4.40611 6.72431 3.64507C7.06763 3.11951 7.84929 2.32551 8.35048 1.99321C9.07302 1.51416 10.012 1.13727 10.7524 1.0291C10.9458 1.00083 11.1568 0.968525 11.2213 0.957224C11.4658 0.91451 12.573 0.973354 12.9313 1.04814ZM12.87 2.87335C13.5628 3.0088 14.056 3.23729 14.6021 3.67578C15.445 4.35252 15.9309 5.34077 15.9907 6.50017L16.018 7.02935L15.8116 6.99967C15.2542 6.91949 14.4273 6.7318 14.0532 6.60051C13.1392 6.27984 12.1447 5.70158 11.5026 5.1174C11.073 4.72654 10.9957 4.68158 10.7537 4.68162C10.2797 4.68176 9.44381 4.88713 8.99744 5.11304C8.60733 5.31053 8.18834 5.61141 7.89599 5.90408L7.59497 6.20543L7.62569 5.9814C7.70563 5.39798 8.04941 4.66685 8.49611 4.13036C9.01788 3.50366 9.87124 3.01804 10.729 2.85979C11.1138 2.78881 12.4818 2.79743 12.87 2.87335ZM10.8801 5.81884C12.1297 6.92863 13.6573 7.61943 15.458 7.88913C15.7123 7.9272 15.9313 7.96936 15.9448 7.98277C15.9804 8.0184 15.8743 9.36816 15.7679 10.2326C15.5143 12.2937 15.3021 12.9482 14.6116 13.7997C14.1637 14.3518 13.4091 14.843 12.7217 15.0298C12.2978 15.145 11.2702 15.145 10.8462 15.0298C10.1073 14.8291 9.32856 14.2965 8.84501 13.661C8.70781 13.4807 8.59556 13.3172 8.59556 13.2976C8.59556 13.2781 8.80126 13.2628 9.05272 13.2636L9.50988 13.2652L9.65054 13.5082C9.82435 13.8085 10.1152 14.0349 10.4536 14.1332C10.8516 14.249 12.055 14.212 12.3536 14.0749C12.6324 13.9469 12.9379 13.6413 13.0654 13.3628C13.204 13.06 13.204 12.5263 13.0654 12.2235C12.9379 11.9451 12.6324 11.6395 12.3536 11.5115C12.055 11.3744 10.8516 11.3374 10.4536 11.4531C10.1152 11.5515 9.82435 11.7779 9.65054 12.0782L9.50988 12.3212L8.81828 12.3228C8.43788 12.3236 8.12668 12.3085 8.12664 12.2891C8.12664 12.2698 8.09578 12.1062 8.05809 11.9256C7.89163 11.1277 7.68434 9.38856 7.63033 8.33668L7.60032 7.75273L7.97397 7.25905C8.17943 6.98752 8.48824 6.63647 8.66013 6.47893C9.17167 6.01024 9.89108 5.69323 10.5985 5.62487C10.6298 5.62182 10.7566 5.70913 10.8801 5.81884ZM6.64348 7.71757C6.65783 7.84009 6.68249 8.19348 6.69834 8.50294C6.71423 8.8124 6.75704 9.33989 6.79352 9.67514C6.82995 10.0104 6.86001 10.3236 6.86024 10.3713C6.86066 10.4505 6.82315 10.4565 6.41626 10.4416C6.0036 10.4265 5.96252 10.4161 5.84188 10.2954L5.71196 10.1655L5.69817 8.83017L5.68439 7.49485H6.15092H6.61746L6.64348 7.71757ZM17.8697 8.83017L17.8559 10.1655L17.726 10.2954C17.6054 10.4161 17.5643 10.4265 17.1516 10.4416C16.7447 10.4565 16.7072 10.4505 16.7076 10.3713C16.7079 10.3236 16.738 10.0104 16.7746 9.67514C16.8113 9.33989 16.854 8.80185 16.8696 8.4795C16.8852 8.15714 16.9091 7.80375 16.9227 7.69412L16.9474 7.49485H17.4154H17.8835L17.8697 8.83017ZM7.02285 11.492C7.03565 11.5501 7.06889 11.7308 7.0967 11.8935C7.12445 12.0563 7.16014 12.2232 7.17594 12.2643C7.22086 12.3814 6.9106 12.3016 6.76848 12.1595C6.6726 12.0637 6.64967 11.9878 6.63424 11.7153L6.61567 11.3865H6.80763C6.96855 11.3865 7.00334 11.4036 7.02285 11.492ZM12.0984 12.4767C12.2918 12.6702 12.2804 12.9428 12.0712 13.1297L11.9152 13.2691L11.2878 13.2539C10.6874 13.2393 10.6554 13.2335 10.5409 13.1189C10.3692 12.947 10.3415 12.7107 10.4733 12.5431C10.6282 12.3462 10.7186 12.3255 11.3727 12.3372C11.955 12.3475 11.9728 12.3509 12.0984 12.4767ZM14.7178 16.082L15.0266 16.6983L14.901 17.0522C14.7353 17.5188 14.4003 18.3003 14.167 18.7644L13.9795 19.1373L13.187 18.3458L12.3946 17.5544L12.5959 17.3424C12.7067 17.2257 13.1522 16.7558 13.5858 16.2981C14.0196 15.8403 14.3822 15.4658 14.3917 15.4658C14.4012 15.4658 14.5479 15.7431 14.7178 16.082ZM10.344 18.3575C9.94242 18.7786 9.60473 19.123 9.59362 19.123C9.55386 19.123 8.97934 17.8693 8.75864 17.3008L8.53358 16.7212L8.80956 16.1631L9.08554 15.6049L10.0799 16.5984L11.0742 17.592L10.344 18.3575ZM11.8378 16.0519H12.5246L12.1439 16.4504C11.9346 16.6696 11.7518 16.8544 11.7378 16.8609C11.7237 16.8675 11.5121 16.6718 11.2675 16.4262C10.8425 15.9992 10.83 15.981 10.9868 16.0156C11.0771 16.0356 11.46 16.0519 11.8378 16.0519ZM7.98827 17.904C8.48214 19.1432 9.15236 20.3772 10.0255 21.655C10.2634 22.0031 10.5666 22.462 10.6993 22.6748L10.9406 23.0616H6.44706H1.95351L1.99515 22.7451C2.24159 20.8728 3.41421 19.1318 5.00864 18.2712C5.36634 18.0781 7.56815 17.2889 7.69452 17.3085C7.72762 17.3137 7.8598 17.5816 7.98827 17.904ZM17.0073 17.669C17.6197 17.8749 18.2932 18.1332 18.5041 18.2428C20.1178 19.0817 21.3234 20.8505 21.5727 22.7451L21.6144 23.0616H17.1208H12.6273L12.8686 22.6748C13.0013 22.462 13.3045 22.0031 13.5424 21.655C14.3972 20.4041 15.0145 19.2799 15.4992 18.0915C15.6412 17.7434 15.77 17.4216 15.7854 17.3765C15.8008 17.3314 15.8315 17.2944 15.8536 17.2944C15.8758 17.2944 16.3949 17.463 17.0073 17.669ZM12.6157 19.1343C13.0866 19.6047 13.4719 20.0086 13.4719 20.0319C13.4719 20.0552 13.2451 20.4109 12.9679 20.8223C12.6906 21.2337 12.3209 21.795 12.1463 22.0698C11.9717 22.3445 11.8086 22.5693 11.7839 22.5693C11.7593 22.5693 11.5962 22.3445 11.4216 22.0698C11.2469 21.795 10.8751 21.2304 10.5952 20.815C10.3153 20.3997 10.0965 20.0337 10.109 20.0017C10.1366 19.9306 11.6922 18.2791 11.7315 18.2791C11.7469 18.2791 12.1448 18.6639 12.6157 19.1343ZM16.7723 18.6063C16.6246 18.666 16.4727 18.8833 16.4727 19.0349C16.4727 19.2225 16.6882 19.4478 16.9 19.4814C17.0428 19.5041 17.0942 19.4862 17.2272 19.3674C17.3589 19.2497 17.3849 19.1939 17.3849 19.0293C17.3849 18.8661 17.3587 18.8087 17.2328 18.6963C17.0788 18.5586 16.9518 18.5338 16.7723 18.6063ZM18.4186 19.4956C18.248 19.5654 18.1394 19.7307 18.1394 19.9202C18.1394 20.0843 18.1792 20.1414 18.5865 20.5611C18.8403 20.8228 19.1214 21.1699 19.2368 21.3642C19.465 21.7484 19.6301 21.8676 19.8714 21.8223C20.0501 21.7888 20.1638 21.6766 20.221 21.477C20.2985 21.2067 19.8899 20.5303 19.2831 19.9243C18.8364 19.4783 18.6666 19.3941 18.4186 19.4956Z" fill="currentColor"/>
</svg>
