<svg width="22" height="22" xmlns="http://www.w3.org/2000/svg" viewBox="0 0 48 48">
	<path fill="#574E92" d="M44.6 10.6c-.8-2.9-2.4-5.2-4.8-6.8-3-2.1-6.4-2.8-9.4-3.2C26.3 0 22.6-.1 19 .3c-3.3.4-5.8 1.1-8.1 2.1-4.5 2.1-7.1 5.4-8 9.9-.4 2.2-.7 4.2-.8 6-.4 4.4 0 8.2 1 11.8 1 3.5 2.8 6 5.3 7.6.7.4 1.5.7 2.3 1 .5.2.9.3 1.3.5.3.2.3.2.3.5V48h1.9l.3-.3c.2-.2 4.8-4.6 6.4-6.4l.2-.2c.3-.3.3-.3.6-.3 2.2 0 4.5-.1 6.7-.3 2.7-.1 5.9-.4 8.9-1.7 2.7-1.1 4.7-2.9 5.9-5.4 1.2-2.5 2-5.3 2.3-8.4.7-5.4.3-10.1-.9-14.4zm-9.8 21.2c-.7 1.1-1.7 1.9-2.9 2.4-.9.4-1.8.3-2.6-.1-7.3-3.1-13-7.9-16.7-14.9-.8-1.4-1.3-3-1.9-4.5-.1-.3-.1-.7-.2-1 .1-2.4 1.9-3.8 3.8-4.2.7-.2 1.4.1 1.9.6 1.5 1.4 2.7 3.1 3.6 4.9.4.8.2 1.5-.4 2.1-.1.1-.3.2-.4.4-1.5 1.1-1.7 2-.9 3.7 1.4 2.9 3.6 4.9 6.6 6.1.8.3 1.5.2 2.1-.5.1-.1.2-.2.2-.3 1.2-1.9 2.8-1.7 4.4-.6 1 .7 2 1.5 3 2.2 1.4 1.1 1.4 2.2.4 3.7zm-9.6-19.3c-.3 0-.7 0-1 .1-.6.1-1.1-.3-1.2-.9-.1-.6.3-1.1.9-1.2.4-.1.9-.1 1.4-.1 4.5 0 8.2 3.7 8.2 8.2 0 .5 0 .9-.1 1.4-.1.5-.5.9-1 .9h-.2c-.6-.1-.9-.6-.9-1.2.1-.3.1-.7.1-1-.1-3.4-2.8-6.2-6.2-6.2zm5.1 6.3c0 .6-.5 1-1 1-.6 0-1-.5-1-1 0-1.7-1.4-3.1-3.1-3.1-.6 0-1-.5-1-1 0-.6.5-1 1-1 2.7-.1 5.1 2.2 5.1 5.1zm5.9 2.3c-.1.5-.5.8-1 .8H35c-.6-.1-.9-.7-.8-1.3.2-.7.2-1.4.2-2 0-5.1-4.1-9.2-9.2-9.2-.7 0-1.4.1-2 .2-.6.1-1.1-.2-1.2-.8-.1-.6.2-1.1.8-1.2.8-.2 1.7-.3 2.5-.3 6.2 0 11.3 5.1 11.3 11.3-.1.8-.2 1.7-.4 2.5z" />
</svg>