<svg width="24" height="23" viewBox="0 0 24 23" fill="none" xmlns="http://www.w3.org/2000/svg">
<path d="M15.1242 11.4839H14.6024V12.5274H15.1242C15.4112 12.5274 15.646 12.2937 15.646 12.0056C15.646 11.7176 15.4112 11.4839 15.1242 11.4839Z" fill="#FFCF5C"/>
<path d="M23.9721 8.70191C23.9074 8.51408 23.7426 8.37844 23.5464 8.35232L15.9892 7.35054L12.4663 0.288011C12.3787 0.111673 12.1971 0 11.9999 0C11.8027 0 11.6221 0.111673 11.5334 0.289038L8.00946 7.35054L0.453386 8.35232C0.257188 8.37839 0.0912688 8.51408 0.0276306 8.70191C-0.0360077 8.88975 0.0119778 9.09739 0.152853 9.23827L5.69496 14.7804L4.185 22.3323C4.14641 22.5285 4.22154 22.7278 4.38012 22.8499C4.53876 22.972 4.75369 22.9908 4.93007 22.9021L12.001 19.3667L19.0719 22.9021C19.146 22.9386 19.2252 22.9574 19.3056 22.9574C19.4173 22.9574 19.53 22.9209 19.6228 22.85C19.7804 22.7289 19.8566 22.5285 19.818 22.3324L18.308 14.7805L23.8501 9.23836C23.9878 9.09842 24.0358 8.88975 23.9721 8.70191ZM10.9167 11.1469L9.35144 15.3209C9.27528 15.5244 9.08011 15.659 8.86308 15.659C8.64604 15.659 8.45087 15.5244 8.37471 15.3209L6.80943 11.1469C6.70715 10.8766 6.84387 10.5761 7.11412 10.4748C7.38232 10.3757 7.68491 10.5103 7.78616 10.7795L8.86308 13.6513L9.93998 10.7795C10.0412 10.5093 10.3428 10.3747 10.612 10.4748C10.8823 10.576 11.0179 10.8755 10.9167 11.1469ZM12.5154 15.1362C12.5154 15.4242 12.2816 15.658 11.9936 15.658C11.7056 15.658 11.4719 15.4242 11.4719 15.1362V10.9622C11.4719 10.6742 11.7056 10.4404 11.9936 10.4404C12.2816 10.4404 12.5154 10.6742 12.5154 10.9622V15.1362ZM15.1242 13.571H14.6024V15.1362C14.6024 15.4242 14.3686 15.658 14.0806 15.658C13.7926 15.658 13.5589 15.4242 13.5589 15.1362V10.9622C13.5589 10.6742 13.7926 10.4404 14.0806 10.4404H15.1241C15.9871 10.4404 16.6894 11.1427 16.6894 12.0057C16.6895 12.8697 15.9872 13.571 15.1242 13.571Z" fill="#FFCF5C"/>
</svg>
