<svg width="22" height="22" xmlns="http://www.w3.org/2000/svg" viewBox="0 0 48 48">
	<path fill="#25D366" d="M24 0C10.8 0 0 10.8 0 24c0 4.1 1.1 8.2 3.1 11.8L0 46.7c-.1.4 0 .7.3 1 .2.2.5.3.7.3h.3l11.4-2.8C16.1 47 20 48 24 48c13.2 0 24-10.8 24-24S37.2 0 24 0zm12.1 32.5c-.5 1.4-3 2.7-4.2 2.9-1.1.2-2.4.2-3.9-.2-.9-.3-2-.7-3.5-1.3-6.2-2.6-10.2-8.8-10.5-9.2-.3-.4-2.5-3.3-2.5-6.3s1.6-4.5 2.2-5.1 1.2-.8 1.6-.8h1.2c.4 0 .9-.1 1.4 1 .5 1.2 1.7 4.2 1.9 4.5.2.3.3.7.1 1.1-.2.4-.3.7-.6 1-.3.4-.6.8-.9 1.1-.3.3-.6.6-.3 1.2.4.6 1.6 2.6 3.4 4.2 2.4 2.1 4.3 2.7 5 3 .6.3 1 .3 1.3-.2.4-.4 1.5-1.8 2-2.4.4-.6.8-.5 1.4-.3.6.2 3.6 1.7 4.2 2 .6.3 1 .5 1.2.7 0 .4 0 1.6-.5 3.1z" />
</svg>