<svg width="24" height="24" viewBox="0 0 24 24" fill="none" xmlns="http://www.w3.org/2000/svg">
<path fill-rule="evenodd" clip-rule="evenodd" d="M20.2393 16.2863C18.6906 19.2575 15.582 21.2863 11.9996 21.2863C8.41709 21.2863 5.30846 19.2575 3.75986 16.2863H2.64649C4.27164 19.8272 7.84842 22.2863 11.9996 22.2863C16.1507 22.2863 19.7275 19.8272 21.3526 16.2863H20.2393ZM3.75986 7.71484C5.30846 4.74357 8.41709 2.71484 11.9996 2.71484C15.582 2.71484 18.6906 4.74357 20.2393 7.71484H21.3526C19.7275 4.17394 16.1507 1.71484 11.9996 1.71484C7.84842 1.71484 4.27164 4.17394 2.64649 7.71484H3.75986Z" fill="#2F80ED"/>
<rect x="0.5" y="8.21484" width="23" height="7.57143" rx="1.5" stroke="#2F80ED"/>
<rect width="0.868963" height="5.01591" rx="0.434482" transform="matrix(-0.987884 -0.155196 -0.150603 0.988594 8.41846 9.56348)" fill="#2F80ED"/>
<rect width="0.871639" height="4.34767" rx="0.435819" transform="matrix(0.879633 -0.475653 0.464388 0.885632 5.0791 10.7207)" fill="#2F80ED"/>
<rect width="0.868963" height="5.01591" rx="0.434482" transform="matrix(0.987884 -0.155196 0.150603 0.988594 2.93066 9.56348)" fill="#2F80ED"/>
<rect width="0.871639" height="4.34767" rx="0.435819" transform="matrix(-0.879633 -0.475653 -0.464388 0.885632 6.27002 10.7207)" fill="#2F80ED"/>
<rect width="0.868963" height="5.01591" rx="0.434482" transform="matrix(-0.987884 -0.155196 -0.150603 0.988594 14.4946 9.56348)" fill="#2F80ED"/>
<rect width="0.871639" height="4.34767" rx="0.435819" transform="matrix(0.879633 -0.475653 0.464388 0.885632 11.1553 10.7207)" fill="#2F80ED"/>
<rect width="0.868963" height="5.01591" rx="0.434482" transform="matrix(0.987884 -0.155196 0.150603 0.988594 9.00684 9.56348)" fill="#2F80ED"/>
<rect width="0.871639" height="4.34767" rx="0.435819" transform="matrix(-0.879633 -0.475653 -0.464388 0.885632 12.3462 10.7207)" fill="#2F80ED"/>
<rect width="0.868963" height="5.01591" rx="0.434482" transform="matrix(-0.987884 -0.155196 -0.150603 0.988594 20.5718 9.56348)" fill="#2F80ED"/>
<rect width="0.871639" height="4.34767" rx="0.435819" transform="matrix(0.879633 -0.475653 0.464388 0.885632 17.2324 10.7207)" fill="#2F80ED"/>
<rect width="0.868963" height="5.01591" rx="0.434482" transform="matrix(0.987884 -0.155196 0.150603 0.988594 15.0835 9.56348)" fill="#2F80ED"/>
<rect width="0.871639" height="4.34767" rx="0.435819" transform="matrix(-0.879633 -0.475653 -0.464388 0.885632 18.4233 10.7207)" fill="#2F80ED"/>
</svg>
