<svg viewBox="0 0 17 18" fill="none" xmlns="http://www.w3.org/2000/svg">
<mask id="path-1-outside-1_2979_220" maskUnits="userSpaceOnUse" x="0" y="0" width="17" height="18" fill="currentColor">
<rect fill="white" width="17" height="18"/>
<path fill-rule="evenodd" clip-rule="evenodd" d="M3.65509 1.05117C3.13811 1.21818 2.72047 1.68701 2.62371 2.20889C2.60545 2.30733 2.59248 3.05756 2.59248 4.01434V5.65141L2.44398 5.6516C1.90853 5.65226 1.47744 5.86269 1.21914 6.24948C0.984072 6.60151 0.993733 6.42856 1.00427 10.0908L1.01368 13.3578L1.114 13.5696C1.22721 13.8086 1.47725 14.0799 1.67943 14.183C1.87539 14.283 2.14244 14.3426 2.39433 14.3426H2.62074L2.63005 15.1338L2.63937 15.9249L2.7572 16.1632C2.94941 16.5519 3.25357 16.8158 3.6509 16.9386C3.8451 16.9986 3.97047 17 9.20467 17C14.504 17 14.5619 16.9993 14.7659 16.9363C15.1808 16.8082 15.5611 16.4542 15.7278 16.041L15.8012 15.8589L15.8101 11.3882C15.82 6.41358 15.8274 6.61598 15.6092 5.95905C15.4787 5.566 15.2661 5.17784 14.9872 4.82294C14.8791 4.68538 14.3 4.08393 13.7005 3.48643C12.531 2.321 12.5403 2.32812 12.3665 2.46484C12.3047 2.51345 12.2841 2.55778 12.2841 2.64251C12.2841 2.74918 12.3483 2.82002 13.4509 3.92984C14.739 5.22648 14.8716 5.39021 15.0969 5.96177L15.1589 6.11893L14.9642 5.9613C14.8571 5.8746 14.6711 5.75608 14.5507 5.6979C14.1449 5.50173 14.0505 5.4875 13.0188 5.4669L12.0809 5.4482L11.9039 5.36129C11.7001 5.26122 11.5246 5.08108 11.4286 4.87365C11.3669 4.74006 11.3604 4.65949 11.3422 3.80688C11.3204 2.78294 11.3009 2.65354 11.1092 2.26041C11.0478 2.13454 10.9291 1.94652 10.8454 1.84264L10.6931 1.65371L10.8109 1.69526C10.9755 1.75335 11.2207 1.88034 11.4817 2.04275C11.604 2.11888 11.7283 2.18119 11.7579 2.18119C11.8569 2.18119 11.9819 2.04335 11.9819 1.93414C11.9819 1.80503 11.9023 1.72643 11.5695 1.52694C11.2727 1.34902 10.9338 1.21077 10.5021 1.0915L10.2051 1.00947L7.01624 1.0025C4.03262 0.995963 3.81628 0.99909 3.65509 1.05117ZM9.5642 1.53657C9.85279 1.6333 10.0809 1.76442 10.2777 1.94659C10.4996 2.15202 10.6383 2.35829 10.7472 2.64454C10.8238 2.8461 10.8273 2.88652 10.8469 3.80688C10.8652 4.66843 10.8736 4.77773 10.9331 4.94014C11.0777 5.33491 11.3316 5.61596 11.7057 5.79532C11.9988 5.93582 12.2201 5.96261 13.097 5.9638C13.9057 5.96489 14.0236 5.98256 14.3773 6.15572C14.6353 6.28196 14.9826 6.62449 15.1218 6.88985C15.3457 7.31691 15.3323 7.01672 15.3323 11.6071V15.7338L15.251 15.9072C15.1349 16.1547 14.9976 16.296 14.7597 16.4132L14.552 16.5154H9.20467H3.85733L3.64777 16.4122C3.51362 16.3462 3.39879 16.261 3.32863 16.1754C3.1318 15.9351 3.12395 15.8932 3.12395 15.079V14.344L7.10221 14.3355C11.0689 14.327 11.081 14.3268 11.2531 14.2608C11.7251 14.0798 12.0165 13.8616 12.2475 13.5161C12.5766 13.024 12.5969 12.8806 12.5961 11.0499C12.5955 9.60004 12.5796 9.34314 12.4721 9.03708C12.2856 8.50651 11.8154 8.0535 11.2529 7.86242C11.0493 7.7933 11.0473 7.79323 8.1838 7.7842L5.31839 7.77516L5.23201 7.84945C5.12302 7.9432 5.11521 8.09427 5.21425 8.19331L5.28284 8.2619L8.16601 8.27753L11.0492 8.29317L11.2857 8.40612C11.6776 8.59326 11.9403 8.90999 12.0486 9.32595C12.1147 9.57968 12.1193 12.5506 12.054 12.7951C11.9251 13.2776 11.5867 13.6393 11.1319 13.7807C10.938 13.8409 10.8271 13.8424 6.52056 13.8421L2.10789 13.8418L1.95136 13.7689C1.77982 13.689 1.62209 13.529 1.53728 13.3489C1.48685 13.2417 1.48194 13.0305 1.47362 10.6145C1.46869 9.17442 1.47356 7.99616 1.48444 7.99616C1.49532 7.99616 1.54272 8.02358 1.58977 8.05707C1.63682 8.09058 1.75156 8.15014 1.84472 8.18947C2.00976 8.25909 2.04537 8.26121 3.22987 8.27125C4.0964 8.2786 4.47056 8.27122 4.53243 8.24558C4.7151 8.16993 4.72173 7.89415 4.54284 7.81265C4.49275 7.78983 4.22239 7.77732 3.77851 7.77732H3.09169L3.1 4.98707L3.10832 2.19682L3.18407 2.04291C3.31707 1.7727 3.57518 1.56552 3.86596 1.49558C3.93261 1.47954 5.15747 1.46979 6.68797 1.4731C9.22364 1.47858 9.40297 1.48255 9.5642 1.53657ZM2.59248 6.96447V7.77732L2.38145 7.77713C2.10958 7.77691 1.96915 7.7364 1.8042 7.61059C1.50426 7.38184 1.40675 6.94897 1.57679 6.60138C1.72536 6.29769 1.97112 6.15838 2.36582 6.1541L2.59248 6.15163V6.96447ZM9.38206 9.34618C9.03569 9.38526 8.72193 9.59685 8.57925 9.8876C8.4908 10.0678 8.49408 10.4358 8.58569 10.6088C8.70817 10.8401 8.85233 10.9354 9.4322 11.1686C9.72983 11.2883 10.0228 11.4274 10.0848 11.4785C10.3185 11.6711 10.3278 11.8924 10.1114 12.1089C9.81271 12.4075 9.26116 12.3637 8.8225 12.0064C8.71515 11.919 8.62777 11.8728 8.56965 11.8728C8.45153 11.8728 8.34493 11.989 8.34493 12.1176C8.34493 12.3212 8.83001 12.6607 9.24931 12.7506C9.3417 12.7704 9.53828 12.7808 9.68612 12.7736C10.126 12.7522 10.4502 12.5618 10.6447 12.2106C10.7249 12.0659 10.7366 12.0129 10.7366 11.7947C10.7366 11.5793 10.7248 11.5246 10.6523 11.4012C10.5512 11.2292 10.3662 11.0564 10.1831 10.9628C10.1092 10.9251 9.84478 10.8124 9.59546 10.7124C9.07361 10.5031 9.00146 10.4441 9.00146 10.2266C9.00146 10.1076 9.01818 10.0678 9.10453 9.98148C9.34226 9.74375 9.77213 9.75876 10.1961 10.0196C10.391 10.1395 10.4828 10.1414 10.5967 10.0275C10.7457 9.87844 10.6351 9.68992 10.299 9.52022C9.97615 9.35721 9.71817 9.30825 9.38206 9.34618ZM3.21896 9.40892C3.14971 9.48327 3.13702 9.59194 3.18673 9.68485C3.20408 9.71724 3.40807 10.0126 3.64005 10.3413C3.87205 10.6699 4.06185 10.945 4.06185 10.9527C4.06185 10.9603 3.82269 11.3057 3.53038 11.7202C3.22259 12.1566 2.9989 12.5034 2.9989 12.5442C2.9989 12.583 3.02807 12.6518 3.06371 12.6971C3.14118 12.7956 3.30247 12.8089 3.39782 12.7247C3.43186 12.6946 3.66074 12.3816 3.90638 12.0291C4.15205 11.6766 4.35573 11.3845 4.35901 11.3799C4.36232 11.3754 4.54512 11.6286 4.76521 11.9427C5.33074 12.7497 5.3564 12.7795 5.48643 12.7795C5.62477 12.7795 5.71893 12.6874 5.7184 12.5528C5.71809 12.4721 5.60948 12.2972 5.18961 11.7014L4.6612 10.9516L4.76296 10.8104C5.04052 10.4253 5.52688 9.72299 5.5599 9.65975C5.63618 9.51356 5.51929 9.34049 5.34424 9.34049C5.20215 9.34049 5.20221 9.34042 4.73542 10.0065C4.53296 10.2954 4.3637 10.5275 4.35929 10.5223C4.35491 10.5171 4.17896 10.2667 3.96834 9.96575C3.75772 9.66484 3.56326 9.40108 3.53625 9.37957C3.45709 9.31654 3.29068 9.33195 3.21896 9.40892ZM6.44015 9.42287C6.37656 9.50368 6.37534 9.53441 6.37534 11.06C6.37534 12.5855 6.37656 12.6163 6.44015 12.6971L6.50492 12.7795H7.14129H7.77765L7.84243 12.6971C7.92841 12.5878 7.92428 12.481 7.83049 12.3873C7.75633 12.3131 7.73911 12.3105 7.31586 12.3105H6.87796L6.86895 10.8852L6.85992 9.45998L6.78611 9.40023C6.67687 9.31182 6.51937 9.3221 6.44015 9.42287Z"/>
</mask>
<path fill-rule="evenodd" clip-rule="evenodd" d="M3.65509 1.05117C3.13811 1.21818 2.72047 1.68701 2.62371 2.20889C2.60545 2.30733 2.59248 3.05756 2.59248 4.01434V5.65141L2.44398 5.6516C1.90853 5.65226 1.47744 5.86269 1.21914 6.24948C0.984072 6.60151 0.993733 6.42856 1.00427 10.0908L1.01368 13.3578L1.114 13.5696C1.22721 13.8086 1.47725 14.0799 1.67943 14.183C1.87539 14.283 2.14244 14.3426 2.39433 14.3426H2.62074L2.63005 15.1338L2.63937 15.9249L2.7572 16.1632C2.94941 16.5519 3.25357 16.8158 3.6509 16.9386C3.8451 16.9986 3.97047 17 9.20467 17C14.504 17 14.5619 16.9993 14.7659 16.9363C15.1808 16.8082 15.5611 16.4542 15.7278 16.041L15.8012 15.8589L15.8101 11.3882C15.82 6.41358 15.8274 6.61598 15.6092 5.95905C15.4787 5.566 15.2661 5.17784 14.9872 4.82294C14.8791 4.68538 14.3 4.08393 13.7005 3.48643C12.531 2.321 12.5403 2.32812 12.3665 2.46484C12.3047 2.51345 12.2841 2.55778 12.2841 2.64251C12.2841 2.74918 12.3483 2.82002 13.4509 3.92984C14.739 5.22648 14.8716 5.39021 15.0969 5.96177L15.1589 6.11893L14.9642 5.9613C14.8571 5.8746 14.6711 5.75608 14.5507 5.6979C14.1449 5.50173 14.0505 5.4875 13.0188 5.4669L12.0809 5.4482L11.9039 5.36129C11.7001 5.26122 11.5246 5.08108 11.4286 4.87365C11.3669 4.74006 11.3604 4.65949 11.3422 3.80688C11.3204 2.78294 11.3009 2.65354 11.1092 2.26041C11.0478 2.13454 10.9291 1.94652 10.8454 1.84264L10.6931 1.65371L10.8109 1.69526C10.9755 1.75335 11.2207 1.88034 11.4817 2.04275C11.604 2.11888 11.7283 2.18119 11.7579 2.18119C11.8569 2.18119 11.9819 2.04335 11.9819 1.93414C11.9819 1.80503 11.9023 1.72643 11.5695 1.52694C11.2727 1.34902 10.9338 1.21077 10.5021 1.0915L10.2051 1.00947L7.01624 1.0025C4.03262 0.995963 3.81628 0.99909 3.65509 1.05117ZM9.5642 1.53657C9.85279 1.6333 10.0809 1.76442 10.2777 1.94659C10.4996 2.15202 10.6383 2.35829 10.7472 2.64454C10.8238 2.8461 10.8273 2.88652 10.8469 3.80688C10.8652 4.66843 10.8736 4.77773 10.9331 4.94014C11.0777 5.33491 11.3316 5.61596 11.7057 5.79532C11.9988 5.93582 12.2201 5.96261 13.097 5.9638C13.9057 5.96489 14.0236 5.98256 14.3773 6.15572C14.6353 6.28196 14.9826 6.62449 15.1218 6.88985C15.3457 7.31691 15.3323 7.01672 15.3323 11.6071V15.7338L15.251 15.9072C15.1349 16.1547 14.9976 16.296 14.7597 16.4132L14.552 16.5154H9.20467H3.85733L3.64777 16.4122C3.51362 16.3462 3.39879 16.261 3.32863 16.1754C3.1318 15.9351 3.12395 15.8932 3.12395 15.079V14.344L7.10221 14.3355C11.0689 14.327 11.081 14.3268 11.2531 14.2608C11.7251 14.0798 12.0165 13.8616 12.2475 13.5161C12.5766 13.024 12.5969 12.8806 12.5961 11.0499C12.5955 9.60004 12.5796 9.34314 12.4721 9.03708C12.2856 8.50651 11.8154 8.0535 11.2529 7.86242C11.0493 7.7933 11.0473 7.79323 8.1838 7.7842L5.31839 7.77516L5.23201 7.84945C5.12302 7.9432 5.11521 8.09427 5.21425 8.19331L5.28284 8.2619L8.16601 8.27753L11.0492 8.29317L11.2857 8.40612C11.6776 8.59326 11.9403 8.90999 12.0486 9.32595C12.1147 9.57968 12.1193 12.5506 12.054 12.7951C11.9251 13.2776 11.5867 13.6393 11.1319 13.7807C10.938 13.8409 10.8271 13.8424 6.52056 13.8421L2.10789 13.8418L1.95136 13.7689C1.77982 13.689 1.62209 13.529 1.53728 13.3489C1.48685 13.2417 1.48194 13.0305 1.47362 10.6145C1.46869 9.17442 1.47356 7.99616 1.48444 7.99616C1.49532 7.99616 1.54272 8.02358 1.58977 8.05707C1.63682 8.09058 1.75156 8.15014 1.84472 8.18947C2.00976 8.25909 2.04537 8.26121 3.22987 8.27125C4.0964 8.2786 4.47056 8.27122 4.53243 8.24558C4.7151 8.16993 4.72173 7.89415 4.54284 7.81265C4.49275 7.78983 4.22239 7.77732 3.77851 7.77732H3.09169L3.1 4.98707L3.10832 2.19682L3.18407 2.04291C3.31707 1.7727 3.57518 1.56552 3.86596 1.49558C3.93261 1.47954 5.15747 1.46979 6.68797 1.4731C9.22364 1.47858 9.40297 1.48255 9.5642 1.53657ZM2.59248 6.96447V7.77732L2.38145 7.77713C2.10958 7.77691 1.96915 7.7364 1.8042 7.61059C1.50426 7.38184 1.40675 6.94897 1.57679 6.60138C1.72536 6.29769 1.97112 6.15838 2.36582 6.1541L2.59248 6.15163V6.96447ZM9.38206 9.34618C9.03569 9.38526 8.72193 9.59685 8.57925 9.8876C8.4908 10.0678 8.49408 10.4358 8.58569 10.6088C8.70817 10.8401 8.85233 10.9354 9.4322 11.1686C9.72983 11.2883 10.0228 11.4274 10.0848 11.4785C10.3185 11.6711 10.3278 11.8924 10.1114 12.1089C9.81271 12.4075 9.26116 12.3637 8.8225 12.0064C8.71515 11.919 8.62777 11.8728 8.56965 11.8728C8.45153 11.8728 8.34493 11.989 8.34493 12.1176C8.34493 12.3212 8.83001 12.6607 9.24931 12.7506C9.3417 12.7704 9.53828 12.7808 9.68612 12.7736C10.126 12.7522 10.4502 12.5618 10.6447 12.2106C10.7249 12.0659 10.7366 12.0129 10.7366 11.7947C10.7366 11.5793 10.7248 11.5246 10.6523 11.4012C10.5512 11.2292 10.3662 11.0564 10.1831 10.9628C10.1092 10.9251 9.84478 10.8124 9.59546 10.7124C9.07361 10.5031 9.00146 10.4441 9.00146 10.2266C9.00146 10.1076 9.01818 10.0678 9.10453 9.98148C9.34226 9.74375 9.77213 9.75876 10.1961 10.0196C10.391 10.1395 10.4828 10.1414 10.5967 10.0275C10.7457 9.87844 10.6351 9.68992 10.299 9.52022C9.97615 9.35721 9.71817 9.30825 9.38206 9.34618ZM3.21896 9.40892C3.14971 9.48327 3.13702 9.59194 3.18673 9.68485C3.20408 9.71724 3.40807 10.0126 3.64005 10.3413C3.87205 10.6699 4.06185 10.945 4.06185 10.9527C4.06185 10.9603 3.82269 11.3057 3.53038 11.7202C3.22259 12.1566 2.9989 12.5034 2.9989 12.5442C2.9989 12.583 3.02807 12.6518 3.06371 12.6971C3.14118 12.7956 3.30247 12.8089 3.39782 12.7247C3.43186 12.6946 3.66074 12.3816 3.90638 12.0291C4.15205 11.6766 4.35573 11.3845 4.35901 11.3799C4.36232 11.3754 4.54512 11.6286 4.76521 11.9427C5.33074 12.7497 5.3564 12.7795 5.48643 12.7795C5.62477 12.7795 5.71893 12.6874 5.7184 12.5528C5.71809 12.4721 5.60948 12.2972 5.18961 11.7014L4.6612 10.9516L4.76296 10.8104C5.04052 10.4253 5.52688 9.72299 5.5599 9.65975C5.63618 9.51356 5.51929 9.34049 5.34424 9.34049C5.20215 9.34049 5.20221 9.34042 4.73542 10.0065C4.53296 10.2954 4.3637 10.5275 4.35929 10.5223C4.35491 10.5171 4.17896 10.2667 3.96834 9.96575C3.75772 9.66484 3.56326 9.40108 3.53625 9.37957C3.45709 9.31654 3.29068 9.33195 3.21896 9.40892ZM6.44015 9.42287C6.37656 9.50368 6.37534 9.53441 6.37534 11.06C6.37534 12.5855 6.37656 12.6163 6.44015 12.6971L6.50492 12.7795H7.14129H7.77765L7.84243 12.6971C7.92841 12.5878 7.92428 12.481 7.83049 12.3873C7.75633 12.3131 7.73911 12.3105 7.31586 12.3105H6.87796L6.86895 10.8852L6.85992 9.45998L6.78611 9.40023C6.67687 9.31182 6.51937 9.3221 6.44015 9.42287Z" fill="currentColor"/>
<path fill-rule="evenodd" clip-rule="evenodd" d="M3.65509 1.05117C3.13811 1.21818 2.72047 1.68701 2.62371 2.20889C2.60545 2.30733 2.59248 3.05756 2.59248 4.01434V5.65141L2.44398 5.6516C1.90853 5.65226 1.47744 5.86269 1.21914 6.24948C0.984072 6.60151 0.993733 6.42856 1.00427 10.0908L1.01368 13.3578L1.114 13.5696C1.22721 13.8086 1.47725 14.0799 1.67943 14.183C1.87539 14.283 2.14244 14.3426 2.39433 14.3426H2.62074L2.63005 15.1338L2.63937 15.9249L2.7572 16.1632C2.94941 16.5519 3.25357 16.8158 3.6509 16.9386C3.8451 16.9986 3.97047 17 9.20467 17C14.504 17 14.5619 16.9993 14.7659 16.9363C15.1808 16.8082 15.5611 16.4542 15.7278 16.041L15.8012 15.8589L15.8101 11.3882C15.82 6.41358 15.8274 6.61598 15.6092 5.95905C15.4787 5.566 15.2661 5.17784 14.9872 4.82294C14.8791 4.68538 14.3 4.08393 13.7005 3.48643C12.531 2.321 12.5403 2.32812 12.3665 2.46484C12.3047 2.51345 12.2841 2.55778 12.2841 2.64251C12.2841 2.74918 12.3483 2.82002 13.4509 3.92984C14.739 5.22648 14.8716 5.39021 15.0969 5.96177L15.1589 6.11893L14.9642 5.9613C14.8571 5.8746 14.6711 5.75608 14.5507 5.6979C14.1449 5.50173 14.0505 5.4875 13.0188 5.4669L12.0809 5.4482L11.9039 5.36129C11.7001 5.26122 11.5246 5.08108 11.4286 4.87365C11.3669 4.74006 11.3604 4.65949 11.3422 3.80688C11.3204 2.78294 11.3009 2.65354 11.1092 2.26041C11.0478 2.13454 10.9291 1.94652 10.8454 1.84264L10.6931 1.65371L10.8109 1.69526C10.9755 1.75335 11.2207 1.88034 11.4817 2.04275C11.604 2.11888 11.7283 2.18119 11.7579 2.18119C11.8569 2.18119 11.9819 2.04335 11.9819 1.93414C11.9819 1.80503 11.9023 1.72643 11.5695 1.52694C11.2727 1.34902 10.9338 1.21077 10.5021 1.0915L10.2051 1.00947L7.01624 1.0025C4.03262 0.995963 3.81628 0.99909 3.65509 1.05117ZM9.5642 1.53657C9.85279 1.6333 10.0809 1.76442 10.2777 1.94659C10.4996 2.15202 10.6383 2.35829 10.7472 2.64454C10.8238 2.8461 10.8273 2.88652 10.8469 3.80688C10.8652 4.66843 10.8736 4.77773 10.9331 4.94014C11.0777 5.33491 11.3316 5.61596 11.7057 5.79532C11.9988 5.93582 12.2201 5.96261 13.097 5.9638C13.9057 5.96489 14.0236 5.98256 14.3773 6.15572C14.6353 6.28196 14.9826 6.62449 15.1218 6.88985C15.3457 7.31691 15.3323 7.01672 15.3323 11.6071V15.7338L15.251 15.9072C15.1349 16.1547 14.9976 16.296 14.7597 16.4132L14.552 16.5154H9.20467H3.85733L3.64777 16.4122C3.51362 16.3462 3.39879 16.261 3.32863 16.1754C3.1318 15.9351 3.12395 15.8932 3.12395 15.079V14.344L7.10221 14.3355C11.0689 14.327 11.081 14.3268 11.2531 14.2608C11.7251 14.0798 12.0165 13.8616 12.2475 13.5161C12.5766 13.024 12.5969 12.8806 12.5961 11.0499C12.5955 9.60004 12.5796 9.34314 12.4721 9.03708C12.2856 8.50651 11.8154 8.0535 11.2529 7.86242C11.0493 7.7933 11.0473 7.79323 8.1838 7.7842L5.31839 7.77516L5.23201 7.84945C5.12302 7.9432 5.11521 8.09427 5.21425 8.19331L5.28284 8.2619L8.16601 8.27753L11.0492 8.29317L11.2857 8.40612C11.6776 8.59326 11.9403 8.90999 12.0486 9.32595C12.1147 9.57968 12.1193 12.5506 12.054 12.7951C11.9251 13.2776 11.5867 13.6393 11.1319 13.7807C10.938 13.8409 10.8271 13.8424 6.52056 13.8421L2.10789 13.8418L1.95136 13.7689C1.77982 13.689 1.62209 13.529 1.53728 13.3489C1.48685 13.2417 1.48194 13.0305 1.47362 10.6145C1.46869 9.17442 1.47356 7.99616 1.48444 7.99616C1.49532 7.99616 1.54272 8.02358 1.58977 8.05707C1.63682 8.09058 1.75156 8.15014 1.84472 8.18947C2.00976 8.25909 2.04537 8.26121 3.22987 8.27125C4.0964 8.2786 4.47056 8.27122 4.53243 8.24558C4.7151 8.16993 4.72173 7.89415 4.54284 7.81265C4.49275 7.78983 4.22239 7.77732 3.77851 7.77732H3.09169L3.1 4.98707L3.10832 2.19682L3.18407 2.04291C3.31707 1.7727 3.57518 1.56552 3.86596 1.49558C3.93261 1.47954 5.15747 1.46979 6.68797 1.4731C9.22364 1.47858 9.40297 1.48255 9.5642 1.53657ZM2.59248 6.96447V7.77732L2.38145 7.77713C2.10958 7.77691 1.96915 7.7364 1.8042 7.61059C1.50426 7.38184 1.40675 6.94897 1.57679 6.60138C1.72536 6.29769 1.97112 6.15838 2.36582 6.1541L2.59248 6.15163V6.96447ZM9.38206 9.34618C9.03569 9.38526 8.72193 9.59685 8.57925 9.8876C8.4908 10.0678 8.49408 10.4358 8.58569 10.6088C8.70817 10.8401 8.85233 10.9354 9.4322 11.1686C9.72983 11.2883 10.0228 11.4274 10.0848 11.4785C10.3185 11.6711 10.3278 11.8924 10.1114 12.1089C9.81271 12.4075 9.26116 12.3637 8.8225 12.0064C8.71515 11.919 8.62777 11.8728 8.56965 11.8728C8.45153 11.8728 8.34493 11.989 8.34493 12.1176C8.34493 12.3212 8.83001 12.6607 9.24931 12.7506C9.3417 12.7704 9.53828 12.7808 9.68612 12.7736C10.126 12.7522 10.4502 12.5618 10.6447 12.2106C10.7249 12.0659 10.7366 12.0129 10.7366 11.7947C10.7366 11.5793 10.7248 11.5246 10.6523 11.4012C10.5512 11.2292 10.3662 11.0564 10.1831 10.9628C10.1092 10.9251 9.84478 10.8124 9.59546 10.7124C9.07361 10.5031 9.00146 10.4441 9.00146 10.2266C9.00146 10.1076 9.01818 10.0678 9.10453 9.98148C9.34226 9.74375 9.77213 9.75876 10.1961 10.0196C10.391 10.1395 10.4828 10.1414 10.5967 10.0275C10.7457 9.87844 10.6351 9.68992 10.299 9.52022C9.97615 9.35721 9.71817 9.30825 9.38206 9.34618ZM3.21896 9.40892C3.14971 9.48327 3.13702 9.59194 3.18673 9.68485C3.20408 9.71724 3.40807 10.0126 3.64005 10.3413C3.87205 10.6699 4.06185 10.945 4.06185 10.9527C4.06185 10.9603 3.82269 11.3057 3.53038 11.7202C3.22259 12.1566 2.9989 12.5034 2.9989 12.5442C2.9989 12.583 3.02807 12.6518 3.06371 12.6971C3.14118 12.7956 3.30247 12.8089 3.39782 12.7247C3.43186 12.6946 3.66074 12.3816 3.90638 12.0291C4.15205 11.6766 4.35573 11.3845 4.35901 11.3799C4.36232 11.3754 4.54512 11.6286 4.76521 11.9427C5.33074 12.7497 5.3564 12.7795 5.48643 12.7795C5.62477 12.7795 5.71893 12.6874 5.7184 12.5528C5.71809 12.4721 5.60948 12.2972 5.18961 11.7014L4.6612 10.9516L4.76296 10.8104C5.04052 10.4253 5.52688 9.72299 5.5599 9.65975C5.63618 9.51356 5.51929 9.34049 5.34424 9.34049C5.20215 9.34049 5.20221 9.34042 4.73542 10.0065C4.53296 10.2954 4.3637 10.5275 4.35929 10.5223C4.35491 10.5171 4.17896 10.2667 3.96834 9.96575C3.75772 9.66484 3.56326 9.40108 3.53625 9.37957C3.45709 9.31654 3.29068 9.33195 3.21896 9.40892ZM6.44015 9.42287C6.37656 9.50368 6.37534 9.53441 6.37534 11.06C6.37534 12.5855 6.37656 12.6163 6.44015 12.6971L6.50492 12.7795H7.14129H7.77765L7.84243 12.6971C7.92841 12.5878 7.92428 12.481 7.83049 12.3873C7.75633 12.3131 7.73911 12.3105 7.31586 12.3105H6.87796L6.86895 10.8852L6.85992 9.45998L6.78611 9.40023C6.67687 9.31182 6.51937 9.3221 6.44015 9.42287Z" stroke="currentColor" stroke-width="0.4" mask="url(#path-1-outside-1_2979_220)"/>
</svg>
