<?xml version="1.0" encoding="UTF-8"?>
<svg xmlns="http://www.w3.org/2000/svg" xmlns:xlink="http://www.w3.org/1999/xlink" width="30px" height="18px" viewBox="0 0 30 18" version="1.1">
<g id="surface1">
<rect x="0" y="0" width="30" height="18" style="fill:rgb(0%,68.627451%,79.215686%);fill-opacity:1;stroke:none;"/>
<path style=" stroke:none;fill-rule:nonzero;fill:rgb(99.607843%,77.254902%,4.705882%);fill-opacity:1;" d="M 18.226562 7.558594 C 18.226562 8.898438 17.320312 9.980469 16.207031 9.980469 C 15.09375 9.980469 14.1875 8.898438 14.1875 7.558594 C 14.1875 6.222656 15.09375 5.136719 16.207031 5.136719 C 17.320312 5.136719 18.226562 6.222656 18.226562 7.558594 Z M 18.226562 7.558594 "/>
<path style=" stroke:none;fill-rule:nonzero;fill:rgb(99.607843%,77.254902%,4.705882%);fill-opacity:1;" d="M 16.207031 4.808594 C 16.328125 4.804688 16.371094 4.714844 16.371094 4.609375 C 16.371094 4.464844 16.207031 3.777344 16.207031 3.777344 C 16.207031 3.777344 16.042969 4.464844 16.042969 4.609375 C 16.042969 4.714844 16.085938 4.808594 16.207031 4.808594 Z M 16.207031 4.808594 "/>
<path style=" stroke:none;fill-rule:nonzero;fill:rgb(99.607843%,77.254902%,4.705882%);fill-opacity:1;" d="M 18.5 7.558594 C 18.503906 7.703125 18.578125 7.757812 18.667969 7.757812 C 18.785156 7.757812 19.359375 7.558594 19.359375 7.558594 C 19.359375 7.558594 18.785156 7.363281 18.667969 7.363281 C 18.578125 7.363281 18.5 7.414062 18.5 7.558594 Z M 18.5 7.558594 "/>
<path style=" stroke:none;fill-rule:nonzero;fill:rgb(99.607843%,77.254902%,4.705882%);fill-opacity:1;" d="M 16.207031 10.3125 C 16.085938 10.3125 16.042969 10.402344 16.042969 10.511719 C 16.042969 10.65625 16.207031 11.34375 16.207031 11.34375 C 16.207031 11.34375 16.371094 10.65625 16.371094 10.511719 C 16.371094 10.402344 16.328125 10.3125 16.207031 10.3125 Z M 16.207031 10.3125 "/>
<path style=" stroke:none;fill-rule:nonzero;fill:rgb(99.607843%,77.254902%,4.705882%);fill-opacity:1;" d="M 13.914062 7.558594 C 13.910156 7.414062 13.835938 7.363281 13.746094 7.363281 C 13.628906 7.363281 13.054688 7.558594 13.054688 7.558594 C 13.054688 7.558594 13.628906 7.757812 13.746094 7.757812 C 13.835938 7.757812 13.914062 7.703125 13.914062 7.558594 Z M 13.914062 7.558594 "/>
<path style=" stroke:none;fill-rule:nonzero;fill:rgb(99.607843%,77.254902%,4.705882%);fill-opacity:1;" d="M 17.085938 5.015625 C 17.195312 5.070312 17.265625 5.007812 17.300781 4.910156 C 17.347656 4.777344 17.414062 4.066406 17.414062 4.066406 C 17.414062 4.066406 17.042969 4.625 16.996094 4.757812 C 16.960938 4.855469 16.972656 4.960938 17.085938 5.015625 Z M 17.085938 5.015625 "/>
<path style=" stroke:none;fill-rule:nonzero;fill:rgb(99.607843%,77.254902%,4.705882%);fill-opacity:1;" d="M 18.324219 8.613281 C 18.28125 8.746094 18.332031 8.832031 18.417969 8.871094 C 18.527344 8.925781 19.117188 9.007812 19.117188 9.007812 C 19.117188 9.007812 18.652344 8.5625 18.542969 8.507812 C 18.460938 8.464844 18.371094 8.480469 18.324219 8.613281 Z M 18.324219 8.613281 "/>
<path style=" stroke:none;fill-rule:nonzero;fill:rgb(99.607843%,77.254902%,4.705882%);fill-opacity:1;" d="M 15.328125 10.101562 C 15.21875 10.050781 15.148438 10.113281 15.113281 10.210938 C 15.066406 10.34375 15 11.054688 15 11.054688 C 15 11.054688 15.371094 10.496094 15.417969 10.363281 C 15.453125 10.261719 15.441406 10.15625 15.328125 10.101562 Z M 15.328125 10.101562 "/>
<path style=" stroke:none;fill-rule:nonzero;fill:rgb(99.607843%,77.254902%,4.705882%);fill-opacity:1;" d="M 14.089844 6.507812 C 14.132812 6.375 14.082031 6.289062 13.996094 6.246094 C 13.886719 6.191406 13.296875 6.113281 13.296875 6.113281 C 13.296875 6.113281 13.761719 6.558594 13.871094 6.613281 C 13.953125 6.65625 14.042969 6.640625 14.089844 6.507812 Z M 14.089844 6.507812 "/>
<path style=" stroke:none;fill-rule:nonzero;fill:rgb(99.607843%,77.254902%,4.705882%);fill-opacity:1;" d="M 17.828125 5.613281 C 17.914062 5.714844 18 5.6875 18.0625 5.613281 C 18.148438 5.511719 18.433594 4.886719 18.433594 4.886719 C 18.433594 4.886719 17.914062 5.230469 17.828125 5.332031 C 17.765625 5.410156 17.742188 5.511719 17.828125 5.613281 Z M 17.828125 5.613281 "/>
<path style=" stroke:none;fill-rule:nonzero;fill:rgb(99.607843%,77.254902%,4.705882%);fill-opacity:1;" d="M 17.828125 9.507812 C 17.746094 9.609375 17.765625 9.710938 17.828125 9.789062 C 17.914062 9.890625 18.433594 10.234375 18.433594 10.234375 C 18.433594 10.234375 18.148438 9.609375 18.0625 9.507812 C 18 9.429688 17.914062 9.402344 17.828125 9.507812 Z M 17.828125 9.507812 "/>
<path style=" stroke:none;fill-rule:nonzero;fill:rgb(99.607843%,77.254902%,4.705882%);fill-opacity:1;" d="M 14.585938 9.507812 C 14.5 9.40625 14.414062 9.429688 14.351562 9.507812 C 14.265625 9.609375 13.980469 10.234375 13.980469 10.234375 C 13.980469 10.234375 14.5 9.890625 14.585938 9.789062 C 14.648438 9.710938 14.671875 9.609375 14.585938 9.507812 Z M 14.585938 9.507812 "/>
<path style=" stroke:none;fill-rule:nonzero;fill:rgb(99.607843%,77.254902%,4.705882%);fill-opacity:1;" d="M 14.585938 5.613281 C 14.667969 5.511719 14.648438 5.410156 14.585938 5.332031 C 14.5 5.230469 13.980469 4.886719 13.980469 4.886719 C 13.980469 4.886719 14.265625 5.511719 14.351562 5.613281 C 14.414062 5.6875 14.5 5.714844 14.585938 5.613281 Z M 14.585938 5.613281 "/>
<path style=" stroke:none;fill-rule:nonzero;fill:rgb(99.607843%,77.254902%,4.705882%);fill-opacity:1;" d="M 18.324219 6.507812 C 18.375 6.640625 18.460938 6.65625 18.542969 6.613281 C 18.652344 6.558594 19.117188 6.113281 19.117188 6.113281 C 19.117188 6.113281 18.527344 6.191406 18.417969 6.246094 C 18.332031 6.289062 18.28125 6.375 18.324219 6.507812 Z M 18.324219 6.507812 "/>
<path style=" stroke:none;fill-rule:nonzero;fill:rgb(99.607843%,77.254902%,4.705882%);fill-opacity:1;" d="M 17.085938 10.101562 C 16.972656 10.160156 16.960938 10.261719 16.996094 10.363281 C 17.042969 10.496094 17.414062 11.054688 17.414062 11.054688 C 17.414062 11.054688 17.347656 10.34375 17.300781 10.210938 C 17.265625 10.113281 17.195312 10.046875 17.085938 10.101562 Z M 17.085938 10.101562 "/>
<path style=" stroke:none;fill-rule:nonzero;fill:rgb(99.607843%,77.254902%,4.705882%);fill-opacity:1;" d="M 14.089844 8.613281 C 14.039062 8.480469 13.953125 8.464844 13.871094 8.507812 C 13.761719 8.5625 13.296875 9.007812 13.296875 9.007812 C 13.296875 9.007812 13.886719 8.925781 13.996094 8.871094 C 14.082031 8.832031 14.132812 8.746094 14.089844 8.613281 Z M 14.089844 8.613281 "/>
<path style=" stroke:none;fill-rule:nonzero;fill:rgb(99.607843%,77.254902%,4.705882%);fill-opacity:1;" d="M 15.328125 5.015625 C 15.441406 4.960938 15.453125 4.855469 15.417969 4.757812 C 15.371094 4.625 15 4.066406 15 4.066406 C 15 4.066406 15.066406 4.777344 15.113281 4.910156 C 15.148438 5.007812 15.21875 5.074219 15.328125 5.015625 Z M 15.328125 5.015625 "/>
<path style=" stroke:none;fill-rule:nonzero;fill:rgb(99.607843%,77.254902%,4.705882%);fill-opacity:1;" d="M 16.65625 4.859375 C 16.773438 4.886719 16.832031 4.808594 16.847656 4.703125 C 16.871094 4.5625 16.820312 3.851562 16.820312 3.851562 C 16.820312 3.851562 16.546875 4.484375 16.523438 4.625 C 16.507812 4.730469 16.535156 4.832031 16.65625 4.859375 Z M 16.65625 4.859375 "/>
<path style=" stroke:none;fill-rule:nonzero;fill:rgb(99.607843%,77.254902%,4.705882%);fill-opacity:1;" d="M 18.457031 8.097656 C 18.433594 8.238281 18.5 8.308594 18.585938 8.332031 C 18.707031 8.359375 19.296875 8.296875 19.296875 8.296875 C 19.296875 8.296875 18.769531 7.96875 18.652344 7.941406 C 18.5625 7.921875 18.480469 7.957031 18.457031 8.097656 Z M 18.457031 8.097656 "/>
<path style=" stroke:none;fill-rule:nonzero;fill:rgb(99.607843%,77.254902%,4.705882%);fill-opacity:1;" d="M 15.757812 10.257812 C 15.640625 10.234375 15.582031 10.3125 15.566406 10.417969 C 15.542969 10.558594 15.59375 11.269531 15.59375 11.269531 C 15.59375 11.269531 15.867188 10.636719 15.890625 10.492188 C 15.90625 10.386719 15.878906 10.289062 15.757812 10.257812 Z M 15.757812 10.257812 "/>
<path style=" stroke:none;fill-rule:nonzero;fill:rgb(99.607843%,77.254902%,4.705882%);fill-opacity:1;" d="M 13.957031 7.023438 C 13.980469 6.882812 13.914062 6.8125 13.828125 6.789062 C 13.707031 6.761719 13.117188 6.820312 13.117188 6.820312 C 13.117188 6.820312 13.644531 7.148438 13.761719 7.179688 C 13.851562 7.199219 13.933594 7.164062 13.957031 7.023438 Z M 13.957031 7.023438 "/>
<path style=" stroke:none;fill-rule:nonzero;fill:rgb(99.607843%,77.254902%,4.705882%);fill-opacity:1;" d="M 17.480469 5.273438 C 17.582031 5.351562 17.660156 5.304688 17.710938 5.214844 C 17.777344 5.097656 17.957031 4.414062 17.957031 4.414062 C 17.957031 4.414062 17.503906 4.875 17.4375 4.996094 C 17.386719 5.085938 17.382812 5.191406 17.480469 5.273438 Z M 17.480469 5.273438 "/>
<path style=" stroke:none;fill-rule:nonzero;fill:rgb(99.607843%,77.254902%,4.705882%);fill-opacity:1;" d="M 18.113281 9.089844 C 18.046875 9.210938 18.085938 9.304688 18.160156 9.363281 C 18.261719 9.445312 18.828125 9.660156 18.828125 9.660156 C 18.828125 9.660156 18.445312 9.117188 18.34375 9.035156 C 18.269531 8.976562 18.179688 8.96875 18.113281 9.089844 Z M 18.113281 9.089844 "/>
<path style=" stroke:none;fill-rule:nonzero;fill:rgb(99.607843%,77.254902%,4.705882%);fill-opacity:1;" d="M 14.933594 9.847656 C 14.832031 9.769531 14.753906 9.816406 14.703125 9.90625 C 14.636719 10.023438 14.457031 10.703125 14.457031 10.703125 C 14.457031 10.703125 14.910156 10.246094 14.976562 10.125 C 15.027344 10.035156 15.03125 9.929688 14.933594 9.847656 Z M 14.933594 9.847656 "/>
<path style=" stroke:none;fill-rule:nonzero;fill:rgb(99.607843%,77.254902%,4.705882%);fill-opacity:1;" d="M 14.300781 6.03125 C 14.367188 5.910156 14.328125 5.816406 14.253906 5.753906 C 14.152344 5.675781 13.585938 5.457031 13.585938 5.457031 C 13.585938 5.457031 13.96875 6.003906 14.070312 6.085938 C 14.144531 6.144531 14.234375 6.152344 14.300781 6.03125 Z M 14.300781 6.03125 "/>
<path style=" stroke:none;fill-rule:nonzero;fill:rgb(99.607843%,77.254902%,4.705882%);fill-opacity:1;" d="M 18.113281 6.03125 C 18.183594 6.148438 18.269531 6.144531 18.34375 6.085938 C 18.445312 6.003906 18.828125 5.457031 18.828125 5.457031 C 18.828125 5.457031 18.261719 5.675781 18.160156 5.753906 C 18.085938 5.816406 18.046875 5.910156 18.113281 6.03125 Z M 18.113281 6.03125 "/>
<path style=" stroke:none;fill-rule:nonzero;fill:rgb(99.607843%,77.254902%,4.705882%);fill-opacity:1;" d="M 17.480469 9.847656 C 17.382812 9.929688 17.386719 10.035156 17.4375 10.125 C 17.503906 10.246094 17.957031 10.703125 17.957031 10.703125 C 17.957031 10.703125 17.777344 10.023438 17.710938 9.90625 C 17.660156 9.816406 17.582031 9.769531 17.480469 9.847656 Z M 17.480469 9.847656 "/>
<path style=" stroke:none;fill-rule:nonzero;fill:rgb(99.607843%,77.254902%,4.705882%);fill-opacity:1;" d="M 14.300781 9.089844 C 14.230469 8.96875 14.144531 8.976562 14.070312 9.035156 C 13.96875 9.117188 13.585938 9.660156 13.585938 9.660156 C 13.585938 9.660156 14.152344 9.445312 14.253906 9.363281 C 14.328125 9.304688 14.367188 9.207031 14.300781 9.089844 Z M 14.300781 9.089844 "/>
<path style=" stroke:none;fill-rule:nonzero;fill:rgb(99.607843%,77.254902%,4.705882%);fill-opacity:1;" d="M 14.933594 5.273438 C 15.03125 5.191406 15.027344 5.085938 14.976562 4.996094 C 14.910156 4.875 14.457031 4.414062 14.457031 4.414062 C 14.457031 4.414062 14.636719 5.097656 14.703125 5.214844 C 14.753906 5.304688 14.832031 5.351562 14.933594 5.273438 Z M 14.933594 5.273438 "/>
<path style=" stroke:none;fill-rule:nonzero;fill:rgb(99.607843%,77.254902%,4.705882%);fill-opacity:1;" d="M 18.457031 7.023438 C 18.480469 7.164062 18.5625 7.199219 18.652344 7.179688 C 18.769531 7.148438 19.296875 6.820312 19.296875 6.820312 C 19.296875 6.820312 18.707031 6.761719 18.585938 6.789062 C 18.5 6.8125 18.433594 6.882812 18.457031 7.023438 Z M 18.457031 7.023438 "/>
<path style=" stroke:none;fill-rule:nonzero;fill:rgb(99.607843%,77.254902%,4.705882%);fill-opacity:1;" d="M 16.65625 10.257812 C 16.539062 10.289062 16.507812 10.386719 16.523438 10.492188 C 16.546875 10.636719 16.820312 11.269531 16.820312 11.269531 C 16.820312 11.269531 16.871094 10.558594 16.847656 10.417969 C 16.832031 10.3125 16.773438 10.230469 16.65625 10.257812 Z M 16.65625 10.257812 "/>
<path style=" stroke:none;fill-rule:nonzero;fill:rgb(99.607843%,77.254902%,4.705882%);fill-opacity:1;" d="M 13.957031 8.097656 C 13.933594 7.957031 13.851562 7.921875 13.761719 7.941406 C 13.644531 7.96875 13.117188 8.296875 13.117188 8.296875 C 13.117188 8.296875 13.707031 8.359375 13.828125 8.332031 C 13.914062 8.308594 13.980469 8.238281 13.957031 8.097656 Z M 13.957031 8.097656 "/>
<path style=" stroke:none;fill-rule:nonzero;fill:rgb(99.607843%,77.254902%,4.705882%);fill-opacity:1;" d="M 15.757812 4.859375 C 15.878906 4.832031 15.90625 4.730469 15.890625 4.625 C 15.867188 4.484375 15.59375 3.851562 15.59375 3.851562 C 15.59375 3.851562 15.542969 4.5625 15.566406 4.703125 C 15.582031 4.808594 15.640625 4.890625 15.757812 4.859375 Z M 15.757812 4.859375 "/>
<path style=" stroke:none;fill-rule:nonzero;fill:rgb(99.607843%,77.254902%,4.705882%);fill-opacity:1;" d="M 15.847656 12.804688 C 15.792969 12.808594 15.742188 12.820312 15.6875 12.839844 C 15.617188 12.847656 15.550781 12.878906 15.480469 12.894531 L 15.453125 12.898438 L 15.40625 12.902344 C 15.410156 12.917969 15.410156 12.933594 15.410156 12.949219 C 15.410156 12.964844 15.410156 12.980469 15.40625 12.996094 C 15.402344 13.007812 15.394531 13.023438 15.386719 13.035156 C 15.375 13.046875 15.367188 13.058594 15.351562 13.066406 C 15.339844 13.070312 15.328125 13.074219 15.3125 13.078125 C 15.300781 13.078125 15.285156 13.078125 15.273438 13.070312 C 15.261719 13.066406 15.246094 13.054688 15.234375 13.042969 C 15.222656 13.046875 15.207031 13.050781 15.195312 13.050781 C 15.179688 13.054688 15.167969 13.054688 15.15625 13.050781 C 15.140625 13.046875 15.125 13.042969 15.113281 13.035156 C 15.097656 13.027344 15.085938 13.019531 15.074219 13.011719 C 15.023438 13.046875 14.964844 13.082031 14.933594 13.144531 C 14.917969 13.171875 14.914062 13.207031 14.910156 13.238281 C 14.90625 13.28125 14.914062 13.324219 14.929688 13.363281 C 14.9375 13.375 14.941406 13.324219 14.957031 13.316406 C 14.988281 13.289062 15.023438 13.269531 15.058594 13.257812 C 15.089844 13.238281 15.085938 13.257812 15.070312 13.285156 C 15.070312 13.300781 15.050781 13.359375 15.074219 13.328125 C 15.175781 13.277344 15.289062 13.265625 15.398438 13.253906 C 15.558594 13.234375 15.71875 13.230469 15.875 13.226562 C 16.027344 13.230469 16.175781 13.234375 16.328125 13.238281 C 16.398438 13.242188 16.46875 13.261719 16.539062 13.246094 C 16.558594 13.242188 16.585938 13.238281 16.59375 13.226562 C 16.5625 13.207031 16.523438 13.207031 16.488281 13.199219 L 16.203125 13.199219 C 16.125 13.191406 16.039062 13.1875 15.964844 13.152344 C 15.945312 13.144531 15.925781 13.121094 15.90625 13.144531 C 15.878906 13.15625 15.847656 13.164062 15.820312 13.167969 C 15.765625 13.171875 15.714844 13.160156 15.664062 13.136719 C 15.699219 13.078125 15.742188 13.027344 15.78125 12.972656 C 15.75 12.96875 15.71875 12.960938 15.6875 12.949219 C 15.742188 12.90625 15.792969 12.855469 15.847656 12.804688 Z M 15.847656 12.804688 "/>
<path style=" stroke:none;fill-rule:nonzero;fill:rgb(99.607843%,77.254902%,4.705882%);fill-opacity:1;" d="M 18.183594 13.429688 C 18.074219 13.507812 17.992188 13.367188 17.902344 13.324219 C 17.835938 13.367188 17.828125 13.511719 17.769531 13.578125 C 17.695312 13.675781 17.609375 13.550781 17.613281 13.453125 C 17.527344 13.539062 17.484375 13.738281 17.34375 13.710938 C 17.277344 13.644531 17.226562 13.511719 17.175781 13.664062 C 17.136719 13.742188 17.023438 13.847656 16.96875 13.734375 C 16.949219 13.632812 16.90625 13.515625 16.863281 13.675781 C 16.832031 13.789062 16.730469 13.871094 16.632812 13.824219 C 16.578125 13.769531 16.675781 13.574219 16.605469 13.589844 C 16.503906 13.671875 16.445312 13.871094 16.300781 13.855469 C 16.246094 13.78125 16.335938 13.65625 16.277344 13.570312 C 16.203125 13.683594 16.125 13.84375 16 13.855469 C 15.941406 13.796875 16.003906 13.628906 15.964844 13.605469 C 15.835938 13.695312 15.703125 13.859375 15.542969 13.808594 C 15.605469 13.523438 15.867188 13.421875 16.085938 13.402344 C 16.460938 13.34375 16.859375 13.445312 17.21875 13.285156 C 17.277344 13.242188 17.417969 13.179688 17.371094 13.082031 C 17.324219 13.003906 17.484375 13.035156 17.5 12.941406 C 17.492188 12.828125 17.574219 12.84375 17.65625 12.832031 C 18.023438 12.8125 18.382812 12.90625 18.746094 12.921875 C 18.777344 13.136719 18.578125 13.285156 18.417969 13.21875 C 18.34375 13.234375 18.230469 13.011719 18.253906 13.171875 C 18.238281 13.257812 18.25 13.371094 18.183594 13.429688 M 15.070312 12.992188 C 15.15625 13.085938 15.214844 12.972656 15.296875 12.933594 C 15.558594 12.824219 15.792969 12.632812 16.019531 12.441406 C 16.160156 12.304688 16.277344 12.125 16.464844 12.082031 C 16.828125 11.949219 17.210938 11.964844 17.574219 11.84375 C 17.851562 11.390625 18.324219 11.226562 18.71875 10.964844 C 18.804688 10.933594 18.839844 10.84375 18.867188 10.75 C 19.019531 10.464844 19.222656 10.210938 19.464844 10.039062 C 19.582031 9.964844 19.71875 9.921875 19.847656 9.953125 C 19.835938 10.140625 19.75 10.304688 19.640625 10.433594 C 19.730469 10.429688 19.804688 10.363281 19.894531 10.367188 C 19.921875 10.558594 19.753906 10.660156 19.660156 10.777344 C 19.710938 10.792969 19.90625 10.808594 19.800781 10.871094 C 19.664062 10.980469 19.511719 11.058594 19.386719 11.191406 C 19.5 11.214844 19.515625 11.246094 19.398438 11.292969 C 19.335938 11.347656 19.210938 11.363281 19.199219 11.464844 C 19.289062 11.527344 19.160156 11.59375 19.113281 11.613281 C 19.019531 11.640625 18.917969 11.6875 19.042969 11.773438 C 18.996094 11.859375 18.894531 11.875 18.8125 11.867188 C 18.839844 11.964844 18.875 12.074219 18.769531 12.117188 C 18.535156 12.328125 18.261719 12.484375 17.964844 12.519531 C 18.335938 12.550781 18.714844 12.46875 19.027344 12.230469 C 19.070312 12.171875 19.285156 12.109375 19.164062 12.058594 C 19.109375 12.03125 18.984375 11.996094 18.976562 11.945312 C 19.148438 11.820312 19.363281 11.863281 19.546875 11.789062 C 19.550781 11.71875 19.40625 11.738281 19.351562 11.722656 C 19.222656 11.707031 19.230469 11.667969 19.355469 11.65625 C 19.511719 11.605469 19.6875 11.59375 19.820312 11.472656 C 19.710938 11.414062 19.578125 11.464844 19.464844 11.417969 C 19.65625 11.316406 19.886719 11.304688 20.058594 11.152344 C 20.140625 11.046875 19.957031 11.082031 19.90625 11.082031 C 19.796875 11.105469 19.75 11.042969 19.871094 10.988281 C 20.078125 10.804688 20.34375 10.6875 20.488281 10.417969 C 20.523438 10.359375 20.570312 10.179688 20.460938 10.246094 C 20.3125 10.300781 20.1875 10.5 20.019531 10.4375 C 20.347656 10.132812 20.65625 9.789062 20.878906 9.371094 C 20.890625 9.25 20.734375 9.234375 20.691406 9.332031 C 20.484375 9.574219 20.292969 9.859375 20.023438 10.011719 C 20.28125 9.714844 20.492188 9.359375 20.679688 8.996094 C 20.71875 8.886719 20.824219 8.757812 20.769531 8.636719 C 20.675781 8.542969 20.558594 8.628906 20.507812 8.738281 C 20.347656 8.996094 20.222656 9.292969 20.011719 9.5 C 20.195312 9.082031 20.386719 8.632812 20.390625 8.148438 C 20.390625 8.050781 20.375 7.902344 20.261719 7.921875 C 20.171875 7.941406 20.191406 8.101562 20.15625 8.183594 C 20.074219 8.511719 20.035156 8.871094 19.871094 9.160156 C 19.90625 8.890625 19.972656 8.613281 19.921875 8.339844 C 19.898438 8.21875 19.734375 8.269531 19.757812 8.390625 C 19.5625 9.578125 18.898438 10.613281 18.03125 11.214844 C 17.636719 11.484375 17.191406 11.65625 16.742188 11.734375 C 16.621094 11.765625 16.488281 11.75 16.371094 11.796875 C 16.089844 12.058594 15.921875 12.488281 15.566406 12.625 C 15.40625 12.71875 15.199219 12.738281 15.082031 12.917969 C 15.074219 12.941406 15.070312 12.964844 15.070312 12.992188 "/>
<path style=" stroke:none;fill-rule:nonzero;fill:rgb(99.607843%,77.254902%,4.705882%);fill-opacity:1;" d="M 16.136719 11.789062 C 16.085938 11.902344 16.054688 12.035156 15.984375 12.136719 C 15.78125 11.914062 15.488281 11.921875 15.230469 11.90625 C 15.019531 11.894531 14.785156 11.871094 14.621094 11.6875 C 14.449219 11.519531 14.308594 11.296875 14.113281 11.160156 C 13.9375 11.101562 13.761719 11.03125 13.617188 10.886719 C 13.316406 10.589844 13.140625 10.148438 12.84375 9.84375 C 12.789062 9.777344 12.722656 9.722656 12.660156 9.667969 C 12.597656 9.683594 12.625 9.839844 12.550781 9.761719 C 12.511719 9.726562 12.410156 9.722656 12.402344 9.769531 C 12.492188 9.914062 12.582031 10.078125 12.597656 10.261719 C 12.535156 10.269531 12.425781 10.246094 12.394531 10.273438 C 12.476562 10.421875 12.582031 10.550781 12.699219 10.65625 C 12.644531 10.667969 12.53125 10.660156 12.507812 10.6875 C 12.628906 10.804688 12.753906 10.921875 12.910156 10.953125 C 12.941406 11.003906 12.863281 11.101562 12.929688 11.144531 C 12.96875 11.164062 13.09375 11.195312 13.007812 11.246094 C 12.945312 11.292969 12.96875 11.40625 13.046875 11.402344 C 13.09375 11.433594 13.203125 11.441406 13.210938 11.492188 C 13.167969 11.542969 13.035156 11.605469 13.148438 11.652344 C 13.253906 11.722656 13.375 11.769531 13.496094 11.773438 C 13.433594 11.835938 13.359375 11.871094 13.296875 11.929688 C 13.574219 12.125 13.882812 12.253906 14.1875 12.378906 C 14.308594 12.425781 14.433594 12.472656 14.558594 12.5 C 14.191406 12.472656 13.839844 12.34375 13.507812 12.167969 C 13.335938 12.074219 13.160156 11.988281 12.984375 11.910156 C 13.0625 11.863281 13.152344 11.851562 13.230469 11.808594 C 13.0625 11.765625 12.882812 11.753906 12.734375 11.644531 C 12.757812 11.597656 12.84375 11.59375 12.890625 11.570312 C 12.980469 11.542969 13.035156 11.511719 12.910156 11.503906 C 12.78125 11.460938 12.636719 11.480469 12.527344 11.390625 C 12.535156 11.335938 12.648438 11.355469 12.699219 11.332031 C 12.757812 11.316406 12.824219 11.308594 12.871094 11.261719 C 12.675781 11.164062 12.421875 11.230469 12.269531 11.023438 C 12.234375 10.945312 12.378906 11.007812 12.417969 10.996094 C 12.523438 10.996094 12.636719 11.035156 12.734375 10.984375 C 12.453125 10.835938 12.148438 10.695312 11.929688 10.417969 C 11.90625 10.375 11.835938 10.253906 11.894531 10.238281 C 12.0625 10.265625 12.183594 10.484375 12.363281 10.453125 C 12.386719 10.414062 12.257812 10.347656 12.226562 10.292969 C 11.964844 10.023438 11.707031 9.730469 11.523438 9.375 C 11.511719 9.257812 11.667969 9.238281 11.707031 9.328125 C 11.910156 9.5625 12.089844 9.832031 12.339844 9.992188 C 12.429688 10.042969 12.289062 9.929688 12.273438 9.890625 C 12.039062 9.566406 11.820312 9.226562 11.65625 8.847656 C 11.628906 8.777344 11.582031 8.65625 11.667969 8.617188 C 11.753906 8.566406 11.839844 8.636719 11.882812 8.726562 C 12.054688 8.984375 12.179688 9.289062 12.390625 9.503906 C 12.210938 9.085938 12.019531 8.640625 12.011719 8.15625 C 12.019531 8.0625 12.023438 7.921875 12.128906 7.925781 C 12.21875 7.910156 12.203125 8.046875 12.234375 8.113281 C 12.320312 8.46875 12.359375 8.851562 12.535156 9.164062 C 12.496094 8.902344 12.4375 8.628906 12.476562 8.363281 C 12.484375 8.273438 12.566406 8.246094 12.621094 8.300781 C 12.664062 8.429688 12.675781 8.585938 12.714844 8.722656 C 12.941406 9.652344 13.449219 10.464844 14.109375 11.015625 C 14.652344 11.460938 15.296875 11.730469 15.957031 11.777344 C 16.019531 11.78125 16.078125 11.785156 16.136719 11.789062 "/>
<path style=" stroke:none;fill-rule:nonzero;fill:rgb(99.607843%,77.254902%,4.705882%);fill-opacity:1;" d="M 15.335938 12.976562 C 15.335938 13 15.320312 13.019531 15.300781 13.019531 C 15.28125 13.019531 15.265625 13 15.265625 12.976562 C 15.265625 12.953125 15.28125 12.933594 15.300781 12.933594 C 15.320312 12.933594 15.335938 12.953125 15.335938 12.976562 Z M 15.335938 12.976562 "/>
<path style="fill-rule:nonzero;fill:rgb(99.607843%,77.254902%,4.705882%);fill-opacity:1;stroke-width:0.381;stroke-linecap:butt;stroke-linejoin:miter;stroke:rgb(0%,68.627451%,79.215686%);stroke-opacity:1;stroke-miterlimit:4;" d="M 1020.833333 720.486111 C 1020.833333 721.137153 1020.3125 721.571181 1019.791667 721.571181 C 1019.270833 721.571181 1018.75 721.137153 1018.75 720.486111 C 1018.75 720.052083 1019.270833 719.618056 1019.791667 719.618056 C 1020.3125 719.618056 1020.833333 720.052083 1020.833333 720.486111 Z M 1020.833333 720.486111 " transform="matrix(0.015,0,0,0.018,0,0)"/>
<path style=" stroke:none;fill-rule:nonzero;fill:rgb(99.607843%,77.254902%,4.705882%);fill-opacity:1;" d="M 1.800781 1.3125 C 1.800781 1.3125 1.65625 1.167969 1.605469 1.238281 C 1.527344 1.355469 1.847656 1.941406 1.847656 2.148438 C 1.847656 2.484375 1.660156 2.578125 1.429688 2.625 C 1.273438 2.65625 1.019531 2.613281 1.019531 2.613281 C 1.066406 2.535156 1.097656 2.511719 1.179688 2.503906 C 1.089844 2.449219 1 2.328125 1 2.140625 C 1 1.851562 1.097656 1.730469 1.097656 1.402344 C 1.097656 1.222656 0.972656 0.988281 0.972656 0.988281 C 1.195312 1.015625 1.300781 1.261719 1.242188 1.453125 C 1.277344 1.460938 1.308594 1.453125 1.335938 1.421875 C 1.351562 1.476562 1.324219 1.539062 1.292969 1.589844 C 1.320312 1.609375 1.339844 1.597656 1.382812 1.585938 C 1.378906 1.644531 1.351562 1.703125 1.28125 1.757812 C 1.480469 1.695312 1.601562 1.863281 1.601562 2.035156 C 1.601562 2.164062 1.523438 2.257812 1.449219 2.257812 C 1.425781 2.257812 1.390625 2.246094 1.371094 2.226562 C 1.355469 2.265625 1.363281 2.3125 1.378906 2.347656 C 1.324219 2.332031 1.289062 2.292969 1.3125 2.210938 C 1.273438 2.207031 1.238281 2.191406 1.214844 2.15625 C 1.238281 2.121094 1.273438 2.101562 1.3125 2.101562 C 1.285156 2.027344 1.316406 1.984375 1.367188 1.949219 C 1.367188 1.949219 1.335938 2.101562 1.417969 2.101562 C 1.453125 2.101562 1.484375 2.089844 1.484375 2.023438 C 1.484375 1.96875 1.445312 1.890625 1.351562 1.898438 C 1.257812 1.902344 1.179688 1.972656 1.179688 2.15625 C 1.179688 2.320312 1.292969 2.402344 1.441406 2.40625 C 1.570312 2.414062 1.671875 2.328125 1.671875 2.164062 C 1.671875 1.945312 1.410156 1.445312 1.410156 1.253906 C 1.410156 1.105469 1.519531 1.023438 1.625 1.023438 C 1.765625 1.023438 1.882812 1.191406 1.882812 1.191406 Z M 1.800781 1.3125 "/>
<path style=" stroke:none;fill-rule:nonzero;fill:rgb(99.607843%,77.254902%,4.705882%);fill-opacity:1;" d="M 1.832031 5.257812 C 1.832031 5.625 1.558594 5.8125 1.34375 5.8125 C 1.054688 5.8125 0.898438 5.605469 0.898438 5.332031 C 0.898438 5.179688 0.921875 5.082031 0.984375 4.933594 C 0.984375 4.933594 1.460938 3.746094 1.644531 3.285156 C 1.667969 3.226562 1.675781 3.160156 1.675781 3.066406 C 1.675781 2.917969 1.554688 2.796875 1.429688 2.792969 C 1.316406 2.789062 1.191406 2.921875 1.191406 3.070312 C 1.191406 3.253906 1.269531 3.332031 1.351562 3.332031 C 1.449219 3.332031 1.488281 3.285156 1.488281 3.203125 C 1.488281 3.144531 1.464844 3.117188 1.433594 3.117188 C 1.347656 3.117188 1.371094 3.253906 1.371094 3.253906 C 1.328125 3.246094 1.292969 3.191406 1.3125 3.128906 C 1.28125 3.117188 1.253906 3.097656 1.230469 3.070312 C 1.253906 3.042969 1.28125 3.023438 1.3125 3.015625 C 1.292969 2.9375 1.320312 2.898438 1.378906 2.882812 C 1.367188 2.910156 1.367188 2.9375 1.371094 2.964844 C 1.460938 2.933594 1.601562 2.984375 1.601562 3.171875 C 1.601562 3.359375 1.492188 3.515625 1.289062 3.476562 C 1.335938 3.503906 1.363281 3.558594 1.367188 3.625 C 1.332031 3.605469 1.289062 3.605469 1.289062 3.605469 C 1.3125 3.652344 1.347656 3.695312 1.34375 3.796875 C 1.308594 3.773438 1.273438 3.738281 1.222656 3.761719 C 1.300781 3.9375 1.207031 4.183594 0.972656 4.242188 C 1.058594 4.121094 1.101562 3.988281 1.101562 3.859375 C 1.101562 3.4375 1.003906 3.363281 1.003906 3.070312 C 1.003906 2.949219 1.054688 2.816406 1.160156 2.726562 L 1.160156 2.730469 C 1.089844 2.707031 1.046875 2.667969 1.019531 2.613281 C 1.179688 2.558594 1.40625 2.558594 1.53125 2.617188 C 1.671875 2.636719 1.769531 2.765625 1.800781 2.832031 C 1.828125 2.898438 1.886719 3.136719 1.800781 3.351562 C 1.707031 3.589844 1.265625 4.714844 1.125 5.066406 C 1.097656 5.140625 1.078125 5.222656 1.078125 5.308594 C 1.078125 5.523438 1.246094 5.601562 1.339844 5.601562 C 1.449219 5.601562 1.566406 5.496094 1.566406 5.367188 C 1.566406 5.289062 1.527344 5.238281 1.476562 5.238281 C 1.347656 5.238281 1.355469 5.367188 1.382812 5.449219 C 1.300781 5.40625 1.257812 5.332031 1.269531 5.25 C 1.226562 5.242188 1.183594 5.21875 1.144531 5.164062 C 1.171875 5.117188 1.210938 5.082031 1.269531 5.082031 C 1.242188 4.957031 1.3125 4.90625 1.382812 4.875 C 1.359375 4.96875 1.347656 5.070312 1.476562 5.070312 C 1.570312 5.070312 1.644531 5.089844 1.6875 5.164062 C 1.691406 5.066406 1.699219 4.679688 1.699219 4.679688 C 1.703125 4.535156 1.535156 4.539062 1.429688 4.582031 C 1.46875 4.414062 1.550781 4.320312 1.742188 4.34375 C 1.695312 4.320312 1.648438 4.269531 1.648438 4.167969 C 1.648438 4.03125 1.738281 3.878906 1.800781 3.835938 Z M 1.832031 5.257812 "/>
<path style=" stroke:none;fill-rule:nonzero;fill:rgb(99.607843%,77.254902%,4.705882%);fill-opacity:1;" d="M 1.832031 6.351562 C 1.832031 5.988281 1.558594 5.800781 1.34375 5.800781 C 1.054688 5.800781 0.898438 6.007812 0.898438 6.28125 C 0.898438 6.433594 0.921875 6.53125 0.984375 6.675781 C 0.984375 6.675781 1.460938 7.867188 1.644531 8.328125 C 1.667969 8.382812 1.675781 8.449219 1.675781 8.546875 C 1.675781 8.691406 1.554688 8.8125 1.429688 8.816406 C 1.316406 8.820312 1.191406 8.691406 1.191406 8.539062 C 1.191406 8.359375 1.269531 8.277344 1.351562 8.277344 C 1.449219 8.277344 1.488281 8.328125 1.488281 8.410156 C 1.488281 8.46875 1.464844 8.492188 1.433594 8.492188 C 1.347656 8.492188 1.371094 8.355469 1.371094 8.355469 C 1.328125 8.367188 1.292969 8.417969 1.3125 8.484375 C 1.28125 8.492188 1.253906 8.511719 1.230469 8.542969 C 1.253906 8.570312 1.28125 8.589844 1.3125 8.597656 C 1.292969 8.675781 1.320312 8.714844 1.378906 8.730469 C 1.367188 8.699219 1.367188 8.671875 1.371094 8.644531 C 1.460938 8.675781 1.601562 8.628906 1.601562 8.441406 C 1.601562 8.253906 1.492188 8.097656 1.289062 8.136719 C 1.335938 8.109375 1.363281 8.050781 1.367188 7.988281 C 1.332031 8.003906 1.289062 8.007812 1.289062 8.007812 C 1.3125 7.957031 1.347656 7.914062 1.34375 7.816406 C 1.308594 7.835938 1.273438 7.875 1.222656 7.851562 C 1.300781 7.671875 1.207031 7.425781 0.972656 7.371094 C 1.058594 7.492188 1.101562 7.621094 1.101562 7.753906 C 1.101562 8.175781 1.003906 8.246094 1.003906 8.539062 C 1.003906 8.664062 1.054688 8.796875 1.160156 8.886719 L 1.160156 8.882812 C 1.089844 8.902344 1.046875 8.945312 1.019531 9 C 1.179688 9.054688 1.40625 9.050781 1.53125 8.996094 C 1.671875 8.976562 1.769531 8.84375 1.800781 8.777344 C 1.828125 8.710938 1.886719 8.472656 1.800781 8.257812 C 1.707031 8.023438 1.265625 6.898438 1.125 6.542969 C 1.097656 6.46875 1.078125 6.390625 1.078125 6.304688 C 1.078125 6.085938 1.246094 6.011719 1.339844 6.011719 C 1.449219 6.011719 1.566406 6.113281 1.566406 6.242188 C 1.566406 6.324219 1.527344 6.371094 1.476562 6.371094 C 1.347656 6.371094 1.355469 6.242188 1.382812 6.160156 C 1.300781 6.203125 1.257812 6.28125 1.269531 6.359375 C 1.226562 6.367188 1.183594 6.394531 1.144531 6.445312 C 1.171875 6.492188 1.210938 6.527344 1.269531 6.53125 C 1.242188 6.652344 1.3125 6.707031 1.382812 6.734375 C 1.359375 6.644531 1.347656 6.539062 1.476562 6.539062 C 1.570312 6.539062 1.644531 6.519531 1.6875 6.445312 C 1.691406 6.542969 1.699219 6.933594 1.699219 6.933594 C 1.703125 7.078125 1.535156 7.074219 1.429688 7.03125 C 1.46875 7.199219 1.550781 7.289062 1.742188 7.265625 C 1.695312 7.289062 1.648438 7.34375 1.648438 7.441406 C 1.648438 7.578125 1.738281 7.730469 1.800781 7.777344 Z M 1.832031 6.351562 "/>
<path style=" stroke:none;fill-rule:nonzero;fill:rgb(99.607843%,77.254902%,4.705882%);fill-opacity:1;" d="M 1.800781 1.3125 C 1.800781 1.3125 1.945312 1.167969 1.992188 1.238281 C 2.070312 1.355469 1.75 1.941406 1.75 2.148438 C 1.75 2.484375 1.9375 2.578125 2.171875 2.625 C 2.324219 2.65625 2.578125 2.613281 2.578125 2.613281 C 2.53125 2.535156 2.5 2.511719 2.421875 2.503906 C 2.511719 2.449219 2.601562 2.328125 2.601562 2.140625 C 2.601562 1.851562 2.5 1.730469 2.5 1.402344 C 2.5 1.222656 2.625 0.988281 2.625 0.988281 C 2.40625 1.015625 2.296875 1.261719 2.359375 1.453125 C 2.324219 1.460938 2.292969 1.453125 2.265625 1.421875 C 2.25 1.476562 2.273438 1.539062 2.308594 1.589844 C 2.28125 1.609375 2.261719 1.597656 2.21875 1.585938 C 2.222656 1.644531 2.25 1.703125 2.316406 1.757812 C 2.121094 1.695312 2 1.863281 2 2.035156 C 2 2.164062 2.074219 2.257812 2.148438 2.257812 C 2.171875 2.257812 2.207031 2.246094 2.230469 2.226562 C 2.242188 2.265625 2.234375 2.3125 2.222656 2.347656 C 2.277344 2.332031 2.308594 2.292969 2.285156 2.210938 C 2.328125 2.207031 2.359375 2.191406 2.382812 2.15625 C 2.359375 2.121094 2.324219 2.101562 2.285156 2.101562 C 2.316406 2.027344 2.28125 1.984375 2.234375 1.949219 C 2.234375 1.949219 2.265625 2.101562 2.183594 2.101562 C 2.148438 2.101562 2.113281 2.089844 2.113281 2.023438 C 2.113281 1.96875 2.15625 1.890625 2.25 1.898438 C 2.34375 1.902344 2.417969 1.972656 2.417969 2.15625 C 2.417969 2.320312 2.308594 2.402344 2.160156 2.40625 C 2.027344 2.414062 1.929688 2.328125 1.929688 2.164062 C 1.929688 1.945312 2.191406 1.445312 2.191406 1.253906 C 2.191406 1.105469 2.082031 1.023438 1.972656 1.023438 C 1.835938 1.023438 1.71875 1.191406 1.71875 1.191406 Z M 1.800781 1.3125 "/>
<path style=" stroke:none;fill-rule:nonzero;fill:rgb(99.607843%,77.254902%,4.705882%);fill-opacity:1;" d="M 1.769531 5.257812 C 1.769531 5.625 2.042969 5.8125 2.257812 5.8125 C 2.546875 5.8125 2.699219 5.605469 2.699219 5.332031 C 2.699219 5.179688 2.675781 5.082031 2.617188 4.933594 C 2.617188 4.933594 2.140625 3.746094 1.957031 3.285156 C 1.933594 3.226562 1.925781 3.160156 1.925781 3.066406 C 1.925781 2.917969 2.042969 2.796875 2.167969 2.792969 C 2.285156 2.789062 2.40625 2.921875 2.40625 3.070312 C 2.40625 3.253906 2.328125 3.332031 2.25 3.332031 C 2.148438 3.332031 2.109375 3.285156 2.109375 3.203125 C 2.109375 3.144531 2.132812 3.117188 2.167969 3.117188 C 2.253906 3.117188 2.230469 3.253906 2.230469 3.253906 C 2.269531 3.246094 2.304688 3.191406 2.285156 3.128906 C 2.316406 3.117188 2.347656 3.097656 2.367188 3.070312 C 2.34375 3.042969 2.320312 3.023438 2.285156 3.015625 C 2.304688 2.9375 2.277344 2.898438 2.222656 2.882812 C 2.234375 2.910156 2.234375 2.9375 2.230469 2.964844 C 2.140625 2.933594 2 2.984375 2 3.171875 C 2 3.359375 2.109375 3.515625 2.308594 3.476562 C 2.261719 3.503906 2.238281 3.558594 2.234375 3.625 C 2.269531 3.605469 2.308594 3.605469 2.308594 3.605469 C 2.285156 3.652344 2.253906 3.695312 2.253906 3.796875 C 2.292969 3.773438 2.328125 3.738281 2.375 3.761719 C 2.300781 3.9375 2.394531 4.183594 2.628906 4.242188 C 2.542969 4.121094 2.5 3.988281 2.5 3.859375 C 2.5 3.4375 2.597656 3.363281 2.597656 3.070312 C 2.597656 2.949219 2.546875 2.816406 2.441406 2.726562 L 2.441406 2.730469 C 2.511719 2.707031 2.554688 2.667969 2.578125 2.613281 C 2.421875 2.558594 2.191406 2.558594 2.070312 2.617188 C 1.929688 2.636719 1.828125 2.765625 1.800781 2.832031 C 1.769531 2.898438 1.714844 3.136719 1.800781 3.351562 C 1.894531 3.589844 2.335938 4.714844 2.472656 5.066406 C 2.503906 5.140625 2.519531 5.222656 2.519531 5.308594 C 2.519531 5.523438 2.355469 5.601562 2.261719 5.601562 C 2.148438 5.601562 2.035156 5.496094 2.035156 5.367188 C 2.035156 5.289062 2.070312 5.238281 2.125 5.238281 C 2.25 5.238281 2.242188 5.367188 2.21875 5.449219 C 2.296875 5.40625 2.34375 5.332031 2.332031 5.25 C 2.375 5.242188 2.417969 5.21875 2.457031 5.164062 C 2.425781 5.117188 2.386719 5.082031 2.332031 5.082031 C 2.355469 4.957031 2.285156 4.90625 2.21875 4.875 C 2.238281 4.96875 2.253906 5.070312 2.125 5.070312 C 2.03125 5.070312 1.957031 5.089844 1.914062 5.164062 C 1.910156 5.066406 1.902344 4.679688 1.902344 4.679688 C 1.898438 4.535156 2.066406 4.539062 2.171875 4.582031 C 2.132812 4.414062 2.046875 4.320312 1.855469 4.34375 C 1.902344 4.320312 1.953125 4.269531 1.953125 4.167969 C 1.953125 4.03125 1.859375 3.878906 1.800781 3.835938 Z M 1.769531 5.257812 "/>
<path style=" stroke:none;fill-rule:nonzero;fill:rgb(99.607843%,77.254902%,4.705882%);fill-opacity:1;" d="M 1.769531 6.351562 C 1.769531 5.988281 2.042969 5.800781 2.257812 5.800781 C 2.546875 5.800781 2.699219 6.007812 2.699219 6.28125 C 2.699219 6.433594 2.675781 6.53125 2.617188 6.675781 C 2.617188 6.675781 2.140625 7.867188 1.957031 8.328125 C 1.933594 8.382812 1.925781 8.449219 1.925781 8.546875 C 1.925781 8.691406 2.042969 8.8125 2.167969 8.816406 C 2.285156 8.820312 2.40625 8.691406 2.40625 8.539062 C 2.40625 8.359375 2.328125 8.277344 2.25 8.277344 C 2.148438 8.277344 2.109375 8.328125 2.109375 8.410156 C 2.109375 8.46875 2.132812 8.492188 2.167969 8.492188 C 2.253906 8.492188 2.230469 8.355469 2.230469 8.355469 C 2.269531 8.367188 2.304688 8.417969 2.285156 8.484375 C 2.316406 8.492188 2.347656 8.511719 2.367188 8.542969 C 2.34375 8.570312 2.320312 8.589844 2.285156 8.597656 C 2.304688 8.675781 2.277344 8.714844 2.222656 8.730469 C 2.234375 8.699219 2.234375 8.671875 2.230469 8.644531 C 2.140625 8.675781 2 8.628906 2 8.441406 C 2 8.253906 2.109375 8.097656 2.308594 8.136719 C 2.261719 8.109375 2.238281 8.050781 2.234375 7.988281 C 2.269531 8.003906 2.308594 8.007812 2.308594 8.007812 C 2.285156 7.957031 2.253906 7.914062 2.253906 7.816406 C 2.292969 7.835938 2.328125 7.875 2.375 7.851562 C 2.300781 7.671875 2.394531 7.425781 2.628906 7.371094 C 2.542969 7.492188 2.5 7.621094 2.5 7.753906 C 2.5 8.175781 2.597656 8.246094 2.597656 8.539062 C 2.597656 8.664062 2.546875 8.796875 2.441406 8.886719 L 2.441406 8.882812 C 2.511719 8.902344 2.554688 8.945312 2.578125 9 C 2.421875 9.054688 2.191406 9.050781 2.070312 8.996094 C 1.929688 8.976562 1.828125 8.84375 1.800781 8.777344 C 1.769531 8.710938 1.714844 8.472656 1.800781 8.257812 C 1.894531 8.023438 2.335938 6.898438 2.472656 6.542969 C 2.503906 6.46875 2.519531 6.390625 2.519531 6.304688 C 2.519531 6.085938 2.355469 6.011719 2.261719 6.011719 C 2.148438 6.011719 2.035156 6.113281 2.035156 6.242188 C 2.035156 6.324219 2.070312 6.371094 2.125 6.371094 C 2.25 6.371094 2.242188 6.242188 2.21875 6.160156 C 2.296875 6.203125 2.34375 6.28125 2.332031 6.359375 C 2.375 6.367188 2.417969 6.394531 2.457031 6.445312 C 2.425781 6.492188 2.386719 6.527344 2.332031 6.53125 C 2.355469 6.652344 2.285156 6.707031 2.21875 6.734375 C 2.238281 6.644531 2.253906 6.539062 2.125 6.539062 C 2.03125 6.539062 1.957031 6.519531 1.914062 6.445312 C 1.910156 6.542969 1.902344 6.933594 1.902344 6.933594 C 1.898438 7.078125 2.066406 7.074219 2.171875 7.03125 C 2.132812 7.199219 2.046875 7.289062 1.855469 7.265625 C 1.902344 7.289062 1.953125 7.34375 1.953125 7.441406 C 1.953125 7.578125 1.859375 7.730469 1.800781 7.777344 Z M 1.769531 6.351562 "/>
<path style=" stroke:none;fill-rule:nonzero;fill:rgb(99.607843%,77.254902%,4.705882%);fill-opacity:1;" d="M 1.800781 16.6875 C 1.800781 16.6875 1.65625 16.832031 1.605469 16.761719 C 1.527344 16.644531 1.847656 16.058594 1.847656 15.851562 C 1.847656 15.515625 1.660156 15.421875 1.429688 15.375 C 1.273438 15.34375 1.019531 15.386719 1.019531 15.386719 C 1.066406 15.464844 1.097656 15.488281 1.179688 15.496094 C 1.089844 15.550781 1 15.671875 1 15.859375 C 1 16.148438 1.097656 16.269531 1.097656 16.597656 C 1.097656 16.777344 0.972656 17.011719 0.972656 17.011719 C 1.195312 16.984375 1.300781 16.738281 1.242188 16.546875 C 1.277344 16.539062 1.308594 16.546875 1.335938 16.578125 C 1.351562 16.523438 1.324219 16.460938 1.292969 16.410156 C 1.320312 16.390625 1.339844 16.402344 1.382812 16.414062 C 1.378906 16.355469 1.351562 16.296875 1.28125 16.242188 C 1.480469 16.304688 1.601562 16.136719 1.601562 15.964844 C 1.601562 15.835938 1.523438 15.742188 1.449219 15.742188 C 1.425781 15.742188 1.390625 15.753906 1.371094 15.773438 C 1.355469 15.734375 1.363281 15.6875 1.378906 15.652344 C 1.324219 15.667969 1.289062 15.707031 1.3125 15.789062 C 1.273438 15.792969 1.238281 15.808594 1.214844 15.84375 C 1.238281 15.878906 1.273438 15.898438 1.3125 15.898438 C 1.285156 15.972656 1.316406 16.015625 1.367188 16.050781 C 1.367188 16.050781 1.335938 15.898438 1.417969 15.898438 C 1.453125 15.898438 1.484375 15.910156 1.484375 15.976562 C 1.484375 16.03125 1.445312 16.109375 1.351562 16.101562 C 1.257812 16.097656 1.179688 16.027344 1.179688 15.84375 C 1.179688 15.679688 1.292969 15.597656 1.441406 15.59375 C 1.570312 15.585938 1.671875 15.671875 1.671875 15.835938 C 1.671875 16.054688 1.410156 16.554688 1.410156 16.746094 C 1.410156 16.894531 1.519531 16.976562 1.625 16.976562 C 1.765625 16.976562 1.882812 16.808594 1.882812 16.808594 Z M 1.800781 16.6875 "/>
<path style=" stroke:none;fill-rule:nonzero;fill:rgb(99.607843%,77.254902%,4.705882%);fill-opacity:1;" d="M 1.832031 12.742188 C 1.832031 12.375 1.558594 12.1875 1.34375 12.1875 C 1.054688 12.1875 0.898438 12.394531 0.898438 12.667969 C 0.898438 12.820312 0.921875 12.917969 0.984375 13.066406 C 0.984375 13.066406 1.460938 14.253906 1.644531 14.714844 C 1.667969 14.773438 1.675781 14.839844 1.675781 14.933594 C 1.675781 15.082031 1.554688 15.203125 1.429688 15.207031 C 1.316406 15.210938 1.191406 15.078125 1.191406 14.929688 C 1.191406 14.746094 1.269531 14.667969 1.351562 14.667969 C 1.449219 14.667969 1.488281 14.714844 1.488281 14.796875 C 1.488281 14.855469 1.464844 14.882812 1.433594 14.882812 C 1.347656 14.882812 1.371094 14.746094 1.371094 14.746094 C 1.328125 14.753906 1.292969 14.808594 1.3125 14.871094 C 1.28125 14.882812 1.253906 14.902344 1.230469 14.929688 C 1.253906 14.957031 1.28125 14.976562 1.3125 14.984375 C 1.292969 15.0625 1.320312 15.101562 1.378906 15.117188 C 1.367188 15.089844 1.367188 15.0625 1.371094 15.035156 C 1.460938 15.066406 1.601562 15.015625 1.601562 14.828125 C 1.601562 14.640625 1.492188 14.484375 1.289062 14.523438 C 1.335938 14.496094 1.363281 14.441406 1.367188 14.375 C 1.332031 14.394531 1.289062 14.394531 1.289062 14.394531 C 1.3125 14.347656 1.347656 14.304688 1.34375 14.203125 C 1.308594 14.226562 1.273438 14.261719 1.222656 14.238281 C 1.300781 14.0625 1.207031 13.816406 0.972656 13.757812 C 1.058594 13.878906 1.101562 14.011719 1.101562 14.140625 C 1.101562 14.5625 1.003906 14.636719 1.003906 14.929688 C 1.003906 15.050781 1.054688 15.183594 1.160156 15.273438 L 1.160156 15.269531 C 1.089844 15.292969 1.046875 15.332031 1.019531 15.386719 C 1.179688 15.441406 1.40625 15.441406 1.53125 15.382812 C 1.671875 15.363281 1.769531 15.234375 1.800781 15.167969 C 1.828125 15.101562 1.886719 14.863281 1.800781 14.648438 C 1.707031 14.410156 1.265625 13.285156 1.125 12.933594 C 1.097656 12.859375 1.078125 12.777344 1.078125 12.691406 C 1.078125 12.476562 1.246094 12.398438 1.339844 12.398438 C 1.449219 12.398438 1.566406 12.503906 1.566406 12.632812 C 1.566406 12.710938 1.527344 12.761719 1.476562 12.761719 C 1.347656 12.761719 1.355469 12.632812 1.382812 12.550781 C 1.300781 12.59375 1.257812 12.667969 1.269531 12.75 C 1.226562 12.757812 1.183594 12.78125 1.144531 12.835938 C 1.171875 12.882812 1.210938 12.917969 1.269531 12.917969 C 1.242188 13.042969 1.3125 13.09375 1.382812 13.125 C 1.359375 13.03125 1.347656 12.929688 1.476562 12.929688 C 1.570312 12.929688 1.644531 12.910156 1.6875 12.835938 C 1.691406 12.933594 1.699219 13.320312 1.699219 13.320312 C 1.703125 13.464844 1.535156 13.460938 1.429688 13.417969 C 1.46875 13.585938 1.550781 13.679688 1.742188 13.65625 C 1.695312 13.679688 1.648438 13.730469 1.648438 13.832031 C 1.648438 13.96875 1.738281 14.121094 1.800781 14.164062 Z M 1.832031 12.742188 "/>
<path style=" stroke:none;fill-rule:nonzero;fill:rgb(99.607843%,77.254902%,4.705882%);fill-opacity:1;" d="M 1.832031 11.648438 C 1.832031 12.011719 1.558594 12.199219 1.34375 12.199219 C 1.054688 12.199219 0.898438 11.992188 0.898438 11.71875 C 0.898438 11.566406 0.921875 11.46875 0.984375 11.324219 C 0.984375 11.324219 1.460938 10.132812 1.644531 9.671875 C 1.667969 9.617188 1.675781 9.550781 1.675781 9.453125 C 1.675781 9.308594 1.554688 9.1875 1.429688 9.183594 C 1.316406 9.179688 1.191406 9.308594 1.191406 9.460938 C 1.191406 9.640625 1.269531 9.722656 1.351562 9.722656 C 1.449219 9.722656 1.488281 9.671875 1.488281 9.589844 C 1.488281 9.53125 1.464844 9.507812 1.433594 9.507812 C 1.347656 9.507812 1.371094 9.644531 1.371094 9.644531 C 1.328125 9.632812 1.292969 9.582031 1.3125 9.515625 C 1.28125 9.507812 1.253906 9.488281 1.230469 9.457031 C 1.253906 9.429688 1.28125 9.410156 1.3125 9.402344 C 1.292969 9.324219 1.320312 9.285156 1.378906 9.269531 C 1.367188 9.300781 1.367188 9.328125 1.371094 9.355469 C 1.460938 9.324219 1.601562 9.371094 1.601562 9.558594 C 1.601562 9.746094 1.492188 9.902344 1.289062 9.863281 C 1.335938 9.890625 1.363281 9.949219 1.367188 10.011719 C 1.332031 9.996094 1.289062 9.992188 1.289062 9.992188 C 1.3125 10.042969 1.347656 10.085938 1.34375 10.183594 C 1.308594 10.164062 1.273438 10.125 1.222656 10.148438 C 1.300781 10.328125 1.207031 10.574219 0.972656 10.628906 C 1.058594 10.507812 1.101562 10.378906 1.101562 10.246094 C 1.101562 9.824219 1.003906 9.753906 1.003906 9.460938 C 1.003906 9.335938 1.054688 9.203125 1.160156 9.113281 L 1.160156 9.117188 C 1.089844 9.097656 1.046875 9.054688 1.019531 9 C 1.179688 8.945312 1.40625 8.949219 1.53125 9.003906 C 1.671875 9.023438 1.769531 9.15625 1.800781 9.222656 C 1.828125 9.289062 1.886719 9.527344 1.800781 9.742188 C 1.707031 9.976562 1.265625 11.101562 1.125 11.457031 C 1.097656 11.53125 1.078125 11.609375 1.078125 11.695312 C 1.078125 11.914062 1.246094 11.988281 1.339844 11.988281 C 1.449219 11.988281 1.566406 11.886719 1.566406 11.757812 C 1.566406 11.675781 1.527344 11.628906 1.476562 11.628906 C 1.347656 11.628906 1.355469 11.757812 1.382812 11.839844 C 1.300781 11.796875 1.257812 11.71875 1.269531 11.640625 C 1.226562 11.632812 1.183594 11.605469 1.144531 11.554688 C 1.171875 11.507812 1.210938 11.472656 1.269531 11.46875 C 1.242188 11.347656 1.3125 11.292969 1.382812 11.265625 C 1.359375 11.355469 1.347656 11.460938 1.476562 11.460938 C 1.570312 11.460938 1.644531 11.480469 1.6875 11.554688 C 1.691406 11.457031 1.699219 11.066406 1.699219 11.066406 C 1.703125 10.921875 1.535156 10.925781 1.429688 10.96875 C 1.46875 10.800781 1.550781 10.710938 1.742188 10.734375 C 1.695312 10.710938 1.648438 10.65625 1.648438 10.558594 C 1.648438 10.421875 1.738281 10.269531 1.800781 10.222656 Z M 1.832031 11.648438 "/>
<path style=" stroke:none;fill-rule:nonzero;fill:rgb(99.607843%,77.254902%,4.705882%);fill-opacity:1;" d="M 1.800781 16.6875 C 1.800781 16.6875 1.945312 16.832031 1.992188 16.761719 C 2.070312 16.644531 1.75 16.058594 1.75 15.851562 C 1.75 15.515625 1.9375 15.421875 2.171875 15.375 C 2.324219 15.34375 2.578125 15.386719 2.578125 15.386719 C 2.53125 15.464844 2.5 15.488281 2.421875 15.496094 C 2.511719 15.550781 2.601562 15.671875 2.601562 15.859375 C 2.601562 16.148438 2.5 16.269531 2.5 16.597656 C 2.5 16.777344 2.625 17.011719 2.625 17.011719 C 2.40625 16.984375 2.296875 16.738281 2.359375 16.546875 C 2.324219 16.539062 2.292969 16.546875 2.265625 16.578125 C 2.25 16.523438 2.273438 16.460938 2.308594 16.410156 C 2.28125 16.390625 2.261719 16.402344 2.21875 16.414062 C 2.222656 16.355469 2.25 16.296875 2.316406 16.242188 C 2.121094 16.304688 2 16.136719 2 15.964844 C 2 15.835938 2.074219 15.742188 2.148438 15.742188 C 2.171875 15.742188 2.207031 15.753906 2.230469 15.773438 C 2.242188 15.734375 2.234375 15.6875 2.222656 15.652344 C 2.277344 15.667969 2.308594 15.707031 2.285156 15.789062 C 2.328125 15.792969 2.359375 15.808594 2.382812 15.84375 C 2.359375 15.878906 2.324219 15.898438 2.285156 15.898438 C 2.316406 15.972656 2.28125 16.015625 2.234375 16.050781 C 2.234375 16.050781 2.265625 15.898438 2.183594 15.898438 C 2.148438 15.898438 2.113281 15.910156 2.113281 15.976562 C 2.113281 16.03125 2.15625 16.109375 2.25 16.101562 C 2.34375 16.097656 2.417969 16.027344 2.417969 15.84375 C 2.417969 15.679688 2.308594 15.597656 2.160156 15.59375 C 2.027344 15.585938 1.929688 15.671875 1.929688 15.835938 C 1.929688 16.054688 2.191406 16.554688 2.191406 16.746094 C 2.191406 16.894531 2.082031 16.976562 1.972656 16.976562 C 1.835938 16.976562 1.71875 16.808594 1.71875 16.808594 Z M 1.800781 16.6875 "/>
<path style=" stroke:none;fill-rule:nonzero;fill:rgb(99.607843%,77.254902%,4.705882%);fill-opacity:1;" d="M 1.769531 12.742188 C 1.769531 12.375 2.042969 12.1875 2.257812 12.1875 C 2.546875 12.1875 2.699219 12.394531 2.699219 12.667969 C 2.699219 12.820312 2.675781 12.917969 2.617188 13.066406 C 2.617188 13.066406 2.140625 14.253906 1.957031 14.714844 C 1.933594 14.773438 1.925781 14.839844 1.925781 14.933594 C 1.925781 15.082031 2.042969 15.203125 2.167969 15.207031 C 2.285156 15.210938 2.40625 15.078125 2.40625 14.929688 C 2.40625 14.746094 2.328125 14.667969 2.25 14.667969 C 2.148438 14.667969 2.109375 14.714844 2.109375 14.796875 C 2.109375 14.855469 2.132812 14.882812 2.167969 14.882812 C 2.253906 14.882812 2.230469 14.746094 2.230469 14.746094 C 2.269531 14.753906 2.304688 14.808594 2.285156 14.871094 C 2.316406 14.882812 2.347656 14.902344 2.367188 14.929688 C 2.34375 14.957031 2.320312 14.976562 2.285156 14.984375 C 2.304688 15.0625 2.277344 15.101562 2.222656 15.117188 C 2.234375 15.089844 2.234375 15.0625 2.230469 15.035156 C 2.140625 15.066406 2 15.015625 2 14.828125 C 2 14.640625 2.109375 14.484375 2.308594 14.523438 C 2.261719 14.496094 2.238281 14.441406 2.234375 14.375 C 2.269531 14.394531 2.308594 14.394531 2.308594 14.394531 C 2.285156 14.347656 2.253906 14.304688 2.253906 14.203125 C 2.292969 14.226562 2.328125 14.261719 2.375 14.238281 C 2.300781 14.0625 2.394531 13.816406 2.628906 13.757812 C 2.542969 13.878906 2.5 14.011719 2.5 14.140625 C 2.5 14.5625 2.597656 14.636719 2.597656 14.929688 C 2.597656 15.050781 2.546875 15.183594 2.441406 15.273438 L 2.441406 15.269531 C 2.511719 15.292969 2.554688 15.332031 2.578125 15.386719 C 2.421875 15.441406 2.191406 15.441406 2.070312 15.382812 C 1.929688 15.363281 1.828125 15.234375 1.800781 15.167969 C 1.769531 15.101562 1.714844 14.863281 1.800781 14.648438 C 1.894531 14.410156 2.335938 13.285156 2.472656 12.933594 C 2.503906 12.859375 2.519531 12.777344 2.519531 12.691406 C 2.519531 12.476562 2.355469 12.398438 2.261719 12.398438 C 2.148438 12.398438 2.035156 12.503906 2.035156 12.632812 C 2.035156 12.710938 2.070312 12.761719 2.125 12.761719 C 2.25 12.761719 2.242188 12.632812 2.21875 12.550781 C 2.296875 12.59375 2.34375 12.667969 2.332031 12.75 C 2.375 12.757812 2.417969 12.78125 2.457031 12.835938 C 2.425781 12.882812 2.386719 12.917969 2.332031 12.917969 C 2.355469 13.042969 2.285156 13.09375 2.21875 13.125 C 2.238281 13.03125 2.253906 12.929688 2.125 12.929688 C 2.03125 12.929688 1.957031 12.910156 1.914062 12.835938 C 1.910156 12.933594 1.902344 13.320312 1.902344 13.320312 C 1.898438 13.464844 2.066406 13.460938 2.171875 13.417969 C 2.132812 13.585938 2.046875 13.679688 1.855469 13.65625 C 1.902344 13.679688 1.953125 13.730469 1.953125 13.832031 C 1.953125 13.96875 1.859375 14.121094 1.800781 14.164062 Z M 1.769531 12.742188 "/>
<path style=" stroke:none;fill-rule:nonzero;fill:rgb(99.607843%,77.254902%,4.705882%);fill-opacity:1;" d="M 1.769531 11.648438 C 1.769531 12.011719 2.042969 12.199219 2.257812 12.199219 C 2.546875 12.199219 2.699219 11.992188 2.699219 11.71875 C 2.699219 11.566406 2.675781 11.46875 2.617188 11.324219 C 2.617188 11.324219 2.140625 10.132812 1.957031 9.671875 C 1.933594 9.617188 1.925781 9.550781 1.925781 9.453125 C 1.925781 9.308594 2.042969 9.1875 2.167969 9.183594 C 2.285156 9.179688 2.40625 9.308594 2.40625 9.460938 C 2.40625 9.640625 2.328125 9.722656 2.25 9.722656 C 2.148438 9.722656 2.109375 9.671875 2.109375 9.589844 C 2.109375 9.53125 2.132812 9.507812 2.167969 9.507812 C 2.253906 9.507812 2.230469 9.644531 2.230469 9.644531 C 2.269531 9.632812 2.304688 9.582031 2.285156 9.515625 C 2.316406 9.507812 2.347656 9.488281 2.367188 9.457031 C 2.34375 9.429688 2.320312 9.410156 2.285156 9.402344 C 2.304688 9.324219 2.277344 9.285156 2.222656 9.269531 C 2.234375 9.300781 2.234375 9.328125 2.230469 9.355469 C 2.140625 9.324219 2 9.371094 2 9.558594 C 2 9.746094 2.109375 9.902344 2.308594 9.863281 C 2.261719 9.890625 2.238281 9.949219 2.234375 10.011719 C 2.269531 9.996094 2.308594 9.992188 2.308594 9.992188 C 2.285156 10.042969 2.253906 10.085938 2.253906 10.183594 C 2.292969 10.164062 2.328125 10.125 2.375 10.148438 C 2.300781 10.328125 2.394531 10.574219 2.628906 10.628906 C 2.542969 10.507812 2.5 10.378906 2.5 10.246094 C 2.5 9.824219 2.597656 9.753906 2.597656 9.460938 C 2.597656 9.335938 2.546875 9.203125 2.441406 9.113281 L 2.441406 9.117188 C 2.511719 9.097656 2.554688 9.054688 2.578125 9 C 2.421875 8.945312 2.191406 8.949219 2.070312 9.003906 C 1.929688 9.023438 1.828125 9.15625 1.800781 9.222656 C 1.769531 9.289062 1.714844 9.527344 1.800781 9.742188 C 1.894531 9.976562 2.335938 11.101562 2.472656 11.457031 C 2.503906 11.53125 2.519531 11.609375 2.519531 11.695312 C 2.519531 11.914062 2.355469 11.988281 2.261719 11.988281 C 2.148438 11.988281 2.035156 11.886719 2.035156 11.757812 C 2.035156 11.675781 2.070312 11.628906 2.125 11.628906 C 2.25 11.628906 2.242188 11.757812 2.21875 11.839844 C 2.296875 11.796875 2.34375 11.71875 2.332031 11.640625 C 2.375 11.632812 2.417969 11.605469 2.457031 11.554688 C 2.425781 11.507812 2.386719 11.472656 2.332031 11.46875 C 2.355469 11.347656 2.285156 11.292969 2.21875 11.265625 C 2.238281 11.355469 2.253906 11.460938 2.125 11.460938 C 2.03125 11.460938 1.957031 11.480469 1.914062 11.554688 C 1.910156 11.457031 1.902344 11.066406 1.902344 11.066406 C 1.898438 10.921875 2.066406 10.925781 2.171875 10.96875 C 2.132812 10.800781 2.046875 10.710938 1.855469 10.734375 C 1.902344 10.710938 1.953125 10.65625 1.953125 10.558594 C 1.953125 10.421875 1.859375 10.269531 1.800781 10.222656 Z M 1.769531 11.648438 "/>
</g>
</svg>
