<svg width="36" height="36" viewBox="0 0 36 36" fill="none" xmlns="http://www.w3.org/2000/svg">
<g filter="url(#filter0_dd_1141_7127)">
<path fill-rule="evenodd" clip-rule="evenodd" d="M18 25C23.5228 25 28 20.5228 28 15C28 9.47715 23.5228 5 18 5C12.4772 5 8 9.47715 8 15C8 20.5228 12.4772 25 18 25Z" fill="white"/>
</g>
<path d="M17.9964 18.6175C18.489 18.6175 18.9545 18.523 19.3927 18.3341C19.8309 18.1451 20.2158 17.8841 20.5475 17.551C20.8791 17.2179 21.1396 16.8341 21.3291 16.3995C21.5186 15.9649 21.6133 15.4995 21.6133 15.0035C21.6133 14.5074 21.5186 14.0409 21.3291 13.6039C21.1396 13.1669 20.8791 12.7819 20.5475 12.4488C20.2158 12.1157 19.8309 11.8547 19.3927 11.6658C18.9545 11.4768 18.489 11.3823 17.9964 11.3823C17.4989 11.3823 17.0323 11.4768 16.5965 11.6658C16.1606 11.8547 15.7757 12.1157 15.4417 12.4488C15.1078 12.7819 14.846 13.1669 14.6565 13.6039C14.467 14.0409 14.3723 14.5074 14.3723 15.0035C14.3723 15.4995 14.467 15.9649 14.6565 16.3995C14.846 16.8341 15.1078 17.2179 15.4417 17.551C15.7757 17.8841 16.1606 18.1451 16.5965 18.3341C17.0323 18.523 17.4989 18.6175 17.9964 18.6175ZM17.9964 17.5333C17.5321 17.5333 17.1081 17.4188 16.7244 17.1896C16.3407 16.9605 16.0327 16.6546 15.8006 16.2719C15.5685 15.8893 15.4524 15.4664 15.4524 15.0035C15.4524 14.5405 15.5685 14.1177 15.8006 13.735C16.0327 13.3523 16.3407 13.0452 16.7244 12.8138C17.1081 12.5823 17.5321 12.4665 17.9964 12.4665C18.4606 12.4665 18.8846 12.5823 19.2684 12.8138C19.6521 13.0452 19.9588 13.3523 20.1886 13.735C20.4183 14.1177 20.5332 14.5405 20.5332 15.0035C20.5332 15.4664 20.4183 15.8893 20.1886 16.2719C19.9588 16.6546 19.6521 16.9605 19.2684 17.1896C18.8846 17.4188 18.4606 17.5333 17.9964 17.5333ZM18.6217 7.93122C18.6217 7.76115 18.5601 7.61469 18.437 7.49186C18.3138 7.36903 18.1669 7.30762 17.9964 7.30762C17.8305 7.30762 17.6861 7.36903 17.5629 7.49186C17.4397 7.61469 17.3781 7.76115 17.3781 7.93122V9.41937C17.3781 9.58472 17.4397 9.72881 17.5629 9.85164C17.6861 9.97447 17.8305 10.0359 17.9964 10.0359C18.1669 10.0359 18.3138 9.97447 18.437 9.85164C18.5601 9.72881 18.6217 9.58472 18.6217 9.41937V7.93122ZM21.5067 10.6311C21.3883 10.7493 21.3291 10.8945 21.3291 11.067C21.3291 11.2394 21.3883 11.3847 21.5067 11.5028C21.6252 11.6209 21.7709 11.6811 21.9438 11.6835C22.1167 11.6858 22.2648 11.6256 22.3879 11.5028L23.4467 10.4469C23.5651 10.3288 23.6244 10.1823 23.6244 10.0075C23.6244 9.83274 23.5651 9.68629 23.4467 9.56818C23.3283 9.45007 23.1838 9.39102 23.0132 9.39102C22.8427 9.39102 22.6982 9.45007 22.5797 9.56818L21.5067 10.6311ZM25.0669 15.62C25.2374 15.62 25.3843 15.5586 25.5075 15.4357C25.6306 15.3129 25.6922 15.1688 25.6922 15.0035C25.6922 14.8334 25.6306 14.6881 25.5075 14.5677C25.3843 14.4472 25.2374 14.3869 25.0669 14.3869H23.5817C23.4159 14.3869 23.2714 14.4472 23.1483 14.5677C23.0251 14.6881 22.9635 14.8334 22.9635 15.0035C22.9635 15.1688 23.0251 15.3129 23.1483 15.4357C23.2714 15.5586 23.4159 15.62 23.5817 15.62H25.0669ZM22.3808 18.5113C22.2624 18.3931 22.1167 18.3341 21.9438 18.3341C21.7709 18.3341 21.6252 18.3931 21.5067 18.5113C21.3883 18.6294 21.3291 18.7734 21.3291 18.9435C21.3291 19.1136 21.3883 19.26 21.5067 19.3828L22.5797 20.4458C22.6982 20.5639 22.8427 20.6218 23.0132 20.6194C23.1838 20.617 23.3283 20.5568 23.4467 20.4387C23.5651 20.3206 23.6244 20.1754 23.6244 20.0029C23.6244 19.8305 23.5651 19.6852 23.4467 19.5671L22.3808 18.5113ZM18.6217 20.5876C18.6217 20.4175 18.5601 20.271 18.437 20.1482C18.3138 20.0254 18.1669 19.9639 17.9964 19.9639C17.8305 19.9639 17.6861 20.0254 17.5629 20.1482C17.4397 20.271 17.3781 20.4175 17.3781 20.5876V22.0757C17.3781 22.2411 17.4397 22.3852 17.5629 22.508C17.6861 22.6308 17.8305 22.6922 17.9964 22.6922C18.1669 22.6922 18.3138 22.6308 18.437 22.508C18.5601 22.3852 18.6217 22.2411 18.6217 22.0757V20.5876ZM12.546 19.56C12.4276 19.6781 12.3684 19.8234 12.3684 19.9959C12.3684 20.1683 12.4252 20.3135 12.5389 20.4316C12.6574 20.5498 12.8042 20.61 12.9795 20.6124C13.1548 20.6147 13.3016 20.5568 13.4201 20.4387L14.4789 19.3828C14.5973 19.2648 14.6577 19.1195 14.6601 18.947C14.6624 18.7746 14.6044 18.6294 14.486 18.5113C14.3675 18.3931 14.2207 18.3341 14.0454 18.3341C13.8701 18.3341 13.7233 18.3931 13.6048 18.5113L12.546 19.56ZM10.9258 14.3869C10.76 14.3869 10.6155 14.4472 10.4924 14.5677C10.3692 14.6881 10.3076 14.8334 10.3076 15.0035C10.3076 15.1688 10.3692 15.3129 10.4924 15.4357C10.6155 15.5586 10.76 15.62 10.9258 15.62H12.411C12.5816 15.62 12.7284 15.5586 12.8516 15.4357C12.9748 15.3129 13.0363 15.1688 13.0363 15.0035C13.0363 14.8334 12.9748 14.6881 12.8516 14.5677C12.7284 14.4472 12.5816 14.3869 12.411 14.3869H10.9258ZM13.6048 11.5028C13.7233 11.6209 13.8689 11.6799 14.0418 11.6799C14.2148 11.6799 14.3604 11.6209 14.4789 11.5028C14.5973 11.3894 14.6577 11.2441 14.6601 11.067C14.6624 10.8898 14.6044 10.7445 14.486 10.6311L13.4272 9.56818C13.3135 9.4548 13.1702 9.39693 12.9973 9.39457C12.8243 9.3922 12.6763 9.45007 12.5531 9.56818C12.4347 9.68629 12.3755 9.83156 12.3755 10.004C12.3755 10.1764 12.4323 10.3217 12.546 10.4398L13.6048 11.5028Z" fill="#2D9CEE"/>
<defs>
<filter id="filter0_dd_1141_7127" x="0" y="0" width="36" height="36" filterUnits="userSpaceOnUse" color-interpolation-filters="sRGB">
<feFlood flood-opacity="0" result="BackgroundImageFix"/>
<feColorMatrix in="SourceAlpha" type="matrix" values="0 0 0 0 0 0 0 0 0 0 0 0 0 0 0 0 0 0 127 0" result="hardAlpha"/>
<feOffset dy="3"/>
<feGaussianBlur stdDeviation="0.5"/>
<feColorMatrix type="matrix" values="0 0 0 0 0 0 0 0 0 0 0 0 0 0 0 0 0 0 0.06 0"/>
<feBlend mode="normal" in2="BackgroundImageFix" result="effect1_dropShadow_1141_7127"/>
<feColorMatrix in="SourceAlpha" type="matrix" values="0 0 0 0 0 0 0 0 0 0 0 0 0 0 0 0 0 0 127 0" result="hardAlpha"/>
<feOffset dy="3"/>
<feGaussianBlur stdDeviation="4"/>
<feColorMatrix type="matrix" values="0 0 0 0 0 0 0 0 0 0 0 0 0 0 0 0 0 0 0.15 0"/>
<feBlend mode="normal" in2="effect1_dropShadow_1141_7127" result="effect2_dropShadow_1141_7127"/>
<feBlend mode="normal" in="SourceGraphic" in2="effect2_dropShadow_1141_7127" result="shape"/>
</filter>
</defs>
</svg>
