<svg width="36" height="36" viewBox="0 0 36 36" fill="none" xmlns="http://www.w3.org/2000/svg">
<g filter="url(#filter0_dd_1141_7132)">
<path fill-rule="evenodd" clip-rule="evenodd" d="M18 25C23.5228 25 28 20.5228 28 15C28 9.47715 23.5228 5 18 5C12.4772 5 8 9.47715 8 15C8 20.5228 12.4772 25 18 25Z" fill="white"/>
</g>
<path d="M16.9885 23C17.964 23 18.8676 22.8485 19.6992 22.5455C20.5307 22.2425 21.2597 21.806 21.8861 21.2359C22.5124 20.6659 23.0042 19.9777 23.3614 19.1714C23.436 19.0071 23.4653 18.862 23.4493 18.7361C23.4333 18.6103 23.3853 18.5089 23.3054 18.4319C23.236 18.3651 23.1427 18.3253 23.0255 18.3125C22.9082 18.2996 22.7803 18.3214 22.6417 18.3779C22.3378 18.4909 22.0007 18.5795 21.6302 18.6437C21.2597 18.7079 20.8452 18.74 20.3868 18.74C19.1927 18.74 18.1559 18.514 17.2764 18.0621C16.3968 17.6102 15.7158 16.9708 15.2334 16.144C14.751 15.3171 14.5097 14.3388 14.5097 13.209C14.5097 12.7416 14.5511 12.2948 14.6337 11.8686C14.7163 11.4423 14.8189 11.1059 14.9415 10.8594C15.1015 10.5564 15.1015 10.315 14.9415 10.1353C14.8669 10.0531 14.763 10.0018 14.6297 9.98123C14.4964 9.96068 14.3365 9.98636 14.1499 10.0583C13.329 10.3767 12.608 10.8491 11.987 11.4757C11.366 12.1022 10.8796 12.8341 10.5277 13.6712C10.1759 14.5083 10 15.4044 10 16.3596C10 17.2994 10.1692 18.1725 10.5077 18.9788C10.8462 19.7851 11.3273 20.4887 11.951 21.0895C12.5747 21.6904 13.313 22.1591 14.1659 22.4955C15.0188 22.8318 15.9597 23 16.9885 23ZM17.0045 21.8291C16.1516 21.8291 15.372 21.6891 14.6657 21.4092C13.9594 21.1294 13.349 20.7378 12.8346 20.2344C12.3202 19.7312 11.923 19.1419 11.6432 18.4665C11.3633 17.7912 11.2234 17.0581 11.2234 16.2672C11.2234 15.6252 11.322 15.0115 11.5192 14.4261C11.7165 13.8406 11.9963 13.3027 12.3588 12.8122C12.7213 12.3218 13.1504 11.8942 13.6462 11.5296C13.5449 11.7813 13.4676 12.0868 13.4143 12.4463C13.361 12.8058 13.3343 13.1704 13.3343 13.5402C13.3343 14.8036 13.6169 15.9103 14.1819 16.8604C14.747 17.8104 15.5359 18.55 16.5487 19.079C17.5616 19.608 18.7397 19.8724 20.083 19.8724C20.4402 19.8724 20.772 19.8532 21.0785 19.8146C21.385 19.7761 21.6235 19.7286 21.7941 19.6722C21.4636 20.119 21.0518 20.5028 20.5587 20.8238C20.0656 21.1448 19.5166 21.3926 18.9116 21.5672C18.3065 21.7418 17.6708 21.8291 17.0045 21.8291ZM22.9215 15.9591C23.0814 15.9591 23.1721 15.8769 23.1934 15.7126C23.2574 15.1939 23.3267 14.7894 23.4013 14.4993C23.4759 14.2091 23.5919 13.9896 23.7491 13.8406C23.9064 13.6917 24.1396 13.5787 24.4488 13.5017C24.758 13.4247 25.1844 13.345 25.7282 13.2629C25.9094 13.2321 26 13.1448 26 13.001C26 12.8572 25.92 12.7699 25.7601 12.739C25.2164 12.6415 24.786 12.5529 24.4688 12.4733C24.1516 12.3937 23.913 12.282 23.7532 12.1382C23.5932 11.9944 23.4759 11.78 23.4013 11.4949C23.3267 11.2099 23.2574 10.8081 23.1934 10.2894C23.1721 10.125 23.0814 10.0428 22.9215 10.0428C22.7616 10.0428 22.671 10.1225 22.6497 10.2817C22.5804 10.8055 22.5098 11.2151 22.4378 11.5103C22.3658 11.8057 22.2512 12.0291 22.094 12.1805C21.9367 12.3321 21.7008 12.445 21.3863 12.5195C21.0718 12.594 20.6374 12.6671 20.083 12.739C20.0137 12.7493 19.9564 12.7776 19.9111 12.8238C19.8658 12.87 19.8431 12.9291 19.8431 13.001C19.8431 13.1448 19.9231 13.2321 20.083 13.2629C20.6374 13.3605 21.0718 13.4503 21.3863 13.5325C21.7008 13.6147 21.9367 13.7289 22.094 13.8753C22.2512 14.0217 22.3658 14.2386 22.4378 14.5262C22.5098 14.8138 22.5804 15.2144 22.6497 15.728C22.6604 15.7947 22.6897 15.8499 22.7376 15.8936C22.7856 15.9372 22.8469 15.9591 22.9215 15.9591ZM19.0995 10.7439C19.1901 10.7439 19.2434 10.6976 19.2594 10.6052C19.3234 10.2868 19.3807 10.0364 19.4313 9.85411C19.4819 9.6718 19.5539 9.53314 19.6472 9.43813C19.7404 9.34313 19.8844 9.26866 20.079 9.21474C20.2735 9.16081 20.5441 9.10047 20.8906 9.0337C20.9918 9.0183 21.0425 8.96437 21.0425 8.87193C21.0425 8.78463 20.9918 8.73327 20.8906 8.71786C20.5441 8.64597 20.2762 8.58306 20.0869 8.52913C19.8977 8.47521 19.7565 8.40074 19.6632 8.30573C19.5699 8.21072 19.498 8.07334 19.4473 7.89359C19.3966 7.71385 19.334 7.46477 19.2594 7.14637C19.2434 7.04879 19.1901 7 19.0995 7C19.0089 7 18.9529 7.04879 18.9315 7.14637C18.8622 7.46477 18.8023 7.71385 18.7517 7.89359C18.701 8.07334 18.629 8.21072 18.5357 8.30573C18.4424 8.40074 18.3012 8.47521 18.112 8.52913C17.9227 8.58306 17.6548 8.64597 17.3084 8.71786C17.2071 8.73327 17.1564 8.78463 17.1564 8.87193C17.1564 8.96437 17.2071 9.0183 17.3084 9.0337C17.6548 9.1056 17.924 9.16851 18.1159 9.22243C18.3079 9.27636 18.4518 9.34954 18.5478 9.44198C18.6437 9.53442 18.7156 9.6718 18.7636 9.85411C18.8116 10.0364 18.8676 10.2868 18.9315 10.6052C18.9529 10.6976 19.0089 10.7439 19.0995 10.7439Z" fill="#666666"/>
<defs>
<filter id="filter0_dd_1141_7132" x="0" y="0" width="36" height="36" filterUnits="userSpaceOnUse" color-interpolation-filters="sRGB">
<feFlood flood-opacity="0" result="BackgroundImageFix"/>
<feColorMatrix in="SourceAlpha" type="matrix" values="0 0 0 0 0 0 0 0 0 0 0 0 0 0 0 0 0 0 127 0" result="hardAlpha"/>
<feOffset dy="3"/>
<feGaussianBlur stdDeviation="0.5"/>
<feColorMatrix type="matrix" values="0 0 0 0 0 0 0 0 0 0 0 0 0 0 0 0 0 0 0.06 0"/>
<feBlend mode="normal" in2="BackgroundImageFix" result="effect1_dropShadow_1141_7132"/>
<feColorMatrix in="SourceAlpha" type="matrix" values="0 0 0 0 0 0 0 0 0 0 0 0 0 0 0 0 0 0 127 0" result="hardAlpha"/>
<feOffset dy="3"/>
<feGaussianBlur stdDeviation="4"/>
<feColorMatrix type="matrix" values="0 0 0 0 0 0 0 0 0 0 0 0 0 0 0 0 0 0 0.15 0"/>
<feBlend mode="normal" in2="effect1_dropShadow_1141_7132" result="effect2_dropShadow_1141_7132"/>
<feBlend mode="normal" in="SourceGraphic" in2="effect2_dropShadow_1141_7132" result="shape"/>
</filter>
</defs>
</svg>
