<svg width="24" height="24" viewBox="0 0 24 24" fill="none" xmlns="http://www.w3.org/2000/svg">
<path fill-rule="evenodd" clip-rule="evenodd" d="M11.6799 4.06225C11.2239 4.20854 10.8571 4.5926 10.7392 5.04726C10.6978 5.2068 10.6909 5.53955 10.6909 7.36591C10.6909 8.53871 10.6792 9.50554 10.6649 9.51438C10.6506 9.52326 9.84843 9.07229 8.88225 8.51224C7.91607 7.95223 7.05551 7.46126 6.96988 7.42119C6.46404 7.18458 5.85604 7.29824 5.42609 7.70984C4.85492 8.25666 4.8618 9.1742 5.44106 9.71112C5.58769 9.847 6.03891 10.1232 7.42138 10.9232C8.40683 11.4935 9.21181 11.9785 9.21181 12.0019C9.21181 12.0254 8.40674 12.5105 7.42138 13.0808C5.44306 14.2259 5.32075 14.3116 5.14893 14.673C5.09802 14.78 5.03938 14.967 5.01861 15.0886C4.90829 15.7342 5.29755 16.3824 5.94232 16.6266C6.1748 16.7146 6.54805 16.7246 6.79862 16.6495C6.90034 16.619 7.71476 16.1668 8.80418 15.5359C9.81305 14.9516 10.6503 14.4809 10.6647 14.4898C10.6791 14.4987 10.6909 15.4656 10.6909 16.6384C10.6909 18.9602 10.6922 18.9801 10.8685 19.282C11.4273 20.2393 12.7568 20.2393 13.3157 19.282C13.4921 18.9798 13.4933 18.9618 13.4933 16.621C13.4933 15.4385 13.5052 14.4711 13.5198 14.4711C13.5344 14.4711 14.3506 14.9374 15.3336 15.5073C16.3166 16.0773 17.1777 16.569 17.2471 16.6C17.4741 16.7012 17.7798 16.7308 18.039 16.6766C18.339 16.6138 18.5447 16.5041 18.7616 16.2913C19.1963 15.8647 19.3034 15.2246 19.0325 14.6722C18.8501 14.3002 18.7666 14.2416 16.786 13.0935C15.7885 12.5153 14.9723 12.0242 14.9723 12.0022C14.9723 11.9801 15.7885 11.489 16.786 10.9108C18.7666 9.76278 18.8501 9.70412 19.0325 9.33209C19.2982 8.79048 19.2047 8.17972 18.7889 7.74065C18.4774 7.41169 18.0174 7.24774 17.592 7.31396C17.4718 7.33268 17.3166 7.37338 17.2471 7.40438C17.1777 7.43538 16.3166 7.92704 15.3336 8.49699C14.3506 9.06691 13.5344 9.53323 13.5198 9.53323C13.5052 9.53323 13.4933 8.56581 13.4933 7.38338C13.4933 5.54123 13.4864 5.20686 13.445 5.04726C13.2481 4.28845 12.4182 3.82535 11.6799 4.06225Z" fill="#1A051D"/>
</svg>
