<svg width="24" height="24" viewBox="0 0 24 24" fill="none" xmlns="http://www.w3.org/2000/svg">
<path d="M13.8809 6.67139L5.07744 15.4755C5.03315 15.5199 5.00117 15.576 4.98594 15.6362L4.01016 19.5528C3.98098 19.6707 4.01562 19.7961 4.10166 19.8821C4.16677 19.9472 4.25547 19.9833 4.34621 19.9833C4.374 19.9833 4.40243 19.9798 4.43009 19.9729L8.34666 18.997C8.4077 18.9817 8.46316 18.9499 8.50745 18.9056L17.3117 10.1022L13.8809 6.67139Z" fill="#1A051D"/>
<path d="M19.4929 5.47095L18.5129 4.49098C17.8579 3.83602 16.7164 3.83666 16.0622 4.49098L14.8618 5.69138L18.2925 9.12202L19.4929 7.92162C19.82 7.59459 20.0002 7.1593 20.0002 6.69635C20.0002 6.2334 19.82 5.79811 19.4929 5.47095Z" fill="#1A051D"/>
</svg>
