<svg width="30" height="30" viewBox="0 0 24 24" fill="none" xmlns="http://www.w3.org/2000/svg">
<path fill-rule="evenodd" clip-rule="evenodd" d="M11.4342 7.03084C9.13609 7.17826 6.84772 8.35444 5.04078 10.3169C4.63603 10.7565 4.12934 11.3774 4.05144 11.5292C4.02222 11.5861 4 11.7032 4 11.8001C4 12.007 4.06962 12.1198 4.56772 12.7193C5.38816 13.7068 6.33106 14.5455 7.33572 15.1815C7.72097 15.4253 8.54006 15.8377 8.95312 15.9958C10.9299 16.7526 13.08 16.7523 15.0469 15.9952C16.7122 15.3542 18.3029 14.1387 19.6084 12.5097C19.9605 12.0703 20 11.9966 20 11.7783C20 11.5714 19.9304 11.4586 19.4323 10.8591C18.3637 9.57292 17.1538 8.59201 15.8281 7.93716C14.9521 7.50441 14.2638 7.27774 13.3594 7.12416C13.0238 7.06718 12.1083 6.98965 11.9062 7.00114C11.8633 7.00359 11.6508 7.01693 11.4342 7.03084ZM12.6172 8.48479C14.0091 8.74945 15.0647 9.82975 15.3129 11.2433C15.3756 11.6006 15.3381 12.3341 15.2394 12.6787C15.1457 13.0062 14.9631 13.4003 14.7795 13.6713C14.6072 13.9256 14.2581 14.2915 14.0022 14.4859C13.729 14.6936 13.2373 14.9368 12.8906 15.0358C12.543 15.135 11.8543 15.1713 11.4747 15.1103C10.0465 14.881 8.94078 13.7802 8.68709 12.3351C8.62441 11.9778 8.66194 11.2443 8.76059 10.8997C9.11306 9.66827 10.0859 8.75994 11.3453 8.48623C11.6201 8.42649 12.3065 8.42571 12.6172 8.48479ZM11.6406 10.0057C11.2599 10.0997 11.0091 10.2414 10.7325 10.5186C10.4898 10.7619 10.3872 10.9259 10.2765 11.2473C10.1718 11.5514 10.1724 12.0242 10.2781 12.3476C10.456 12.8919 10.8817 13.3205 11.4375 13.515C11.5988 13.5714 11.7113 13.5865 11.9844 13.5881C12.3565 13.5903 12.5925 13.532 12.9 13.3621C13.0893 13.2574 13.4649 12.8808 13.5694 12.6909C13.9423 12.013 13.875 11.2116 13.3957 10.6248C13.2215 10.4116 12.8622 10.1631 12.5893 10.0672C12.363 9.98763 11.8487 9.9543 11.6406 10.0057Z" fill="#1A051D"/>
<path d="M5 5L18 18" stroke="#1A051D" stroke-width="2" stroke-linecap="round"/>
</svg>
