<svg width="23" height="25" viewBox="0 0 23 25" fill="none" xmlns="http://www.w3.org/2000/svg">
<path d="M20.0041 17.8705C19.0175 19.5678 17.2375 20.7783 14.8846 21.1094C12.5317 21.4404 10.0636 20.8254 7.96552 19.563C5.86741 18.2989 4.14901 16.3955 3.30035 14.1367C2.45007 11.8796 2.63505 9.70848 3.62002 8.00954C4.60498 6.31385 6.38505 5.10334 8.73792 4.77232C11.0908 4.44129 13.5572 5.05629 15.657 6.31872C17.7551 7.58278 19.4735 9.4878 20.3238 11.7449C21.1724 14.0037 20.9874 16.1732 20.0041 17.8705Z" fill="url(#paint0_linear_7_1511)"/>
<mask id="mask0_7_1511" style="mask-type:luminance" maskUnits="userSpaceOnUse" x="3" y="4" width="18" height="15">
<path d="M3.49829 8.18966L3.76116 7.78075C4.77046 6.20514 6.49374 5.08874 8.73789 4.77232C11.0908 4.44129 13.5588 5.05629 15.657 6.31872C17.7551 7.58278 19.4735 9.4878 20.3238 11.7449C21.1724 14.0037 20.9874 16.1732 20.0041 17.8705L19.7412 18.2794C20.7262 16.5821 20.9095 14.411 20.0609 12.1538C19.2106 9.89671 17.4922 7.99169 15.3941 6.72763C13.2943 5.4652 10.8263 4.85021 8.47502 5.18123C6.23086 5.49603 4.50597 6.61405 3.49829 8.18966Z" fill="white"/>
</mask>
<g mask="url(#mask0_7_1511)">
<path d="M20.0041 17.8705L19.7412 18.2794C20.7262 16.5821 20.9095 14.411 20.0609 12.1538C19.2106 9.89671 17.4922 7.99169 15.3941 6.72763C13.2943 5.4652 10.8263 4.85021 8.47502 5.18123C6.23086 5.49603 4.50597 6.61405 3.49829 8.18966L3.76116 7.78075C4.77046 6.20514 6.49374 5.08874 8.73789 4.77232C11.0908 4.44129 13.5588 5.05629 15.657 6.31872C17.7551 7.58278 19.4735 9.4878 20.3238 11.7449C21.1724 14.0037 20.9874 16.1732 20.0041 17.8705Z" fill="url(#paint1_linear_7_1511)"/>
</g>
<mask id="mask1_7_1511" style="mask-type:luminance" maskUnits="userSpaceOnUse" x="19" y="17" width="2" height="2">
<path d="M19.8644 18.0994L19.6016 18.5083C19.6502 18.4336 19.6957 18.3574 19.7411 18.2811L20.004 17.8722C19.9586 17.9485 19.9131 18.0247 19.8644 18.0994Z" fill="white"/>
</mask>
<g mask="url(#mask1_7_1511)">
<path d="M19.8644 18.0994L19.6016 18.5083C19.6502 18.4336 19.6957 18.3574 19.7411 18.2811L20.004 17.8722C19.9586 17.9485 19.9131 18.0247 19.8644 18.0994Z" fill="url(#paint2_linear_7_1511)"/>
</g>
<path d="M21.2292 18.9788L20.004 20.879C18.826 22.7175 16.8041 24.0286 14.1819 24.3969C11.4331 24.7831 8.53664 24.0627 6.08965 22.5876C3.63942 21.1143 1.62244 18.8766 0.630985 16.2414C-0.360466 13.6045 -0.144652 11.0553 1.00582 9.07405C1.05937 8.98318 2.07516 7.4027 2.13195 7.31346L2.39483 6.90454C2.33804 6.99379 2.28287 7.08304 2.23094 7.1739C1.08047 9.15518 0.864652 11.7044 1.8561 14.3412C2.84755 16.9765 4.86453 19.2141 7.31476 20.6875C9.76175 22.1609 12.6582 22.883 15.407 22.4968C18.0293 22.1301 20.0511 20.8189 21.2292 18.9788Z" fill="url(#paint3_linear_7_1511)"/>
<path d="M21.768 11.5422C20.7749 8.90532 18.7595 6.66928 16.3093 5.19427C13.8591 3.71927 10.9642 3.00042 8.21543 3.38662C5.46987 3.77281 3.37825 5.19265 2.2294 7.17393C1.07893 9.15359 0.86149 11.7044 1.85456 14.3413C2.84602 16.9765 4.863 19.2141 7.31323 20.6875C9.76021 22.1609 12.6567 22.8814 15.4055 22.4952C18.1543 22.1106 20.2443 20.6891 21.3931 18.7079C22.5452 16.7282 22.7594 14.1774 21.768 11.5422ZM20.0041 17.8706C19.0175 19.5679 17.2375 20.7784 14.8846 21.1094C12.5317 21.4404 10.0637 20.8255 7.96554 19.563C5.86743 18.299 4.14902 16.3956 3.30036 14.1368C2.45008 11.8797 2.63507 9.70854 3.62003 8.0096C4.60499 6.31391 6.38506 5.1034 8.73793 4.77238C11.0908 4.44135 13.5573 5.05635 15.657 6.31878C17.7551 7.58284 19.4735 9.48786 20.3238 11.745C21.1725 14.0037 20.9875 16.1733 20.0041 17.8706Z" fill="url(#paint4_linear_7_1511)"/>
<path d="M20.0041 17.8705C19.0175 19.5678 17.2375 20.7783 14.8846 21.1094C12.5317 21.4404 10.0636 20.8254 7.96552 19.563C5.86741 18.2989 4.14901 16.3955 3.30035 14.1367C2.45007 11.8796 2.63505 9.70848 3.62002 8.00954C4.60498 6.31385 6.38505 5.10334 8.73792 4.77232C11.0908 4.44129 13.5572 5.05629 15.657 6.31872C17.7551 7.58278 19.4735 9.4878 20.3238 11.7449C21.1724 14.0037 20.9874 16.1732 20.0041 17.8705Z" stroke="url(#paint5_linear_7_1511)" stroke-width="0.162267" stroke-miterlimit="10"/>
<path d="M9.65954 8.69593L9.39829 9.10647L8.89526 7.76939L9.15814 7.36047L9.65954 8.69593Z" fill="url(#paint6_linear_7_1511)"/>
<mask id="mask2_7_1511" style="mask-type:luminance" maskUnits="userSpaceOnUse" x="11" y="10" width="3" height="1">
<path d="M13.6563 10.4403L13.3934 10.8492C12.6373 10.5929 11.9184 10.4728 11.2385 10.4923L11.5014 10.0833C12.1813 10.0639 12.9001 10.1839 13.6563 10.4403Z" fill="white"/>
</mask>
<g mask="url(#mask2_7_1511)">
<mask id="mask3_7_1511" style="mask-type:luminance" maskUnits="userSpaceOnUse" x="11" y="10" width="3" height="1">
<path d="M13.6547 10.0818H11.2385V10.8493H13.6547V10.0818Z" fill="white"/>
</mask>
<g mask="url(#mask3_7_1511)">
<path d="M13.6563 10.4403L13.3934 10.8492C12.6373 10.5929 11.9184 10.4728 11.2385 10.4923L11.5014 10.0833C12.1813 10.0639 12.9001 10.1839 13.6563 10.4403Z" fill="url(#paint7_linear_7_1511)"/>
</g>
</g>
<mask id="mask4_7_1511" style="mask-type:luminance" maskUnits="userSpaceOnUse" x="9" y="10" width="2" height="2">
<path d="M9.45508 11.0992L9.71795 10.6903C9.81856 10.5345 10.0003 10.4031 10.2632 10.296L10.0003 10.7049C9.73743 10.812 9.55568 10.9434 9.45508 11.0992Z" fill="white"/>
</mask>
<g mask="url(#mask4_7_1511)">
<path d="M10.2617 10.296L9.99883 10.7049C9.73596 10.812 9.55422 10.9434 9.45361 11.0992L9.71649 10.6903C9.81709 10.5345 9.99883 10.4031 10.2617 10.296Z" fill="url(#paint8_linear_7_1511)"/>
</g>
<path d="M10.9057 12.0046L10.6428 12.4135L10.0002 10.7048L10.2615 10.2959L10.9057 12.0046Z" fill="url(#paint9_linear_7_1511)"/>
<path d="M14.1204 15.1494L13.8575 15.5583C13.9548 15.3944 13.9646 15.2094 13.8899 15.0098C13.8137 14.8086 13.6741 14.6561 13.4713 14.549C13.2685 14.4435 13.0023 14.3624 12.6746 14.3072L12.9374 13.8983C13.2668 13.9551 13.533 14.0346 13.7342 14.1401C13.937 14.2472 14.0765 14.4013 14.1528 14.6009C14.2275 14.8005 14.2177 14.9839 14.1204 15.1494Z" fill="url(#paint10_linear_7_1511)"/>
<mask id="mask5_7_1511" style="mask-type:luminance" maskUnits="userSpaceOnUse" x="12" y="13" width="3" height="3">
<path d="M14.1201 15.1493L13.8572 15.5582C13.9546 15.3944 13.9643 15.2094 13.8897 15.0098C13.8134 14.8086 13.6739 14.656 13.471 14.5489C13.2682 14.4435 13.0021 14.3623 12.6743 14.3072L12.9372 13.8983C13.2666 13.955 13.5327 14.0346 13.7339 14.14C13.9368 14.2471 14.0763 14.4013 14.1526 14.6009C14.2272 14.8005 14.2175 14.9838 14.1201 15.1493Z" fill="white"/>
</mask>
<g mask="url(#mask5_7_1511)">
<mask id="mask6_7_1511" style="mask-type:luminance" maskUnits="userSpaceOnUse" x="12" y="13" width="3" height="3">
<path d="M14.201 13.8966H12.6741V15.5582H14.201V13.8966Z" fill="white"/>
</mask>
<g mask="url(#mask6_7_1511)">
<path d="M14.1199 15.1493L13.857 15.5582C13.9544 15.3944 13.9641 15.2094 13.8895 15.0098C13.8132 14.8086 13.6736 14.656 13.4708 14.5489C13.268 14.4435 13.0019 14.3623 12.6741 14.3072L12.9369 13.8983C13.2663 13.955 13.5325 14.0346 13.7337 14.14C13.9365 14.2471 14.0761 14.4013 14.1523 14.6009C14.227 14.8005 14.2172 14.9838 14.1199 15.1493Z" fill="url(#paint11_linear_7_1511)"/>
</g>
</g>
<mask id="mask7_7_1511" style="mask-type:luminance" maskUnits="userSpaceOnUse" x="13" y="15" width="2" height="1">
<path d="M14.1056 15.1736L13.8428 15.5825L13.8574 15.5582L14.1202 15.1493L14.1056 15.1736Z" fill="white"/>
</mask>
<g mask="url(#mask7_7_1511)">
<path d="M14.1056 15.1736L13.8428 15.5825L13.8574 15.5582L14.1202 15.1493L14.1056 15.1736Z" fill="url(#paint12_linear_7_1511)"/>
</g>
<mask id="mask8_7_1511" style="mask-type:luminance" maskUnits="userSpaceOnUse" x="7" y="9" width="5" height="6">
<path d="M7.57118 10.2326L7.83405 9.82373C7.82269 9.84158 7.81133 9.85943 7.8016 9.87728C7.47544 10.4257 7.43812 11.0326 7.68801 11.6979C7.89084 12.235 8.18941 12.6472 8.58859 12.9328C8.98615 13.2184 9.42264 13.4179 9.89484 13.5283C10.367 13.6386 10.9252 13.7214 11.5711 13.7733L11.3082 14.1822C10.6624 14.1303 10.1058 14.0475 9.63197 13.9372C9.15977 13.8269 8.72327 13.6273 8.32572 13.3417C7.92817 13.0545 7.62797 12.6439 7.42514 12.1068C7.17525 11.4415 7.21257 10.8346 7.53872 10.2862C7.55008 10.2683 7.55982 10.2505 7.57118 10.2326Z" fill="white"/>
</mask>
<g mask="url(#mask8_7_1511)">
<mask id="mask9_7_1511" style="mask-type:luminance" maskUnits="userSpaceOnUse" x="7" y="9" width="5" height="6">
<path d="M11.5709 9.82214H7.2627V14.1806H11.5709V9.82214Z" fill="white"/>
</mask>
<g mask="url(#mask9_7_1511)">
<path d="M11.5694 13.7717L11.3065 14.1806C10.6607 14.1287 10.1041 14.046 9.63026 13.9356C9.15807 13.8253 8.72156 13.6257 8.32401 13.3401C7.92646 13.0529 7.62626 12.6423 7.42343 12.1052C7.17354 11.4399 7.21086 10.8331 7.53701 10.2846C7.54837 10.2668 7.55811 10.2489 7.56947 10.2311L7.83234 9.82214C7.82098 9.83999 7.80963 9.85784 7.79989 9.87569C7.47373 10.4242 7.43641 11.031 7.6863 11.6963C7.88914 12.2334 8.18771 12.6456 8.58688 12.9312C8.98444 13.2168 9.42094 13.4164 9.89313 13.5267C10.3653 13.637 10.9235 13.7198 11.5694 13.7717Z" fill="url(#paint13_linear_7_1511)"/>
</g>
</g>
<path d="M12.3255 15.7822L12.0643 16.1911L11.3081 14.1822L11.5694 13.7717L12.3255 15.7822Z" fill="url(#paint14_linear_7_1511)"/>
<mask id="mask10_7_1511" style="mask-type:luminance" maskUnits="userSpaceOnUse" x="13" y="16" width="3" height="2">
<path d="M15.9733 16.011L15.7104 16.4199C15.3794 16.9375 14.7741 17.3156 13.8962 17.5541L14.1591 17.1452C15.0386 16.9067 15.6422 16.5286 15.9733 16.011Z" fill="white"/>
</mask>
<g mask="url(#mask10_7_1511)">
<path d="M15.9733 16.011L15.7104 16.4199C15.3794 16.9375 14.7741 17.3156 13.8962 17.5541L14.1591 17.1452C15.0386 16.9067 15.6422 16.5286 15.9733 16.011Z" fill="url(#paint15_linear_7_1511)"/>
</g>
<path d="M13.4129 18.6689L13.15 19.0778L12.6567 17.7667L12.9196 17.3578L13.4129 18.6689Z" fill="url(#paint16_linear_7_1511)"/>
<path d="M14.6655 18.4921L14.4026 18.9026L13.1499 19.0779L13.4128 18.6689L14.6655 18.4921Z" fill="url(#paint17_linear_7_1511)"/>
<mask id="mask11_7_1511" style="mask-type:luminance" maskUnits="userSpaceOnUse" x="9" y="16" width="4" height="2">
<path d="M12.9194 17.3578L12.6565 17.7667C12.0253 17.8219 11.3973 17.8008 10.7709 17.7018C10.1462 17.6044 9.61235 17.4503 9.17261 17.2426L9.43548 16.8337C9.87522 17.043 10.4075 17.1955 11.0338 17.2929C11.6602 17.3919 12.2881 17.4114 12.9194 17.3578Z" fill="white"/>
</mask>
<g mask="url(#mask11_7_1511)">
<mask id="mask12_7_1511" style="mask-type:luminance" maskUnits="userSpaceOnUse" x="9" y="16" width="4" height="2">
<path d="M12.9177 16.8337H9.17261V17.7976H12.9177V16.8337Z" fill="white"/>
</mask>
<g mask="url(#mask12_7_1511)">
<path d="M12.9194 17.3579L12.6565 17.7668C12.0253 17.8219 11.3973 17.8009 10.7709 17.7019C10.1462 17.6045 9.61235 17.4504 9.17261 17.2427L9.43548 16.8337C9.87522 17.0431 10.4075 17.1956 11.0338 17.293C11.6602 17.3919 12.2881 17.4114 12.9194 17.3579Z" fill="url(#paint18_linear_7_1511)"/>
</g>
</g>
<path d="M15.2204 12.949C15.618 13.2346 15.9166 13.6435 16.1161 14.1725C16.3628 14.8297 16.3255 15.4285 16.0009 15.9688C15.6764 16.5092 15.063 16.9002 14.1592 17.1453L14.6655 18.4921L13.4128 18.6689L12.9195 17.3578C12.2883 17.413 11.6603 17.3919 11.0339 17.2929C10.4092 17.1956 9.87535 17.0414 9.43561 16.8337L9.57191 15.2694C9.97433 15.4496 10.4173 15.5859 10.9009 15.6784C11.3844 15.7708 11.8599 15.8065 12.3256 15.7822L11.5694 13.7733C10.9236 13.7214 10.367 13.6387 9.8932 13.5283C9.421 13.418 8.9845 13.2184 8.58695 12.9328C8.18939 12.6456 7.8892 12.2351 7.68637 11.6979C7.43648 11.0327 7.4738 10.4258 7.79996 9.87731C8.12611 9.32885 8.74597 8.93616 9.65953 8.69763L9.15651 7.36217L10.4092 7.1853L10.9025 8.49642C11.9605 8.43313 12.9016 8.55808 13.7243 8.87288L13.6545 10.4404C12.8984 10.184 12.1795 10.0639 11.4996 10.0834L12.2688 12.1296C12.9016 12.1766 13.4533 12.2513 13.919 12.36C14.3864 12.4671 14.8196 12.6651 15.2172 12.9506L15.2204 12.949ZM10.9057 12.0046L10.2632 10.296C9.97271 10.4128 9.78286 10.5605 9.69037 10.7373C9.5995 10.9158 9.59138 11.1089 9.67089 11.3166C9.74716 11.5178 9.88833 11.6704 10.096 11.7758C10.3037 11.8813 10.5731 11.9592 10.9074 12.0046M14.1219 15.1494C14.2192 14.9855 14.229 14.8005 14.1543 14.6009C14.0781 14.3997 13.9385 14.2472 13.7357 14.1401C13.5328 14.0346 13.2667 13.9535 12.9389 13.8983L13.5637 15.5583C13.8412 15.4528 14.0278 15.3165 14.1235 15.1494" fill="url(#paint19_linear_7_1511)"/>
<path d="M9.43572 16.8337L9.17285 17.2426L9.31078 15.6783L9.57203 15.2694L9.43572 16.8337Z" fill="url(#paint20_linear_7_1511)"/>
<path d="M10.9057 12.0046L10.2632 10.296C9.97271 10.4128 9.78286 10.5605 9.69037 10.7373C9.5995 10.9158 9.59138 11.1089 9.67089 11.3166C9.74716 11.5178 9.88833 11.6704 10.096 11.7758C10.3037 11.8813 10.5731 11.9592 10.9074 12.0046M14.1219 15.1494C14.2192 14.9855 14.229 14.8005 14.1543 14.6009C14.0781 14.3997 13.9385 14.2472 13.7357 14.1401C13.5328 14.0346 13.2667 13.9535 12.9389 13.8983L13.5637 15.5583C13.8412 15.4528 14.0278 15.3165 14.1235 15.1494M15.2204 12.949C15.618 13.2346 15.9166 13.6435 16.1161 14.1725C16.3628 14.8297 16.3255 15.4285 16.0009 15.9688C15.6764 16.5092 15.063 16.9002 14.1592 17.1453L14.6655 18.4921L13.4128 18.6689L12.9195 17.3578C12.2883 17.413 11.6603 17.3919 11.0339 17.2929C10.4092 17.1956 9.87535 17.0414 9.43561 16.8337L9.57191 15.2694C9.97433 15.4496 10.4173 15.5859 10.9009 15.6784C11.3844 15.7708 11.8599 15.8065 12.3256 15.7822L11.5694 13.7733C10.9236 13.7214 10.367 13.6387 9.8932 13.5283C9.421 13.418 8.9845 13.2184 8.58695 12.9328C8.18939 12.6456 7.8892 12.2351 7.68637 11.6979C7.43648 11.0327 7.4738 10.4258 7.79996 9.87731C8.12611 9.32885 8.74597 8.93616 9.65954 8.69763L9.15651 7.36217L10.4092 7.1853L10.9025 8.49642C11.9605 8.43313 12.9016 8.55808 13.7243 8.87288L13.6545 10.4404C12.8984 10.184 12.1795 10.0639 11.4996 10.0834L12.2688 12.1296C12.9016 12.1766 13.4533 12.2513 13.919 12.36C14.3864 12.4671 14.8196 12.6651 15.2172 12.9506L15.2204 12.949Z" stroke="url(#paint21_linear_7_1511)" stroke-width="0.0811335" stroke-miterlimit="10"/>
<path style="mix-blend-mode:overlay" d="M13.9461 4.21157C13.999 3.03428 13.1266 2.03882 11.9977 1.98815C10.8688 1.93748 9.91073 2.85078 9.85789 4.02807C9.80504 5.20535 10.6774 6.20081 11.8063 6.25148C12.9353 6.30215 13.8933 5.38885 13.9461 4.21157Z" fill="url(#paint22_radial_7_1511)"/>
<path style="mix-blend-mode:overlay" d="M11.7537 8.23351C11.3172 8.21891 11.03 6.36258 11.1111 4.08922C11.1923 1.81586 11.6125 -0.0145172 12.049 8.67864e-05C12.4855 0.0146908 12.7727 1.87103 12.6916 4.14439C12.6105 6.41775 12.1902 8.24812 11.7537 8.23351Z" fill="url(#paint23_radial_7_1511)"/>
<path style="mix-blend-mode:overlay" d="M16.0036 4.26122C15.9873 4.69934 14.1375 4.9898 11.8722 4.91029C9.60699 4.83078 7.78149 4.41212 7.79771 3.974C7.81394 3.53588 9.66379 3.24542 11.929 3.32493C14.1943 3.40445 16.0198 3.8231 16.0036 4.26122Z" fill="url(#paint24_radial_7_1511)"/>
<path style="mix-blend-mode:hard-light" d="M15.8071 4.25314C15.799 4.48356 14.0432 4.60851 11.8851 4.53224C9.72693 4.45597 7.98581 4.20933 7.99392 3.97891C8.00204 3.74849 9.75776 3.62354 11.9159 3.69981C14.0741 3.77608 15.8152 4.02272 15.8071 4.25314Z" fill="url(#paint25_radial_7_1511)"/>
<path style="mix-blend-mode:hard-light" d="M13.8372 4.18493C13.8032 5.15042 12.9074 5.90334 11.8397 5.86602C10.7704 5.82869 9.93146 5.01574 9.96716 4.04863C10.0012 3.08314 10.897 2.33022 11.9647 2.36754C13.034 2.40486 13.8729 3.21782 13.8372 4.18493Z" fill="url(#paint26_radial_7_1511)"/>
<path style="mix-blend-mode:hard-light" d="M11.7602 8.03558C11.5314 8.02747 11.4081 6.26687 11.486 4.10223C11.5639 1.93759 11.8122 0.189974 12.041 0.198087C12.2698 0.206201 12.3931 1.9668 12.3152 4.13144C12.2373 6.29608 11.989 8.04369 11.7602 8.03558Z" fill="url(#paint27_radial_7_1511)"/>
<path style="mix-blend-mode:overlay" d="M3.43484 13.5023C3.41375 14.106 2.92695 14.5782 2.34766 14.5587C1.76836 14.5392 1.31726 14.0329 1.33836 13.4293C1.35945 12.8257 1.84625 12.3535 2.42554 12.373C3.00484 12.3924 3.45594 12.8987 3.43484 13.5023Z" fill="url(#paint28_radial_7_1511)"/>
<path style="mix-blend-mode:overlay" d="M2.31194 15.5745C2.08801 15.5664 1.94035 14.6155 1.98254 13.4504C2.02473 12.2853 2.23892 11.3474 2.46285 11.3539C2.68677 11.362 2.83444 12.3129 2.79225 13.478C2.75006 14.6431 2.53587 15.581 2.31194 15.5745Z" fill="url(#paint29_radial_7_1511)"/>
<path style="mix-blend-mode:overlay" d="M4.49117 13.538C4.48305 13.7619 3.53542 13.9112 2.37358 13.8706C1.21175 13.8301 0.277095 13.6159 0.285209 13.3903C0.293322 13.1664 1.24096 13.0171 2.40279 13.0577C3.56462 13.0982 4.49928 13.3124 4.49117 13.538Z" fill="url(#paint30_radial_7_1511)"/>
<path style="mix-blend-mode:hard-light" d="M4.39051 13.5348C4.38564 13.6532 3.48668 13.7165 2.38002 13.6776C1.27336 13.6386 0.380894 13.512 0.385762 13.3936C0.39063 13.2751 1.28959 13.2119 2.39625 13.2508C3.50291 13.2897 4.39538 13.4163 4.39051 13.5348Z" fill="url(#paint31_radial_7_1511)"/>
<path style="mix-blend-mode:hard-light" d="M3.37959 13.4991C3.36174 13.994 2.90252 14.3802 2.35568 14.3607C1.80884 14.3412 1.37722 13.9242 1.39507 13.4293C1.41291 12.9344 1.87213 12.5482 2.41897 12.5677C2.96743 12.5871 3.39744 13.0042 3.37959 13.4991Z" fill="url(#paint32_radial_7_1511)"/>
<path style="mix-blend-mode:hard-light" d="M2.31526 15.4739C2.19843 15.469 2.13514 14.5668 2.17409 13.4569C2.21303 12.347 2.34122 11.4513 2.45805 11.4561C2.57489 11.461 2.63817 12.3632 2.59922 13.4731C2.56028 14.583 2.43209 15.4787 2.31526 15.4739Z" fill="url(#paint33_radial_7_1511)"/>
<path style="mix-blend-mode:overlay" d="M9.94461 10.734C9.92352 11.3377 9.43672 11.8099 8.85742 11.7904C8.27813 11.7709 7.82703 11.2646 7.84812 10.661C7.86922 10.0574 8.35602 9.58517 8.93531 9.60465C9.51461 9.62412 9.96571 10.1304 9.94461 10.734Z" fill="url(#paint34_radial_7_1511)"/>
<path style="mix-blend-mode:overlay" d="M8.82 12.8078C8.59607 12.7997 8.4484 11.8488 8.49059 10.6837C8.53278 9.51867 8.74697 8.58076 8.9709 8.58725C9.19483 8.59537 9.34249 9.54625 9.3003 10.7113C9.25812 11.8764 9.04392 12.8143 8.82 12.8078Z" fill="url(#paint35_radial_7_1511)"/>
<path style="mix-blend-mode:overlay" d="M10.9992 10.7714C10.9911 10.9953 10.0435 11.1446 8.88164 11.104C7.71981 11.0635 6.78515 10.8493 6.79327 10.6237C6.80138 10.3998 7.74902 10.2505 8.91085 10.2911C10.0727 10.3316 11.0073 10.5458 10.9992 10.7714Z" fill="url(#paint36_radial_7_1511)"/>
<path style="mix-blend-mode:hard-light" d="M10.8986 10.7682C10.8937 10.8866 9.99474 10.9499 8.88808 10.911C7.78142 10.872 6.88895 10.7454 6.89382 10.627C6.89869 10.5085 7.79765 10.4452 8.90431 10.4842C10.011 10.5231 10.9034 10.6497 10.8986 10.7682Z" fill="url(#paint37_radial_7_1511)"/>
<path style="mix-blend-mode:hard-light" d="M9.88765 10.7324C9.8698 11.2273 9.41058 11.6135 8.86374 11.5941C8.31691 11.5746 7.88527 11.1575 7.90312 10.6626C7.92097 10.1677 8.38019 9.78153 8.92703 9.801C9.47549 9.82047 9.9055 10.2375 9.88765 10.7324Z" fill="url(#paint38_radial_7_1511)"/>
<path style="mix-blend-mode:hard-light" d="M8.82478 12.7073C8.70795 12.7024 8.64466 11.8002 8.68361 10.6903C8.72255 9.58038 8.85074 8.68467 8.96757 8.68953C9.08441 8.6944 9.14769 9.59661 9.10875 10.7065C9.0698 11.8164 8.94161 12.7121 8.82478 12.7073Z" fill="url(#paint39_radial_7_1511)"/>
<defs>
<linearGradient id="paint0_linear_7_1511" x1="22.5647" y1="23.6943" x2="1.51866" y2="2.64824" gradientUnits="userSpaceOnUse">
<stop stop-color="#D7AC4C"/>
<stop offset="0.18" stop-color="#FFFFB0"/>
<stop offset="0.33" stop-color="#F4D174"/>
<stop offset="0.37" stop-color="#FBED99"/>
<stop offset="0.39" stop-color="#FAEC97"/>
<stop offset="0.43" stop-color="#DEB04D"/>
<stop offset="0.53" stop-color="#DEB14E"/>
<stop offset="0.56" stop-color="#E1B755"/>
<stop offset="0.59" stop-color="#E6C061"/>
<stop offset="0.61" stop-color="#EDCE72"/>
<stop offset="0.62" stop-color="#F6DF86"/>
<stop offset="0.75" stop-color="#F1D87E"/>
<stop offset="0.77" stop-color="#EACC71"/>
<stop offset="0.78" stop-color="#E1BD60"/>
<stop offset="0.79" stop-color="#DBB354"/>
<stop offset="0.81" stop-color="#D7AD4D"/>
<stop offset="0.85" stop-color="#D7AC4C"/>
<stop offset="1" stop-color="#966424"/>
</linearGradient>
<linearGradient id="paint1_linear_7_1511" x1="21.8263" y1="14.57" x2="5.54772" y2="5.59501" gradientUnits="userSpaceOnUse">
<stop stop-color="#A16C0C"/>
<stop offset="0.23" stop-color="#DFC072"/>
<stop offset="0.56" stop-color="#A8700D"/>
<stop offset="0.75" stop-color="#FADB85"/>
<stop offset="0.8" stop-color="#A16C0C"/>
<stop offset="0.93" stop-color="#6C4405"/>
</linearGradient>
<linearGradient id="paint2_linear_7_1511" x1="19.6032" y1="18.1902" x2="20.004" y2="18.1902" gradientUnits="userSpaceOnUse">
<stop stop-color="#A16C0C"/>
<stop offset="0.18" stop-color="#C9BF70"/>
<stop offset="0.33" stop-color="#BE9134"/>
<stop offset="0.43" stop-color="#A8700D"/>
<stop offset="0.71" stop-color="#C09F46"/>
<stop offset="0.85" stop-color="#A16C0C"/>
<stop offset="1" stop-color="#602400"/>
</linearGradient>
<linearGradient id="paint3_linear_7_1511" x1="-4.82281" y1="7.13009" x2="18.4219" y2="24.3515" gradientUnits="userSpaceOnUse">
<stop stop-color="#B39200"/>
<stop offset="0.06" stop-color="#AD8C00"/>
<stop offset="0.13" stop-color="#9D7B03"/>
<stop offset="0.22" stop-color="#836008"/>
<stop offset="0.26" stop-color="#73500B"/>
<stop offset="0.28" stop-color="#785311"/>
<stop offset="0.36" stop-color="#8A5D24"/>
<stop offset="0.41" stop-color="#91612B"/>
<stop offset="0.43" stop-color="#976707"/>
<stop offset="0.53" stop-color="#D8B364"/>
<stop offset="0.55" stop-color="#D4AD5D"/>
<stop offset="0.58" stop-color="#C99F4A"/>
<stop offset="0.61" stop-color="#B9872B"/>
<stop offset="0.64" stop-color="#A8700D"/>
<stop offset="0.68" stop-color="#815400"/>
<stop offset="0.8" stop-color="#B38136"/>
<stop offset="0.82" stop-color="#A1702C"/>
<stop offset="0.85" stop-color="#80501B"/>
<stop offset="0.88" stop-color="#6C3D10"/>
<stop offset="0.9" stop-color="#65360D"/>
<stop offset="0.91" stop-color="#6E3E0C"/>
<stop offset="0.94" stop-color="#8A570C"/>
<stop offset="0.96" stop-color="#9B660C"/>
<stop offset="0.98" stop-color="#A16C0C"/>
<stop offset="1" stop-color="#B9924B"/>
</linearGradient>
<linearGradient id="paint4_linear_7_1511" x1="23.1083" y1="22.2631" x2="-1.96196" y2="1.5741" gradientUnits="userSpaceOnUse">
<stop stop-color="#D7AC4C"/>
<stop offset="0.18" stop-color="#FFFFB0"/>
<stop offset="0.33" stop-color="#F4D174"/>
<stop offset="0.37" stop-color="#FBED99"/>
<stop offset="0.39" stop-color="#FAEC97"/>
<stop offset="0.43" stop-color="#DEB04D"/>
<stop offset="0.53" stop-color="#DEB14E"/>
<stop offset="0.56" stop-color="#E1B755"/>
<stop offset="0.59" stop-color="#E6C061"/>
<stop offset="0.61" stop-color="#EDCE72"/>
<stop offset="0.62" stop-color="#F6DF86"/>
<stop offset="0.75" stop-color="#F1D87E"/>
<stop offset="0.77" stop-color="#EACC71"/>
<stop offset="0.78" stop-color="#E1BD60"/>
<stop offset="0.79" stop-color="#DBB354"/>
<stop offset="0.81" stop-color="#D7AD4D"/>
<stop offset="0.85" stop-color="#D7AC4C"/>
<stop offset="1" stop-color="#966424"/>
</linearGradient>
<linearGradient id="paint5_linear_7_1511" x1="4.66988" y1="6.5248" x2="18.9542" y2="19.3569" gradientUnits="userSpaceOnUse">
<stop stop-color="#D7AC4C"/>
<stop offset="0.18" stop-color="#FFFFB0"/>
<stop offset="0.33" stop-color="#F4D174"/>
<stop offset="0.43" stop-color="#DEB04D"/>
<stop offset="0.71" stop-color="#F6DF86"/>
<stop offset="0.85" stop-color="#D7AC4C"/>
<stop offset="1" stop-color="#966424"/>
</linearGradient>
<linearGradient id="paint6_linear_7_1511" x1="8.58047" y1="7.38644" x2="9.78287" y2="8.84684" gradientUnits="userSpaceOnUse">
<stop stop-color="#A16C0C"/>
<stop offset="0.23" stop-color="#BE9134"/>
<stop offset="0.56" stop-color="#A8700D"/>
<stop offset="1" stop-color="#432400"/>
</linearGradient>
<linearGradient id="paint7_linear_7_1511" x1="13.5671" y1="10.6902" x2="11.4982" y2="10.2342" gradientUnits="userSpaceOnUse">
<stop stop-color="#A16C0C"/>
<stop offset="0.23" stop-color="#BE9134"/>
<stop offset="0.56" stop-color="#A8700D"/>
<stop offset="1" stop-color="#432400"/>
</linearGradient>
<linearGradient id="paint8_linear_7_1511" x1="9.06255" y1="11.0505" x2="10.2942" y2="10.5037" gradientUnits="userSpaceOnUse">
<stop stop-color="#A16C0C"/>
<stop offset="0.23" stop-color="#BE9134"/>
<stop offset="0.56" stop-color="#A8700D"/>
<stop offset="1" stop-color="#432400"/>
</linearGradient>
<linearGradient id="paint9_linear_7_1511" x1="11.0258" y1="11.8845" x2="9.82337" y2="10.7746" gradientUnits="userSpaceOnUse">
<stop stop-color="#A16C0C"/>
<stop offset="0.23" stop-color="#BE9134"/>
<stop offset="0.56" stop-color="#A8700D"/>
<stop offset="1" stop-color="#432400"/>
</linearGradient>
<linearGradient id="paint10_linear_7_1511" x1="12.6746" y1="14.7275" x2="14.2015" y2="14.7275" gradientUnits="userSpaceOnUse">
<stop stop-color="#A16C0C"/>
<stop offset="0.23" stop-color="#BE9134"/>
<stop offset="0.56" stop-color="#A8700D"/>
<stop offset="1" stop-color="#432400"/>
</linearGradient>
<linearGradient id="paint11_linear_7_1511" x1="15.2314" y1="15.6994" x2="12.5378" y2="14.1027" gradientUnits="userSpaceOnUse">
<stop stop-color="#A16C0C"/>
<stop offset="0.23" stop-color="#BE9134"/>
<stop offset="0.56" stop-color="#A8700D"/>
<stop offset="1" stop-color="#432400"/>
</linearGradient>
<linearGradient id="paint12_linear_7_1511" x1="13.8428" y1="15.3667" x2="14.1202" y2="15.3667" gradientUnits="userSpaceOnUse">
<stop stop-color="#A16C0C"/>
<stop offset="0.18" stop-color="#DBBF7D"/>
<stop offset="0.33" stop-color="#BE9134"/>
<stop offset="0.43" stop-color="#A8700D"/>
<stop offset="0.71" stop-color="#D9AA59"/>
<stop offset="0.85" stop-color="#A16C0C"/>
<stop offset="1" stop-color="#602400"/>
</linearGradient>
<linearGradient id="paint13_linear_7_1511" x1="7.26278" y1="12.003" x2="11.5694" y2="12.003" gradientUnits="userSpaceOnUse">
<stop stop-color="#A16C0C"/>
<stop offset="0.23" stop-color="#BE9134"/>
<stop offset="0.56" stop-color="#A8700D"/>
<stop offset="1" stop-color="#432400"/>
</linearGradient>
<linearGradient id="paint14_linear_7_1511" x1="13.0801" y1="16.1375" x2="10.5844" y2="13.8561" gradientUnits="userSpaceOnUse">
<stop stop-color="#A16C0C"/>
<stop offset="0.23" stop-color="#BE9134"/>
<stop offset="0.56" stop-color="#A8700D"/>
<stop offset="1" stop-color="#432400"/>
</linearGradient>
<linearGradient id="paint15_linear_7_1511" x1="16.671" y1="16.7217" x2="13.6593" y2="16.8288" gradientUnits="userSpaceOnUse">
<stop stop-color="#A16C0C"/>
<stop offset="0.23" stop-color="#BE9134"/>
<stop offset="0.56" stop-color="#A8700D"/>
<stop offset="1" stop-color="#432400"/>
</linearGradient>
<linearGradient id="paint16_linear_7_1511" x1="14.0814" y1="19.0016" x2="12.0271" y2="17.4649" gradientUnits="userSpaceOnUse">
<stop stop-color="#A16C0C"/>
<stop offset="0.23" stop-color="#BE9134"/>
<stop offset="0.56" stop-color="#A8700D"/>
<stop offset="1" stop-color="#432400"/>
</linearGradient>
<linearGradient id="paint17_linear_7_1511" x1="13.8687" y1="18.2227" x2="13.9304" y2="19.12" gradientUnits="userSpaceOnUse">
<stop stop-color="#A16C0C"/>
<stop offset="0.23" stop-color="#BE9134"/>
<stop offset="0.56" stop-color="#A8700D"/>
<stop offset="1" stop-color="#432400"/>
</linearGradient>
<linearGradient id="paint18_linear_7_1511" x1="9.17261" y1="17.3157" x2="12.9194" y2="17.3157" gradientUnits="userSpaceOnUse">
<stop stop-color="#A16C0C"/>
<stop offset="0.23" stop-color="#BE9134"/>
<stop offset="0.56" stop-color="#A8700D"/>
<stop offset="1" stop-color="#432400"/>
</linearGradient>
<linearGradient id="paint19_linear_7_1511" x1="15.6391" y1="17.0511" x2="5.01059" y2="6.05755" gradientUnits="userSpaceOnUse">
<stop stop-color="#D7AC4C"/>
<stop offset="0.18" stop-color="#FFFFB0"/>
<stop offset="0.33" stop-color="#F4D174"/>
<stop offset="0.37" stop-color="#FBED99"/>
<stop offset="0.39" stop-color="#FAEC97"/>
<stop offset="0.43" stop-color="#DEB04D"/>
<stop offset="0.53" stop-color="#DEB14E"/>
<stop offset="0.56" stop-color="#E1B755"/>
<stop offset="0.59" stop-color="#E6C061"/>
<stop offset="0.61" stop-color="#EDCE72"/>
<stop offset="0.62" stop-color="#F6DF86"/>
<stop offset="0.75" stop-color="#F1D87E"/>
<stop offset="0.77" stop-color="#EACC71"/>
<stop offset="0.78" stop-color="#E1BD60"/>
<stop offset="0.79" stop-color="#DBB354"/>
<stop offset="0.81" stop-color="#D7AD4D"/>
<stop offset="0.85" stop-color="#D7AC4C"/>
<stop offset="1" stop-color="#966424"/>
</linearGradient>
<linearGradient id="paint20_linear_7_1511" x1="10.6122" y1="18.5553" x2="8.29984" y2="14.265" gradientUnits="userSpaceOnUse">
<stop stop-color="#A16C0C"/>
<stop offset="0.23" stop-color="#BE9134"/>
<stop offset="0.56" stop-color="#A8700D"/>
<stop offset="1" stop-color="#432400"/>
</linearGradient>
<linearGradient id="paint21_linear_7_1511" x1="7.46244" y1="9.15198" x2="16.1389" y2="16.9473" gradientUnits="userSpaceOnUse">
<stop stop-color="#D7AC4C"/>
<stop offset="0.18" stop-color="#FFFFB0"/>
<stop offset="0.33" stop-color="#F4D174"/>
<stop offset="0.43" stop-color="#DEB04D"/>
<stop offset="0.71" stop-color="#F6DF86"/>
<stop offset="0.85" stop-color="#D7AC4C"/>
<stop offset="1" stop-color="#966424"/>
</linearGradient>
<radialGradient id="paint22_radial_7_1511" cx="0" cy="0" r="1" gradientUnits="userSpaceOnUse" gradientTransform="translate(12.0973 4.32704) rotate(2.01) scale(2.04456 2.13543)">
<stop stop-color="white"/>
<stop offset="0.14" stop-color="#FFF4E1" stop-opacity="0.82"/>
<stop offset="0.38" stop-color="#FFE3B1" stop-opacity="0.53"/>
<stop offset="0.59" stop-color="#FFD68C" stop-opacity="0.3"/>
<stop offset="0.77" stop-color="#FFCD71" stop-opacity="0.14"/>
<stop offset="0.92" stop-color="#FFC761" stop-opacity="0.04"/>
<stop offset="1" stop-color="#FFC55B" stop-opacity="0"/>
</radialGradient>
<radialGradient id="paint23_radial_7_1511" cx="0" cy="0" r="1" gradientUnits="userSpaceOnUse" gradientTransform="translate(12.5126 3.78012) rotate(92.05) scale(4.12158 0.791862)">
<stop stop-color="white"/>
<stop offset="0.14" stop-color="#FFF4E1" stop-opacity="0.82"/>
<stop offset="0.38" stop-color="#FFE3B1" stop-opacity="0.53"/>
<stop offset="0.59" stop-color="#FFD68C" stop-opacity="0.3"/>
<stop offset="0.77" stop-color="#FFCD71" stop-opacity="0.14"/>
<stop offset="0.92" stop-color="#FFC761" stop-opacity="0.04"/>
<stop offset="1" stop-color="#FFC55B" stop-opacity="0"/>
</radialGradient>
<radialGradient id="paint24_radial_7_1511" cx="0" cy="0" r="1" gradientUnits="userSpaceOnUse" gradientTransform="translate(12.5815 3.83202) rotate(2.01) scale(4.10211 0.791864)">
<stop stop-color="white"/>
<stop offset="0.14" stop-color="#FFF4E1" stop-opacity="0.82"/>
<stop offset="0.38" stop-color="#FFE3B1" stop-opacity="0.53"/>
<stop offset="0.59" stop-color="#FFD68C" stop-opacity="0.3"/>
<stop offset="0.77" stop-color="#FFCD71" stop-opacity="0.14"/>
<stop offset="0.92" stop-color="#FFC761" stop-opacity="0.04"/>
<stop offset="1" stop-color="#FFC55B" stop-opacity="0"/>
</radialGradient>
<radialGradient id="paint25_radial_7_1511" cx="0" cy="0" r="1" gradientUnits="userSpaceOnUse" gradientTransform="translate(12.1631 3.23895) rotate(2.01) scale(3.90187 0.414106)">
<stop stop-color="white"/>
<stop offset="0.04" stop-color="#FFFBF4" stop-opacity="0.94"/>
<stop offset="0.19" stop-color="#FFEDCC" stop-opacity="0.69"/>
<stop offset="0.35" stop-color="#FFE0A9" stop-opacity="0.48"/>
<stop offset="0.5" stop-color="#FFD68D" stop-opacity="0.31"/>
<stop offset="0.64" stop-color="#FFCF77" stop-opacity="0.17"/>
<stop offset="0.77" stop-color="#FFC967" stop-opacity="0.08"/>
<stop offset="0.9" stop-color="#FFC65E" stop-opacity="0.02"/>
<stop offset="1" stop-color="#FFC55B" stop-opacity="0"/>
</radialGradient>
<radialGradient id="paint26_radial_7_1511" cx="0" cy="0" r="1" gradientUnits="userSpaceOnUse" gradientTransform="translate(12.0028 3.98911) rotate(2.01) scale(1.93463 1.74727)">
<stop stop-color="white"/>
<stop offset="0.04" stop-color="#FFFBF4" stop-opacity="0.94"/>
<stop offset="0.19" stop-color="#FFEDCC" stop-opacity="0.69"/>
<stop offset="0.35" stop-color="#FFE0A9" stop-opacity="0.48"/>
<stop offset="0.5" stop-color="#FFD68D" stop-opacity="0.31"/>
<stop offset="0.64" stop-color="#FFCF77" stop-opacity="0.17"/>
<stop offset="0.77" stop-color="#FFC967" stop-opacity="0.08"/>
<stop offset="0.9" stop-color="#FFC65E" stop-opacity="0.02"/>
<stop offset="1" stop-color="#FFC55B" stop-opacity="0"/>
</radialGradient>
<radialGradient id="paint27_radial_7_1511" cx="0" cy="0" r="1" gradientUnits="userSpaceOnUse" gradientTransform="translate(11.6302 3.8203) rotate(92.05) scale(3.91615 0.414104)">
<stop stop-color="white"/>
<stop offset="0.06" stop-color="#FFF7E9" stop-opacity="0.87"/>
<stop offset="0.16" stop-color="#FFEBC8" stop-opacity="0.67"/>
<stop offset="0.26" stop-color="#FFE1AB" stop-opacity="0.49"/>
<stop offset="0.37" stop-color="#FFD892" stop-opacity="0.34"/>
<stop offset="0.48" stop-color="#FFD17E" stop-opacity="0.22"/>
<stop offset="0.59" stop-color="#FFCB6E" stop-opacity="0.12"/>
<stop offset="0.71" stop-color="#FFC863" stop-opacity="0.05"/>
<stop offset="0.84" stop-color="#FFC55D" stop-opacity="0.01"/>
<stop offset="1" stop-color="#FFC55B" stop-opacity="0"/>
</radialGradient>
<radialGradient id="paint28_radial_7_1511" cx="0" cy="0" r="1" gradientUnits="userSpaceOnUse" gradientTransform="translate(2.58834 13.6724) rotate(2.01) scale(1.04784 1.09441)">
<stop stop-color="white"/>
<stop offset="0.14" stop-color="#FFF4E1" stop-opacity="0.82"/>
<stop offset="0.38" stop-color="#FFE3B1" stop-opacity="0.53"/>
<stop offset="0.59" stop-color="#FFD68C" stop-opacity="0.3"/>
<stop offset="0.77" stop-color="#FFCD71" stop-opacity="0.14"/>
<stop offset="0.92" stop-color="#FFC761" stop-opacity="0.04"/>
<stop offset="1" stop-color="#FFC55B" stop-opacity="0"/>
</radialGradient>
<radialGradient id="paint29_radial_7_1511" cx="0" cy="0" r="1" gradientUnits="userSpaceOnUse" gradientTransform="translate(2.98133 13.1309) rotate(92.05) scale(2.11231 0.405829)">
<stop stop-color="white"/>
<stop offset="0.14" stop-color="#FFF4E1" stop-opacity="0.82"/>
<stop offset="0.38" stop-color="#FFE3B1" stop-opacity="0.53"/>
<stop offset="0.59" stop-color="#FFD68C" stop-opacity="0.3"/>
<stop offset="0.77" stop-color="#FFCD71" stop-opacity="0.14"/>
<stop offset="0.92" stop-color="#FFC761" stop-opacity="0.04"/>
<stop offset="1" stop-color="#FFC55B" stop-opacity="0"/>
</radialGradient>
<radialGradient id="paint30_radial_7_1511" cx="0" cy="0" r="1" gradientUnits="userSpaceOnUse" gradientTransform="translate(3.07881 13.1672) rotate(2.01001) scale(2.10233 0.40583)">
<stop stop-color="white"/>
<stop offset="0.14" stop-color="#FFF4E1" stop-opacity="0.82"/>
<stop offset="0.38" stop-color="#FFE3B1" stop-opacity="0.53"/>
<stop offset="0.59" stop-color="#FFD68C" stop-opacity="0.3"/>
<stop offset="0.77" stop-color="#FFCD71" stop-opacity="0.14"/>
<stop offset="0.92" stop-color="#FFC761" stop-opacity="0.04"/>
<stop offset="1" stop-color="#FFC55B" stop-opacity="0"/>
</radialGradient>
<radialGradient id="paint31_radial_7_1511" cx="0" cy="0" r="1" gradientUnits="userSpaceOnUse" gradientTransform="translate(2.66028 12.5487) rotate(2.01) scale(2.00414 0.2127)">
<stop stop-color="white"/>
<stop offset="0.04" stop-color="#FFFBF4" stop-opacity="0.94"/>
<stop offset="0.19" stop-color="#FFEDCC" stop-opacity="0.69"/>
<stop offset="0.35" stop-color="#FFE0A9" stop-opacity="0.48"/>
<stop offset="0.5" stop-color="#FFD68D" stop-opacity="0.31"/>
<stop offset="0.64" stop-color="#FFCF77" stop-opacity="0.17"/>
<stop offset="0.77" stop-color="#FFC967" stop-opacity="0.08"/>
<stop offset="0.9" stop-color="#FFC65E" stop-opacity="0.02"/>
<stop offset="1" stop-color="#FFC55B" stop-opacity="0"/>
</radialGradient>
<radialGradient id="paint32_radial_7_1511" cx="0" cy="0" r="1" gradientUnits="userSpaceOnUse" gradientTransform="translate(2.49601 13.3307) rotate(2.01) scale(0.994289 0.898001)">
<stop stop-color="white"/>
<stop offset="0.04" stop-color="#FFFBF4" stop-opacity="0.94"/>
<stop offset="0.19" stop-color="#FFEDCC" stop-opacity="0.69"/>
<stop offset="0.35" stop-color="#FFE0A9" stop-opacity="0.48"/>
<stop offset="0.5" stop-color="#FFD68D" stop-opacity="0.31"/>
<stop offset="0.64" stop-color="#FFCF77" stop-opacity="0.17"/>
<stop offset="0.77" stop-color="#FFC967" stop-opacity="0.08"/>
<stop offset="0.9" stop-color="#FFC65E" stop-opacity="0.02"/>
<stop offset="1" stop-color="#FFC55B" stop-opacity="0"/>
</radialGradient>
<radialGradient id="paint33_radial_7_1511" cx="0" cy="0" r="1" gradientUnits="userSpaceOnUse" gradientTransform="translate(2.12371 13.1698) rotate(92.05) scale(2.01148 0.212699)">
<stop stop-color="white"/>
<stop offset="0.06" stop-color="#FFF7E9" stop-opacity="0.87"/>
<stop offset="0.16" stop-color="#FFEBC8" stop-opacity="0.67"/>
<stop offset="0.26" stop-color="#FFE1AB" stop-opacity="0.49"/>
<stop offset="0.37" stop-color="#FFD892" stop-opacity="0.34"/>
<stop offset="0.48" stop-color="#FFD17E" stop-opacity="0.22"/>
<stop offset="0.59" stop-color="#FFCB6E" stop-opacity="0.12"/>
<stop offset="0.71" stop-color="#FFC863" stop-opacity="0.05"/>
<stop offset="0.84" stop-color="#FFC55D" stop-opacity="0.01"/>
<stop offset="1" stop-color="#FFC55B" stop-opacity="0"/>
</radialGradient>
<radialGradient id="paint34_radial_7_1511" cx="0" cy="0" r="1" gradientUnits="userSpaceOnUse" gradientTransform="translate(9.09017 10.9037) rotate(2.01) scale(1.04784 1.09441)">
<stop stop-color="white"/>
<stop offset="0.14" stop-color="#FFF4E1" stop-opacity="0.82"/>
<stop offset="0.38" stop-color="#FFE3B1" stop-opacity="0.53"/>
<stop offset="0.59" stop-color="#FFD68C" stop-opacity="0.3"/>
<stop offset="0.77" stop-color="#FFCD71" stop-opacity="0.14"/>
<stop offset="0.92" stop-color="#FFC761" stop-opacity="0.04"/>
<stop offset="1" stop-color="#FFC55B" stop-opacity="0"/>
</radialGradient>
<radialGradient id="paint35_radial_7_1511" cx="0" cy="0" r="1" gradientUnits="userSpaceOnUse" gradientTransform="translate(9.5017 10.3639) rotate(92.05) scale(2.11231 0.405829)">
<stop stop-color="white"/>
<stop offset="0.14" stop-color="#FFF4E1" stop-opacity="0.82"/>
<stop offset="0.38" stop-color="#FFE3B1" stop-opacity="0.53"/>
<stop offset="0.59" stop-color="#FFD68C" stop-opacity="0.3"/>
<stop offset="0.77" stop-color="#FFCD71" stop-opacity="0.14"/>
<stop offset="0.92" stop-color="#FFC761" stop-opacity="0.04"/>
<stop offset="1" stop-color="#FFC55B" stop-opacity="0"/>
</radialGradient>
<radialGradient id="paint36_radial_7_1511" cx="0" cy="0" r="1" gradientUnits="userSpaceOnUse" gradientTransform="translate(9.58016 10.4042) rotate(2.01) scale(2.10233 0.40583)">
<stop stop-color="white"/>
<stop offset="0.14" stop-color="#FFF4E1" stop-opacity="0.82"/>
<stop offset="0.38" stop-color="#FFE3B1" stop-opacity="0.53"/>
<stop offset="0.59" stop-color="#FFD68C" stop-opacity="0.3"/>
<stop offset="0.77" stop-color="#FFCD71" stop-opacity="0.14"/>
<stop offset="0.92" stop-color="#FFC761" stop-opacity="0.04"/>
<stop offset="1" stop-color="#FFC55B" stop-opacity="0"/>
</radialGradient>
<radialGradient id="paint37_radial_7_1511" cx="0" cy="0" r="1" gradientUnits="userSpaceOnUse" gradientTransform="translate(9.16469 9.79361) rotate(2.01) scale(2.00415 0.2127)">
<stop stop-color="white"/>
<stop offset="0.04" stop-color="#FFFBF4" stop-opacity="0.94"/>
<stop offset="0.19" stop-color="#FFEDCC" stop-opacity="0.69"/>
<stop offset="0.35" stop-color="#FFE0A9" stop-opacity="0.48"/>
<stop offset="0.5" stop-color="#FFD68D" stop-opacity="0.31"/>
<stop offset="0.64" stop-color="#FFCF77" stop-opacity="0.17"/>
<stop offset="0.77" stop-color="#FFC967" stop-opacity="0.08"/>
<stop offset="0.9" stop-color="#FFC65E" stop-opacity="0.02"/>
<stop offset="1" stop-color="#FFC55B" stop-opacity="0"/>
</radialGradient>
<radialGradient id="paint38_radial_7_1511" cx="0" cy="0" r="1" gradientUnits="userSpaceOnUse" gradientTransform="translate(9.00329 10.5638) rotate(2.01) scale(0.994292 0.898003)">
<stop stop-color="white"/>
<stop offset="0.04" stop-color="#FFFBF4" stop-opacity="0.94"/>
<stop offset="0.19" stop-color="#FFEDCC" stop-opacity="0.69"/>
<stop offset="0.35" stop-color="#FFE0A9" stop-opacity="0.48"/>
<stop offset="0.5" stop-color="#FFD68D" stop-opacity="0.31"/>
<stop offset="0.64" stop-color="#FFCF77" stop-opacity="0.17"/>
<stop offset="0.77" stop-color="#FFC967" stop-opacity="0.08"/>
<stop offset="0.9" stop-color="#FFC65E" stop-opacity="0.02"/>
<stop offset="1" stop-color="#FFC55B" stop-opacity="0"/>
</radialGradient>
<radialGradient id="paint39_radial_7_1511" cx="0" cy="0" r="1" gradientUnits="userSpaceOnUse" gradientTransform="translate(8.6274 10.4102) rotate(92.05) scale(2.01148 0.212699)">
<stop stop-color="white"/>
<stop offset="0.06" stop-color="#FFF7E9" stop-opacity="0.87"/>
<stop offset="0.16" stop-color="#FFEBC8" stop-opacity="0.67"/>
<stop offset="0.26" stop-color="#FFE1AB" stop-opacity="0.49"/>
<stop offset="0.37" stop-color="#FFD892" stop-opacity="0.34"/>
<stop offset="0.48" stop-color="#FFD17E" stop-opacity="0.22"/>
<stop offset="0.59" stop-color="#FFCB6E" stop-opacity="0.12"/>
<stop offset="0.71" stop-color="#FFC863" stop-opacity="0.05"/>
<stop offset="0.84" stop-color="#FFC55D" stop-opacity="0.01"/>
<stop offset="1" stop-color="#FFC55B" stop-opacity="0"/>
</radialGradient>
</defs>
</svg>
