<svg width="16" height="16" viewBox="0 0 16 16" fill="none" xmlns="http://www.w3.org/2000/svg">
<path fill-rule="evenodd" clip-rule="evenodd" d="M7.18284 0.021475C5.91375 0.160747 4.63493 0.618024 3.61866 1.29591C2.62619 1.95795 1.76059 2.85213 1.16738 3.82818C-0.293259 6.23151 -0.389408 9.22034 0.913803 11.7128C1.57447 12.9764 2.61111 14.0816 3.85274 14.8461C4.82895 15.4472 6.08407 15.8608 7.28079 15.9758C7.77397 16.0232 8.68805 15.9983 9.17437 15.9243C10.8739 15.6656 12.4157 14.8861 13.6331 13.67C14.2861 13.0178 14.7309 12.407 15.134 11.6091C16.2887 9.32391 16.2887 6.66917 15.134 4.38396C14.7309 3.58609 14.2861 2.97532 13.6331 2.32306C12.4152 1.10649 10.8789 0.329345 9.17437 0.0676375C8.76617 0.00496505 7.58317 -0.0224317 7.18284 0.021475ZM8.44273 2.64378C8.63591 2.74258 8.79621 2.91324 8.8934 3.12362C8.96177 3.27159 8.96216 3.28963 8.96216 6.36189V9.45138L8.88628 9.60412C8.78599 9.80613 8.62092 9.97195 8.41325 10.0794C8.17857 10.2009 7.82859 10.2053 7.59179 10.0898C7.36081 9.97715 7.1721 9.77534 7.08852 9.55162L7.0183 9.36373L7.02711 6.3017L7.03593 3.23971L7.12417 3.07222C7.22972 2.87185 7.46264 2.65774 7.65049 2.5884C7.86009 2.51102 8.23427 2.53717 8.44273 2.64378ZM8.45615 11.1319C8.7142 11.2287 8.95292 11.451 9.08318 11.7159C9.18201 11.9168 9.19069 11.9598 9.19069 12.2464C9.19069 12.5329 9.18198 12.576 9.08318 12.7771C8.87466 13.2016 8.49617 13.4347 8.01537 13.4347C7.54275 13.4347 7.14533 13.1938 6.93651 12.7807C6.84787 12.6054 6.84004 12.562 6.84004 12.2466C6.84004 11.9345 6.8484 11.887 6.93201 11.7235C7.22568 11.1495 7.8535 10.9058 8.45615 11.1319Z" fill="currentColor"/>
</svg>
