<svg width="24" height="24" viewBox="0 0 24 24" fill="none" xmlns="http://www.w3.org/2000/svg">
<rect width="24" height="24" rx="4" transform="matrix(-1 0 0 1 24 0)" fill="#ACAEAF"/>
<path fill-rule="evenodd" clip-rule="evenodd" d="M19.4238 5.07378C19.6362 5.17029 19.9022 5.47595 19.9615 5.69177C19.9964 5.81898 20.0056 6.96244 19.997 10.1274C19.9859 14.1985 19.982 14.398 19.9104 14.5324C19.8055 14.7295 19.6507 14.8871 19.4624 14.9887C19.3035 15.0744 19.2692 15.0758 16.713 15.0956L14.1244 15.1157L13.8467 15.8791C13.6939 16.299 13.5689 16.6475 13.5689 16.6535C13.5689 16.6596 13.8903 16.6649 14.283 16.6654C14.6757 16.6658 15.11 16.6825 15.2481 16.7025C15.9204 16.7997 16.407 17.2586 16.5447 17.925C16.6008 18.1965 16.5796 18.3195 16.4573 18.4335C16.3705 18.5144 16.334 18.5151 12 18.5151C7.66596 18.5151 7.62951 18.5144 7.5427 18.4335C7.42037 18.3195 7.39921 18.1965 7.45532 17.925C7.59299 17.2586 8.07963 16.7997 8.75185 16.7025C8.88996 16.6825 9.32431 16.6658 9.71702 16.6654C10.1097 16.6649 10.4311 16.6596 10.4311 16.6535C10.4311 16.6475 10.3061 16.299 10.1533 15.8791L9.87564 15.1157L7.28705 15.0956C4.7308 15.0758 4.69648 15.0744 4.53758 14.9887C4.34931 14.8871 4.19455 14.7295 4.08959 14.5324C4.01799 14.398 4.01408 14.1985 4.00302 10.1274C3.99441 6.96244 4.00358 5.81898 4.03854 5.69177C4.09784 5.47595 4.36379 5.17029 4.57624 5.07378C4.73192 5.0031 5.04289 5 12 5C18.9571 5 19.2681 5.0031 19.4238 5.07378ZM4.76177 5.74246C4.68337 5.82151 4.68176 5.89706 4.67013 10.0403L4.65826 14.2576L4.75324 14.3347C4.84601 14.41 5.01328 14.4117 12.0045 14.4117C19.1071 14.4117 19.1613 14.4111 19.2412 14.3313C19.3206 14.2518 19.3216 14.1972 19.3216 10.0331C19.3216 6.0663 19.3174 5.81161 19.2512 5.75393C19.2125 5.72021 19.1537 5.68256 19.1205 5.67025C19.0873 5.65794 15.8609 5.65106 11.9508 5.65496C4.89968 5.66196 4.84086 5.66265 4.76177 5.74246ZM10.5991 15.1492C10.6063 15.1786 10.7298 15.5319 10.8736 15.9342L11.1351 16.6657L11.999 16.6551L12.8629 16.6444L13.1347 15.9002C13.2843 15.4909 13.4069 15.1424 13.4073 15.1258C13.4077 15.1092 12.7731 15.0956 11.9971 15.0956C10.8429 15.0956 10.5885 15.1054 10.5991 15.1492ZM8.60031 17.4235C8.44495 17.494 8.17827 17.7526 8.17827 17.8326C8.17827 17.8572 9.57087 17.8714 12 17.8714C14.4291 17.8714 15.8217 17.8572 15.8217 17.8326C15.8217 17.7526 15.555 17.494 15.3997 17.4235C15.248 17.3545 15.0465 17.3502 12 17.3502C8.95352 17.3502 8.75202 17.3545 8.60031 17.4235Z" fill="white"/>
</svg>
