<svg width="24" height="24" viewBox="0 0 24 24" fill="none" xmlns="http://www.w3.org/2000/svg">
<rect width="24" height="24" rx="4" transform="matrix(-1 0 0 1 24 0)" fill="#ACAEAF"/>
<path fill-rule="evenodd" clip-rule="evenodd" d="M15.5606 4.05867C16.2561 4.24601 16.8346 4.86429 16.9597 5.55396C17.0134 5.85062 17.0134 18.1466 16.9597 18.4433C16.8332 19.1408 16.2517 19.7563 15.5453 19.9403C15.2399 20.0199 8.83402 20.0199 8.5286 19.9403C7.8222 19.7563 7.24072 19.1408 7.11426 18.4433C7.06047 18.1466 7.06047 5.85062 7.11426 5.55396C7.24072 4.85637 7.8222 4.24087 8.5286 4.05688C8.82409 3.97993 15.2743 3.98157 15.5606 4.05867ZM14.706 5.12445C14.6904 5.42247 14.6746 5.48529 14.5645 5.68659C14.4254 5.94096 14.1874 6.14668 13.9312 6.23406C13.6962 6.31422 10.3777 6.31422 10.1427 6.23406C9.87085 6.14133 9.64239 5.93914 9.50487 5.66956C9.39837 5.46077 9.37991 5.38592 9.36667 5.10878L9.35136 4.78895H9.05873C8.88363 4.78895 8.69849 4.81197 8.59785 4.84627C8.36889 4.92429 8.07068 5.2034 7.96393 5.4396L7.87891 5.62769V11.9986V18.3695L7.96393 18.5576C8.07068 18.7938 8.36889 19.0729 8.59785 19.1509C8.7475 19.202 9.12708 19.2083 12.037 19.2083C14.9468 19.2083 15.3264 19.202 15.4761 19.1509C15.705 19.0729 16.0032 18.7938 16.11 18.5576L16.195 18.3695V11.9986V5.62769L16.11 5.4396C16.0071 5.21193 15.7062 4.92475 15.4907 4.84848C15.4036 4.81764 15.2068 4.79337 15.031 4.79177L14.7236 4.78895L14.706 5.12445ZM10.1453 5.00488C10.1453 5.23716 10.21 5.40619 10.3218 5.46601C10.4159 5.51641 13.658 5.51641 13.7521 5.46601C13.8639 5.40619 13.9286 5.23716 13.9286 5.00488V4.78895H12.037H10.1453V5.00488Z" fill="white"/>
</svg>
